<svg width="420" height="49" viewBox="0 0 420 49" fill="none" xmlns="http://www.w3.org/2000/svg">
<path d="M23.4131 32.2177H19.3383V42.4667H22.2321V39.185H23.5098C25.9271 39.185 27.1565 37.9936 27.1565 35.6526C27.1565 33.4439 25.8304 32.2247 23.42 32.2247M22.2321 34.6423H22.4946C23.5582 34.6423 24.159 34.6911 24.159 35.7362C24.159 36.7813 23.5236 36.7743 22.4946 36.7743H22.2321V34.6423Z" fill="#222222"/>
<path d="M32.2053 39.1576C32.2053 40.0982 31.9291 40.4465 31.1901 40.4465C30.4511 40.4465 30.1748 40.0982 30.1748 39.1576V35.3882H27.4675V39.6174C27.4675 41.6588 28.7244 42.69 31.1901 42.69C33.6557 42.69 34.9127 41.6588 34.9127 39.6174V35.3882H32.2053V39.1576Z" fill="#222222"/>
<path d="M39.9959 35.1576C39.2777 35.1576 38.5939 35.3945 38.0966 35.8056V31.2141H35.3893V42.4594H38.0966V41.9856C38.5525 42.4315 39.2224 42.6893 39.9752 42.6893C41.9643 42.6893 43.5183 41.0311 43.5183 38.92C43.5183 36.8089 41.9712 35.1646 40.0028 35.1646M40.7349 38.9339C40.7349 39.7491 40.2031 40.2716 39.3812 40.2716C38.5594 40.2716 38.0276 39.7491 38.0276 38.9339C38.0276 38.1187 38.587 37.5822 39.3812 37.5822C40.1755 37.5822 40.7349 38.1396 40.7349 38.9339Z" fill="#222222"/>
<path d="M46.5292 31.2208H43.8219V42.4661H46.5292V31.2208Z" fill="#222222"/>
<path d="M49.6993 35.3805H46.992V42.4593H49.6993V35.3805Z" fill="#222222"/>
<path d="M48.3459 31.4581C47.5171 31.4581 46.8471 32.1339 46.8471 32.97C46.8471 33.8061 47.5171 34.4819 48.3459 34.4819C49.1746 34.4819 49.8446 33.8061 49.8446 32.97C49.8446 32.1339 49.1746 31.4581 48.3459 31.4581Z" fill="#222222"/>
<path d="M53.9055 35.1586C51.6401 35.1586 49.9964 36.775 49.9964 38.9976C49.9964 41.0669 51.6677 42.6903 53.7949 42.6903C54.4234 42.6903 55.0105 42.5579 55.5354 42.2932L55.6321 42.2444V39.7292L55.3489 39.987C55.0727 40.2448 54.6652 40.405 54.2784 40.405C53.3944 40.405 52.7797 39.7919 52.7797 38.921C52.7797 38.0988 53.422 37.4509 54.237 37.4509C54.5892 37.4509 54.9691 37.5972 55.3627 37.8898L55.6321 38.0918V35.6324L55.5423 35.5836C55.0588 35.3119 54.4856 35.1656 53.8985 35.1656" fill="#222222"/>
<path d="M78.9279 32.2172H76.0341V42.4662H81.9875V39.944H78.9279V32.2172Z" fill="#222222"/>
<path d="M83.7487 31.4586C82.9199 31.4586 82.25 32.1344 82.25 32.9705C82.25 33.8066 82.9199 34.4824 83.7487 34.4824C84.5775 34.4824 85.2474 33.8066 85.2474 32.9705C85.2474 32.1344 84.5775 31.4586 83.7487 31.4586Z" fill="#222222"/>
<path d="M85.1025 35.3805H82.3952V42.4593H85.1025V35.3805Z" fill="#222222"/>
<path d="M90.1787 35.1571C89.4604 35.1571 88.7767 35.394 88.2794 35.8051V31.2136H85.5721V42.4589H88.2794V41.9851C88.7352 42.431 89.4052 42.6888 90.158 42.6888C92.1471 42.6888 93.701 41.0306 93.701 38.9195C93.701 36.8084 92.154 35.1641 90.1856 35.1641M90.9177 38.9334C90.9177 39.7486 90.3859 40.2711 89.564 40.2711C88.7421 40.2711 88.2104 39.7486 88.2104 38.9334C88.2104 38.1182 88.7698 37.5817 89.564 37.5817C90.3583 37.5817 90.9177 38.1391 90.9177 38.9334Z" fill="#222222"/>
<path d="M104.572 35.8052C104.075 35.3941 103.398 35.1572 102.673 35.1572C101.139 35.1572 99.8685 36.1536 99.3781 37.5889V35.3732H98.7565C97.9001 35.3732 97.2163 35.6659 96.7398 36.2302V35.3802H94.0324V42.459H96.7398V39.5676C96.7398 38.2577 97.1818 37.7003 98.2109 37.7003C98.5493 37.7003 98.8325 37.7352 99.1295 37.9024L99.2676 37.979C99.1985 38.2786 99.1571 38.5852 99.1571 38.9057C99.1571 41.0238 100.711 42.675 102.7 42.675C103.46 42.675 104.13 42.4242 104.579 41.9783V42.4521H107.286V35.3732H104.579V35.7982L104.572 35.8052ZM104.648 38.9336C104.648 39.7487 104.116 40.2713 103.294 40.2713C102.472 40.2713 101.94 39.7487 101.94 38.9336C101.94 38.1184 102.5 37.5819 103.294 37.5819C104.088 37.5819 104.648 38.1393 104.648 38.9336Z" fill="#222222"/>
<path d="M119.428 35.3802L117.784 38.6339L116.106 35.3802H113.15L112.528 35.3732C111.672 35.3732 110.988 35.6658 110.511 36.2302V35.3802H107.804V42.459H110.511V39.5676C110.511 38.2577 110.953 37.7003 111.982 37.7003C112.321 37.7003 112.604 37.7351 112.901 37.9024L113.15 38.0417V35.8191L116.306 41.3651L113.937 45.8173H116.976L122.508 35.3732H119.428V35.3802Z" fill="#222222"/>
<path d="M40.3134 16.8474L48.0142 10.8206V27.0406L40.3134 16.8474ZM22.1562 16.9101C21.2238 15.9695 20.3674 15.4957 19.2002 14.9522C20.3674 14.4018 21.2238 13.935 22.1562 12.9944C22.8054 12.3116 23.206 11.6079 23.4546 10.953V18.9654C23.206 18.3105 22.8054 17.6068 22.1562 16.917M13.9719 10.9391C13.2744 11.8796 12.0657 11.8796 11.0574 11.8796H9.42744V7.4066H11.0988C11.679 7.4066 12.6528 7.4066 13.1984 7.64349C13.6611 7.83858 14.4001 8.389 14.4001 9.60132C14.4001 10.1099 14.2827 10.5419 13.9719 10.9321M13.157 22.2262C12.6113 22.4631 11.6375 22.4631 11.0574 22.4631H9.386V17.99H11.0159C12.0243 17.99 13.2329 17.99 13.9305 18.9306C14.2413 19.3208 14.3587 19.7528 14.3587 20.2614C14.3587 21.4737 13.6197 22.0241 13.1501 22.2192M102.631 12.0469C100.842 9.57345 98.0037 9.37836 97.0713 9.37836C93.2589 9.37836 91.1662 12.0051 90.3443 12.9108L90.4618 9.7337H72.5946L69.8734 19.8085L66.9588 9.7337H57.5314V0.57163H48.0073V9.85215H37.8133L32.8475 13.8166V0.585564H23.4546V5.88772C23.2405 5.28853 22.9159 4.64056 22.4255 4.00654C21.8454 3.26103 21.1409 2.63397 20.3674 2.16019C17.9984 0.67614 15.5881 0.634336 12.9083 0.599499H2.28882e-05V29.298H12.9083C15.5881 29.2562 17.9984 29.2214 20.3743 27.7304C21.1547 27.2636 21.8523 26.6295 22.4324 25.891C22.9228 25.25 23.2474 24.609 23.4615 24.0098V29.2284H32.813V23.8078L33.8766 22.909L39.0012 29.2284H57.5383V11.7403L64.9421 28.0091L58.0632 42.4663H68.1675L81.5247 11.9842V29.2214H91.0834V19.2232C91.0834 19.07 90.9659 17.8089 91.7809 17.2236C92.1677 16.9519 92.5959 16.9519 92.7547 16.9519C93.2244 16.9519 94.1913 17.1121 94.4261 18.3663C94.4676 18.5265 94.4675 18.7982 94.4675 19.2302V29.2284H103.992V18.2896C103.992 16.1297 103.95 13.9002 102.631 12.0538" fill="#222222"/>
<path d="M141.872 1.02806H140.844V48.3186H141.872V1.02806Z" fill="#222222"/>
<path d="M168.526 1.99994C163.298 1.99994 159.803 5.72051 159.803 10.9391C159.803 16.1576 163.464 19.8503 168.271 19.8503C170.564 19.8503 172.801 19.063 174.728 17.5093L174.701 19.6552C172.774 20.8954 170.425 21.5434 168.353 21.5434C162.345 21.5434 157.842 17.2863 157.842 10.9391C157.842 4.5918 162.428 0.397452 168.353 0.397452C170.895 0.397452 173.077 1.10115 174.866 2.51553L174.811 4.54303C172.856 2.84996 170.867 2.00691 168.519 2.00691L168.526 1.99994Z" fill="#222222"/>
<path d="M179.342 0.842091H189.239V2.56303H181.158V8.88242H189.239V10.6034H181.158V19.2847H189.239V21.0056H179.342V0.842091Z" fill="#222222"/>
<path d="M194.239 0L208.384 16.861V0.84305H210.089V21.5988L195.945 4.70993V21.0066H194.239V0Z" fill="#222222"/>
<path d="M219.165 2.56303H213.66V0.842091H226.486V2.56303H220.981V21.0056H219.165V2.56303Z" fill="#222222"/>
<path d="M230.036 0.842091H239.933V2.56303H231.852V8.88242H239.933V10.6034H231.852V19.2847H239.933V21.0056H230.036V0.842091Z" fill="#222222"/>
<path d="M254.851 21.0056L247.834 11.3907H246.742V21.0056H244.926V0.842091H248.586C252.917 0.842091 255.072 2.64664 255.072 6.33933C255.072 9.49554 253.089 11.3837 249.871 11.3837L257.054 20.9986H254.844L254.851 21.0056ZM246.742 9.89965H248.559C251.66 9.89965 253.117 9.16808 253.117 6.29056C253.117 3.41304 251.75 2.45852 248.559 2.45852H246.742V9.89965Z" fill="#222222"/>
<path d="M270.895 0.843915H280.792V2.56485H272.712V8.88424H280.481V10.6052H272.712V21.0074H270.895V0.843915Z" fill="#222222"/>
<path d="M302.755 18.4432C300.718 20.4428 298.059 21.5437 295.179 21.5437C292.299 21.5437 289.646 20.4428 287.63 18.4432C285.62 16.4436 284.501 13.789 284.501 10.9742C284.501 8.15939 285.592 5.44908 287.63 3.44945C289.64 1.44982 292.243 0.404721 295.179 0.404721C298.114 0.404721 300.738 1.44982 302.755 3.44945C304.792 5.44908 305.884 8.13152 305.884 10.9742C305.884 13.8169 304.765 16.4714 302.755 18.4432ZM303.957 10.9742C303.957 5.98557 300.041 2.00721 295.179 2.00721C290.316 2.00721 286.428 5.9577 286.428 10.9742C286.428 15.9907 290.282 19.9133 295.179 19.9133C300.075 19.9133 303.957 15.935 303.957 10.9742Z" fill="#222222"/>
<path d="M320.359 21.0074L313.342 11.3925H312.251V21.0074H310.435V0.843915H314.095C318.426 0.843915 320.58 2.64846 320.58 6.34116C320.58 9.49737 318.598 11.3855 315.38 11.3855L322.563 21.0005H320.353L320.359 21.0074ZM312.251 9.90147H314.068C317.169 9.90147 318.626 9.1699 318.626 6.29238C318.626 3.41487 317.258 2.46034 314.068 2.46034H312.251V9.90147Z" fill="#222222"/>
<path d="M158.802 27.5694H162.269C164.451 27.5694 166.012 27.6251 167.269 28.5587C168.581 29.5481 169.307 31.0391 169.307 32.8158C169.307 34.9617 168.105 36.5642 166.178 37.045C168.72 37.4142 170.287 39.2188 170.287 41.8106C170.287 43.8939 169.59 45.4476 168.222 46.5206C166.71 47.705 164.838 47.7329 162.296 47.7329H158.802V27.5694ZM162.884 36.5364C165.874 36.5364 167.442 35.8048 167.442 32.9551C167.442 29.9383 166.047 29.1788 162.884 29.1788H160.618V36.5364H162.884ZM163.305 46.1513C164.845 46.1513 166.019 46.1234 166.938 45.4197C167.773 44.7718 168.333 43.5037 168.333 42.1799C168.333 40.5147 167.718 39.2745 166.737 38.6823C165.874 38.1458 164.838 38.1179 163.636 38.1179H160.618V46.1513H163.305Z" fill="#222222"/>
<path d="M184.708 47.7259L177.691 38.111H176.6V47.7259H174.783V27.5694H178.444C182.774 27.5694 184.929 29.3739 184.929 33.0666C184.929 36.2228 182.947 38.111 179.728 38.111L186.911 47.7259H184.701H184.708ZM176.6 36.62H178.416C181.517 36.62 182.974 35.8884 182.974 33.0109C182.974 30.1334 181.607 29.1788 178.416 29.1788H176.6V36.62Z" fill="#222222"/>
<path d="M207.376 45.1632C205.338 47.1628 202.679 48.2637 199.799 48.2637C196.919 48.2637 194.267 47.1628 192.25 45.1632C190.233 43.1636 189.122 40.509 189.122 37.6942C189.122 34.8794 190.213 32.1691 192.25 30.1695C194.26 28.1698 196.864 27.1247 199.799 27.1247C202.734 27.1247 205.359 28.1698 207.376 30.1695C209.413 32.1691 210.504 34.8515 210.504 37.6942C210.504 40.5369 209.385 43.1914 207.376 45.1632ZM208.577 37.6942C208.577 32.7056 204.661 28.7272 199.799 28.7272C194.937 28.7272 191.048 32.6777 191.048 37.6942C191.048 42.7107 194.902 46.6333 199.799 46.6333C204.696 46.6333 208.577 42.655 208.577 37.6942Z" fill="#222222"/>
<path d="M232.384 45.1632C230.347 47.1628 227.688 48.2637 224.808 48.2637C221.928 48.2637 219.276 47.1628 217.259 45.1632C215.249 43.1636 214.13 40.509 214.13 37.6942C214.13 34.8794 215.221 32.1691 217.259 30.1695C219.269 28.1698 221.872 27.1247 224.808 27.1247C227.743 27.1247 230.367 28.1698 232.384 30.1695C234.422 32.1691 235.513 34.8515 235.513 37.6942C235.513 40.5369 234.394 43.1914 232.384 45.1632ZM233.586 37.6942C233.586 32.7056 229.677 28.7272 224.808 28.7272C219.939 28.7272 216.057 32.6777 216.057 37.6942C216.057 42.7107 219.911 46.6333 224.808 46.6333C229.704 46.6333 233.586 42.655 233.586 37.6942Z" fill="#222222"/>
<path d="M240.064 27.5694H241.88V37.0171L250.907 27.5694H253.283L243.807 37.2122L253.732 47.7259H251.107L241.887 37.4909V47.7259H240.071V27.5694H240.064Z" fill="#222222"/>
<path d="M256.667 27.5694H258.484V46.012H265.328V47.7329H256.667V27.5694Z" fill="#222222"/>
<path d="M270.978 38.4524L264.354 27.5694H266.537L271.903 36.815L277.297 27.5694H279.362L272.794 38.4524V47.7259H270.978V38.4524Z" fill="#222222"/>
<path d="M282.511 26.727L296.656 43.588V27.57H298.362V48.3188L284.217 31.43V47.7266H282.511V26.72V26.727Z" fill="#222222"/>
<path d="M312.831 27.5839H314.648V35.7636H325.519V27.5839H327.335V47.7405H325.519V37.3382H314.648V47.7405H312.831V27.5839Z" fill="#222222"/>
<path d="M332.867 27.5839H334.684V47.7405H332.867V27.5839Z" fill="#222222"/>
<path d="M340.216 43.5108C340.775 45.5105 342.343 46.6392 344.297 46.6392C346.811 46.6392 348.324 45.0855 348.324 42.3821C348.324 39.9017 346.873 38.9681 344.525 37.7279C341.369 36.0627 339.525 34.7668 339.525 31.945C339.525 29.1232 341.618 27.0958 344.698 27.0958C346.708 27.0958 348.193 27.9667 349.111 29.6597L347.716 30.5028C347.157 29.3462 346.038 28.7261 344.587 28.7261C342.605 28.7261 341.376 29.9942 341.376 31.9659C341.376 34.4184 343.192 34.9828 345.789 36.4181C348.724 38.0275 350.064 39.3235 350.064 42.3682C350.064 45.9773 347.827 48.2626 344.221 48.2626C341.597 48.2626 339.718 46.9388 338.662 44.3469L340.229 43.5039L340.216 43.5108Z" fill="#222222"/>
<path d="M358.207 29.3049H352.703V27.5839H365.528V29.3049H360.024V47.7475H358.207V29.3049Z" fill="#222222"/>
<path d="M384.873 45.176C382.836 47.1756 380.177 48.2764 377.297 48.2764C374.417 48.2764 371.765 47.1756 369.748 45.176C367.738 43.1763 366.619 40.5218 366.619 37.707C366.619 34.8922 367.711 32.1819 369.748 30.1822C371.758 28.1826 374.362 27.1375 377.297 27.1375C380.232 27.1375 382.857 28.1826 384.873 30.1822C386.911 32.1819 388.002 34.8643 388.002 37.707C388.002 40.5496 386.883 43.2042 384.873 45.176ZM386.075 37.707C386.075 32.7183 382.159 28.74 377.297 28.74C372.435 28.74 368.546 32.6905 368.546 37.707C368.546 42.7235 372.4 46.6461 377.297 46.6461C382.194 46.6461 386.075 42.6677 386.075 37.707Z" fill="#222222"/>
<path d="M402.478 47.7405L395.461 38.1255H394.37V47.7405H392.553V27.5839H396.214C400.544 27.5839 402.699 29.3885 402.699 33.0812C402.699 36.2374 400.717 38.1255 397.498 38.1255L404.681 47.7405H402.471H402.478ZM394.377 36.6345H396.193C399.294 36.6345 400.751 35.903 400.751 33.0254C400.751 30.1479 399.384 29.1934 396.193 29.1934H394.377V36.6345Z" fill="#222222"/>
<path d="M411.615 38.4669L404.992 27.5839H407.175L412.541 36.8296L417.935 27.5839H420L413.432 38.4669V47.7405H411.615V38.4669Z" fill="#222222"/>
</svg>
