<svg width="39" height="39" viewBox="0 0 39 39" fill="none" xmlns="http://www.w3.org/2000/svg">
<rect x="0.77" y="0.77" width="36.96" height="36.96" rx="18.48" fill="#001C40"/>
<rect x="0.77" y="0.77" width="36.96" height="36.96" rx="18.48" stroke="#E2DDBD" stroke-width="1.54"/>
<path d="M19.2194 27.2048C19.1054 27.2048 19.0113 27.1153 19.0081 27.0022L18.9984 26.6539C18.9984 26.6514 18.9983 26.6488 18.9984 26.6464L19.0014 26.3045L18.9835 25.9627C18.9831 25.9558 18.9831 25.9489 18.9835 25.942L19 25.6028L18.9897 25.2629C18.9894 25.2536 18.9897 25.2443 18.9907 25.2351L19.0266 24.896L19.0353 24.5628L19.0239 24.2275L19.0161 24.1454C19.0154 24.1383 19.0151 24.1311 19.0152 24.124L19.0162 24.0021L19.013 23.9689C19.0125 23.9642 19.0122 23.9595 19.012 23.9548L19.0021 23.6104C19.0018 23.6012 19.0022 23.592 19.0032 23.5828L19.0376 23.2573L19.009 22.9335C19.0087 22.93 19.0084 22.9266 19.0083 22.9231L18.9953 22.5793C18.9952 22.5764 18.9951 22.5736 18.9952 22.5707L18.9965 22.231L18.9827 21.88C18.9825 21.874 18.9825 21.8679 18.9828 21.8618L19.0004 21.5062L19.0129 21.162L18.9974 20.8154C18.9972 20.8105 18.9971 20.8056 18.9973 20.8007L19.0069 20.4511L18.9977 20.1043L18.9788 19.7521C18.9785 19.7468 18.9784 19.7415 18.9786 19.7362L18.9872 19.3812L19.0013 19.0277L18.9998 18.6818L18.9821 18.3316C18.9818 18.3272 18.9818 18.3229 18.9818 18.3186L18.9863 17.9636C18.9863 17.9611 18.9864 17.9586 18.9866 17.9562L19.0035 17.608L18.9972 17.2598L18.9881 16.9064C18.988 16.9002 18.9881 16.8939 18.9885 16.8877L19.0116 16.5346L19.0032 16.1846L18.9837 15.8256C18.9835 15.822 18.9834 15.8183 18.9834 15.8146L18.9831 15.4529C18.9831 15.4467 18.9833 15.4404 18.9839 15.4342L19.0159 15.0815V14.7324L19.0036 14.3741C19.0034 14.3699 19.0034 14.3657 19.0036 14.3614L19.0134 14.0045L19.0065 13.6573L18.9664 13.3049C18.9651 13.2927 18.9648 13.2805 18.9655 13.2682L19.0097 12.5647L18.9668 12.2217C18.9656 12.2125 18.9651 12.2032 18.9652 12.1939L18.9726 11.4705C18.9726 11.4644 18.973 11.4582 18.9736 11.452L19.0087 11.0993L19.013 10.7514L19.0006 10.4012L18.9651 10.046C18.9637 10.0314 18.9638 10.0166 18.9655 10.002L19.0058 9.65284L19.0006 8.94605L18.9852 8.6025C18.9849 8.59697 18.9849 8.59138 18.9851 8.58589L18.9975 8.24335L18.9955 7.90065C18.9954 7.88867 18.9965 7.87664 18.9985 7.86486L19.0547 7.5358L19.0591 7.21154L19.0425 6.87065C19.0423 6.86471 19.0422 6.85877 19.0425 6.85283L19.0558 6.50651C19.056 6.50183 19.0563 6.4971 19.0568 6.49247L19.0934 6.15219L19.1088 5.86945C19.1078 5.86457 19.1068 5.85974 19.1061 5.8547C19.0895 5.74077 19.1697 5.63515 19.2853 5.61874L19.293 5.61768C19.3557 5.60857 19.4191 5.62805 19.4657 5.67019C19.5125 5.71233 19.5376 5.77284 19.5342 5.83517L19.5153 6.17998C19.5151 6.18355 19.5148 6.18713 19.5145 6.1907L19.4781 6.52937L19.4655 6.85968L19.4819 7.19804C19.4821 7.20227 19.4822 7.20655 19.4821 7.21078L19.4775 7.55745C19.4773 7.56813 19.4764 7.5788 19.4745 7.58932L19.4186 7.91646L19.4205 8.24541C19.4205 8.24828 19.4205 8.25115 19.4204 8.25402L19.4081 8.59254L19.4233 8.93165C19.4234 8.93422 19.4235 8.93679 19.4235 8.93931L19.4288 9.66245C19.4288 9.67086 19.4284 9.67922 19.4275 9.68753L19.3883 10.0273L19.4222 10.3669C19.4226 10.3713 19.4229 10.3756 19.4231 10.38L19.436 10.7417C19.4361 10.745 19.4361 10.7483 19.4361 10.7516L19.4316 11.1133C19.4316 11.1193 19.4312 11.1253 19.4306 11.1312L19.3955 11.4837L19.3884 12.1845L19.432 12.5324C19.4336 12.545 19.434 12.5577 19.4332 12.5703L19.3889 13.2767L19.428 13.6204C19.4287 13.6267 19.4291 13.6331 19.4293 13.6395L19.4365 14.0011C19.4365 14.0044 19.4365 14.0077 19.4365 14.011L19.4267 14.3664L19.4389 14.7219C19.439 14.7242 19.439 14.7266 19.439 14.729V15.0908C19.439 15.097 19.4387 15.1032 19.4382 15.1094L19.4062 15.4619L19.4065 15.8089L19.4258 16.1654C19.426 16.1675 19.426 16.1695 19.4261 16.1716L19.4349 16.5339C19.435 16.54 19.4349 16.5462 19.4345 16.5522L19.4114 16.9052L19.4203 17.2508L19.4267 17.6074C19.4267 17.612 19.4267 17.6165 19.4264 17.6211L19.4093 17.9724L19.405 18.3173L19.4226 18.6658C19.4228 18.6689 19.4229 18.6721 19.4229 18.6753L19.4245 19.0304C19.4245 19.0335 19.4245 19.0365 19.4243 19.0396L19.4101 19.3945L19.4018 19.7382L19.4203 20.0853C19.4204 20.0871 19.4205 20.0889 19.4206 20.0908L19.43 20.4458C19.4301 20.4495 19.4301 20.4531 19.43 20.4569L19.4205 20.8046L19.436 21.1521C19.4362 21.1576 19.4363 21.1632 19.4361 21.1687L19.4232 21.5239L19.4059 21.873L19.4195 22.2194C19.4197 22.2223 19.4197 22.2253 19.4197 22.2283L19.4183 22.5682L19.4309 22.9025L19.4609 23.241C19.4621 23.2543 19.462 23.2676 19.4605 23.2808L19.4254 23.6125L19.4348 23.9359L19.4384 23.973C19.4391 23.9803 19.4395 23.9876 19.4394 23.995L19.4383 24.117L19.4458 24.1947C19.4462 24.1989 19.4464 24.2031 19.4466 24.2074L19.4583 24.5552C19.4584 24.5593 19.4584 24.5634 19.4583 24.5675L19.4492 24.915C19.4491 24.9204 19.4487 24.9259 19.4482 24.9313L19.4129 25.2645L19.423 25.5985C19.4232 25.6039 19.4232 25.6093 19.4229 25.6147L19.4066 25.9517L19.4243 26.2895C19.4245 26.2936 19.4246 26.2978 19.4245 26.302L19.4215 26.6463L19.4311 26.9908C19.4343 27.1059 19.3423 27.2017 19.2256 27.2049C19.2236 27.2049 19.2216 27.2049 19.2197 27.2049L19.2194 27.2048Z" fill="#FDF9E1"/>
<path d="M27.3754 33.1098H27.3745L27.0105 33.1083C27.0042 33.1083 26.9981 33.108 26.9919 33.1074L26.6443 33.0758L26.2966 33.0976C26.289 33.0981 26.2813 33.0981 26.2738 33.0978L25.5603 33.0684L25.2097 33.0991C25.2037 33.0996 25.1978 33.0999 25.1917 33.0999L24.8276 33.1012C24.8252 33.1012 24.8233 33.1012 24.8212 33.1012L24.4624 33.0919L24.1033 33.0998C24.1002 33.0999 24.0971 33.0999 24.094 33.0998L23.3718 33.0829L23.0145 33.0965C23.006 33.0968 22.9975 33.0968 22.9891 33.096L22.6377 33.0678L22.2861 33.0812C22.2814 33.0814 22.2768 33.0815 22.2722 33.0813L21.9121 33.0717L21.5591 33.0747L21.2021 33.1011C21.1934 33.1018 21.1847 33.102 21.1761 33.1015L20.8178 33.0845L19.735 33.0899L19.3757 33.1063C19.3679 33.1066 19.3599 33.1066 19.3521 33.106L19.0026 33.0833L18.6531 33.1084C18.6405 33.1094 18.628 33.109 18.6154 33.1078L18.2633 33.0709L17.5473 33.0772C17.5453 33.0771 17.5434 33.0772 17.5415 33.0772L17.1821 33.0708L16.8277 33.0804L16.4684 33.1069C16.4617 33.1074 16.4552 33.1077 16.4481 33.1074L16.0838 33.0998C16.0816 33.0998 16.0792 33.0997 16.0769 33.0995L15.7162 33.0801L15.3683 33.0731L15.0166 33.1078C15.0067 33.1088 14.9965 33.109 14.9867 33.1087L14.2706 33.0793L13.9186 33.1052C13.9101 33.1058 13.9015 33.1059 13.8932 33.1055L13.5289 33.0891L13.1695 33.0703L12.8118 33.0731L12.4501 33.0807L12.0805 33.08L11.7136 33.0755L11.3812 33.0776L11.0413 33.0745L10.7116 33.0774L10.3781 33.0905C10.3123 33.0931 10.2512 33.0663 10.209 33.0179L10.0755 32.8643C10.0421 32.8258 10.024 32.7767 10.0246 32.7261L10.0288 32.3992L10.0226 32.0723L10.0102 31.7466C10.008 31.6896 10.0296 31.6341 10.0701 31.5932C10.1105 31.5524 10.1644 31.5288 10.2241 31.5304L10.2638 31.5309L10.5855 31.5286C10.5963 31.5295 10.6044 31.5291 10.6137 31.5302L10.9299 31.5699L11.2415 31.5846L11.5621 31.5826C11.5658 31.5828 11.5691 31.5826 11.5725 31.5827L11.9208 31.5974L12.2692 31.5758C12.276 31.5753 12.2829 31.5751 12.2897 31.5755L13.0013 31.6009L13.3525 31.587C13.3562 31.5868 13.36 31.5868 13.3638 31.5868L13.7144 31.5914L14.0653 31.5662C14.0775 31.5653 14.09 31.5655 14.1022 31.5668L14.4522 31.6022L14.8045 31.6046L15.1667 31.5766C15.1726 31.5761 15.1788 31.5759 15.1846 31.576L15.556 31.5782C15.5607 31.5782 15.5655 31.5784 15.5702 31.5788L15.9287 31.6047L16.2873 31.5878C16.2919 31.5875 16.2964 31.5874 16.301 31.5875L16.6724 31.5936L17.039 31.6024L17.4005 31.5893L17.7683 31.5638C17.778 31.5632 17.7877 31.5632 17.7973 31.5638L18.1628 31.5882L18.5283 31.5925L18.8964 31.591C18.8996 31.5912 18.9018 31.591 18.9046 31.5911L19.2645 31.6033L19.6245 31.5766C19.6335 31.5759 19.6425 31.5758 19.6516 31.5763L20.0079 31.5949L20.3645 31.5628C20.3737 31.5619 20.383 31.5617 20.3922 31.5621L20.7558 31.5765L21.118 31.5629C21.1269 31.5626 21.1358 31.5628 21.1446 31.5636L21.5007 31.5946L21.857 31.5776C21.8645 31.5772 21.8719 31.5773 21.8793 31.5777L22.2417 31.5982L22.604 31.5909C22.6078 31.591 22.6114 31.5909 22.615 31.591L22.9772 31.6023L23.3395 31.5852C23.3424 31.5851 23.3452 31.585 23.348 31.585L23.7185 31.5821L24.088 31.5877L24.4527 31.5731C24.4574 31.5729 24.4621 31.5728 24.4667 31.573L24.8346 31.5824H25.2025L25.5714 31.5789C25.5737 31.5789 25.5762 31.5789 25.5785 31.5789L25.9445 31.5877L26.3107 31.5804L26.6858 31.5801L27.0067 31.5766L27.3285 31.5368C27.3354 31.5359 27.3424 31.5355 27.3494 31.5353L27.686 31.5269C27.691 31.5268 27.6958 31.5269 27.7008 31.527L28.0399 31.5421C28.0879 31.5442 28.1338 31.5624 28.1699 31.5937L28.4181 31.8086C28.4697 31.8532 28.496 31.9198 28.4888 31.9872L28.4839 32.0325L28.4551 32.3335L28.4655 32.6383C28.4669 32.6798 28.4557 32.7208 28.4334 32.756L28.2828 32.9929C28.2443 33.0534 28.177 33.0903 28.1046 33.0906L27.7452 33.0922L27.3857 33.1094C27.3823 33.1096 27.3789 33.1097 27.3755 33.1097L27.3754 33.1098ZM27.0215 32.6915L27.3707 32.6929L27.7293 32.6757C27.7324 32.6755 27.7355 32.6754 27.7386 32.6754L27.9863 32.6743L28.0407 32.5887L28.032 32.3342C28.0317 32.3254 28.032 32.3164 28.0329 32.3077L28.0574 32.0512L27.9467 31.9553L27.6892 31.9439L27.3707 31.9518L27.0474 31.9917C27.0395 31.9927 27.0315 31.9932 27.0234 31.9933L26.6883 31.997L26.3152 31.9972L25.9483 32.0046C25.9452 32.0046 25.9419 32.0046 25.9389 32.0046L25.5718 31.9958L25.2045 31.9992H24.8318C24.83 31.9992 24.8282 31.9992 24.8263 31.9992L24.4628 31.99L24.0993 32.0045C24.0953 32.0046 24.0915 32.0046 24.0874 32.0047L23.7168 31.999L23.3556 32.0019L22.9891 32.0192C22.9835 32.0195 22.9778 32.0195 22.9723 32.0193L22.6071 32.0079L22.2421 32.0152C22.2365 32.0154 22.2311 32.0152 22.2257 32.0149L21.8664 31.9946L21.5069 32.0117C21.4973 32.0124 21.4877 32.0121 21.4781 32.0112L21.1209 31.98L20.7638 31.9934C20.7582 31.9936 20.7527 31.9936 20.7473 31.9934L20.3893 31.9792L20.0313 32.0115C20.0212 32.0124 20.0111 32.0125 20.0009 32.012L19.6429 31.9934L19.2848 32.0199C19.2771 32.0205 19.2694 32.0207 19.2617 32.0204L18.8943 32.0079L18.527 32.0094L18.1521 32.0051C18.1482 32.0051 18.1443 32.0049 18.1404 32.0046L17.7835 31.9808L17.4268 32.0055C17.4245 32.0056 17.4221 32.0058 17.4197 32.0059L17.0483 32.0193C17.044 32.0194 17.0396 32.0194 17.0354 32.0193L16.664 32.0104L16.3011 32.0045L15.9365 32.0217C15.928 32.0223 15.9194 32.0221 15.9108 32.0214L15.5465 31.995L15.1911 31.9929L14.8288 32.021C14.8228 32.0215 14.817 32.0217 14.8107 32.0216L14.4393 32.019C14.4326 32.019 14.4259 32.0186 14.4192 32.018L14.0777 31.9834L13.7362 32.0079C13.7302 32.0083 13.7239 32.0083 13.7181 32.0084L13.364 32.0038L13.0102 32.0178C13.0048 32.018 12.9992 32.018 12.9937 32.0178L12.2857 31.9925L11.9364 32.0142C11.9291 32.0147 11.9215 32.0147 11.9141 32.0145L11.5597 31.9995L11.2386 32.0016C11.2347 32.0017 11.2309 32.0016 11.227 32.0013L10.9013 31.9859C10.8959 31.9856 10.8903 31.9851 10.8849 31.9845L10.5744 31.9456L10.4411 31.9466L10.4454 32.0607L10.4518 32.3948C10.4518 32.397 10.4518 32.3992 10.4518 32.4013L10.4486 32.6528L10.4636 32.6702L10.6982 32.6609C10.7004 32.6608 10.7026 32.6607 10.7049 32.6607L11.0417 32.6579L11.3821 32.661L11.7151 32.6589L12.0837 32.6633L12.4463 32.6641L12.8058 32.6565L13.1728 32.6536C13.1772 32.6536 13.1814 32.6536 13.1857 32.6539L13.9 32.6887L14.2517 32.6628C14.2599 32.6623 14.2681 32.6622 14.2762 32.6624L14.9895 32.6918L15.3389 32.6572C15.3474 32.6564 15.3563 32.6561 15.3643 32.6562L15.7286 32.6636C15.7311 32.6636 15.7335 32.6637 15.7359 32.6638L16.0966 32.6832L16.4472 32.6906L16.8013 32.6644C16.8047 32.6641 16.808 32.664 16.8113 32.6639L17.1755 32.6541C17.1787 32.654 17.1818 32.654 17.1851 32.6541L17.5463 32.6604L18.2721 32.6541C18.2806 32.6536 18.2882 32.6544 18.2962 32.6552L18.6416 32.6914L18.9867 32.6666C18.9965 32.6659 19.0063 32.6659 19.016 32.6665L19.3683 32.6894L19.7205 32.6734C19.7237 32.6733 19.7267 32.6732 19.7299 32.6732L20.8207 32.6677C20.8251 32.6679 20.8286 32.6677 20.8325 32.668L21.1836 32.6846L21.5346 32.6586C21.5393 32.6582 21.5439 32.658 21.5486 32.658L21.9124 32.6549C21.915 32.6547 21.9175 32.6549 21.92 32.6549L22.2769 32.6644L22.6342 32.6508C22.6427 32.6506 22.6511 32.6507 22.6594 32.6514L23.0109 32.6795L23.3624 32.666C23.367 32.6659 23.3717 32.6659 23.3761 32.6659L24.0986 32.683L24.4582 32.675C24.4615 32.6748 24.465 32.675 24.4684 32.675L24.8294 32.6844L25.1813 32.6831L25.5365 32.652C25.5455 32.6513 25.5545 32.6511 25.5634 32.6514L26.2813 32.6809L26.6339 32.6588C26.645 32.6581 26.656 32.6583 26.6669 32.6593L27.0216 32.6916L27.0215 32.6915Z" fill="#FDF9E1"/>
<path d="M14.5017 31.9162C14.3854 31.9162 14.2909 31.8236 14.2902 31.7089L14.2882 31.3443L14.2796 30.9834C14.2796 30.9813 14.2795 30.9793 14.2796 30.9773L14.2825 30.2488L14.2817 29.8848C14.2817 29.882 14.2817 29.8791 14.2819 29.8763L14.296 29.5144L14.3 29.1582L14.2836 28.7991C14.2798 28.7175 14.3247 28.6413 14.3984 28.6041L14.7293 28.4371C14.7611 28.4211 14.7965 28.4126 14.8324 28.4144L15.2643 28.4278L15.6892 28.4374L16.4045 28.4197C16.4067 28.4197 16.4088 28.4196 16.411 28.4197L16.7707 28.4229L17.1281 28.4224L17.4907 28.4266L17.8462 28.4237C17.8492 28.4238 17.8515 28.4237 17.854 28.4237L18.2098 28.4338L18.5659 28.4312L18.9244 28.4318L19.2809 28.4205C19.285 28.4203 19.2891 28.4203 19.2933 28.4205L19.672 28.4303L20.0403 28.4344L20.4118 28.4134C20.4148 28.4132 20.4177 28.4131 20.4207 28.413L20.7996 28.4074L21.1836 28.4108L21.5577 28.4054L22.3163 28.41L22.6909 28.3974L23.1137 28.3896L23.5339 28.3684C23.5453 28.3679 23.5565 28.3682 23.5679 28.3694L23.9893 28.4152C24.0724 28.4243 24.1423 28.4807 24.1676 28.5592L24.2701 28.8767C24.2765 28.8966 24.2798 28.9172 24.28 28.938L24.2832 29.2784L24.292 29.6154L24.294 29.96L24.2904 30.301L24.2961 30.6385C24.2961 30.6431 24.2961 30.6478 24.2959 30.6523L24.2789 30.988L24.2783 31.319L24.2931 31.6553C24.2982 31.7703 24.2076 31.8675 24.091 31.8725C23.9759 31.8776 23.8756 31.7883 23.8706 31.6733L23.8557 31.3324C23.8555 31.3293 23.8555 31.3261 23.8555 31.323L23.8561 30.9821C23.8561 30.9788 23.8562 30.9754 23.8563 30.9721L23.8732 30.6384L23.8675 30.3051C23.8675 30.3031 23.8675 30.3013 23.8675 30.2994L23.8711 29.9588L23.8692 29.6218L23.8605 29.2855L23.8574 28.9731L23.8062 28.8147L23.5384 28.7855L23.1318 28.806C23.1295 28.8061 23.1272 28.8062 23.125 28.8062L22.7021 28.8141L22.3261 28.8267C22.323 28.8268 22.3201 28.8268 22.3169 28.8268L21.5601 28.8222L21.1848 28.8275L20.8008 28.8242L20.4316 28.8297L20.0574 28.8509C20.0525 28.8512 20.0479 28.8514 20.0427 28.8513L19.6639 28.847L19.2883 28.8373L18.9343 28.8485C18.9319 28.8486 18.9295 28.8494 18.9271 28.8486L18.567 28.848L18.209 28.8506C18.2063 28.8505 18.2038 28.8506 18.2014 28.8506L17.8457 28.8405L17.4898 28.8434L17.1258 28.8392L16.769 28.8397L16.4104 28.8366L15.6958 28.8543C15.6922 28.8543 15.6886 28.8544 15.6849 28.8543L15.2528 28.8445L14.8735 28.8328L14.7121 28.9142L14.7227 29.1454C14.7229 29.1492 14.723 29.1532 14.7229 29.1571L14.7188 29.5221C14.7188 29.524 14.7188 29.5259 14.7187 29.5277L14.7046 29.8882L14.7054 30.2488L14.7025 30.9768L14.711 31.3384L14.7131 31.7067C14.7138 31.8218 14.6196 31.9156 14.5028 31.9163H14.5017L14.5017 31.9162Z" fill="#FDF9E1"/>
<path d="M22.7067 28.7385C22.7036 28.7385 22.7006 28.7385 22.6975 28.7384C22.5848 28.7336 22.4957 28.6425 22.4951 28.5313L22.4931 28.3106L22.4827 28.0353L22.0211 28.0369C22.0187 28.0371 22.0156 28.0369 22.0127 28.0368L21.6266 28.0226L20.8498 28.0254L20.4609 28.0218L20.0747 28.0323C20.0714 28.0323 20.0681 28.0323 20.0649 28.0323L19.6785 28.0253L19.292 28.0314L18.9258 28.0297L18.5613 28.0235L17.4831 28.0301L17.1241 28.0381C17.1221 28.0381 17.1199 28.038 17.1182 28.0381L16.7569 28.0362C16.7547 28.0362 16.7526 28.0362 16.7504 28.0361L16.1131 28.0154L15.9739 28.042L15.8935 28.3724L15.8951 28.5019C15.8966 28.617 15.8031 28.7115 15.6864 28.713H15.6836C15.568 28.713 15.4737 28.6214 15.4722 28.5072L15.4702 28.3517C15.47 28.3344 15.472 28.3171 15.4761 28.3004L15.5944 27.8141C15.6138 27.7346 15.6785 27.6736 15.7599 27.6581L16.0556 27.6017C16.071 27.5988 16.0868 27.5976 16.102 27.598L16.7621 27.6193L17.1174 27.6211L17.4758 27.6132L17.8395 27.609L18.5636 27.6066L18.9305 27.6128L19.2896 27.6145L19.6753 27.6083C19.6776 27.6083 19.6801 27.6083 19.6826 27.6083L20.0678 27.6153L20.4531 27.6048C20.4558 27.6047 20.4582 27.6046 20.4611 27.6048L20.8514 27.6084L21.6291 27.6056C21.6321 27.6055 21.635 27.6056 21.638 27.6058L22.0243 27.6199L22.685 27.617H22.6864C22.8001 27.617 22.8935 27.7056 22.8977 27.8176L22.9169 28.3454L22.9177 28.4711C22.9205 28.488 22.9211 28.5055 22.9195 28.5234L22.9171 28.5488C22.9072 28.6565 22.8154 28.7383 22.7067 28.7383L22.7067 28.7385Z" fill="#FDF9E1"/>
<path d="M19.6464 27.385H19.6428L19.2716 27.3787L19.2355 27.3811C19.2299 27.3815 19.2243 27.3817 19.2187 27.3815L18.4904 27.3738L18.1277 27.3818L17.7577 27.3826C17.7551 27.3824 17.7542 27.3826 17.7525 27.3826L17.3866 27.3745L17.0251 27.3738L16.6605 27.3751H16.6597C16.5432 27.3751 16.4487 27.2823 16.4482 27.1674C16.4478 27.0523 16.5422 26.9587 16.6589 26.9583L17.0247 26.957L17.3917 26.9578L17.7593 26.9659L18.1224 26.9651L18.4841 26.957C18.4862 26.957 18.4885 26.957 18.4906 26.957L19.2157 26.9647L19.2522 26.9623C19.2581 26.962 19.2641 26.962 19.27 26.9619L19.6466 26.9683L20.0232 26.9627L20.7882 26.9661L21.1638 26.9606L21.5469 26.9599L21.9291 26.9624C22.0459 26.9632 22.14 27.0571 22.1391 27.1722C22.1384 27.2868 22.0439 27.3792 21.9277 27.3792H21.9263L21.5459 27.3767L21.1673 27.3774L20.7899 27.3829L20.0258 27.3795L19.6495 27.3851H19.6463L19.6464 27.385Z" fill="#FDF9E1"/>
<path d="M16.8805 24.4233C16.7659 24.4233 16.6717 24.3329 16.6692 24.2194C16.6667 24.1043 16.7593 24.009 16.876 24.0065L17.266 23.9981L17.6539 23.986C17.6566 23.9859 17.6595 23.9858 17.6617 23.9859L18.0495 23.9878L18.4369 23.9803L19.2156 23.9571C19.2181 23.957 19.2206 23.9571 19.2232 23.9571L19.2684 23.9574L19.6184 23.9666L19.9606 23.9697C19.963 23.9697 19.9653 23.9697 19.9677 23.9699L20.3081 23.9842L20.6486 23.981C20.6522 23.9811 20.6557 23.981 20.6591 23.9811L21.0013 23.9947L21.691 23.9982C21.8078 23.9989 21.9018 24.0928 21.9011 24.2079C21.9004 24.3225 21.8058 24.415 21.6897 24.415H21.6883L20.9959 24.4115C20.9933 24.4115 20.9907 24.4115 20.9882 24.4114L20.6474 24.3978L20.3066 24.401C20.3032 24.401 20.2993 24.401 20.2955 24.4009L19.9532 24.3865L19.6108 24.3834L19.2239 24.3739L18.4478 24.397L18.0552 24.4047H18.0499L17.6634 24.4028L17.2773 24.4148L16.8852 24.4232C16.8836 24.4232 16.882 24.4232 16.8805 24.4232L16.8805 24.4233Z" fill="#FDF9E1"/>
<path d="M19.9469 9.1514L19.2347 9.14637L19.2018 9.14989C19.1936 9.1508 19.1855 9.15125 19.1772 9.1511L18.1418 9.14511L17.4551 9.14944H17.4544C17.3379 9.14944 17.2433 9.05661 17.2429 8.94177C17.2425 8.82663 17.3368 8.73304 17.4536 8.73264L18.1418 8.72831L18.4905 8.73138L19.1681 8.73425L19.2011 8.73073C19.2093 8.72977 19.2177 8.72952 19.2257 8.72952L19.9472 8.73465L20.3058 8.73274L20.665 8.72705H20.6725L21.0339 8.73415C21.1506 8.73647 21.2434 8.83162 21.2411 8.9467C21.2388 9.06038 21.1446 9.151 21.0298 9.151H21.0255L20.6679 9.14395L20.3103 9.14959L19.947 9.1515L19.9469 9.1514Z" fill="#FDF9E1"/>
<path d="M16.3926 27.8724C16.3848 27.8724 16.3767 27.8719 16.3687 27.8711C16.2526 27.8581 16.1692 27.755 16.1823 27.6406L16.2205 27.3062C16.2224 27.2899 16.2262 27.2738 16.2319 27.2584L16.3445 26.9528L16.4047 26.6497L16.428 26.3132L16.4303 25.9627C16.4303 25.9517 16.4313 25.9408 16.4332 25.9299L16.4894 25.5965L16.4771 25.2605C16.4768 25.2533 16.4769 25.2462 16.4774 25.2391L16.5015 24.8835L16.5307 24.5316L16.5373 24.1999L16.5331 24.1732C16.5317 24.1639 16.5309 24.1546 16.5307 24.1452L16.5239 23.7813C16.5238 23.7747 16.524 23.7682 16.5245 23.7616L16.5519 23.4082L16.5476 23.0538C16.5475 23.0442 16.548 23.0344 16.5493 23.0248L16.5956 22.6689L16.6221 22.3268L16.5988 21.9776C16.598 21.9665 16.5982 21.9555 16.5992 21.9445L16.6324 21.5944L16.625 21.2429C16.6248 21.2349 16.6251 21.2268 16.6259 21.2188L16.6598 20.8687L16.6543 20.5168C16.6542 20.5066 16.6548 20.4965 16.6561 20.4864L16.7034 20.1326L16.7237 19.7843L16.7226 19.4274C16.7226 19.4232 16.7227 19.4191 16.723 19.4149L16.7437 19.0554L16.7542 18.6956L16.7599 18.3411L16.7461 17.9832C16.7457 17.9738 16.746 17.9643 16.7469 17.955L16.7826 17.5933L16.8126 17.2388L16.8266 16.8917L16.8037 16.5385C16.8033 16.5318 16.8032 16.5252 16.8034 16.5185L16.8154 16.1561C16.8156 16.1505 16.816 16.145 16.8166 16.1394L16.8573 15.7852L16.8721 15.4386L16.8585 15.0836C16.8582 15.0756 16.8584 15.0676 16.859 15.0595L16.887 14.7055L16.8876 14.3506C16.8876 14.3396 16.8886 14.3288 16.8903 14.3181L16.9461 13.9739L16.9458 13.6343L16.9225 13.2769C16.9214 13.2606 16.9224 13.2443 16.9252 13.2281L16.9843 12.8906L16.9661 12.5502C16.9658 12.544 16.9657 12.5377 16.966 12.5315L16.9796 12.169C16.9797 12.1664 16.9799 12.1638 16.98 12.1612L17.0076 11.7993L17.0324 11.4387L17.0539 11.0877L17.0422 10.734C17.0421 10.7289 17.0421 10.7238 17.0422 10.7187L17.0572 10.3563L17.0681 9.99865L17.0702 9.63813L17.0755 9.27359C17.0756 9.26276 17.0766 9.25204 17.0785 9.24137L17.1376 8.90069L17.13 8.58523C17.1289 8.53931 17.1432 8.49436 17.1706 8.45725L17.3905 8.16087L17.5509 7.83172C17.5519 7.82981 17.5528 7.8279 17.5538 7.82603L17.733 7.4856C17.7344 7.48279 17.736 7.48007 17.7376 7.47735L17.9296 7.14961L18.1071 6.81361C18.1121 6.80404 18.118 6.79483 18.1245 6.78612L18.3409 6.49689L18.4769 6.16311C18.4833 6.1474 18.4916 6.13265 18.5016 6.1189L18.7303 5.80616C18.7386 5.79474 18.7482 5.78416 18.7587 5.77465L19.1141 5.45229C19.1793 5.39314 19.275 5.3803 19.3539 5.42027L19.408 5.44766C19.5119 5.50027 19.5528 5.62593 19.4994 5.72833C19.462 5.80022 19.3879 5.84151 19.3112 5.84151H19.3095L19.0608 6.06705L18.8597 6.34198L18.7233 6.67687C18.7166 6.69323 18.7079 6.70874 18.6972 6.72294L18.4745 7.02047L18.3025 7.3461C18.3012 7.34882 18.2996 7.35144 18.2981 7.35405L18.1061 7.68175L17.9307 8.01503L17.7632 8.35858C17.7577 8.37006 17.751 8.38098 17.7434 8.3913L17.5546 8.64599L17.5609 8.91086C17.5613 8.9243 17.5603 8.93769 17.558 8.95093L17.4982 9.29554L17.4932 9.64216L17.4911 10.0033C17.4911 10.005 17.4911 10.0067 17.491 10.0085L17.4799 10.3709L17.4652 10.7279L17.477 11.0837C17.4772 11.0902 17.4771 11.0967 17.4767 11.1031L17.4545 11.4652L17.4294 11.8289L17.4021 12.1884L17.3889 12.5376L17.4079 12.892C17.4087 12.9076 17.4078 12.9231 17.4051 12.9384L17.3462 13.2748L17.3683 13.6142C17.3685 13.6186 17.3687 13.623 17.3687 13.6274L17.3691 13.9902C17.3691 14.0012 17.3682 14.0123 17.3664 14.0232L17.3106 14.3676L17.3099 14.7141C17.3099 14.7194 17.3097 14.7247 17.3093 14.7299L17.2817 15.0799L17.2951 15.4312C17.2954 15.4367 17.2953 15.4423 17.2951 15.4478L17.2796 15.8101C17.2793 15.815 17.279 15.8199 17.2784 15.8248L17.2379 16.178L17.2265 16.522L17.2493 16.8759C17.2498 16.8831 17.2499 16.8903 17.2496 16.8974L17.235 17.2598C17.2349 17.2629 17.2347 17.2659 17.2344 17.2689L17.2038 17.6308L17.1692 17.9813L17.1827 18.3308C17.1828 18.3345 17.1829 18.3383 17.1828 18.342L17.177 18.7048L17.1663 19.0703C17.1662 19.0722 17.1662 19.0742 17.1661 19.0761L17.1455 19.4322L17.1466 19.7892C17.1466 19.7934 17.1465 19.7976 17.1462 19.8018L17.1251 20.1641C17.1248 20.1692 17.1243 20.1743 17.1236 20.1793L17.0774 20.5256L17.0829 20.8737C17.083 20.8814 17.0827 20.8892 17.0819 20.8968L17.048 21.2464L17.0554 21.5977C17.0556 21.6056 17.0553 21.6135 17.0545 21.6214L17.0218 21.9667L17.045 22.3142C17.0457 22.324 17.0456 22.3339 17.0448 22.3438L17.0168 22.7059C17.0165 22.7095 17.0161 22.7131 17.0157 22.7167L16.9706 23.0635L16.9748 23.4125C16.9749 23.4186 16.9747 23.4247 16.9742 23.4308L16.9468 23.7835L16.9532 24.1234L16.958 24.154C16.9599 24.1659 16.9607 24.178 16.9605 24.1899L16.9534 24.5462C16.9533 24.5505 16.953 24.5548 16.9527 24.5592L16.9231 24.9145L16.9 25.2561L16.9128 25.6024C16.9133 25.6163 16.9124 25.6303 16.91 25.6441L16.8531 25.982L16.8508 26.3224C16.8508 26.3267 16.8506 26.3309 16.8503 26.3352L16.8257 26.6911C16.8251 26.6998 16.8239 26.7084 16.8223 26.717L16.7563 27.0488C16.7542 27.0593 16.7513 27.0697 16.7476 27.0798L16.638 27.3774L16.6026 27.6873C16.5904 27.7937 16.4989 27.8724 16.3927 27.8724H16.3926Z" fill="#FDF9E1"/>
<path d="M22.2098 27.8754C22.1113 27.8754 22.0231 27.8072 22.0027 27.7084L21.9359 27.3837L21.8433 27.063C21.8419 27.0582 21.8407 27.0535 21.8397 27.0487L21.7697 26.7196C21.7674 26.7087 21.766 26.6978 21.7655 26.6868L21.7483 26.3355L21.7146 25.9848L21.6779 25.6312C21.6767 25.6197 21.6765 25.6083 21.6772 25.5968L21.6994 25.2507L21.6836 24.906L21.6745 24.551L21.6474 24.201C21.6459 24.181 21.6473 24.1609 21.6515 24.1413L21.653 24.1343L21.6024 23.8108C21.6001 23.7959 21.5994 23.7808 21.6004 23.7657L21.6234 23.412L21.6093 23.0667L21.5721 22.7115C21.5711 22.7012 21.5707 22.6908 21.5712 22.6803L21.5882 22.3247L21.5769 21.9848L21.5164 21.6381C21.5147 21.6286 21.5137 21.6189 21.5134 21.6092L21.5021 21.2465L21.494 20.8873L21.4676 20.5303C21.4669 20.52 21.4669 20.5097 21.4676 20.4994L21.4942 20.1545L21.4559 19.8122C21.4548 19.8013 21.4544 19.7903 21.4549 19.7793L21.4716 19.4371L21.4164 19.0976C21.414 19.0831 21.4132 19.0684 21.414 19.0537L21.4329 18.6978L21.4244 18.3472L21.4016 17.9889L21.3757 17.6285C21.3753 17.6226 21.3751 17.6166 21.3752 17.6107L21.3806 17.2569L21.3538 16.9044C21.3533 16.8982 21.3531 16.8921 21.3532 16.886L21.358 16.5293L21.3398 16.1738C21.3396 16.171 21.3395 16.1683 21.3395 16.1655L21.3359 15.8174L21.2818 15.4713C21.2797 15.4583 21.279 15.4452 21.2794 15.4321L21.2924 15.0772L21.2765 14.7231C21.2764 14.7202 21.2763 14.7173 21.2763 14.7144L21.2755 14.3593L21.2478 14.0054L21.2134 13.6476C21.2126 13.6394 21.2124 13.6312 21.2125 13.6231L21.2208 13.2726L21.1852 12.9238C21.1842 12.9144 21.184 12.905 21.1842 12.8956L21.1968 12.5426L21.1731 12.1912C21.1729 12.1884 21.1728 12.1858 21.1727 12.1831L21.1627 11.8204L21.131 11.1012L21.1065 10.7418C21.1062 10.7383 21.1061 10.7347 21.106 10.7311L21.1005 10.3775L21.0636 10.025C21.0622 10.0114 21.0621 9.99781 21.0634 9.98421L21.0962 9.63815L21.0675 9.2946C21.0672 9.29122 21.067 9.2878 21.0669 9.28438L21.0551 8.93408L21.0135 8.66267L20.8489 8.35416C20.8473 8.35129 20.8459 8.34837 20.8445 8.3454L20.6841 8.00724L20.2849 7.36399C20.2834 7.36157 20.2819 7.35915 20.2805 7.35669L20.0901 7.0226L19.9037 6.68262L19.7153 6.35111C19.7144 6.34944 19.7135 6.34778 19.7126 6.34607L19.5528 6.04582L19.2363 5.79868C19.129 5.76837 19.0634 5.66018 19.0887 5.55169C19.1149 5.43947 19.2283 5.36939 19.3421 5.39527L19.3782 5.40342C19.4088 5.41042 19.4374 5.42396 19.4621 5.44319L19.8505 5.74652C19.8737 5.76459 19.8928 5.7873 19.9065 5.81307L20.0858 6.14998L20.2742 6.48165L20.4605 6.82137L20.6471 7.14881L21.0514 7.80042C21.0554 7.80687 21.059 7.81356 21.0623 7.82036L21.2254 8.16436L21.4043 8.49956C21.4153 8.52015 21.4227 8.54245 21.4263 8.56546L21.4751 8.88368C21.4763 8.89174 21.4771 8.89979 21.4773 8.90795L21.4893 9.26529L21.5191 9.62209C21.5201 9.63422 21.5201 9.6464 21.5189 9.65859L21.4863 10.0025L21.522 10.3436C21.5226 10.3496 21.523 10.3557 21.523 10.3617L21.5287 10.7191L21.553 11.0758L21.5533 11.0811L21.5852 11.8051L21.5953 12.1674L21.6194 12.5254C21.6199 12.5324 21.62 12.5395 21.6198 12.5465L21.6073 12.8959L21.6428 13.2434C21.6437 13.252 21.644 13.2606 21.6438 13.2692L21.6355 13.6203L21.669 13.9696L21.6977 14.3348C21.6981 14.34 21.6983 14.3452 21.6983 14.3504L21.6991 14.709L21.7151 15.0669C21.7154 15.0725 21.7154 15.0781 21.7152 15.0837L21.7027 15.4272L21.756 15.7685C21.7575 15.7783 21.7583 15.7882 21.7584 15.798L21.7622 16.1568L21.7806 16.5147C21.7808 16.5192 21.7809 16.5236 21.7808 16.528L21.776 16.8821L21.8029 17.2348C21.8034 17.241 21.8036 17.2473 21.8035 17.2536L21.7981 17.6079L21.8234 17.961L21.8466 18.3249C21.8468 18.3276 21.8469 18.3303 21.847 18.333L21.8557 18.6957C21.8559 18.701 21.8557 18.7062 21.8555 18.7115L21.8374 19.0533L21.8925 19.3924C21.8948 19.4066 21.8957 19.421 21.8949 19.4354L21.878 19.7827L21.9166 20.1279C21.918 20.1407 21.9183 20.1536 21.9173 20.1665L21.8904 20.5153L21.9161 20.862C21.9163 20.8655 21.9165 20.8691 21.9166 20.8726L21.9247 21.2352L21.9355 21.5817L21.996 21.928C21.9976 21.9375 21.9986 21.947 21.9989 21.9565L22.011 22.3192C22.0112 22.3247 22.0112 22.3303 22.0109 22.3359L21.9943 22.6842L22.0305 23.0302C22.0309 23.0345 22.0312 23.0389 22.0314 23.0432L22.0462 23.406C22.0465 23.4132 22.0464 23.4204 22.0459 23.4277L22.0237 23.7695L22.0767 24.1086C22.0807 24.1337 22.0799 24.1593 22.0744 24.1842L22.0712 24.1992L22.0963 24.5244C22.0967 24.5279 22.0968 24.5315 22.0969 24.535L22.106 24.8912L22.1221 25.2429C22.1224 25.2504 22.1224 25.2579 22.1219 25.2654L22.1001 25.6056L22.1352 25.9437L22.1695 26.3007C22.1699 26.3039 22.1701 26.3071 22.1702 26.3103L22.1868 26.65L22.2518 26.9556L22.3447 27.2771C22.3461 27.2823 22.3475 27.2875 22.3485 27.2927L22.417 27.6253C22.4402 27.7381 22.3662 27.8481 22.2518 27.871C22.2376 27.8738 22.2235 27.8752 22.2096 27.8752L22.2098 27.8754Z" fill="#FDF9E1"/>
</svg>
