<svg width="39" height="39" viewBox="0 0 39 39" fill="none" xmlns="http://www.w3.org/2000/svg">
<rect x="0.77" y="0.77" width="36.96" height="36.96" rx="18.48" fill="#6F2A1B"/>
<rect x="0.77" y="0.77" width="36.96" height="36.96" rx="18.48" stroke="#E2DDBD" stroke-width="1.54"/>
<path d="M16.6477 15.3098C16.7566 15.3492 16.8432 15.3388 16.8999 15.2066C16.67 14.9571 16.6831 14.565 16.5961 14.2729C16.596 14.2724 16.5959 14.272 16.5958 14.2715C16.4986 13.946 16.2882 13.5988 16.2934 13.2356C16.5585 13.3695 16.7119 13.6481 16.9001 13.858C16.9001 13.8581 16.9001 13.8582 16.9001 13.8582C17.1546 14.1417 17.1851 14.0885 17.4063 14.4805C17.5486 14.5982 17.6195 14.7118 17.7101 14.7917C17.8935 14.9525 18.13 15.1802 18.3178 15.3104C18.6277 15.1543 18.564 14.6719 18.6217 14.3767C18.622 14.3754 18.6223 14.3744 18.6226 14.373C18.6621 14.17 18.689 13.959 18.7243 13.7549L18.8235 13.7548C18.8285 14.0305 18.8204 14.3085 18.8245 14.5842H18.9256C18.9296 14.4467 18.9169 14.3062 18.9256 14.1692C18.9257 14.1685 18.9259 14.1677 18.9259 14.1669C18.9773 13.3695 19.1448 12.5866 19.1294 11.7837C19.3062 11.7596 19.2246 12.0195 19.2296 12.1452C19.2537 12.7485 19.2171 13.3585 19.2296 13.9618C19.2296 13.9619 19.2295 13.962 19.2294 13.9621C19.2309 14.031 19.2274 14.1004 19.2294 14.1692C19.2325 14.2724 19.2244 14.3772 19.2294 14.4804L19.432 14.8954C19.432 14.3441 19.4178 13.7864 19.432 13.2356C19.4321 13.2353 19.4321 13.235 19.4322 13.2346C19.4352 13.1019 19.35 12.7115 19.5325 12.7174C19.5936 13.2044 19.6287 13.676 19.6348 14.1692H19.6348L19.8363 14.0658C19.8459 14.1327 19.8256 14.2108 19.8374 14.273C19.8961 14.5849 19.9102 14.912 20.0399 15.2067C20.0399 15.2067 20.0398 15.2066 20.0397 15.2066C20.0397 15.2066 20.0397 15.2066 20.0397 15.2066C20.2064 15.4198 20.7021 14.8513 20.85 14.6879C20.8504 14.6875 20.8509 14.6872 20.8513 14.6867C21.2276 14.2726 21.5849 13.82 21.969 13.3958C22.0642 13.2906 22.1597 13.1807 22.1682 13.0289C22.415 13.1387 22.0449 13.6363 21.9643 13.7543C21.974 13.8201 21.9499 13.9043 21.9643 13.9618C21.9702 13.9853 22.0432 14.0083 22.0367 14.0876C22.0336 14.1263 21.9685 14.1467 21.9643 14.1692C21.9378 14.3141 21.8754 14.4177 21.8631 14.4805H21.8629C21.8102 14.7512 21.751 15.0308 21.7626 15.3103L22.1667 14.8954C22.4604 13.9436 22.6235 12.859 22.8752 11.8869L20.2433 14.6879C19.9876 13.1758 19.6629 11.6706 19.3292 10.1747C19.2933 10.0128 19.3961 9.99417 19.1287 10.0191L18.3174 14.6874L15.5842 11.8869C15.7093 12.3932 16.3115 15.1879 16.6477 15.3098Z" fill="#FDF9E1"/>
<path d="M21.6603 22.261C21.7625 22.6037 22.0308 23.0066 22.0654 23.4016C22.0655 23.4018 22.0655 23.402 22.0656 23.4021C22.0809 23.4326 22.1472 23.4621 22.1669 23.5058C22.1899 23.5568 22.2989 23.9694 22.218 24.024C21.8698 23.7035 21.5702 23.3389 21.2555 22.9873C21.2554 22.9872 21.2553 22.9872 21.2551 22.9871C20.9822 22.6821 20.7011 22.3735 20.4449 22.0535C20.4079 22.0229 20.38 21.9793 20.3436 21.9497C19.7389 21.8694 19.9106 22.9218 19.8362 23.2979L19.6356 22.1578L19.5333 23.6096C19.5298 23.6786 19.5379 23.7486 19.5333 23.8171C19.5146 24.1128 19.4746 24.4577 19.4321 24.7508C19.4057 24.9334 19.4012 25.394 19.231 25.4764C19.1788 25.1974 19.0745 24.9272 19.0269 24.647C18.9524 24.2056 18.9499 23.7455 18.9256 23.2984C18.8218 23.3104 18.7611 23.3078 18.723 23.1947C18.6648 23.0204 18.5767 21.9996 18.5205 21.9493L18.014 22.0535C17.9791 22.0857 17.9462 22.1225 17.9128 22.1572C17.5649 22.5224 17.1111 22.9426 16.7986 23.2984V23.247C16.7946 23.2257 16.7905 23.2045 16.7986 23.1946L16.6974 23.0909C16.6832 23.1143 16.6563 23.1371 16.6335 23.1563L16.5961 23.1947C16.6006 23.189 16.6052 23.1833 16.6092 23.1776C16.6042 23.1822 16.6001 23.1864 16.5981 23.19C16.6685 23.0152 16.6953 22.8622 16.7986 22.676C16.6366 22.5121 16.7849 22.4337 16.7986 22.3648C16.8376 22.1765 16.7956 21.9659 17.0012 21.8461C16.987 21.7392 17.0741 21.442 16.8508 21.5359C16.7571 21.5753 16.5738 21.815 16.5186 21.9223L15.6855 25.1652L18.2156 22.4685L19.2807 27.1363L20.2439 22.5722L22.8748 25.2695C22.6054 24.3119 22.3921 22.8492 21.9865 21.9794C21.6745 21.3108 21.4669 21.6095 21.6603 22.261L21.6603 22.261ZM16.3947 23.8171C16.3284 23.5535 16.5271 23.3656 16.5963 23.1946C16.5819 23.2493 16.602 23.3357 16.5973 23.4021C16.6073 23.4148 16.7782 23.3201 16.7989 23.2984C16.7279 23.3793 16.66 23.783 16.3947 23.817V23.8171Z" fill="#FDF9E1"/>
<path d="M20.4449 22.0535C20.4814 22.0836 20.5295 22.1193 20.5827 22.1567C20.5381 22.1214 20.4925 22.0872 20.4449 22.0535Z" fill="#FDF9E1"/>
<path d="M23.281 19.4598C23.281 19.4598 23.2809 19.4597 23.2809 19.4596V19.4598C23.5077 19.6729 24.081 19.5101 24.395 19.4598C25.5749 19.2704 26.7357 18.8155 27.9399 18.7325C27.8969 18.5401 27.6882 18.5214 27.5363 18.4727C26.3173 18.0811 24.8325 17.9529 23.5852 17.5914C24.164 17.0452 24.7175 16.4674 25.3065 15.9326L25.2052 15.8289C24.7813 16.0654 23.0656 17.2501 22.9785 17.6469C22.9147 17.9363 24.1357 18.1599 24.3949 18.2149C24.4567 18.2278 24.5362 18.2019 24.5975 18.2149L24.5979 18.2153C24.5979 18.2153 24.5978 18.215 24.5977 18.2149C24.6449 18.2247 24.685 18.2705 24.699 18.3186C24.6989 18.3186 24.6988 18.3185 24.6987 18.3185L24.6988 18.3186C24.9277 18.3793 25.1769 18.3824 25.4078 18.4223C25.6418 18.4628 26.2849 18.4954 26.3189 18.5266C26.3325 18.539 26.3143 18.6677 26.3189 18.733C26.2531 18.7408 26.1813 18.7243 26.117 18.7335C25.9132 18.7639 25.6847 18.8148 25.5093 18.8373C25.4441 18.8456 25.3711 18.8272 25.3067 18.8373C25.046 18.8781 24.7805 18.8935 24.4965 18.941L24.4964 18.9409H24.4963C24.1762 18.9944 23.8602 18.998 23.5847 19.0447L23.5846 19.0448C23.5846 19.0448 23.5848 19.0448 23.5849 19.0447L23.7866 19.1498L23.787 19.2512C23.5952 19.2483 23.3446 19.2221 23.2811 19.4597L23.281 19.4598Z" fill="#FDF9E1"/>
<path d="M25.2053 15.8291C25.2331 15.8135 25.259 15.7912 25.2843 15.7668C25.2625 15.7788 25.2362 15.7995 25.2053 15.8291Z" fill="#FDF9E1"/>
<path d="M10.7216 18.7332L15.126 19.5653C15.3706 19.0378 13.9652 18.9075 13.5576 18.8375C13.1494 18.767 12.8506 18.7556 12.4435 18.7338C12.331 18.7281 12.1138 18.8059 12.1406 18.6311C12.5949 18.6285 13.1372 18.3468 13.5576 18.3188H13.5581C13.5864 18.3147 13.6179 18.3168 13.6487 18.3194C13.6731 18.3199 13.6963 18.3215 13.7192 18.3235C13.7338 18.3235 13.7475 18.322 13.7602 18.3188L13.9283 18.2327C13.9422 18.224 13.9536 18.2177 13.9619 18.2155L13.9628 18.2151C14.0235 18.2016 14.1071 18.2301 14.1654 18.2151C14.4145 18.1523 15.5271 17.949 15.5838 17.9029C15.5919 17.8966 15.5864 17.7447 15.5833 17.6964C14.93 17.1912 14.3654 16.3607 13.6589 15.9328C13.6047 15.8996 13.4553 15.8779 13.3551 15.8291C13.2158 15.7612 12.9089 15.5101 12.8487 15.7254C13.4999 16.3691 14.2874 16.8758 14.8744 17.5917C14.7483 17.7577 11.3993 18.3635 10.8701 18.5233C10.7217 18.5684 10.6934 18.4657 10.7217 18.7333L10.7216 18.7332Z" fill="#FDF9E1"/>
<path d="M13.4158 15.5464C13.5161 15.6351 13.6173 15.7222 13.7196 15.8073C13.7343 15.6833 13.5723 15.6247 13.4158 15.5464Z" fill="#FDF9E1"/>
<path d="M27.0285 13.4429H26.9692C26.99 13.4453 27.0109 13.4488 27.0285 13.4429Z" fill="#FDF9E1"/>
<path d="M15.4019 21.9705C16.6898 21.0664 18.0201 20.224 19.3308 19.3562C19.9623 18.9382 20.5604 18.4272 21.2552 18.1113C21.7519 17.6362 22.975 16.8312 23.5933 16.4085C25.9345 14.8088 28.4261 13.4197 30.7744 11.8278C30.5587 11.5752 30.4923 10.7277 30.2725 10.5861C29.9965 10.4087 29.8618 10.6794 29.6825 10.7178C29.5493 10.7463 29.3984 10.6628 29.2824 10.7147C29.0394 10.8241 29.1067 11.0498 28.9826 11.1665C28.1896 11.9139 23.7209 14.6215 22.6027 15.1911C22.4756 15.2559 22.3865 15.2694 22.268 15.3104L22.1611 15.3762L22.1586 15.3778C22.1454 15.3871 22.1317 15.3959 22.117 15.4032L22.1161 15.4037L22.0284 15.4577C21.6197 15.454 21.1715 15.7434 20.9396 16.0863C20.9042 16.1377 20.8743 16.1906 20.85 16.244C20.5968 16.4038 19.3925 17.2721 19.2239 17.2378L9.46765 11.1722C9.38005 10.4963 9.27927 10.7847 8.86854 10.7069C8.67509 10.6701 8.60569 10.4315 8.29072 10.5871C8.01825 10.7214 7.89264 11.5648 7.82782 11.8875C9.56282 13.0924 11.3834 14.1625 13.1524 15.3104C14.1419 15.9526 15.0433 16.603 15.9884 17.2815C16.1737 17.4148 17.7026 18.1373 17.5071 18.4205L14.7967 20.0643C14.5618 20.1213 14.3557 19.9491 14.1227 19.9777C13.8882 20.0062 13.6188 20.3604 13.5084 20.3589C13.4238 20.3579 13.0921 20.0555 12.849 20.1867C12.6151 20.5529 13.3478 21.2132 13.3478 21.2754C13.3478 21.3969 11.9516 23.0691 11.8285 23.1355C11.5774 23.2709 11.2563 23.2813 10.9312 23.4612C10.3088 23.8056 8.79002 24.9779 8.24305 25.48C8.00201 25.7015 7.53105 26.0294 7.76195 26.3789L9.16425 28.3692C9.2782 28.4387 9.39568 28.5087 9.53594 28.4714C10.1082 28.3199 12.8343 24.2445 13.5038 23.6018C13.9135 23.3575 14.2315 23.9716 14.9253 23.5058C15.8368 22.8948 15.2342 22.2625 15.4019 21.9705H15.4019ZM21.9468 16.846C21.8199 16.9532 21.2587 17.261 21.0528 17.3852C21.0278 17.4003 20.9766 17.3701 20.9515 17.3852C19.437 18.3011 17.9656 19.303 16.495 20.29L16.2942 20.1362C17.0937 19.8125 21.544 16.5968 21.9644 16.659C21.9679 16.7156 21.9887 16.8105 21.9468 16.846ZM18.4194 19.2525C18.3544 19.2945 18.2811 19.3388 18.2083 19.3823C18.0985 19.4479 17.9899 19.5119 17.913 19.5638C17.8603 19.6021 17.813 19.634 17.7678 19.6641C17.706 19.707 17.6458 19.7486 17.6091 19.7713C17.4883 19.8568 17.4576 19.8891 17.3053 19.9787C17.295 19.986 17.2853 19.9925 17.2757 19.999C17.2175 20.0447 17.19 20.1023 17.0014 20.1862C16.9949 20.1924 16.9884 20.1976 16.9819 20.2035C16.8966 20.2859 16.8095 20.4624 16.6406 20.4933C16.5217 20.5376 16.5295 20.4648 16.495 20.3938C16.6432 20.2707 16.8487 20.2542 17.0014 20.1862C17.1204 20.0934 17.1824 20.0611 17.2648 20.0064C17.2684 20.0041 17.2721 20.0015 17.2757 19.999C17.2759 19.9989 17.2761 19.9987 17.2762 19.9986C17.285 19.9917 17.2944 19.9852 17.3052 19.9788C17.4101 19.9049 17.4982 19.8397 17.6091 19.7713C17.6386 19.7504 17.668 19.7306 17.6975 19.7109C17.7205 19.6956 17.7439 19.68 17.7678 19.6641C17.8035 19.6392 17.8396 19.6141 17.8722 19.5916C17.8866 19.5817 17.9004 19.5723 17.9129 19.5638C18.1456 19.3946 18.1969 19.3823 18.4194 19.2526C18.4681 19.2211 18.5265 19.1802 18.5856 19.1391C18.6144 19.119 18.6432 19.099 18.6713 19.0799C18.6661 19.0837 18.6607 19.0876 18.6552 19.0915C18.5949 19.1356 18.5227 19.1923 18.4194 19.2525H18.4194ZM19.4322 18.6301C19.2755 18.7274 19.0905 18.8407 18.9258 18.9413C18.916 18.9481 18.9036 18.9547 18.8895 18.9615C18.857 18.9789 18.8257 18.9938 18.7962 19.0077C18.77 19.02 18.745 19.0319 18.7232 19.045C18.7691 19.0149 18.818 18.9939 18.8587 18.9757C18.8696 18.9708 18.88 18.9661 18.8895 18.9615C18.9016 18.955 18.9136 18.9488 18.9258 18.9413C19.1475 18.7882 19.1921 18.7621 19.4322 18.6301C19.4375 18.6272 19.4434 18.6212 19.4498 18.6131C19.5126 18.5332 19.6242 18.2402 19.7361 18.5264C19.632 18.5908 19.4903 18.594 19.4322 18.6301ZM20.2425 18.1114C20.209 18.1327 20.1524 18.25 20.0399 18.3189C19.8024 18.2153 20.1307 18.1572 20.2247 18.12C20.2322 18.117 20.2384 18.1141 20.2425 18.1114C20.2465 18.1071 20.2505 18.1037 20.2545 18.0996C20.3119 18.0307 20.4447 17.7391 20.5464 18.0077C20.4467 18.0726 20.3005 18.0745 20.2425 18.1114V18.1114ZM22.4445 16.8397L22.1608 16.3526L22.3034 16.2655L22.5871 16.7526L22.4445 16.8397ZM24.1927 15.5169C24.1435 15.4774 24.3696 15.2423 24.4964 15.3114C24.5457 15.3509 24.3196 15.586 24.1927 15.5169ZM27.0286 13.4431C26.9968 13.4797 26.9618 13.513 26.9273 13.5468C26.6455 13.8222 26.4144 13.885 26.117 14.0655C25.7524 14.2868 25.6591 14.4108 25.2055 14.5842C25.0313 14.6976 24.846 14.7994 24.6991 14.8954C24.6403 15.1048 24.5333 15.0539 24.3952 15.1029C24.2149 15.2093 24.1186 15.2986 23.8888 15.4141C23.8244 15.4465 23.7481 15.4837 23.6862 15.5178C23.6565 15.5888 23.615 15.6548 23.5849 15.7253C23.7007 15.6996 23.914 15.5412 23.9896 15.673L23.4836 15.9328C23.5313 15.9817 23.3898 16.098 23.3824 15.9847C23.38 15.9488 23.461 15.9096 23.4836 15.9328C23.4575 15.9118 23.5584 15.7877 23.5849 15.7253C23.4491 15.7556 23.316 15.7999 23.1797 15.8291L22.7249 16.1412C22.6092 15.9931 22.991 15.8887 23.0785 15.8291H23.1797V15.7253C23.244 15.6866 23.3153 15.6559 23.3823 15.6216C23.4034 15.6108 23.4217 15.5862 23.4395 15.5631L23.4836 15.5178C23.5103 15.5036 23.559 15.5323 23.5849 15.5178C23.6109 15.5033 23.66 15.5323 23.6861 15.5178V15.4141C23.7178 15.4046 23.758 15.4246 23.7874 15.4141H23.8467C23.8612 15.4159 23.8757 15.4174 23.8887 15.4141V15.3104C23.9692 15.2452 24.0777 15.1077 24.0912 15.1029C24.1664 15.0764 24.32 15.1296 24.3951 15.1029C24.4452 15.0734 24.6065 14.9559 24.6989 14.8954C24.7061 14.87 24.6998 14.8258 24.6989 14.7917C24.8512 14.6739 25.0358 14.649 25.2054 14.5842C25.5103 14.3857 25.8083 14.1633 26.1169 13.9618C26.3879 13.7849 26.6456 13.6053 26.9272 13.4431C27.1765 13.2994 27.3942 13.1275 27.688 13.0304C27.6707 13.2947 27.2208 13.3782 27.0285 13.4431H27.0286ZM28.3972 12.819C28.3333 12.7692 28.2885 12.7421 28.2556 12.7306L28.1585 12.7902C28.1335 12.8606 28.1107 12.9571 27.9407 12.9238L28.1585 12.7902C28.1752 12.7434 28.1931 12.7085 28.2556 12.7306L28.4461 12.6137L28.3972 12.819ZM30.3705 11.5763C30.5638 11.7417 30.2196 11.7983 30.1692 11.8323C29.6954 12.1522 29.1673 12.4782 28.6492 12.7159C28.7833 12.4958 30.2916 11.5088 30.3705 11.5763ZM9.70889 11.6795C12.8087 13.5336 15.7692 15.6327 18.9256 17.3864C18.8519 17.5954 18.8305 17.5813 18.6562 17.5083C17.6943 17.1051 16.4523 16.1078 15.5133 15.5378C15.1837 15.3377 14.7843 15.1803 14.4693 14.9991L14.2667 14.7917C14.2412 14.7768 14.191 14.8065 14.1654 14.7917C14.0047 14.5386 13.7058 14.4097 13.4564 14.2729C13.4302 14.2586 13.3812 14.2874 13.3552 14.2729L12.6263 13.7753C12.5664 13.7326 12.5061 13.6906 12.4436 13.6505C11.4691 13.0246 10.4735 12.4193 9.50636 11.7832C9.13352 11.5379 8.69678 11.2833 8.39227 10.9543C8.87358 11.0667 9.29187 11.43 9.70893 11.6794L9.70889 11.6795ZM9.91049 12.8206C9.87567 12.8659 9.66065 12.644 9.60762 12.6132C9.10836 12.3233 8.8453 12.1338 8.39219 11.7833C8.33413 11.7383 8.09076 11.7678 8.08838 11.5768C8.29972 11.4955 8.3255 11.7464 8.39219 11.7833C8.81453 12.0168 9.31908 12.2237 9.70889 12.5095C9.83459 12.6016 9.95632 12.6145 9.91049 12.8206ZM10.5182 12.9244C10.5024 12.9503 10.2861 12.7118 10.2665 13.0278C9.71961 12.3645 10.7063 12.6158 10.5182 12.9244ZM15.5834 16.1403C15.5671 16.157 15.6032 16.2824 15.5737 16.3393C15.4831 16.3742 15.4882 16.2466 15.4821 16.244C15.3915 16.2045 15.285 16.1996 15.1783 16.1403C15.0689 16.0795 14.9513 16.0458 14.8744 15.9328C14.8075 15.8972 14.7393 15.8638 14.6719 15.8291C14.5598 15.7714 14.4457 15.7317 14.368 15.6216C14.301 15.5861 14.233 15.5524 14.1654 15.5179C14.0247 15.4459 13.9735 15.3907 13.8616 15.3104C13.7648 15.241 13.69 15.123 13.659 15.1029L13.5933 15.0692C13.5517 15.0504 13.5041 15.0301 13.4564 14.9991L13.3288 14.912C13.3621 14.9352 13.3954 14.9584 13.4255 14.9786C13.3387 14.9213 13.2379 14.8499 13.1526 14.7917C13.134 14.7849 13.1168 14.7779 13.1007 14.7706C12.9468 14.7215 12.6033 14.6711 12.6978 14.4795C12.8068 14.4372 12.8821 14.5683 12.95 14.5842C12.9838 14.592 13.023 14.5743 13.0513 14.5842C12.5748 14.2403 12.1033 13.9013 11.6333 13.5468C11.3584 13.4076 11.3708 13.4179 11.1269 13.2355C11.0656 13.1897 10.8265 13.2199 10.8231 13.0291C11.0343 12.9476 11.0606 13.1991 11.1269 13.2355C11.3766 13.3727 11.3883 13.362 11.6333 13.5468C11.8503 13.6566 12.1346 13.754 12.3423 13.858C12.4174 14.045 12.5914 14.0909 12.7475 14.1692C12.7748 14.1829 12.8223 14.1551 12.8488 14.1692L12.9356 14.2581C12.941 14.2651 12.9457 14.2706 12.95 14.2729C12.9762 14.2874 13.0251 14.2586 13.0513 14.2729L13.2539 14.4804C13.2795 14.4952 13.3297 14.4656 13.3552 14.4804L13.4403 14.5677C13.4464 14.5754 13.4517 14.5813 13.4564 14.5842C13.4817 14.5991 13.5326 14.5691 13.5577 14.5842L13.7494 14.7805C13.7536 14.7857 13.7572 14.7898 13.7602 14.7917C13.7847 14.8071 13.8373 14.7761 13.8615 14.7917L13.9437 14.8758C13.9507 14.8845 13.957 14.8916 13.9628 14.8954C13.9867 14.9111 14.0403 14.8796 14.064 14.8954L14.249 15.0848C14.2555 15.0927 14.2615 15.0993 14.2666 15.1029C14.2897 15.1189 14.3449 15.0867 14.3678 15.1029L14.4463 15.1832C14.4546 15.1931 14.462 15.2015 14.4691 15.2066C14.5492 15.2642 14.6367 15.2845 14.6717 15.3104L14.7277 15.3677C14.7422 15.3848 14.7566 15.4016 14.773 15.4141C14.8746 15.492 14.9239 15.58 14.9755 15.6216L15.141 15.7063C15.1571 15.7129 15.1703 15.7189 15.1781 15.7253C15.3374 15.8115 15.3598 15.8438 15.449 15.9093C15.4389 15.9024 15.4286 15.8958 15.4181 15.8892L15.482 15.9328C15.4889 15.9362 15.4953 15.9395 15.5017 15.9428C15.5753 15.9723 15.7302 15.9659 15.7855 16.0889C15.7943 16.1978 15.6094 16.1134 15.5832 16.1403L15.5834 16.1403ZM15.8883 16.659C15.8548 16.4628 16.0064 16.3137 16.1911 16.3489L15.8883 16.659ZM17.1027 17.2825C17.1835 17.2891 17.4634 17.4073 17.5704 17.4651C17.3319 17.3154 16.891 16.9893 16.6867 16.8228C16.6303 16.7768 16.3308 16.729 16.496 16.5554C16.5735 16.4738 18.1492 17.6684 18.4186 17.6978C18.3615 17.9524 17.736 17.5652 17.6091 17.489C17.6233 17.5015 17.6993 17.6477 17.7103 17.6955C17.6038 17.7771 17.1435 17.4599 17.1027 17.2825V17.2825ZM20.227 17.0481L30.0011 10.8953L30.1551 11.152L24.6266 14.6323C24.6291 14.6495 24.6293 14.6662 24.6278 14.6826C24.6167 14.6609 24.6127 14.6417 24.6266 14.6323L24.2723 14.8553L24.0047 15.0237L23.9454 15.061L23.8027 15.1509L23.6939 15.2194L23.5158 15.3315L23.4281 15.3867L23.3543 15.4332L23.1804 15.5427L20.8079 17.0362L15.3337 20.4822L15.1796 20.2255L20.227 17.0481ZM14.7731 20.4974C14.9643 20.5674 15.4521 20.5426 15.2276 20.8102L14.7731 20.6011L14.6739 20.5492L14.7731 20.4974V20.4974ZM14.3674 20.2904L13.7621 20.8605C14.0104 21.1629 14.4467 21.1958 14.3732 21.6876C14.3027 22.1597 13.8479 21.8612 13.9839 21.6544C14.0068 21.6196 14.267 21.6719 14.1598 21.3849C14.0923 21.204 13.5686 21.1013 13.4583 20.8604C13.7451 20.6686 14.0102 20.3214 14.3674 20.2904L14.3674 20.2904ZM13.1526 23.2984C13.076 23.3923 13.0263 23.5148 12.95 23.6096C12.9343 23.6291 12.9158 23.6463 12.8973 23.6635L12.8487 23.7133C12.8184 23.7507 12.778 23.7802 12.7474 23.817C12.6733 23.9063 12.6007 23.9605 12.5448 24.0245C12.4879 24.0899 12.442 24.2226 12.3423 24.3357C12.1443 24.5604 11.9102 24.7606 11.7346 24.9582C11.7202 24.9775 11.7017 24.9941 11.6833 25.0107C11.6663 25.0274 11.6492 25.0441 11.6333 25.0619C11.6192 25.0809 11.601 25.0974 11.583 25.1137C11.5657 25.1307 11.5483 25.1477 11.532 25.1657L11.4734 25.2457C11.4061 25.3392 11.3433 25.4306 11.261 25.5382C11.2697 25.526 11.2783 25.5135 11.2871 25.5002L11.2282 25.5806C11.2121 25.6012 11.1923 25.6193 11.1726 25.6376L11.1269 25.6844L11.0705 25.7538C11.0748 25.7486 11.0792 25.7434 11.0836 25.738C10.9308 25.9267 10.7756 26.1208 10.6205 26.3068C10.5308 26.44 10.4451 26.5412 10.3682 26.6325C10.3146 26.7033 10.2634 26.7697 10.2154 26.8255C10.203 26.8433 10.1853 26.859 10.1673 26.8748C10.149 26.8925 10.1307 26.9102 10.1141 26.9292C9.99277 27.1042 9.84846 27.4665 9.70893 27.6554C9.61753 27.7793 9.60992 27.9109 9.40513 27.8619C9.36126 27.8268 9.576 27.6099 9.60767 27.5517C9.62215 27.5251 9.59294 27.4733 9.60767 27.448C9.62677 27.4151 9.65738 27.3932 9.68218 27.3717L9.70893 27.3442C9.7512 27.286 9.76847 27.1912 9.8102 27.1367L9.76004 27.0359L9.60762 27.1367C9.52211 27.2337 9.39379 27.5741 9.203 27.3966C9.43279 27.2195 9.53852 26.9404 9.70893 26.7218L9.60767 26.6181C9.48046 26.7559 9.16896 27.2487 9.00009 27.1358C8.95737 27.1072 9.09711 26.9772 9.10124 26.9293C9.10967 26.8321 9.07063 26.8401 8.99997 26.8256C8.97624 26.8206 8.91032 26.8186 8.8987 26.8256C8.81192 26.8776 8.80578 27.0647 8.74727 27.0326C8.60279 26.942 8.57611 26.7218 8.49354 26.6181C8.38871 26.4863 8.15782 26.3957 8.0908 26.148C8.02504 25.9049 8.17046 26.0871 8.29096 25.9956C9.00504 25.4538 10.6026 24.0511 11.2944 23.7292C11.5888 23.5922 11.8663 23.6296 12.1367 23.4509C12.4645 23.2343 12.9687 22.3111 13.2539 21.9498C13.3718 21.8004 13.4319 21.5919 13.659 21.6395C13.6731 21.807 13.3716 22.0165 13.3552 22.0535C13.3167 22.1406 13.3883 22.4407 13.2539 22.5722C13.3046 22.5586 13.3916 22.5741 13.4565 22.5722C13.5426 22.5696 13.739 22.5275 13.7599 22.6236C13.5942 22.8593 13.3212 23.0917 13.1526 23.2983L13.1526 23.2984ZM13.5583 22.2604C13.5772 21.8481 13.8091 21.93 13.9629 22.26L13.5583 22.2604ZM13.9631 23.1934C14.1447 22.7584 14.305 23.2052 14.5701 23.1941C14.319 22.916 14.7528 22.1935 14.9747 22.3652C15.4136 22.7048 14.5169 23.665 13.9631 23.1934V23.1934ZM14.6728 21.6385C14.716 21.3311 14.648 21.1467 14.4693 20.9134L15.2796 21.1199C15.5706 20.9162 15.7538 20.357 16.1921 20.5503C16.0867 20.9668 15.5735 21.0502 15.2796 21.2236C15.0722 21.3459 14.9126 21.5625 14.6728 21.6386V21.6385Z" fill="#FDF9E1"/>
<path d="M11.7346 24.9581C11.7533 24.9329 11.7715 24.9053 11.7895 24.876C11.7713 24.9025 11.7531 24.9297 11.7346 24.9581Z" fill="#FDF9E1"/>
<path d="M11.6834 25.0105C11.7009 24.9934 11.7184 24.9762 11.7346 24.958L11.6831 25.0107L11.6834 25.0105Z" fill="#FDF9E1"/>
<path d="M13.4564 14.999C13.4757 15.0114 13.5004 15.023 13.527 15.0351L13.4564 14.999Z" fill="#FDF9E1"/>
<path d="M11.5829 25.1135C11.6002 25.0966 11.6173 25.0796 11.6333 25.0618L11.5808 25.1155C11.5815 25.1149 11.5822 25.1142 11.5829 25.1135Z" fill="#FDF9E1"/>
<path d="M10.1672 26.8747C10.1838 26.8588 10.2003 26.8428 10.2153 26.8254L10.1666 26.8753L10.1672 26.8747Z" fill="#FDF9E1"/>
<path d="M10.3378 26.6688C10.3477 26.6569 10.3578 26.6447 10.3681 26.6326C10.3871 26.6075 10.4063 26.5819 10.4259 26.5559L10.3378 26.6688L10.3378 26.6688Z" fill="#FDF9E1"/>
<path d="M13.0513 22.7795C13.0902 22.7495 13.1252 22.7174 13.1525 22.6758C13.124 22.7044 13.0529 22.7641 13.0513 22.7795Z" fill="#FDF9E1"/>
<path d="M12.9501 23.2983C12.975 23.2751 12.9962 23.2518 13.0175 23.2293L13.0513 23.1946C13.0317 23.1986 12.9809 23.2687 12.9501 23.2983Z" fill="#FDF9E1"/>
<path d="M13.1736 22.9982C13.1676 22.9944 13.1607 22.9906 13.1526 22.9871C13.1597 22.9905 13.1658 22.9939 13.1714 22.9974C13.1623 22.9946 13.1552 22.9914 13.1526 22.9871V23.0908C13.1559 23.0861 13.2546 23.1026 13.2521 23.0379C13.2511 23.0128 13.203 23.0069 13.1736 22.9982Z" fill="#FDF9E1"/>
<path d="M26.8246 24.9556C26.8169 24.9367 26.8087 24.9191 26.8002 24.9019C26.8074 24.9213 26.8153 24.9395 26.8246 24.9556Z" fill="#FDF9E1"/>
<path d="M30.7238 25.8928C30.6347 25.6941 27.6584 23.446 27.3039 23.2759C26.8998 23.0819 26.7534 23.2614 26.3154 22.8356C26.1807 22.7038 25.2397 21.3547 25.221 21.2597C25.1789 21.044 25.8028 20.476 25.6028 20.1954C25.4235 19.9454 25.0681 20.2862 24.9521 20.2898C24.7773 20.2955 24.594 19.992 24.3377 19.9775C24.1084 19.9651 23.964 20.1472 23.8379 20.1503C23.6302 20.1544 23.5538 19.9153 23.4834 19.8748C23.4464 19.7934 23.3846 19.6938 23.3082 19.6005C23.1385 19.395 22.8939 19.2228 22.6731 19.3561C22.6483 19.3411 22.5971 19.3712 22.5718 19.3561L22.5627 19.3473L22.5612 19.3452L22.3693 19.1486C22.0203 18.9349 21.6334 18.7716 21.2551 18.5262L21.2526 18.5236L21.2526 18.5236L21.1539 18.4225C21.1007 18.4064 21.0151 18.4334 20.9513 18.4225C20.9285 18.4474 20.9442 18.629 20.848 18.6751C20.8236 18.8587 20.2382 18.8037 20.3446 18.9921C20.4104 19.1088 21.992 19.9911 22.2599 20.1425C22.4144 20.2297 22.5941 20.4403 22.6614 20.4895C22.662 20.4901 22.663 20.4906 22.6635 20.4911C22.6665 20.4932 22.6701 20.4952 22.6732 20.4973L22.6732 20.4974L22.6733 20.4973C23.1041 20.7202 23.7557 20.7271 24.1299 20.9246C24.8025 21.2797 25.2669 22.1064 25.7118 22.6759C25.7298 22.6954 25.7441 22.7131 25.7554 22.7292C25.958 22.9687 26.2639 23.2211 26.4208 23.5058C26.7043 23.6428 26.9675 23.5825 27.2683 23.7271C27.4492 23.8141 29.9537 25.7053 30.0651 25.842C30.1899 25.9952 30.2615 26.409 30.0178 26.3059L28.9529 25.3732C28.9642 25.3927 28.9473 25.4395 28.9529 25.4769L29.9639 26.4626C29.9289 26.545 29.7977 26.5742 29.7632 26.618C29.763 26.6178 29.7628 26.6175 29.7626 26.6172L29.763 26.618C29.6192 26.5299 29.5488 26.5537 29.6024 26.6454V26.6455C29.6024 26.646 29.6024 26.6465 29.6029 26.647C29.6154 26.668 29.635 26.6926 29.6608 26.7207C29.6611 26.721 29.6613 26.7214 29.6617 26.7217C29.5903 26.7845 29.523 26.8187 29.4593 26.8254C29.4593 26.8254 29.4592 26.8254 29.4591 26.8254C29.2931 26.7368 29.2327 26.7767 29.3322 26.8993C29.3408 26.9093 29.3495 26.9192 29.3581 26.9292C29.3577 26.9289 29.3574 26.9286 29.3571 26.9283C29.3574 26.9286 29.3576 26.9289 29.3579 26.9292C29.3047 26.9323 29.2035 26.8981 29.0543 26.8256C29.0543 26.8256 29.0542 26.8255 29.0541 26.8255L29.054 26.8254C28.8761 26.7304 28.8192 26.7829 28.9508 26.927C28.9515 26.9278 28.9522 26.9285 28.9529 26.9292C29.0239 27.0014 29.3423 27.3344 29.2066 27.4474C29.0088 27.2465 28.8056 27.0658 28.6493 26.8258C28.6491 26.8257 28.649 26.8256 28.6488 26.8254V26.8249C28.6416 26.8132 28.645 26.7941 28.6488 26.7748V26.7217L28.6487 26.7215L28.6486 26.7214C28.6466 26.7179 28.6442 26.7148 28.6422 26.7118C28.626 26.6906 28.6098 26.6797 28.5946 26.6802C28.5785 26.6812 28.5628 26.6952 28.5477 26.7215L28.5477 26.7216L28.5476 26.7217C28.3691 26.6264 28.3123 26.6796 28.4457 26.8248C28.4459 26.825 28.4463 26.8252 28.4465 26.8254C28.4889 26.8775 28.505 26.9787 28.5477 27.0329C28.7165 27.2467 28.9653 27.4492 29.0552 27.7062C28.753 27.7323 28.6433 27.2661 28.5489 27.1384C28.5484 27.1378 28.548 27.1373 28.5475 27.1367L28.5473 27.1362C28.5403 27.1312 28.5349 27.126 28.5303 27.1208C28.4869 27.0889 28.3933 27.0534 28.3403 26.9858C28.264 26.8886 28.2698 26.7591 28.2443 26.7225L28.2437 26.7217L28.1907 26.6674C28.1737 26.6523 28.1571 26.637 28.1443 26.6198C28.1437 26.6192 28.143 26.6186 28.1425 26.618C28.1268 26.604 28.111 26.5895 28.0954 26.5749C28.0952 26.5747 28.095 26.5745 28.0948 26.5743C28.1106 26.589 28.1265 26.6036 28.1427 26.618C28.1322 26.6035 28.1153 26.5891 28.0948 26.5742H28.0947L28.0947 26.5742H28.0946C28.0204 26.5203 27.8963 26.4597 27.8334 26.3624C27.7779 26.2766 27.7618 26.1675 27.7463 26.1195C27.7429 26.1129 27.7403 26.1058 27.7374 26.0992C27.7367 26.0984 27.736 26.0974 27.7353 26.0965C27.6647 26.0109 27.6042 25.9238 27.5514 25.8472C27.511 25.7922 27.4722 25.739 27.4392 25.692L27.4335 25.6843L27.3842 25.6337C27.3763 25.6264 27.3686 25.619 27.3611 25.6115C27.3517 25.6026 27.343 25.5934 27.3352 25.5836L27.3323 25.5806L27.328 25.5751C27.1587 25.3666 27.0988 25.3126 26.9288 25.064L26.9272 25.0619L26.8787 25.0123C26.8583 24.9947 26.8381 24.9777 26.8266 24.9589C26.8263 24.9586 26.8261 24.9584 26.8258 24.9581C26.8258 24.958 26.8257 24.9579 26.8257 24.9577C26.7435 24.8644 26.6301 24.7701 26.5222 24.6469C26.5222 24.6469 26.5221 24.6469 26.522 24.6469V24.6466L26.5184 24.4669C26.4136 24.3429 26.3083 24.2184 26.2019 24.0934C25.5908 23.3742 24.9544 22.6414 24.2943 21.9502C24.2941 21.95 24.2939 21.9498 24.2937 21.9496L24.2938 21.9494C24.2952 21.948 24.2963 21.9467 24.2976 21.9453C24.3053 21.9364 24.3129 21.9279 24.3205 21.9199C24.3218 21.9184 24.3233 21.9168 24.3246 21.9153C24.325 21.9153 24.325 21.9148 24.325 21.9148C24.3428 21.894 24.355 21.8769 24.3625 21.8624C24.3627 21.8624 24.3626 21.8623 24.3627 21.8622C24.3244 21.8771 24.2584 21.8233 24.1926 21.7421C24.1925 21.7421 24.1924 21.742 24.1924 21.742C24.1374 21.7288 23.9245 21.658 23.8887 21.6383C23.8975 21.6442 24.0506 21.8646 23.9384 21.8468C23.7748 21.8962 23.7462 21.6796 23.6862 21.6383C23.5968 21.5768 23.4649 21.4831 23.3824 21.4309H23.3822C23.3822 21.4309 23.382 21.4306 23.382 21.4306C22.9766 21.1737 22.6694 20.9988 22.2682 20.7046C22.2682 20.7046 22.2681 20.7046 22.268 20.7046C22.268 20.7046 22.268 20.7045 22.268 20.7045C22.1628 20.6272 22.1087 20.5294 22.0658 20.4972C22.0657 20.4972 22.0656 20.4972 22.0655 20.4971L22.0652 20.497C21.6064 20.3175 21.5781 20.1868 21.2609 19.9821C21.259 19.9808 21.2571 19.9797 21.2552 19.9784L21.0841 19.8733C20.9789 19.8105 20.8704 19.747 20.7523 19.6693L20.7488 19.6672L20.7471 19.6663C20.7162 19.6525 20.6844 19.6353 20.6542 19.6187L20.6251 19.6038L20.6122 19.5972C20.5857 19.5854 20.5629 19.5748 20.5473 19.564L20.5463 19.5634C20.5463 19.5634 20.5462 19.5634 20.5461 19.5634C20.3767 19.4984 20.1924 19.4723 20.0402 19.356C20.0401 19.356 20.04 19.356 20.0399 19.356C19.9744 19.3565 19.8995 19.3467 19.8375 19.356L19.8375 19.356C19.8375 19.356 19.8374 19.356 19.8373 19.356C19.6965 19.3772 19.5572 19.37 19.4321 19.4597L23.089 21.9977C23.2439 22.2114 22.7639 23.0211 23.5898 23.5522C24.23 23.9646 24.4021 23.5004 24.7521 23.5066C25.3233 23.517 28.4231 28.4249 29.007 28.4877C29.5352 28.5447 29.9145 27.5115 30.186 27.1022C30.4534 26.6992 31.0008 26.5078 30.7238 25.8926V25.8928ZM20.851 18.9398C20.8389 18.7251 21.1385 18.8742 21.227 18.9183C21.9397 19.2735 22.8384 19.9658 23.4816 20.4464L20.851 18.9398ZM24.8532 20.9124C24.7049 20.8194 24.104 20.4877 24.0908 20.4443C24.0251 20.2297 24.1684 20.2877 24.3015 20.3332C24.5604 20.4218 24.7802 20.6564 25.003 20.8085C24.9722 20.5739 25.0885 20.4291 25.2567 20.2903L25.3077 20.3426L25.003 20.9122C24.9722 21.104 24.9261 20.9581 24.8532 20.9124L24.8532 20.9124ZM23.4843 22.3651C23.5283 22.3227 23.9618 22.5622 23.9754 22.5859C24.0971 22.7984 23.7421 23.0554 23.7876 23.0897L24.496 22.9876C24.8338 23.3176 23.0434 23.6281 23.4844 22.3652L23.4843 22.3651Z" fill="#FDF9E1"/>
<path d="M28.185 26.6616C28.1717 26.6489 28.1586 26.6359 28.1465 26.6221C28.1592 26.6366 28.173 26.6502 28.187 26.6636C28.1863 26.6629 28.1856 26.6622 28.185 26.6616Z" fill="#FDF9E1"/>
<path d="M23.8887 21.6384C23.8707 21.6285 23.7891 21.4965 23.6861 21.4309H23.5848C23.6222 21.4801 23.654 21.6189 23.6861 21.6384C23.7256 21.6623 23.853 21.6143 23.8887 21.6384Z" fill="#FDF9E1"/>
<path d="M27.6447 25.9728L27.5322 25.8192C27.531 25.818 27.5303 25.8166 27.5294 25.8151C27.5292 25.8147 27.5289 25.8145 27.5287 25.814L27.5256 25.8098C27.526 25.8103 27.5262 25.8107 27.5266 25.8112C27.5346 25.8228 27.543 25.835 27.5514 25.8472C27.5974 25.9097 27.6451 25.9737 27.6884 26.0324C27.6742 26.0131 27.6596 25.9932 27.6447 25.9728H27.6447Z" fill="#FDF9E1"/>
<path d="M27.3355 25.584C27.3435 25.5935 27.3521 25.6027 27.361 25.6115C27.3638 25.6142 27.3668 25.6168 27.3696 25.6194L27.3354 25.584H27.3355Z" fill="#FDF9E1"/>
<path d="M27.7451 26.1158C27.7426 26.1087 27.7402 26.103 27.7375 26.0994C27.7398 26.105 27.7427 26.1102 27.7451 26.1158Z" fill="#FDF9E1"/>
<path d="M28.195 26.6714C28.1943 26.6708 28.1936 26.6701 28.1929 26.6694L28.244 26.7218C28.229 26.704 28.212 26.6877 28.195 26.6714V26.6714Z" fill="#FDF9E1"/>
<path d="M27.3872 25.6367L27.4338 25.6844C27.4197 25.6674 27.4035 25.652 27.3872 25.6367Z" fill="#FDF9E1"/>
<path d="M23.3856 21.2721C23.394 21.2549 23.3953 21.2367 23.3823 21.2234C23.3754 21.2164 23.3629 21.2155 23.3491 21.2182C23.3178 21.2242 23.2794 21.2503 23.2811 21.2753C23.2865 21.3579 23.3629 21.3185 23.3856 21.2721H23.3856Z" fill="#FDF9E1"/>
</svg>
