<svg width="128" height="100" viewBox="0 0 128 100" fill="none" xmlns="http://www.w3.org/2000/svg">
<path d="M63.6977 78.1699C62.9088 78.1699 62.2585 77.8492 62.2362 77.4438L62.1688 76.1958C62.1688 76.1868 62.168 76.1776 62.1688 76.1688L62.1899 74.9438L62.0659 73.7189C62.0635 73.6942 62.0635 73.6697 62.0659 73.6448L62.1801 72.4292L62.1087 71.2115C62.1066 71.1781 62.1087 71.1448 62.1161 71.1116L62.3641 69.8968L62.4241 68.7027L62.3457 67.501L62.2913 67.2072C62.2867 67.1815 62.2843 67.1559 62.285 67.1301L62.2924 66.6936L62.2698 66.5747C62.2666 66.5577 62.2645 66.5408 62.2634 66.524L62.1945 65.29C62.1928 65.257 62.1952 65.224 62.202 65.191L62.4404 64.0245L62.2422 62.8644C62.2401 62.8519 62.2383 62.8395 62.2376 62.8272L62.1479 61.5951C62.1468 61.5848 62.1465 61.5747 62.1468 61.5644L62.156 60.347L62.0606 59.0893C62.0589 59.0676 62.0592 59.0458 62.0614 59.024L62.1832 57.75L62.2691 56.5166L62.1624 55.2745C62.1606 55.2569 62.1603 55.2394 62.1613 55.2217L62.2277 53.9692L62.1642 52.7264L62.0338 51.4643C62.0317 51.4453 62.031 51.4262 62.032 51.4073L62.0914 50.1353L62.1892 48.8687L62.1786 47.6291L62.0561 46.3741C62.0543 46.3586 62.0539 46.3431 62.0543 46.3275L62.0854 45.0554C62.0854 45.0465 62.0861 45.0377 62.0871 45.029L62.2041 43.7814L62.161 42.5337L62.0981 41.2673C62.097 41.2449 62.0981 41.2226 62.1006 41.2004L62.2606 39.935L62.202 38.6807L62.0673 37.3945C62.0659 37.3815 62.0652 37.3683 62.0652 37.3551L62.0631 36.0588C62.0631 36.0366 62.0649 36.0142 62.0688 35.9918L62.2899 34.7281V33.4772L62.2048 32.1933C62.2037 32.1782 62.2037 32.163 62.2048 32.1477L62.273 30.8688L62.2249 29.6248L61.948 28.3618C61.9384 28.3183 61.9363 28.2743 61.9416 28.2303L62.2475 25.7093L61.9504 24.4805C61.9423 24.4473 61.9388 24.4141 61.9395 24.3807L61.9904 21.7887C61.9904 21.7667 61.9932 21.7445 61.9974 21.7225L62.2405 20.4584L62.2701 19.2117L62.1839 17.9568L61.9388 16.6841C61.9289 16.6317 61.9296 16.5789 61.9412 16.5266L62.22 15.2753L62.1839 12.7427L62.0776 11.5116C62.0758 11.4918 62.0755 11.4717 62.0769 11.4521L62.1627 10.2246L62.1493 8.99664C62.1486 8.9537 62.1557 8.91059 62.1698 8.86837L62.5588 7.68927L62.5888 6.52731L62.4743 5.30582C62.4726 5.28453 62.4722 5.26324 62.4743 5.24195L62.5662 4.00098C62.5672 3.9842 62.5697 3.96724 62.5732 3.95064L62.8258 2.73131L62.9328 1.71818C62.9254 1.70068 62.9191 1.68337 62.9141 1.66533C62.7993 1.25708 63.3539 0.878597 64.1537 0.819786L64.2064 0.815998C64.6405 0.783345 65.0786 0.85316 65.4014 1.00416C65.7247 1.15515 65.8985 1.37199 65.8748 1.59533L65.7444 2.8309C65.743 2.8437 65.7409 2.85651 65.7384 2.86932L65.4873 4.08288L65.3997 5.26649L65.5134 6.47896C65.5148 6.49412 65.5152 6.50945 65.5148 6.52461L65.4827 7.76685C65.4816 7.80509 65.4753 7.84334 65.4622 7.88104L65.0754 9.05329L65.0884 10.232C65.0884 10.2423 65.0884 10.2526 65.0877 10.2629L65.0029 11.4759L65.1079 12.6911C65.1089 12.7003 65.1093 12.7095 65.1093 12.7185L65.146 15.3098C65.146 15.3399 65.1432 15.3698 65.1368 15.3996L64.8655 16.617L65.1001 17.8341C65.1033 17.8496 65.1054 17.8653 65.1065 17.881L65.1955 19.1772C65.1962 19.1889 65.1965 19.2008 65.1962 19.2124L65.1654 20.5087C65.1654 20.5302 65.1626 20.5515 65.1584 20.5728L64.9153 21.8358L64.8662 24.3471L65.1679 25.5939C65.1789 25.639 65.1817 25.6843 65.1764 25.7296L64.8701 28.2609L65.1404 29.4924C65.1453 29.5151 65.1481 29.538 65.1492 29.5607L65.1994 30.8567C65.1994 30.8685 65.1994 30.8802 65.1994 30.8919L65.1312 32.1655L65.2156 33.4395C65.2163 33.4478 65.2163 33.4563 65.2163 33.4648V34.7615C65.2163 34.7837 65.2145 34.8059 65.2107 34.8279L64.9899 36.0912L64.9916 37.3344L65.1255 38.6122C65.1266 38.6194 65.127 38.6268 65.1273 38.6342L65.1881 39.9323C65.1891 39.9543 65.1881 39.9764 65.1856 39.9982L65.0256 41.263L65.087 42.5014L65.1312 43.7792C65.1312 43.7956 65.1312 43.8119 65.1294 43.8281L65.0114 45.0869L64.9814 46.3229L65.1033 47.5718C65.1043 47.583 65.105 47.5943 65.105 47.6057L65.116 48.8782C65.116 48.8892 65.116 48.9002 65.1149 48.9113L65.0164 50.1829L64.9591 51.4145L65.0874 52.6582C65.0881 52.6647 65.0888 52.6713 65.0891 52.6778L65.1545 53.95C65.1552 53.9632 65.1552 53.9764 65.1545 53.9897L65.0884 55.2357L65.1955 56.4811C65.1972 56.5007 65.1976 56.5207 65.1962 56.5404L65.1072 57.8133L64.9874 59.0644L65.0817 60.3054C65.0828 60.316 65.0831 60.3267 65.0828 60.3373L65.0736 61.5552L65.1605 62.7534L65.3679 63.9662C65.376 64.0139 65.3753 64.0615 65.3654 64.1088L65.1223 65.2973L65.1874 66.4563L65.2124 66.5891C65.2174 66.6154 65.2198 66.6416 65.2191 66.6679L65.2117 67.1052L65.2633 67.3836C65.2661 67.3987 65.2679 67.4139 65.269 67.429L65.3499 68.6754C65.3509 68.69 65.3509 68.7047 65.3499 68.7195L65.2873 69.9648C65.2863 69.9841 65.2838 70.0037 65.2799 70.023L65.0362 71.2171L65.1061 72.4139C65.1075 72.4332 65.1072 72.4527 65.1054 72.472L64.9924 73.6794L65.1146 74.8899C65.116 74.9049 65.1167 74.9198 65.1164 74.9348L65.0952 76.1684L65.1619 77.4031C65.1838 77.8153 64.5479 78.1588 63.7404 78.1703C63.7266 78.1703 63.7128 78.1703 63.6994 78.1703L63.6977 78.1699Z" fill="#00263A"/>
<path d="M120.111 99.3301H120.104L117.586 99.3249C117.543 99.3249 117.501 99.3238 117.458 99.3216L115.054 99.2083L112.649 99.2866C112.597 99.2884 112.543 99.2884 112.491 99.2873L107.556 99.182L105.131 99.2918C105.09 99.2937 105.049 99.2947 105.007 99.2947L102.488 99.2994C102.472 99.2994 102.459 99.2994 102.444 99.2994L99.9623 99.266L97.4789 99.2944C97.4574 99.2947 97.4358 99.2947 97.4143 99.2944L92.4188 99.2338L89.9474 99.2826C89.8891 99.2835 89.8305 99.2835 89.7722 99.2807L87.3414 99.1798L84.9099 99.2278C84.8774 99.2283 84.8456 99.2287 84.8135 99.2282L82.3226 99.1935L79.8809 99.2044L77.412 99.2991C77.3519 99.3014 77.2919 99.3021 77.2318 99.3003L74.7537 99.2393L67.2646 99.259L64.7794 99.3175C64.7253 99.3187 64.6702 99.3186 64.6158 99.3166L62.1985 99.2352L59.7815 99.325C59.6942 99.3287 59.6077 99.3274 59.5208 99.3229L57.085 99.1906L52.1327 99.2132C52.1189 99.2128 52.1058 99.2132 52.0928 99.2132L49.6069 99.1905L47.156 99.2247L44.6708 99.3198C44.6241 99.3214 44.5793 99.3225 44.5302 99.3216L42.0107 99.2942C41.9948 99.2942 41.9786 99.2938 41.9623 99.2933L39.4676 99.2238L37.0612 99.1988L34.629 99.3231C34.5601 99.3267 34.4902 99.3274 34.4224 99.3263L29.4693 99.2208L27.0343 99.3137C26.9756 99.3157 26.9163 99.3164 26.8587 99.3149L24.3392 99.256L21.8534 99.1887L19.3791 99.1988L16.8773 99.2258L14.3208 99.2233L11.7833 99.2074L9.48396 99.2148L7.13337 99.2038L4.85238 99.2139L2.54593 99.2612C2.09093 99.2702 1.66808 99.1742 1.37664 99.001L0.452869 98.4505C0.221837 98.3124 0.0964396 98.1366 0.101032 97.9551L0.129644 96.7837L0.0868878 95.6124L0.00105236 94.4454C-0.0141378 94.241 0.135657 94.0424 0.415439 93.8959C0.694867 93.7494 1.06755 93.6648 1.48087 93.6706L1.75534 93.6724L3.98053 93.6642C4.05542 93.6673 4.11088 93.666 4.17553 93.67L6.36256 93.8122L8.5178 93.865L10.7352 93.8576C10.761 93.8585 10.7836 93.8576 10.8073 93.8582L13.2165 93.9108L15.6261 93.8333C15.6731 93.8317 15.7208 93.8309 15.7681 93.8322L20.6897 93.9231L23.1187 93.8733C23.1445 93.8728 23.1707 93.8728 23.1968 93.8728L25.622 93.8894L28.0488 93.799C28.1336 93.7958 28.2198 93.7965 28.3046 93.801L30.7251 93.9278L33.1616 93.9366L35.6672 93.8363C35.7079 93.8345 35.7506 93.8336 35.7909 93.834L38.3594 93.8419C38.3923 93.8419 38.4251 93.8427 38.4576 93.8439L40.9379 93.937L43.4178 93.8762C43.4496 93.8751 43.481 93.8749 43.5124 93.8753L46.0813 93.897L48.6174 93.9285L51.1178 93.8818L53.6613 93.7905C53.7284 93.7882 53.7958 93.7884 53.8622 93.7905L56.3902 93.8778L58.9185 93.8932L61.4641 93.8878C61.4867 93.8885 61.5019 93.8878 61.5206 93.8881L64.01 93.9318L66.5005 93.8363C66.5626 93.8338 66.6248 93.8333 66.6873 93.8353L69.1521 93.9017L71.6185 93.7867C71.6825 93.7837 71.7464 93.7829 71.81 93.7842L74.3248 93.8358L76.8302 93.7873C76.8916 93.7862 76.9534 93.7867 77.0142 93.7896L79.4775 93.9007L81.9415 93.8399C81.9934 93.8383 82.0446 93.8387 82.0962 93.8403L84.6022 93.9136L87.1086 93.8876C87.1348 93.8879 87.1595 93.8876 87.1846 93.8879L89.6899 93.9283L92.1959 93.867C92.2157 93.8667 92.2348 93.8663 92.2545 93.8663L94.8168 93.856L97.3729 93.8759L99.8952 93.8235C99.9277 93.823 99.9606 93.8226 99.992 93.8232L102.537 93.8569H105.081L107.633 93.8445C107.649 93.8445 107.666 93.8445 107.682 93.8445L110.214 93.876L112.747 93.8497L115.341 93.8486L117.56 93.8362L119.786 93.6936C119.834 93.6904 119.883 93.6888 119.931 93.6881L122.259 93.6581C122.294 93.6577 122.327 93.6581 122.361 93.6586L124.707 93.7126C125.039 93.7202 125.356 93.7855 125.606 93.8975L127.322 94.6675C127.679 94.8275 127.862 95.0661 127.812 95.3075L127.778 95.4699L127.579 96.5485L127.651 97.6406C127.66 97.7893 127.583 97.9361 127.428 98.0622L126.387 98.9112C126.121 99.128 125.655 99.2605 125.154 99.2614L122.668 99.267L120.182 99.3288C120.159 99.3296 120.135 99.3297 120.111 99.3297L120.111 99.3301ZM117.663 97.8311L120.078 97.8362L122.558 97.7745C122.58 97.774 122.601 97.7736 122.623 97.7736L124.336 97.7698L124.712 97.4628L124.652 96.551C124.65 96.5193 124.652 96.4873 124.658 96.4559L124.828 95.5368L124.062 95.1933L122.281 95.1524L120.078 95.1807L117.842 95.3238C117.787 95.3274 117.732 95.3292 117.676 95.3295L115.358 95.3425L112.778 95.3434L110.24 95.3699C110.218 95.3699 110.196 95.3699 110.175 95.3699L107.635 95.3384L105.095 95.3506H102.517C102.505 95.3506 102.492 95.3506 102.48 95.3506L99.9652 95.3174L97.4507 95.3696C97.4235 95.3699 97.397 95.3699 97.3687 95.3701L94.8054 95.3499L92.3068 95.3602L89.7718 95.4222C89.733 95.4231 89.6941 95.4233 89.6556 95.4226L87.1302 95.3818L84.6054 95.4078C84.5666 95.4085 84.5294 95.4078 84.492 95.4067L82.0068 95.334L79.5202 95.3954C79.4538 95.3979 79.3874 95.3966 79.321 95.3934L76.8506 95.2819L74.3803 95.3299C74.3418 95.3306 74.3033 95.3306 74.2662 95.3299L71.7902 95.279L69.3142 95.3945C69.2443 95.3979 69.1743 95.3982 69.104 95.3964L66.6276 95.3297L64.1506 95.4246C64.0973 95.4268 64.0439 95.4275 63.9906 95.4264L61.4496 95.3818L58.9089 95.3871L56.3163 95.3716C56.2891 95.3716 56.262 95.3708 56.2351 95.3699L53.7669 95.2844L51.2997 95.373C51.2835 95.3735 51.2668 95.3741 51.2506 95.3744L48.6813 95.4224C48.6517 95.4228 48.6216 95.423 48.5923 95.4224L46.0234 95.3905L43.5132 95.3694L40.9916 95.4313C40.9329 95.4332 40.8736 95.4327 40.8139 95.4302L38.2941 95.3357L35.8361 95.3281L33.3297 95.4286C33.2884 95.4304 33.2485 95.4311 33.2047 95.4309L30.6361 95.4215C30.5895 95.4215 30.5432 95.4201 30.4969 95.4177L28.1347 95.2938L25.7728 95.3817C25.7314 95.3833 25.6876 95.3831 25.6474 95.3836L23.1986 95.3669L20.7512 95.4172C20.7137 95.4179 20.6752 95.4179 20.6371 95.4172L15.7402 95.3266L13.3243 95.4044C13.2734 95.4062 13.2215 95.4062 13.1699 95.4053L10.719 95.3517L8.49766 95.3591C8.47081 95.3595 8.44468 95.3591 8.41748 95.3582L6.1651 95.3028C6.1273 95.3019 6.08879 95.3001 6.051 95.298L3.90388 95.1585L2.98151 95.1619L3.01155 95.5709L3.0557 96.7682C3.0557 96.776 3.0557 96.7837 3.0557 96.7915L3.0338 97.6928L3.13766 97.7548L4.75982 97.7215C4.77536 97.7211 4.79055 97.7209 4.80609 97.7209L7.13585 97.7108L9.48998 97.7218L11.7936 97.7144L14.3431 97.7303L16.8508 97.733L19.3378 97.7059L21.876 97.6955C21.9067 97.6955 21.9353 97.6955 21.965 97.6966L26.906 97.8212L29.3382 97.7285C29.3951 97.7265 29.4516 97.7263 29.5078 97.727L34.4418 97.8322L36.8584 97.7085C36.9171 97.7054 36.9782 97.7045 37.034 97.7049L39.5538 97.7312C39.5708 97.7312 39.5874 97.7316 39.604 97.7321L42.0987 97.8016L44.5238 97.8279L46.9733 97.7341C46.9963 97.7332 47.0196 97.7326 47.0426 97.7323L49.5617 97.6971C49.5836 97.6967 49.6051 97.6967 49.6277 97.6971L52.1263 97.7198L57.1462 97.6971C57.2048 97.6953 57.2574 97.6984 57.3129 97.7011L59.7016 97.8308L62.089 97.7422C62.1568 97.7397 62.2243 97.7397 62.2914 97.7418L64.7282 97.8237L67.1643 97.7666C67.1862 97.766 67.2073 97.7658 67.2292 97.7658L74.7738 97.746C74.8042 97.7465 74.8286 97.746 74.8554 97.7469L77.2841 97.8066L79.7117 97.7133C79.7442 97.7121 79.7763 97.7113 79.8085 97.7112L82.3251 97.7C82.3428 97.6995 82.3604 97.7 82.3777 97.7L84.8463 97.7343L87.317 97.6856C87.3764 97.6847 87.434 97.685 87.4919 97.6875L89.9227 97.7884L92.3538 97.74C92.3856 97.7395 92.4185 97.7395 92.4489 97.7397L97.4464 97.8007L99.933 97.7721C99.956 97.7716 99.9803 97.7721 100.004 97.7721L102.501 97.8057L104.935 97.8012L107.391 97.6899C107.454 97.6872 107.516 97.6866 107.578 97.6875L112.543 97.7934L114.982 97.7141C115.059 97.7115 115.134 97.7124 115.21 97.7159L117.663 97.8315L117.663 97.8311Z" fill="#00263A"/>
<path d="M31.0663 95.0526C30.2623 95.0526 29.6084 94.721 29.6038 94.3099L29.5897 93.0034L29.5303 91.7101C29.5303 91.7027 29.5296 91.6953 29.5303 91.6881L29.5508 89.0779L29.5452 87.7734C29.5452 87.7633 29.5452 87.7532 29.5462 87.7431L29.6441 86.4464L29.6717 85.1699L29.5579 83.8829C29.5321 83.5908 29.8426 83.3177 30.3524 83.1844L32.6412 82.586C32.8609 82.5286 33.1057 82.4979 33.3537 82.5044L36.3416 82.5524L39.2803 82.5869L44.2274 82.5236C44.2426 82.5236 44.2574 82.5232 44.2726 82.5236L46.7606 82.5351L49.2327 82.5331L51.7405 82.5483L54.1992 82.5378C54.22 82.5384 54.2359 82.5378 54.2532 82.5378L56.714 82.5739L59.1773 82.5647L61.6569 82.5669L64.123 82.5263C64.1512 82.5257 64.1795 82.5256 64.2085 82.5263L66.8275 82.5615L69.3756 82.5762L71.9445 82.5008C71.9653 82.5001 71.9858 82.4998 72.0067 82.4996L74.6268 82.4795L77.2833 82.4916L79.8706 82.4723L85.1176 82.4887L87.7087 82.4436L90.6327 82.4155L93.5393 82.3397C93.6181 82.3379 93.6958 82.3388 93.7742 82.3433L96.6893 82.5075C97.2641 82.54 97.7473 82.7422 97.9225 83.0235L98.6312 84.1612C98.6753 84.2323 98.6983 84.3061 98.6997 84.3806L98.7223 85.6005L98.7827 86.8083L98.7965 88.0429L98.7718 89.2648L98.8113 90.4742C98.8113 90.4908 98.8113 90.5074 98.8096 90.5238L98.6923 91.7265L98.6884 92.9129L98.7901 94.1178C98.8255 94.5298 98.1991 94.8783 97.3923 94.896C96.5964 94.9144 95.9026 94.5942 95.8683 94.1822L95.7648 92.9607C95.7638 92.9495 95.7634 92.9383 95.7634 92.9271L95.7676 91.7056C95.7676 91.6937 95.7684 91.6816 95.7694 91.6697L95.886 90.474L95.8468 89.2794C95.8468 89.2725 95.8468 89.2659 95.8468 89.259L95.8719 88.0388L95.8584 86.8312L95.798 85.6261L95.7768 84.5067L95.4229 83.9388L93.5704 83.8344L90.7581 83.9076C90.7425 83.908 90.7266 83.9083 90.7111 83.9085L87.7857 83.9366L85.1854 83.9819C85.1638 83.9823 85.1441 83.9823 85.1218 83.9823L79.8872 83.9657L77.2911 83.985L74.6353 83.9729L72.0816 83.9926L69.4932 84.0687C69.4597 84.0698 69.4279 84.0703 69.3922 84.07L66.7717 84.0546L64.1738 84.0198L61.7254 84.06C61.7092 84.0606 61.6922 84.0633 61.6759 84.0604L59.1851 84.0582L56.7088 84.0676C56.6904 84.0673 56.6731 84.0676 56.6561 84.0676L54.1957 84.0315L51.7345 84.0418L49.2168 84.0267L46.7489 84.0287L44.2684 84.0173L39.3255 84.0808C39.3008 84.0808 39.2761 84.0811 39.2503 84.0808L36.2617 84.0456L33.6384 84.0038L32.5221 84.2956L32.5952 85.1239C32.5966 85.1378 32.597 85.1518 32.5966 85.1657L32.5684 86.4736C32.5684 86.4805 32.5684 86.4873 32.5673 86.494L32.4702 87.7857L32.4755 89.0779L32.4553 91.6865L32.5143 92.9823L32.5288 94.3021C32.5334 94.7145 31.8824 95.0506 31.0745 95.053H31.0667L31.0663 95.0526Z" fill="#00263A"/>
<path d="M87.818 83.6659C87.7968 83.6659 87.7759 83.6659 87.7544 83.6653C86.9747 83.6482 86.3587 83.3217 86.3544 82.9232L86.3406 82.1323L86.2686 81.1458L83.0762 81.1518C83.0596 81.1523 83.038 81.1518 83.0179 81.1513L80.3476 81.1006L74.9748 81.1105L72.2848 81.0975L69.6134 81.1354C69.5905 81.1354 69.5682 81.1354 69.546 81.1354L66.8728 81.1101L64.2001 81.1321L61.6672 81.126L59.1456 81.1038L51.6886 81.1273L49.2052 81.1559C49.1915 81.1559 49.1759 81.1556 49.1646 81.1559L46.6653 81.1493C46.6505 81.1493 46.6356 81.1493 46.6208 81.1489L42.2125 81.0748L41.2498 81.1698L40.6934 82.354L40.7048 82.818C40.715 83.2306 40.0685 83.569 39.261 83.5742H39.2419C38.4425 83.5742 37.79 83.2463 37.7797 82.8369L37.766 82.2797C37.7646 82.2176 37.778 82.1559 37.8062 82.0958L38.6251 80.3533C38.759 80.0685 39.2066 79.8498 39.7693 79.7943L41.815 79.5922C41.921 79.5818 42.0305 79.5774 42.1354 79.5789L46.7017 79.6554L49.1586 79.6619L51.6378 79.6334L54.1537 79.6182L59.1615 79.6097L61.6993 79.6319L64.1831 79.6381L66.8509 79.6159C66.8672 79.6159 66.8845 79.6159 66.9014 79.6159L69.5661 79.6411L72.2311 79.6032C72.2494 79.6029 72.2664 79.6027 72.2858 79.6032L74.9858 79.6164L80.3645 79.6063C80.3857 79.6059 80.4055 79.6063 80.4264 79.6068L83.0981 79.6575L87.6682 79.6469H87.6781C88.4641 79.6469 89.1102 79.9644 89.1392 80.366L89.2724 82.2573L89.2776 82.7076C89.2967 82.7682 89.3013 82.831 89.29 82.8948L89.2738 82.9859C89.2052 83.372 88.5704 83.6651 87.8183 83.6651L87.818 83.6659Z" fill="#00263A"/>
<path d="M66.6528 78.8158H66.6277L64.0602 78.7933L63.8108 78.8017C63.7719 78.8032 63.7327 78.8039 63.6942 78.8034L58.6571 78.7756L56.1479 78.8043L53.5889 78.8073C53.5709 78.8064 53.5649 78.8073 53.5528 78.8073L51.0221 78.7783L48.5217 78.7758L45.9998 78.7803H45.9945C45.1891 78.7803 44.5348 78.4476 44.532 78.0361C44.5288 77.6237 45.1816 77.2882 45.9892 77.2867L48.5192 77.2822L51.0578 77.2849L53.5998 77.314L56.1115 77.3111L58.6133 77.2822C58.6281 77.2822 58.6437 77.2822 58.6585 77.2822L63.6737 77.3098L63.9263 77.3012C63.9669 77.2999 64.0083 77.2999 64.0489 77.2995L66.6538 77.3225L69.2588 77.3024L74.5499 77.3149L77.1478 77.295L79.7979 77.2925L82.4414 77.3015C83.2493 77.3042 83.8996 77.6409 83.894 78.0533C83.8887 78.464 83.2352 78.7951 82.4318 78.7951H82.422L79.7909 78.786L77.1721 78.7886L74.5616 78.8084L69.2768 78.796L66.674 78.8162H66.6521L66.6528 78.8158Z" fill="#00263A"/>
<path d="M47.5211 68.2031C46.7284 68.2031 46.077 67.8795 46.0597 67.4725C46.042 67.0601 46.6825 66.7186 47.49 66.7096L50.1875 66.6797L52.8705 66.6362C52.8889 66.6358 52.9087 66.6356 52.9242 66.6358L55.6062 66.6429L58.286 66.6158L63.6718 66.5326C63.6891 66.5323 63.7064 66.5326 63.7248 66.5326L64.0371 66.5339L66.458 66.5669L68.8248 66.5777C68.8414 66.5777 68.8577 66.5777 68.8743 66.5785L71.2287 66.6297L73.5839 66.6183C73.6087 66.6189 73.6327 66.6183 73.6563 66.6189L76.0232 66.6676L80.7936 66.6798C81.6012 66.6825 82.2519 67.019 82.2466 67.4314C82.2416 67.8422 81.5877 68.1734 80.7844 68.1734H80.7749L75.9854 68.1611C75.9677 68.1611 75.9497 68.1611 75.9324 68.1606L73.5751 68.112L71.2178 68.1234C71.1945 68.1234 71.1676 68.1234 71.1415 68.1229L68.7739 68.0713L66.4053 68.0603L63.7294 68.0264L58.3616 68.1092L55.6457 68.1368H55.609L52.9359 68.1297L50.2652 68.1728L47.5533 68.203C47.5427 68.203 47.5314 68.203 47.5208 68.203L47.5211 68.2031Z" fill="#00263A"/>
<path d="M68.731 13.4791L63.8051 13.4611L63.5773 13.4737C63.5207 13.4769 63.4642 13.4786 63.407 13.478L56.2457 13.4565L51.4961 13.4721H51.4908C50.6854 13.4721 50.0312 13.1394 50.0283 12.7279C50.0255 12.3153 50.678 11.98 51.4855 11.9785L56.2454 11.963L58.6574 11.974L63.3445 11.9843L63.5727 11.9717C63.6288 11.9682 63.6871 11.9673 63.7426 11.9673L68.7331 11.9857L71.2133 11.9789L73.6974 11.9585H73.7497L76.249 11.9839C77.0566 11.9922 77.6985 12.3332 77.6826 12.7456C77.6667 13.1529 77.0149 13.4777 76.2208 13.4777H76.1911L73.7179 13.4524L71.2444 13.4726L68.7313 13.4795L68.731 13.4791Z" fill="#00263A"/>
<path d="M44.1463 80.5622C44.0919 80.5622 44.0361 80.5605 43.9806 80.5575C43.178 80.5111 42.6008 80.1415 42.6912 79.7316L42.9558 78.5332C42.9689 78.4747 42.995 78.4172 43.0346 78.362L43.8132 77.267L44.23 76.1808L44.3907 74.9751L44.407 73.7192C44.407 73.6799 44.4141 73.6405 44.4268 73.6017L44.8157 72.4068L44.7302 71.2028C44.7285 71.1772 44.7292 71.1517 44.7327 71.1261L44.8991 69.8521L45.1015 68.5909L45.1471 67.4025L45.1181 67.3067C45.1082 67.2735 45.1026 67.2401 45.1012 67.2064L45.0542 65.9024C45.0535 65.8788 45.0549 65.8553 45.0584 65.8317L45.2478 64.5655L45.2181 63.2956C45.2174 63.261 45.2213 63.2262 45.2297 63.1917L45.5502 61.9163L45.7335 60.6906L45.5721 59.439C45.5668 59.3995 45.5678 59.36 45.5752 59.3205L45.8045 58.0662L45.7533 56.8066C45.7519 56.7777 45.754 56.7489 45.7596 56.72L45.9946 55.4655L45.9564 54.2047C45.9553 54.1682 45.9596 54.1318 45.9688 54.0957L46.2959 52.8279L46.4361 51.5798L46.4287 50.3008C46.4287 50.2858 46.4294 50.271 46.4312 50.2561L46.5746 48.968L46.6474 47.6787L46.6866 46.4083L46.5909 45.1258C46.588 45.0921 46.5902 45.0583 46.5969 45.0248L46.8438 43.7288L47.0511 42.4586L47.1476 41.2147L46.9897 39.9492C46.9869 39.9252 46.9858 39.9012 46.9876 39.8774L47.0702 38.5787C47.0716 38.5589 47.0745 38.5388 47.0787 38.519L47.3602 37.2497L47.4627 36.0078L47.3687 34.7356C47.3666 34.7069 47.3677 34.6783 47.3719 34.6494L47.5655 33.3806L47.5701 32.109C47.5701 32.0698 47.5764 32.0309 47.5884 31.9924L47.9742 30.7592L47.9721 29.5424L47.8114 28.2618C47.804 28.2033 47.8103 28.1447 47.8297 28.0869L48.2385 26.8774L48.1131 25.6575C48.1106 25.6353 48.1102 25.6129 48.112 25.5906L48.2063 24.2919C48.207 24.2825 48.2081 24.2731 48.2091 24.2637L48.3995 22.9668L48.5712 21.6746L48.7203 20.417L48.6394 19.1497C48.6384 19.1313 48.6384 19.1131 48.6394 19.0949L48.7429 17.7962L48.8185 16.5146L48.833 15.2227L48.8694 13.9165C48.8704 13.8777 48.8771 13.8392 48.8902 13.801L49.2989 12.5802L49.2463 11.4498C49.2389 11.2853 49.3374 11.1242 49.5275 10.9913L51.0479 9.92923L52.1575 8.74977C52.1642 8.74291 52.1706 8.73606 52.1777 8.72938L53.4169 7.50951C53.4268 7.49941 53.4377 7.48967 53.4487 7.47993L54.7769 6.30552L56.0045 5.10152C56.0395 5.06725 56.0798 5.03423 56.125 5.00302L57.6221 3.96662L58.5628 2.77056C58.607 2.71428 58.6642 2.66142 58.7335 2.61217L60.315 1.49152C60.3726 1.45057 60.4386 1.41268 60.5114 1.37859L62.9701 0.22348C63.4209 0.0115087 64.0825 -0.0344936 64.6287 0.108745L65.0028 0.206883C65.7209 0.395402 66.0042 0.845683 65.6351 1.21262C65.3758 1.47023 64.8636 1.61816 64.333 1.61816H64.3213L62.6009 2.42636L61.2105 3.41153L60.2666 4.61155C60.2203 4.67018 60.1599 4.72575 60.0861 4.77662L58.5462 5.84279L57.3564 7.00962C57.3469 7.01936 57.3363 7.02874 57.3257 7.03813L55.9978 8.21236L54.7844 9.40661L53.6264 10.6377C53.5879 10.6788 53.5419 10.7179 53.489 10.7549L52.183 11.6676L52.2271 12.6167C52.2296 12.6648 52.2225 12.7128 52.2066 12.7603L51.793 13.9951L51.7583 15.2372L51.7438 16.5314C51.7438 16.5375 51.7439 16.5435 51.7432 16.5498L51.6665 17.8487L51.5648 19.1279L51.6463 20.4026C51.6478 20.4259 51.6474 20.4491 51.6446 20.4722L51.4906 21.7698L51.3175 23.0729L51.1281 24.3613L51.0373 25.6124L51.1684 26.8824C51.1744 26.9382 51.1677 26.9937 51.1493 27.0487L50.742 28.2542L50.8946 29.4704C50.8964 29.4861 50.8974 29.5018 50.8974 29.5175L50.8999 30.8175C50.8999 30.8572 50.8939 30.8967 50.8815 30.936L50.4954 32.1701L50.4908 33.4117C50.4908 33.4306 50.4894 33.4495 50.4866 33.4683L50.2955 34.7223L50.3884 35.9811C50.3902 36.001 50.3898 36.021 50.3884 36.0408L50.281 37.339C50.2792 37.3567 50.2768 37.374 50.2729 37.3915L49.9924 38.6572L49.9136 39.89L50.0719 41.1581C50.0751 41.1839 50.0758 41.2095 50.0736 41.2353L49.9726 42.5338C49.9719 42.5448 49.9705 42.5555 49.9687 42.5663L49.7568 43.863L49.5173 45.119L49.6109 46.3713C49.6119 46.3848 49.6123 46.3982 49.6119 46.4117L49.5717 47.7117L49.4978 49.0212C49.4971 49.0283 49.4968 49.0353 49.4961 49.0421L49.3537 50.3183L49.3611 51.5973C49.3611 51.6123 49.3604 51.6275 49.3587 51.6426L49.2124 52.9408C49.2103 52.959 49.2071 52.9772 49.2025 52.9953L48.8828 54.2361L48.9206 55.4835C48.9213 55.5111 48.9192 55.5389 48.9139 55.5663L48.6793 56.819L48.7302 58.0779C48.7316 58.1062 48.7295 58.1345 48.7242 58.1629L48.4978 59.4002L48.6585 60.6454C48.6631 60.6805 48.6627 60.7161 48.6574 60.7512L48.4635 62.0491C48.4617 62.0619 48.4589 62.0747 48.4561 62.0875L48.1438 63.3303L48.1728 64.5808C48.1735 64.6026 48.172 64.6246 48.1685 64.6465L47.9795 65.9104L48.0233 67.1282L48.0569 67.2381C48.0696 67.2805 48.0752 67.3238 48.0738 67.3667L48.0247 68.6433C48.024 68.6588 48.0223 68.6743 48.0198 68.6898L47.8153 69.9629L47.6556 71.1871L47.7439 72.4281C47.7474 72.4778 47.7411 72.5282 47.7248 72.5774L47.3309 73.7883L47.315 75.008C47.315 75.0233 47.3136 75.0386 47.3119 75.0538L47.1419 76.3291C47.1377 76.3603 47.1296 76.3913 47.1179 76.422L46.6619 77.6108C46.6474 77.6487 46.6272 77.6858 46.6015 77.7221L45.8433 78.7885L45.5985 79.8988C45.5145 80.2802 44.8814 80.5622 44.147 80.5622H44.1463Z" fill="#00263A"/>
<path d="M84.3825 80.573C83.701 80.573 83.0913 80.3287 82.9504 79.9746L82.4883 78.8112L81.8475 77.6618C81.838 77.6449 81.8295 77.6279 81.8228 77.6106L81.3388 76.4313C81.3229 76.3925 81.313 76.3534 81.3095 76.3141L81.1904 75.055L80.9573 73.7984L80.7036 72.5312C80.6955 72.4903 80.6937 72.4493 80.6987 72.4082L80.852 71.1678L80.7428 69.9327L80.68 68.6607L80.4927 67.4064C80.4821 67.335 80.4917 67.2628 80.5213 67.1925L80.5316 67.1676L80.1815 66.0083C80.1653 65.9549 80.1607 65.9006 80.1674 65.8467L80.3263 64.5793L80.2292 63.3418L79.972 62.0692C79.9646 62.0321 79.9625 61.9947 79.9657 61.9574L80.0833 60.6832L80.0052 59.465L79.5863 58.2229C79.575 58.1886 79.5679 58.1538 79.5658 58.1192L79.4877 56.8194L79.4319 55.5322L79.2493 54.2532C79.244 54.2164 79.244 54.1792 79.2493 54.1424L79.4333 52.9065L79.1684 51.68C79.1602 51.6408 79.1578 51.6013 79.1613 51.5622L79.2765 50.336L78.8946 49.1192C78.8783 49.0672 78.8727 49.0145 78.878 48.9619L79.009 47.6866L78.9504 46.4303L78.7925 45.1466L78.6134 43.8551C78.6106 43.8338 78.6091 43.8125 78.6099 43.7912L78.6473 42.5233L78.4618 41.2602C78.4583 41.2382 78.4569 41.2163 78.4576 41.1943L78.4908 39.9164L78.365 38.6424C78.364 38.6323 78.3633 38.6225 78.3633 38.6124L78.3379 37.3653L77.9638 36.1251C77.9496 36.0785 77.9443 36.0314 77.9475 35.9847L78.0372 34.7127L77.9274 33.4441C77.9263 33.4337 77.926 33.4232 77.926 33.4127L77.9207 32.1404L77.7288 30.8723L77.4911 29.59C77.4854 29.5608 77.4837 29.5314 77.4847 29.5022L77.5423 28.2464L77.2957 26.9966C77.289 26.9629 77.2873 26.9293 77.289 26.8954L77.3763 25.6306L77.2124 24.3712C77.2109 24.3615 77.2102 24.3519 77.2095 24.3422L77.14 23.0427L76.9206 20.4654L76.7514 19.1778C76.7496 19.1652 76.7485 19.1522 76.7482 19.1394L76.7097 17.8721L76.4546 16.6091C76.4451 16.5604 76.4444 16.5117 76.4532 16.463L76.68 15.2229L76.4815 13.9919C76.4794 13.9798 76.4779 13.9675 76.4772 13.9552L76.396 12.7L76.1081 11.7275L74.9695 10.622C74.9589 10.6117 74.9487 10.6012 74.9391 10.5906L73.8295 9.37882L71.0685 7.07384C71.0582 7.06518 71.048 7.05652 71.0384 7.04768L69.7215 5.85054L68.4321 4.63229L67.1293 3.44435C67.1226 3.4384 67.1166 3.43244 67.1102 3.42631L66.0052 2.3504L63.816 1.46481C63.0738 1.35621 62.6199 0.968526 62.7948 0.579762C62.976 0.177648 63.7602 -0.0734699 64.548 0.0192562L64.7971 0.0484812C65.009 0.0735569 65.2072 0.122085 65.3774 0.190998L68.0643 1.27791C68.2247 1.34268 68.3565 1.42404 68.4515 1.5164L69.6915 2.72365L70.9946 3.91213L72.283 5.12947L73.5738 6.3028L76.3705 8.63773C76.3981 8.66082 76.4232 8.68482 76.4454 8.70917L77.5741 9.94185L78.8112 11.143C78.8872 11.2167 78.9384 11.2967 78.9631 11.3791L79.3008 12.5194C79.309 12.5483 79.3146 12.5771 79.3164 12.6064L79.3994 13.8869L79.6053 15.1654C79.6124 15.2088 79.6121 15.2525 79.6039 15.2962L79.3786 16.5285L79.6251 17.7507C79.6297 17.7723 79.6322 17.794 79.6326 17.8156L79.6714 19.0963L79.8399 20.3746L79.842 20.3936L80.0625 22.9879L80.1321 24.2861L80.2992 25.5689C80.3027 25.5942 80.3034 25.6194 80.3016 25.6447L80.2154 26.8967L80.461 28.1418C80.4673 28.1724 80.4691 28.2033 80.468 28.2341L80.4104 29.4923L80.6422 30.7439L80.8407 32.0527C80.8435 32.0713 80.8449 32.0899 80.8449 32.1086L80.8502 33.3934L80.9612 34.6761C80.9629 34.6959 80.9633 34.716 80.9619 34.736L80.875 35.967L81.2438 37.19C81.2544 37.225 81.26 37.2605 81.2607 37.2959L81.2869 38.5814L81.4137 39.8641C81.4151 39.8799 81.4158 39.8958 81.4155 39.9117L81.3822 41.1803L81.5681 42.4441C81.5716 42.4665 81.573 42.4891 81.5723 42.5114L81.5349 43.7811L81.7101 45.0464L81.8705 46.3504C81.8715 46.3601 81.8726 46.3697 81.8729 46.3794L81.9337 47.679C81.9347 47.698 81.9337 47.7169 81.9323 47.7358L81.8065 48.9604L82.188 50.1756C82.2039 50.2265 82.2099 50.2781 82.2046 50.3297L82.0877 51.5742L82.3548 52.8111C82.3647 52.8571 82.3661 52.9034 82.3594 52.9496L82.1735 54.1993L82.3509 55.4419C82.3527 55.4543 82.3541 55.4671 82.3544 55.4796L82.4106 56.7792L82.4851 58.0205L82.9037 59.2617C82.915 59.2956 82.9221 59.3297 82.9242 59.3638L83.0076 60.6634C83.009 60.6832 83.0087 60.7032 83.0069 60.7231L82.8917 61.9711L83.1422 63.211C83.1454 63.2265 83.1475 63.2422 83.1489 63.2577L83.251 64.5577C83.2531 64.5837 83.2524 64.6095 83.2492 64.6355L83.0952 65.8604L83.4622 67.0754C83.4894 67.1654 83.4842 67.2572 83.4464 67.3463L83.4241 67.4001L83.5979 68.5653C83.6 68.5779 83.6011 68.5907 83.6018 68.6034L83.6647 69.8795L83.7759 71.1398C83.7784 71.1667 83.778 71.1936 83.7745 71.2204L83.624 72.4396L83.8664 73.651L84.1041 74.9304C84.1066 74.9418 84.108 74.9533 84.1091 74.9648L84.2239 76.182L84.6732 77.2772L85.3154 78.4291C85.3257 78.4477 85.3349 78.4663 85.3423 78.4852L85.8157 79.6767C85.976 80.081 85.4645 80.4752 84.6732 80.5573C84.575 80.5674 84.4772 80.5723 84.3811 80.5723L84.3825 80.573Z" fill="#00263A"/>
</svg>
