<svg width="128" height="100" viewBox="0 0 128 100" fill="none" xmlns="http://www.w3.org/2000/svg">
<path d="M49.511 28.4864C50.1137 28.6981 50.5928 28.6425 50.9066 27.9315C49.6344 26.5906 49.7071 24.4828 49.2253 22.9132C49.2248 22.9105 49.2244 22.9083 49.2239 22.9056C48.6857 21.1557 47.5216 19.2899 47.5508 17.3376C49.0172 18.0575 49.8665 19.5546 50.9077 20.6831C50.9077 20.6836 50.9077 20.684 50.9077 20.6843C52.3159 22.2079 52.4844 21.9216 53.7086 24.0287C54.4958 24.6617 54.8884 25.2724 55.3899 25.7015C56.4042 26.5658 57.7128 27.7899 58.7525 28.4895C60.4673 27.6504 60.1143 25.0577 60.4338 23.4712C60.4353 23.464 60.4372 23.4583 60.4387 23.4511C60.6574 22.3602 60.8064 21.2256 61.0016 20.129L61.5502 20.1283C61.578 21.6101 61.5332 23.1042 61.5558 24.5862H62.1153C62.1377 23.8474 62.0675 23.0918 62.1153 22.3557C62.1157 22.3516 62.1169 22.3476 62.1173 22.3435C62.4012 18.0571 63.3281 13.8494 63.243 9.53369C64.2213 9.40394 63.7699 10.801 63.7977 11.4768C63.9311 14.7194 63.7284 17.9983 63.7977 21.2407C63.7975 21.2413 63.797 21.2418 63.7966 21.2425C63.8047 21.6126 63.7852 21.9856 63.7966 22.3557C63.8133 22.9105 63.7685 23.4737 63.7966 24.0285L64.9175 26.259C64.9175 23.2955 64.8389 20.2982 64.9175 17.3374C64.918 17.3358 64.9182 17.3342 64.9186 17.3324C64.9354 16.619 64.4636 14.5205 65.4736 14.5522C65.8116 17.17 66.0061 19.7046 66.0396 22.3559H66.0398L67.1549 21.7998C67.2076 22.1597 67.0955 22.5791 67.1605 22.9137C67.4854 24.59 67.5635 26.3482 68.2815 27.932C68.2812 27.932 68.2805 27.9318 68.2803 27.9315C68.2803 27.9315 68.2803 27.9315 68.2803 27.9318C69.2022 29.0777 71.9454 26.022 72.7638 25.1437C72.7661 25.1415 72.7686 25.1397 72.7709 25.1374C74.8534 22.9112 76.8303 20.4788 78.9554 18.1985C79.4822 17.6331 80.0107 17.0423 80.058 16.2266C81.4234 16.8168 79.3756 19.4911 78.9298 20.1254C78.9835 20.4795 78.8501 20.9316 78.9298 21.2407C78.9624 21.3673 79.3663 21.4909 79.3303 21.9169C79.3129 22.1248 78.9527 22.235 78.9298 22.3559C78.7831 23.1346 78.4376 23.6915 78.3694 24.0287H78.3683C78.0769 25.4841 77.7491 26.9868 77.8134 28.4893L80.0496 26.2588C81.6748 21.1429 82.577 15.3132 83.9698 10.0883L69.4067 25.1435C67.9917 17.0164 66.1953 8.92571 64.3488 0.885065C64.1498 0.015112 64.7187 -0.0851297 63.2392 0.0486745L58.75 25.1408L43.6265 10.0883C44.3186 12.8094 47.6506 27.8313 49.511 28.4864Z" fill="#6B3529"/>
<path d="M77.2473 65.8483C77.8129 67.6905 79.2972 69.8559 79.4888 71.9795C79.4892 71.9804 79.4897 71.9813 79.4901 71.9819C79.5746 72.1457 79.9413 72.3045 80.0505 72.5395C80.1779 72.8136 80.7811 75.0311 80.3335 75.3248C78.4068 73.6022 76.7488 71.6425 75.0073 69.7523C75.0066 69.7519 75.0061 69.7519 75.0055 69.7514C73.4951 68.1122 71.9397 66.4534 70.5219 64.7331C70.3173 64.5687 70.1631 64.3344 69.9616 64.1756C66.6155 63.7435 67.5655 69.4005 67.1537 71.4217L66.0441 65.2938L65.4781 73.0974C65.4584 73.4682 65.5032 73.8446 65.4781 74.2127C65.3744 75.8019 65.1529 77.656 64.9177 79.231C64.7719 80.2125 64.7468 82.6883 63.8051 83.1316C63.5165 81.6316 62.9394 80.1791 62.6758 78.6735C62.2638 76.3011 62.2497 73.8279 62.1155 71.4247C61.5408 71.4889 61.2049 71.4749 60.9945 70.8671C60.6721 69.9305 60.1847 64.4436 59.8736 64.1731L57.0714 64.7333C56.8778 64.9063 56.6957 65.1041 56.511 65.2908C54.5859 67.2535 52.075 69.512 50.3462 71.4244V71.1485C50.3238 71.0341 50.3013 70.9199 50.3462 70.8669L49.7858 70.3094C49.7073 70.4349 49.5587 70.5576 49.4326 70.6608L49.2252 70.8671C49.2504 70.8365 49.2755 70.8059 49.2981 70.7752C49.2701 70.8002 49.2477 70.8225 49.2366 70.8421C49.626 69.9026 49.7745 69.0802 50.3462 68.0791C49.4494 67.1981 50.2703 66.7771 50.3462 66.4063C50.5617 65.3942 50.3294 64.2623 51.4671 63.6183C51.3886 63.0441 51.8706 61.4466 50.6348 61.9511C50.1164 62.1631 49.1021 63.4511 48.7966 64.0283L44.187 81.4588L58.1869 66.9638L64.08 92.0533L69.4098 67.5214L83.9673 82.0191C82.4767 76.8723 81.2968 69.0103 79.0523 64.3348C77.3261 60.741 76.1771 62.3469 77.2476 65.8486L77.2473 65.8483ZM48.1111 74.2125C47.7443 72.7958 48.8437 71.786 49.2264 70.8669C49.1467 71.1604 49.2581 71.6254 49.232 71.9819C49.2873 72.0504 50.2332 71.5411 50.3473 71.4244C49.9549 71.8592 49.5789 74.0291 48.1111 74.2122V74.2125Z" fill="#6B3529"/>
<path d="M70.522 64.7332C70.7237 64.8949 70.99 65.0873 71.2841 65.288C71.0375 65.0983 70.7853 64.9145 70.522 64.7332Z" fill="#6B3529"/>
<path d="M86.2152 50.7931C86.2152 50.7931 86.2148 50.7925 86.2143 50.792V50.7929C87.4695 51.9388 90.6417 51.0634 92.3792 50.7929C98.9083 49.7754 105.331 47.3302 111.995 46.8842C111.756 45.8498 110.602 45.7493 109.761 45.4874C103.016 43.3825 94.8001 42.6937 87.8981 40.7506C91.1011 37.8148 94.1639 34.7089 97.4228 31.8344L96.8625 31.2769C94.5169 32.5482 85.0232 38.9161 84.5412 41.0488C84.188 42.6045 90.9442 43.8063 92.3789 44.1016C92.7208 44.1712 93.1607 44.032 93.4999 44.1016L93.5021 44.1038C93.5021 44.1038 93.5012 44.1022 93.501 44.1016C93.7618 44.1543 93.9837 44.4005 94.0614 44.6591C94.0609 44.6591 94.0602 44.6586 94.0598 44.6586L94.0602 44.6591C95.3267 44.9855 96.7056 45.0022 97.9834 45.2166C99.278 45.4342 102.837 45.6097 103.025 45.777C103.1 45.8439 102.999 46.5355 103.025 46.8867C102.661 46.9286 102.263 46.8396 101.908 46.8894C100.78 47.0529 99.5157 47.3262 98.5451 47.4471C98.1842 47.4919 97.7801 47.3931 97.4242 47.4471C95.9815 47.6665 94.5126 47.7492 92.9406 48.0046L92.9402 48.0042H92.9395C91.1683 48.2916 89.42 48.3112 87.8956 48.5622L87.895 48.5626C87.895 48.5626 87.8961 48.5624 87.8968 48.5622L89.0127 49.1269L89.015 49.6718C87.9538 49.6565 86.5669 49.5157 86.2155 50.7927L86.2152 50.7931Z" fill="#6B3529"/>
<path d="M96.8628 31.2771C97.0167 31.1936 97.1596 31.0737 97.2998 30.9426C97.1793 31.0068 97.0337 31.1183 96.8628 31.2771Z" fill="#6B3529"/>
<path d="M16.7196 46.887L41.0905 51.3591C42.4439 48.5238 34.6678 47.8239 32.4121 47.4475C30.1534 47.0684 28.5002 47.0071 26.2472 46.89C25.6251 46.8593 24.4229 47.2776 24.5714 46.3378C27.0849 46.3239 30.0862 44.8099 32.4121 44.6594H32.4148C32.5717 44.6371 32.7456 44.6484 32.9165 44.6624C33.051 44.6651 33.1798 44.6736 33.3061 44.6847C33.3872 44.6847 33.463 44.6763 33.5332 44.6594L34.4635 44.1968C34.5405 44.1499 34.6035 44.1159 34.6492 44.1044L34.6542 44.1019C34.9904 44.0294 35.4527 44.1828 35.7751 44.1019C37.1537 43.7645 43.3101 42.6717 43.6239 42.4237C43.6688 42.3902 43.638 41.5734 43.6212 41.3139C40.0062 38.5984 36.8818 34.1346 32.9729 31.8347C32.6729 31.6563 31.8463 31.5394 31.2916 31.2772C30.5209 30.9121 28.8228 29.5625 28.4893 30.7197C32.0931 34.1797 36.4503 36.9035 39.6983 40.7512C39.0005 41.6432 20.4696 44.8998 17.5412 45.7585C16.7203 46.0009 16.5634 45.449 16.7203 46.8875L16.7196 46.887Z" fill="#6B3529"/>
<path d="M31.6274 29.7576C32.1824 30.2342 32.7427 30.7028 33.3087 31.1598C33.39 30.4935 32.4934 30.1784 31.6274 29.7576Z" fill="#6B3529"/>
<path d="M106.952 18.4521H106.624C106.738 18.4654 106.854 18.4841 106.952 18.4521Z" fill="#6B3529"/>
<path d="M42.6177 64.2871C49.7436 59.4276 57.105 54.8999 64.3572 50.2354C67.8516 47.9885 71.161 45.2421 75.0056 43.5441C77.7544 40.9903 84.5219 36.6633 87.9433 34.3911C100.898 25.7927 114.685 18.3265 127.679 9.77022C126.485 8.41236 126.118 3.85693 124.901 3.09578C123.374 2.14225 122.629 3.59766 121.637 3.80399C120.9 3.95717 120.065 3.50845 119.423 3.78732C118.078 4.37548 118.451 5.58828 117.764 6.21562C113.376 10.2331 88.6493 24.7865 82.462 27.8478C81.7586 28.1962 81.2655 28.2688 80.6098 28.4888L80.0184 28.843L80.0044 28.8513C79.9315 28.9015 79.8559 28.9488 79.7746 28.9878L79.7692 28.9907L79.2842 29.2806C77.0228 29.261 74.5428 30.8167 73.2595 32.6598C73.0634 32.9357 72.8979 33.22 72.7637 33.5072C71.3627 34.3659 64.6989 39.033 63.7656 38.849L9.78126 6.24626C9.29652 2.61349 8.73888 4.16351 6.46621 3.74543C5.39576 3.54742 5.01178 2.26502 3.2689 3.10141C1.76126 3.82337 1.06619 8.35672 0.707565 10.091C10.3079 16.5674 20.3818 22.3192 30.1701 28.4891C35.6455 31.9407 40.6334 35.437 45.8625 39.0835C46.8881 39.8 55.3478 43.6837 54.2663 45.206L39.2689 54.0412C37.9686 54.3478 36.8282 53.4222 35.5391 53.5756C34.2418 53.7287 32.7509 55.6331 32.14 55.6248C31.672 55.6191 29.8366 53.9939 28.4915 54.6992C27.1969 56.6675 31.2516 60.2167 31.2516 60.5512C31.2516 61.2038 23.5259 70.1921 22.8449 70.5491C21.455 71.2767 19.6784 71.3326 17.8794 72.2998C14.4355 74.151 6.03174 80.452 3.00514 83.1508C1.67138 84.3413 -0.934561 86.1035 0.343051 87.9824L8.10245 98.68C8.733 99.0535 9.38301 99.4299 10.1591 99.2294C13.3257 98.4151 28.41 76.5097 32.1144 73.0554C34.3815 71.7423 36.1411 75.0433 39.9803 72.5395C45.0241 69.2552 41.6896 65.8567 42.6172 64.2871H42.6177ZM78.8325 36.7428C78.1302 37.3193 75.0248 38.9733 73.8858 39.6412C73.7472 39.7225 73.464 39.5599 73.3254 39.6412C64.945 44.5641 56.8032 49.9496 48.6659 55.2542L47.5549 54.428C51.9789 52.6878 76.604 35.4034 78.9299 35.7379C78.9493 36.0423 79.0646 36.5522 78.8325 36.7428ZM59.3142 49.6781C58.9547 49.9036 58.5492 50.1415 58.1462 50.3755C57.5388 50.7283 56.9376 51.0723 56.512 51.3509C56.2204 51.557 55.9591 51.7282 55.7089 51.8899C55.3668 52.1211 55.0336 52.3445 54.8307 52.4662C54.1624 52.9259 53.9926 53.0994 53.1494 53.5814C53.0924 53.6204 53.0392 53.6555 52.986 53.6902C52.6638 53.936 52.5116 54.2453 51.4679 54.6967C51.4321 54.7298 51.3959 54.7577 51.3599 54.7895C50.8883 55.2326 50.4063 56.1811 49.4714 56.3469C48.8137 56.585 48.8567 56.1938 48.6657 55.8122C49.4859 55.1508 50.6232 55.0621 51.4679 54.6967C52.1263 54.1975 52.4697 54.0243 52.9257 53.7301C52.9452 53.7175 52.966 53.7035 52.986 53.6905C52.9869 53.6898 52.9878 53.6889 52.9887 53.6882C53.0373 53.6513 53.0894 53.6159 53.1492 53.5817C53.7295 53.1847 54.2171 52.8342 54.8305 52.4664C54.9939 52.354 55.1563 52.2477 55.32 52.1418C55.447 52.0596 55.5765 51.9758 55.7087 51.8902C55.9064 51.7566 56.1061 51.6212 56.2865 51.5007C56.366 51.4475 56.4423 51.3969 56.5118 51.3511C57.7991 50.4418 58.083 50.3758 59.314 49.6784C59.5837 49.5092 59.907 49.2893 60.2339 49.0681C60.3935 48.9602 60.5529 48.853 60.7082 48.7501C60.6792 48.7703 60.6494 48.7913 60.6192 48.8125C60.2853 49.0497 59.8857 49.3544 59.314 49.6781H59.3142ZM64.9187 46.3323C64.0516 46.8554 63.0275 47.4645 62.1165 48.0051C62.0624 48.0416 61.9935 48.077 61.9154 48.1135C61.7359 48.2072 61.5625 48.2876 61.3992 48.3619C61.2541 48.4279 61.1158 48.4921 60.9955 48.5626C61.2493 48.4009 61.5197 48.2878 61.7452 48.1898C61.8056 48.1635 61.8629 48.1383 61.9154 48.1135C61.9824 48.0786 62.0488 48.0452 62.1165 48.0051C63.3431 47.182 63.5899 47.0421 64.9187 46.3323C64.9479 46.3168 64.9805 46.2846 65.0156 46.2413C65.3631 45.8115 65.981 44.2368 66.6 45.7748C66.0238 46.1213 65.2402 46.1386 64.9187 46.3323ZM69.4022 43.5443C69.2168 43.6592 68.9035 44.2895 68.2813 44.6596C66.9668 44.1027 68.7837 43.7905 69.3037 43.5905C69.3452 43.5745 69.3794 43.559 69.4022 43.5445C69.4242 43.5216 69.4464 43.5031 69.4683 43.4812C69.786 43.1107 70.5207 41.5431 71.0835 42.987C70.5322 43.3359 69.7228 43.3461 69.4022 43.5445V43.5443ZM81.5865 36.7088L80.0168 34.0908L80.8059 33.6227L82.3755 36.2407L81.5865 36.7088ZM91.2597 29.5989C90.9874 29.3867 92.2385 28.123 92.9406 28.4947C93.2129 28.7069 91.9618 29.9706 91.2597 29.5989ZM106.952 18.4522C106.776 18.6491 106.582 18.8281 106.391 19.0097C104.832 20.4901 103.553 20.8278 101.908 21.7977C99.8901 22.9873 99.3739 23.6539 96.864 24.5858C95.8999 25.1953 94.8745 25.7423 94.0617 26.2586C93.7369 27.3837 93.1446 27.1103 92.3805 27.3738C91.3827 27.9457 90.8497 28.4256 89.5782 29.0466C89.2219 29.2207 88.7998 29.4203 88.4573 29.6041C88.2929 29.9853 88.0631 30.3403 87.8969 30.7194C88.5377 30.5808 89.7177 29.7298 90.1359 30.4378L87.3363 31.8346C87.6003 32.0973 86.8174 32.7224 86.776 32.1135C86.7628 31.9202 87.2109 31.7096 87.3363 31.8346C87.1919 31.7216 87.75 31.0543 87.8967 30.7194C87.145 30.882 86.4087 31.1201 85.6548 31.2769L83.1381 32.9546C82.498 32.1586 84.6104 31.5977 85.0945 31.2769H85.6548V30.7194C86.0105 30.511 86.4051 30.3459 86.7758 30.1619C86.8924 30.104 86.9938 29.9715 87.092 29.8472L87.3361 29.6041C87.4837 29.5277 87.7534 29.6821 87.8965 29.6041C88.0405 29.5259 88.3124 29.6816 88.4568 29.6041V29.0466C88.6323 28.9952 88.8546 29.1029 89.0172 29.0466H89.3455C89.4256 29.0563 89.5058 29.0639 89.5775 29.0466V28.4891C90.0233 28.1388 90.6235 27.3995 90.6985 27.3738C91.1146 27.2315 91.9643 27.5171 92.3798 27.3738C92.6569 27.215 93.5498 26.5834 94.0611 26.2586C94.1007 26.1218 94.066 25.8844 94.0611 25.701C94.9035 25.0681 95.9251 24.9343 96.8633 24.5858C98.5507 23.5189 100.2 22.3233 101.907 21.2402C103.407 20.2894 104.833 19.3244 106.391 18.4522C107.77 17.6802 108.975 16.7562 110.601 16.234C110.505 17.6545 108.016 18.1033 106.951 18.4522H106.952ZM114.525 15.0978C114.171 14.83 113.923 14.6847 113.741 14.6225L113.204 14.9429C113.065 15.3215 112.939 15.8401 111.999 15.6612L113.204 14.9429C113.296 14.6912 113.395 14.5036 113.741 14.6225L114.795 13.9945L114.525 15.0978ZM125.444 8.41821C126.513 9.30731 124.609 9.61164 124.33 9.79432C121.708 11.5137 118.786 13.2658 115.919 14.5435C116.661 13.3606 125.007 8.05532 125.444 8.41821ZM11.1161 8.97303C28.2685 18.9385 44.6497 30.2215 62.1151 39.6478C61.7076 40.7709 61.5889 40.6952 60.6247 40.3026C55.3019 38.1358 48.4295 32.7753 43.2339 29.7113C41.41 28.6357 39.2001 27.7899 37.457 26.8161L36.336 25.7008C36.1947 25.6211 35.9172 25.7806 35.7757 25.7008C34.8863 24.3409 33.2322 23.648 31.8525 22.9128C31.7074 22.8355 31.4361 22.9907 31.2921 22.9128L27.2592 20.2378C26.9279 20.0085 26.594 19.7828 26.2483 19.5672C20.8559 16.203 15.347 12.9493 9.99544 9.53032C7.93242 8.2121 5.51576 6.84365 3.83084 5.07491C6.49406 5.67928 8.80861 7.63183 11.1164 8.97258L11.1161 8.97303ZM12.2317 15.1066C12.039 15.3501 10.8492 14.1572 10.5558 13.9916C7.79318 12.4335 6.33761 11.4146 3.83039 9.53077C3.50912 9.28929 2.16245 9.44742 2.14932 8.42092C3.31871 7.98391 3.46135 9.33254 3.83039 9.53077C6.16736 10.7861 8.95918 11.8978 11.1161 13.4341C11.8117 13.9294 12.4852 13.9986 12.2317 15.1066ZM15.5945 15.6644C15.5069 15.8038 14.3098 14.5216 14.2016 16.2203C11.1755 12.6551 16.6353 14.0058 15.5945 15.6644ZM43.6218 32.9499C43.5317 33.0395 43.7314 33.7135 43.5683 34.0194C43.0669 34.2068 43.0947 33.5214 43.0614 33.5074C42.5602 33.2948 41.9704 33.2684 41.3801 32.9499C40.7747 32.6228 40.124 32.4419 39.6988 31.8346C39.3282 31.6429 38.9512 31.4636 38.5779 31.2771C37.9578 30.9672 37.3263 30.7536 36.8966 30.1619C36.5257 29.9708 36.1495 29.79 35.7757 29.6043C34.9971 29.2173 34.7134 28.9204 34.0944 28.4891C33.5589 28.116 33.1448 27.4817 32.9734 27.3738L32.6096 27.1927C32.3798 27.0916 32.116 26.9823 31.8525 26.8161L31.1466 26.3478C31.3304 26.4726 31.5149 26.5971 31.6811 26.7057C31.2009 26.3975 30.6435 26.0139 30.1714 25.7008C30.0682 25.6648 29.9731 25.6272 29.8839 25.5877C29.0326 25.324 27.1317 25.0527 27.6549 24.0231C28.2581 23.7956 28.6746 24.5002 29.0505 24.5856C29.237 24.6279 29.4544 24.5324 29.6108 24.5856C26.9743 22.7371 24.3655 20.9149 21.7647 19.0095C20.2433 18.2616 20.3119 18.317 18.9625 17.3367C18.6233 17.0903 17.3 17.2529 17.2814 16.2268C18.4501 15.7889 18.5957 17.1409 18.9625 17.3367C20.3443 18.0737 20.409 18.0163 21.7647 19.0095C22.9654 19.5997 24.5387 20.1234 25.6879 20.6823C26.1034 21.6874 27.066 21.9345 27.9298 22.355C28.081 22.4287 28.3434 22.2796 28.4901 22.355L28.9706 22.833C29.0004 22.8707 29.0267 22.8999 29.0505 22.9128C29.1952 22.9907 29.4659 22.8355 29.6108 22.9128L30.7318 24.028C30.8735 24.1073 31.1511 23.9481 31.2921 24.028L31.7633 24.4968C31.797 24.5387 31.8262 24.5702 31.8525 24.5856C31.9922 24.666 32.2738 24.5045 32.4128 24.5856L33.4736 25.6409C33.4967 25.6691 33.517 25.6907 33.5336 25.7008C33.6689 25.7837 33.9601 25.617 34.0939 25.7008L34.5485 26.1531C34.5875 26.2 34.6223 26.2381 34.6543 26.2583C34.7869 26.3428 35.0835 26.1734 35.2146 26.2583L36.238 27.2765C36.2742 27.3189 36.3073 27.3547 36.3353 27.3736C36.463 27.4599 36.7687 27.2866 36.8957 27.3736L37.3299 27.8056C37.3754 27.8588 37.4169 27.9039 37.4561 27.9313C37.8991 28.2406 38.3834 28.3499 38.577 28.4888L38.8869 28.7972C38.9671 28.8889 39.0468 28.979 39.1373 29.0464C39.6997 29.4651 39.9723 29.9379 40.2583 30.1616L41.1736 30.6171C41.2631 30.6522 41.3358 30.6847 41.3792 30.7194C42.2604 31.1823 42.3847 31.356 42.8783 31.708C42.8221 31.6711 42.7653 31.6355 42.7073 31.6001L43.0605 31.8346C43.0988 31.8527 43.1341 31.8704 43.1696 31.8882C43.5769 32.0471 44.4341 32.0121 44.7398 32.6735C44.7887 33.2587 43.7658 32.8053 43.6209 32.9497L43.6218 32.9499ZM45.3087 35.7379C45.1235 34.683 45.9621 33.882 46.9844 34.0708L45.3087 35.7379ZM52.0287 39.0891C52.4756 39.1245 54.0242 39.7599 54.6165 40.0706C53.2966 39.2659 50.857 37.5132 49.7268 36.6185C49.4144 36.3709 47.7575 36.1139 48.6713 35.1809C49.1004 34.7425 57.819 41.1633 59.3097 41.3214C58.9941 42.6897 55.5326 40.6085 54.8305 40.199C54.909 40.2663 55.3299 41.0518 55.3908 41.3088C54.8015 41.7476 52.2542 40.0429 52.0287 39.0893V39.0891ZM69.3164 37.8295L123.399 4.75774L124.252 6.13768L93.6606 24.8441C93.6748 24.9365 93.6755 25.0266 93.6676 25.1149C93.606 24.9978 93.5838 24.8951 93.6606 24.8441L91.7005 26.0428L90.2198 26.9481L89.8916 27.1488L89.1016 27.632L88.4996 28L87.5143 28.6026L87.0293 28.8993L86.6209 29.1489L85.6582 29.7375L72.5305 37.765L42.24 56.2875L41.3876 54.9078L69.3164 37.8295ZM39.1382 56.3692C40.196 56.7454 42.8955 56.6121 41.6529 58.0504L39.1382 56.9268L38.589 56.6479L39.1382 56.369V56.3692ZM36.8934 55.2567L33.5437 58.3209C34.9178 59.9464 37.332 60.123 36.9256 62.7664C36.5355 65.3039 34.0187 63.6996 34.7713 62.5882C34.8981 62.4008 36.3376 62.6821 35.7446 61.1396C35.3711 60.1673 32.4731 59.615 31.8629 58.3202C33.45 57.2897 34.9167 55.4231 36.893 55.2565L36.8934 55.2567ZM30.1712 71.4245C29.7474 71.9291 29.4725 72.5875 29.0503 73.0973C28.9635 73.202 28.861 73.2946 28.7589 73.3872L28.4897 73.6548C28.3219 73.8557 28.0984 74.0143 27.9293 74.2123C27.5193 74.6921 27.1174 74.9831 26.8084 75.3275C26.4932 75.6787 26.2392 76.3924 25.6874 77.0003C24.5921 78.2079 23.2968 79.2838 22.3249 80.3459C22.2454 80.4497 22.1433 80.5392 22.0414 80.6281C21.947 80.7178 21.8523 80.8077 21.7645 80.9036C21.6864 81.0057 21.5859 81.0942 21.486 81.1818C21.3905 81.2733 21.2943 81.3645 21.2041 81.4611L20.8799 81.8914C20.5075 82.3937 20.1597 82.8852 19.7044 83.4632C19.7524 83.3981 19.8004 83.3308 19.8491 83.2594L19.5231 83.6917C19.4339 83.8023 19.3243 83.8996 19.2154 83.9978L18.9625 84.2494L18.6503 84.6222C18.6743 84.5943 18.6983 84.5663 18.7227 84.5373C17.8773 85.5519 17.0183 86.595 16.1605 87.5947C15.664 88.3108 15.1899 88.8546 14.7642 89.3452C14.4679 89.7259 14.1846 90.083 13.9186 90.3828C13.8502 90.4785 13.7524 90.5628 13.6528 90.6477C13.5514 90.7427 13.4499 90.8378 13.3583 90.9403C12.687 91.8805 11.8884 93.8279 11.1164 94.8436C10.6106 95.5092 10.5685 96.217 9.43531 95.9534C9.1926 95.7645 10.3808 94.599 10.556 94.2861C10.6362 94.1433 10.4745 93.8648 10.556 93.7286C10.6618 93.552 10.8311 93.4339 10.9683 93.3184L11.1164 93.1708C11.3503 92.8577 11.4458 92.3486 11.6767 92.0556L11.3992 91.5136L10.5558 92.0556C10.0826 92.5768 9.37259 94.4064 8.31686 93.4522C9.58836 92.5004 10.1734 91.0002 11.1164 89.8253L10.556 89.2677C9.85212 90.0086 8.12849 92.6572 7.19411 92.0504C6.95774 91.8967 7.73092 91.1982 7.75379 90.9405C7.80043 90.4181 7.58444 90.4614 7.19343 90.383C7.06212 90.3567 6.69737 90.3456 6.63308 90.383C6.15287 90.663 6.11891 91.6686 5.79514 91.4958C4.9957 91.0088 4.84809 89.8253 4.3912 89.2677C3.81114 88.5593 2.53353 88.0725 2.16268 86.741C1.79884 85.4347 2.60349 86.4137 3.27026 85.9222C7.22151 83.0098 16.0615 75.4706 19.8892 73.7404C21.5184 73.004 23.0537 73.2047 24.5502 72.2442C26.3637 71.0803 29.1537 66.1178 30.7318 64.1756C31.3843 63.3728 31.7169 62.2523 32.9734 62.5082C33.0515 63.4082 31.3829 64.5342 31.2921 64.7331C31.0793 65.2012 31.4757 66.8143 30.7318 67.5212C31.0125 67.448 31.4936 67.5315 31.8527 67.5212C32.3295 67.5074 33.4163 67.2808 33.5315 67.7973C32.615 69.0647 31.104 70.3137 30.1714 71.4243L30.1712 71.4245ZM32.416 65.8455C32.5208 63.6294 33.8041 64.0695 34.6549 65.843L32.416 65.8455ZM34.6561 70.8602C35.6609 68.5222 36.5482 70.9235 38.0148 70.8638C36.6251 69.369 39.026 65.4855 40.2538 66.4086C42.682 68.2341 37.7203 73.3953 34.6561 70.86V70.8602ZM38.5833 62.5028C38.8222 60.8506 38.4461 59.859 37.4572 58.6052L41.9405 59.715C43.5507 58.62 44.5645 55.6146 46.99 56.6537C46.4068 58.8921 43.5672 59.3406 41.9405 60.2725C40.7931 60.9301 39.9101 62.0942 38.5833 62.5031V62.5028Z" fill="#6B3529"/>
<path d="M22.3252 80.3461C22.4287 80.2107 22.5292 80.0622 22.6288 79.9045C22.5283 80.0474 22.4275 80.1933 22.3252 80.3461Z" fill="#6B3529"/>
<path d="M22.0414 80.6284C22.1385 80.5363 22.2354 80.4442 22.3249 80.3462L22.04 80.6296L22.0414 80.6284Z" fill="#6B3529"/>
<path d="M31.8525 26.8162C31.9592 26.8828 32.0959 26.945 32.2429 27.0103L31.8525 26.8162Z" fill="#6B3529"/>
<path d="M21.4859 81.182C21.5814 81.0908 21.6763 80.9998 21.7644 80.9038L21.4741 81.1926C21.4782 81.1892 21.4818 81.1856 21.4859 81.182Z" fill="#6B3529"/>
<path d="M13.6528 90.648C13.7443 90.5621 13.836 90.4763 13.9186 90.3831L13.6494 90.6509L13.6528 90.648Z" fill="#6B3529"/>
<path d="M14.5962 89.5402C14.651 89.4765 14.7071 89.4109 14.764 89.3456C14.869 89.2109 14.9756 89.0733 15.0841 88.9336L14.5964 89.5404L14.5962 89.5402Z" fill="#6B3529"/>
<path d="M29.6108 68.6364C29.8262 68.4749 30.0197 68.3028 30.1712 68.0789C30.0132 68.2325 29.6201 68.5535 29.6108 68.6364Z" fill="#6B3529"/>
<path d="M29.0503 71.4245C29.1879 71.2997 29.3057 71.1746 29.4232 71.0535L29.6107 70.8669C29.5022 70.8888 29.221 71.2654 29.0503 71.4245Z" fill="#6B3529"/>
<path d="M30.2878 69.8116C30.2547 69.7911 30.2164 69.7711 30.1714 69.752C30.211 69.7702 30.2445 69.7889 30.2753 69.8076C30.2253 69.7923 30.1859 69.7752 30.1714 69.752V70.3095C30.1897 70.2845 30.7358 70.3728 30.722 70.0254C30.7166 69.89 30.4501 69.8587 30.2878 69.8116Z" fill="#6B3529"/>
<path d="M105.823 80.3322C105.78 80.2309 105.735 80.136 105.688 80.0435C105.728 80.1482 105.772 80.2457 105.823 80.3322Z" fill="#6B3529"/>
<path d="M127.398 85.3702C126.905 84.3024 110.437 72.2191 108.475 71.3047C106.239 70.262 105.429 71.2266 103.005 68.9377C102.26 68.2295 97.0532 60.9779 96.9495 60.4677C96.717 59.3078 100.169 56.2551 99.0623 54.7468C98.0704 53.4031 96.1034 55.2347 95.4616 55.2541C94.4948 55.2849 93.4803 53.6538 92.0623 53.5759C90.7931 53.509 89.9943 54.4875 89.2965 54.5042C88.1475 54.5265 87.7243 53.2414 87.3349 53.0238C87.1303 52.5861 86.7884 52.0509 86.3655 51.549C85.4268 50.4448 84.0731 49.5192 82.8514 50.2357C82.714 50.1551 82.431 50.3166 82.291 50.2357L82.2406 50.1884L82.2322 50.1772L81.1701 49.1205C79.2393 47.9719 77.0984 47.0938 75.0053 45.7749L74.991 45.7607L74.9912 45.7612L74.4449 45.2174C74.1506 45.1311 73.677 45.276 73.324 45.2174C73.1979 45.3514 73.2848 46.3272 72.7523 46.5753C72.6176 47.5621 69.3784 47.2666 69.9668 48.2789C70.3311 48.9063 79.0824 53.6486 80.5649 54.4627C81.4196 54.9313 82.4144 56.0632 82.7869 56.3279C82.7898 56.3308 82.7953 56.3335 82.7982 56.3362C82.8149 56.3475 82.8346 56.3585 82.8516 56.3696L82.8521 56.3702L82.8525 56.3698C85.2364 57.5677 88.8419 57.6049 90.9121 58.6665C94.6343 60.5751 97.2035 65.0186 99.6657 68.0795C99.7653 68.1844 99.8443 68.2797 99.9068 68.3662C101.028 69.6531 102.72 71.0099 103.589 72.5403C105.157 73.2769 106.614 72.9523 108.278 73.7299C109.279 74.1975 123.137 84.3628 123.754 85.0974C124.444 85.9207 124.84 88.1451 123.492 87.591L117.6 82.5774C117.662 82.6826 117.568 82.9338 117.6 83.1349L123.194 88.433C123 88.8761 122.274 89.0329 122.083 89.2685C122.082 89.2671 122.081 89.2656 122.08 89.2642L122.082 89.2683C121.286 88.7946 120.897 88.9227 121.194 89.4158V89.4161C121.194 89.4188 121.194 89.4217 121.197 89.4244C121.266 89.5372 121.374 89.6695 121.517 89.8204C121.518 89.8222 121.52 89.824 121.522 89.8258C121.127 90.163 120.754 90.3468 120.402 90.3833C120.402 90.3833 120.401 90.3833 120.401 90.3833C119.482 89.9071 119.148 90.1216 119.698 90.7804C119.746 90.8343 119.794 90.8872 119.841 90.9411C119.84 90.9395 119.838 90.9377 119.836 90.9361C119.838 90.9377 119.839 90.9393 119.84 90.9408C119.546 90.9575 118.986 90.7737 118.161 90.384C118.16 90.384 118.16 90.3838 118.16 90.3835L118.159 90.3831C117.174 89.8727 116.86 90.1549 117.588 90.9293C117.592 90.9334 117.596 90.937 117.599 90.9408C117.992 91.329 119.754 93.1191 119.003 93.7262C117.909 92.6467 116.785 91.6754 115.919 90.3851C115.919 90.3844 115.918 90.384 115.917 90.3833V90.3804C115.877 90.3173 115.896 90.2146 115.917 90.111V89.8256L115.916 89.8249L115.916 89.8242C115.905 89.8055 115.891 89.7889 115.88 89.7726C115.791 89.6584 115.701 89.5999 115.617 89.6026C115.528 89.6082 115.441 89.6832 115.357 89.8247L115.357 89.8251L115.357 89.8256C114.369 89.3133 114.055 89.5992 114.793 90.3797C114.794 90.3808 114.796 90.382 114.797 90.3833C115.032 90.6633 115.121 91.2073 115.358 91.4986C116.291 92.6476 117.668 93.7361 118.165 95.1176C116.494 95.2579 115.887 92.7517 115.364 92.0656C115.362 92.0622 115.359 92.0595 115.357 92.0561L115.355 92.0538C115.317 92.0266 115.287 91.9986 115.261 91.9707C115.021 91.7995 114.503 91.6085 114.21 91.2452C113.788 90.723 113.82 90.0267 113.679 89.8298L113.676 89.8256L113.382 89.5339C113.288 89.4525 113.196 89.3703 113.125 89.2782C113.122 89.2746 113.118 89.2717 113.115 89.2681C113.028 89.1928 112.941 89.1149 112.855 89.0367C112.854 89.0358 112.852 89.0345 112.851 89.0333C112.939 89.1122 113.027 89.1908 113.116 89.2681C113.058 89.1903 112.965 89.1131 112.851 89.0331H112.851L112.851 89.0327H112.85C112.44 88.7434 111.753 88.4177 111.405 87.8944C111.098 87.4331 111.009 86.847 110.923 86.5888C110.904 86.5532 110.89 86.5154 110.874 86.48C110.87 86.4753 110.866 86.4699 110.862 86.4651C110.471 86.0054 110.137 85.5371 109.845 85.1251C109.621 84.8298 109.406 84.5435 109.224 84.2912L109.192 84.2497L108.919 83.9778C108.876 83.9384 108.833 83.8985 108.791 83.8582C108.74 83.8105 108.691 83.7611 108.648 83.7086L108.632 83.6922L108.608 83.6625C107.672 82.5422 107.34 82.2517 106.399 80.9154L106.39 80.9042L106.123 80.6377C106.009 80.5433 105.898 80.4516 105.834 80.3505C105.833 80.3491 105.831 80.348 105.83 80.3464C105.83 80.3457 105.829 80.3451 105.829 80.3442C105.374 79.8425 104.747 79.3359 104.15 78.6739C104.149 78.6739 104.149 78.6736 104.149 78.6734V78.6723L104.129 77.7059C103.549 77.0396 102.966 76.3704 102.377 75.6984C98.9962 71.8327 95.4747 67.8943 91.8218 64.1789C91.8207 64.1777 91.8198 64.1766 91.8187 64.1755L91.8194 64.1748C91.8268 64.1671 91.8332 64.1602 91.8402 64.1527C91.8828 64.1045 91.9251 64.059 91.9672 64.016C91.9742 64.0079 91.9826 63.9993 91.9894 63.9914C91.9921 63.9914 91.9921 63.9885 91.9921 63.9885C92.0901 63.877 92.1576 63.7851 92.1995 63.7069C92.2004 63.7069 92.2002 63.7065 92.2004 63.7058C91.9885 63.7858 91.6233 63.4968 91.2592 63.0602C91.2588 63.0602 91.2581 63.06 91.2581 63.06C90.9536 62.9888 89.7758 62.6081 89.5779 62.5025C89.6264 62.5342 90.4734 63.7186 89.8528 63.6231C88.9472 63.8885 88.7891 62.7244 88.4572 62.5025C87.9625 62.172 87.2326 61.6683 86.7759 61.3874H86.7748C86.7748 61.3874 86.7741 61.3863 86.7737 61.3859C84.5309 60.005 82.8308 59.065 80.6111 57.4839C80.6111 57.4839 80.6104 57.4839 80.61 57.4839C80.61 57.4839 80.61 57.4835 80.61 57.483C80.0277 57.0679 79.7281 56.5421 79.4908 56.3691C79.4904 56.3691 79.4897 56.3689 79.4893 56.3687L79.4877 56.3678C76.9488 55.4032 76.7925 54.7006 75.0372 53.6002C75.0266 53.5935 75.0164 53.5876 75.0057 53.5806L74.0591 53.0154C73.4768 52.6778 72.8764 52.3367 72.223 51.9193L72.2035 51.9078L72.194 51.9031C72.0233 51.8285 71.8474 51.7364 71.6798 51.647L71.5193 51.567L71.4478 51.5316C71.3013 51.4681 71.1749 51.4111 71.0887 51.353L71.083 51.3501C71.083 51.3501 71.0823 51.3496 71.0819 51.3496C70.1443 51.0003 69.1251 50.8599 68.2824 50.2353C68.2819 50.2353 68.2817 50.2351 68.2812 50.2351C67.9183 50.2375 67.504 50.185 67.161 50.2351L67.1612 50.2348C67.1607 50.2348 67.1603 50.2348 67.1598 50.2348C66.3808 50.3493 65.6101 50.3101 64.918 50.7923L85.1526 64.4341C86.01 65.5827 83.3536 69.9349 87.9238 72.7899C91.4659 75.0062 92.4187 72.511 94.3549 72.5443C97.5157 72.6002 114.668 98.9803 117.899 99.3178C120.822 99.6246 122.921 94.0708 124.423 91.8709C125.902 89.7046 128.931 88.6758 127.398 85.3693V85.3702ZM72.7693 47.998C72.702 46.844 74.3598 47.6452 74.8497 47.8824C78.7931 49.7917 83.7661 53.5126 87.3252 56.0959L72.7693 47.998ZM94.9146 58.601C94.0938 58.1009 90.7691 56.3182 90.6957 56.0846C90.3323 54.931 91.1254 55.2428 91.8617 55.4874C93.2942 55.9639 94.5109 57.2249 95.7432 58.0421C95.573 56.7811 96.2164 56.0031 97.1472 55.257L97.4297 55.5379L95.7432 58.5996C95.573 59.6306 95.318 58.8465 94.9148 58.6008L94.9146 58.601ZM87.3401 66.4092C87.5835 66.1812 89.9823 67.4685 90.0575 67.5958C90.731 68.7381 88.7665 70.1192 89.018 70.3039L92.9383 69.7549C94.8072 71.5284 84.9001 73.1978 87.3404 66.4094L87.3401 66.4092Z" fill="#6B3529"/>
<path d="M113.351 89.502C113.277 89.4337 113.205 89.3641 113.138 89.2896C113.208 89.3675 113.284 89.4407 113.362 89.5128C113.358 89.509 113.354 89.5051 113.351 89.502Z" fill="#6B3529"/>
<path d="M89.5778 62.5027C89.4784 62.4495 89.0265 61.74 88.4568 61.3875H87.8965C88.1032 61.6517 88.2791 62.3977 88.4568 62.5027C88.6751 62.6311 89.3801 62.373 89.5778 62.5027Z" fill="#6B3529"/>
<path d="M110.361 85.7994L109.739 84.974C109.732 84.9675 109.728 84.9601 109.723 84.9522C109.722 84.9499 109.72 84.9486 109.719 84.9461L109.702 84.9236C109.704 84.9261 109.706 84.9283 109.707 84.931C109.752 84.9934 109.798 85.059 109.845 85.1245C110.099 85.4606 110.363 85.8046 110.603 86.1202C110.524 86.0161 110.444 85.9093 110.361 85.7994H110.361Z" fill="#6B3529"/>
<path d="M108.65 83.7097C108.694 83.7611 108.742 83.8102 108.791 83.8577C108.807 83.8721 108.823 83.8861 108.839 83.9003L108.65 83.7097H108.65Z" fill="#6B3529"/>
<path d="M110.917 86.5683C110.903 86.53 110.889 86.4991 110.875 86.4797C110.888 86.5101 110.904 86.5381 110.917 86.5683Z" fill="#6B3529"/>
<path d="M113.406 89.5545C113.402 89.5512 113.399 89.5475 113.395 89.5439L113.677 89.8253C113.594 89.7298 113.5 89.6422 113.406 89.5543V89.5545Z" fill="#6B3529"/>
<path d="M108.936 83.9932L109.194 84.2495C109.116 84.1581 109.026 84.0754 108.936 83.9932Z" fill="#6B3529"/>
<path d="M86.7939 60.5343C86.8407 60.4415 86.8477 60.3439 86.776 60.2725C86.7377 60.2345 86.6684 60.23 86.5924 60.2444C86.4189 60.2768 86.2063 60.4169 86.2156 60.5514C86.246 60.9952 86.6682 60.7834 86.7941 60.5343H86.7939Z" fill="#6B3529"/>
</svg>
