<svg width="36" height="36" viewBox="0 0 36 36" fill="none" xmlns="http://www.w3.org/2000/svg">
<path d="M34.9346 6.14806C36.3402 4.74246 36.3402 2.45978 34.9346 1.05419C33.529 -0.351398 31.2463 -0.351398 29.8407 1.05419L18 12.9061L6.14806 1.06544C4.74246 -0.340153 2.45978 -0.340153 1.05419 1.06544C-0.351398 2.47103 -0.351398 4.75371 1.05419 6.1593L12.9061 18L1.06544 29.8519C-0.340153 31.2575 -0.340153 33.5402 1.06544 34.9458C2.47103 36.3514 4.75371 36.3514 6.1593 34.9458L18 23.0939L29.8519 34.9346C31.2575 36.3401 33.5402 36.3401 34.9458 34.9346C36.3514 33.529 36.3514 31.2463 34.9458 29.8407L23.0939 18L34.9346 6.14806Z" fill="#00263A"/>
</svg>
