<svg width="93" height="110" viewBox="0 0 93 110" fill="none" xmlns="http://www.w3.org/2000/svg">
<path d="M52.9622 108.185C49.6565 108.191 46.3822 107.545 43.3273 106.285C40.2724 105.025 37.4972 103.175 35.1609 100.841L27.5136 93.2118C24.3494 90.0684 22.5523 85.8088 22.511 81.3541L21.9906 39.3594C22.0476 37.5249 22.7844 35.7766 24.0584 34.4526C25.3323 33.1285 27.0531 32.3227 28.888 32.1909C30.7229 32.0591 32.5416 32.6107 33.9925 33.739C35.4435 34.8673 36.4236 36.4923 36.7435 38.2997L39.4413 58.6665L70.6678 27.5123C71.3428 26.8238 72.1481 26.2758 73.0369 25.9C73.9257 25.5243 74.8804 25.3282 75.8457 25.3231C76.811 25.318 77.7677 25.5041 78.6604 25.8706C79.5531 26.237 80.364 26.7765 81.0462 27.4579C81.7285 28.1392 82.2684 28.9489 82.6348 29.8399C83.0012 30.7309 83.1867 31.6856 83.1806 32.6486C83.1746 33.6117 82.977 34.564 82.5995 35.4503C82.2219 36.3367 81.6718 37.1395 80.9811 37.8122L58.2091 60.5634C58.0091 60.7629 57.7378 60.875 57.455 60.875C57.1721 60.875 56.9009 60.7629 56.7009 60.5634C56.5009 60.3638 56.3885 60.0932 56.3885 59.811C56.3885 59.5288 56.5009 59.2582 56.7009 59.0586L79.5047 36.3075C80.0047 35.8327 80.4044 35.2628 80.6802 34.6314C80.956 34 81.1024 33.32 81.1106 32.6313C81.1189 31.9426 80.9889 31.2593 80.7283 30.6215C80.4677 29.9838 80.0818 29.4045 79.5933 28.9178C79.1049 28.4312 78.5237 28.047 77.8841 27.788C77.2444 27.5289 76.5593 27.4002 75.869 27.4095C75.1788 27.4187 74.4974 27.5657 73.8649 27.8418C73.2325 28.1179 72.6619 28.5174 72.1867 29.017L39.4094 61.676C39.2721 61.8104 39.1007 61.905 38.9137 61.9498C38.7266 61.9946 38.5308 61.9879 38.3473 61.9303C38.1605 61.8673 37.995 61.7536 37.8693 61.602C37.7437 61.4504 37.6627 61.2669 37.6357 61.072L34.6617 38.5752C34.4215 37.2964 33.7181 36.1504 32.6855 35.3558C31.6528 34.5611 30.3632 34.1733 29.0625 34.2663C27.7617 34.3593 26.5407 34.9265 25.6321 35.8599C24.7236 36.7933 24.1911 38.0276 24.1361 39.3276L24.6565 81.3223C24.6927 85.2248 26.2687 88.9558 29.0431 91.707L36.6798 99.3367C41.0005 103.637 46.8541 106.051 52.9569 106.051C59.0596 106.051 64.9133 103.637 69.234 99.3367L84.3693 84.247C85.3397 83.2788 85.8849 81.9656 85.8849 80.5964C85.8849 79.2272 85.3397 77.914 84.3693 76.9458C83.3988 75.9776 82.0826 75.4337 80.7102 75.4337C79.3378 75.4337 78.0216 75.9776 77.0512 76.9458L74.8314 79.1605C74.6324 79.3579 74.3632 79.4687 74.0826 79.4687C73.802 79.4687 73.5328 79.3579 73.3338 79.1605C73.2342 79.062 73.1552 78.9448 73.1013 78.8157C73.0473 78.6866 73.0196 78.5481 73.0196 78.4082C73.0196 78.2683 73.0473 78.1298 73.1013 78.0007C73.1552 77.8715 73.2342 77.7543 73.3338 77.6558L75.5217 75.4517C76.196 74.7626 77.0007 74.2137 77.8891 73.837C78.7775 73.4604 79.732 73.2633 80.6973 73.2572C81.6626 73.2512 82.6195 73.4363 83.5126 73.8018C84.4057 74.1673 85.2172 74.706 85.9001 75.3867C86.583 76.0673 87.1238 76.8764 87.4911 77.767C87.8584 78.6577 88.0449 79.6122 88.0398 80.5752C88.0348 81.5383 87.8382 82.4908 87.4616 83.3775C87.0849 84.2643 86.5357 85.0676 85.8456 85.7411L70.7422 100.841C68.4085 103.172 65.6367 105.021 62.5856 106.281C59.5346 107.541 56.2643 108.188 52.9622 108.185Z" fill="#001C40" stroke="#001C40" stroke-width="2.31"/>
<path d="M66.2267 69.7565C66.0851 69.7573 65.9447 69.7302 65.8136 69.6766C65.6825 69.6231 65.5633 69.5442 65.4628 69.4444C65.3619 69.3444 65.2819 69.2254 65.2273 69.0942C65.1727 68.9631 65.1445 68.8224 65.1445 68.6804C65.1445 68.5383 65.1727 68.3977 65.2273 68.2665C65.2819 68.1354 65.3619 68.0164 65.4628 67.9163L75.3397 58.0376C76.2819 57.0475 76.8001 55.7284 76.7837 54.3616C76.7674 52.9948 76.2178 51.6885 75.2521 50.7213C74.2865 49.754 72.9812 49.2024 71.6147 49.1841C70.2482 49.1657 68.9286 49.6821 67.9374 50.6231L58.0605 60.5126C57.8579 60.7153 57.5831 60.8291 57.2966 60.8291C57.0101 60.8291 56.7353 60.7153 56.5327 60.5126C56.3301 60.31 56.2163 60.0352 56.2163 59.7486C56.2163 59.462 56.3301 59.1872 56.5327 58.9845L66.4096 49.1058C67.7964 47.7187 69.6773 46.9395 71.6385 46.9395C73.5998 46.9395 75.4807 47.7187 76.8675 49.1058C78.2543 50.4928 79.0333 52.3741 79.0333 54.3357C79.0333 56.2973 78.2543 58.1786 76.8675 59.5656L66.9906 69.4444C66.89 69.5442 66.7708 69.6231 66.6397 69.6766C66.5086 69.7302 66.3683 69.7573 66.2267 69.7565Z" fill="#001C40" stroke="#001C40" stroke-width="2.31"/>
<path d="M74.1238 79.3637C73.9125 79.3649 73.7055 79.3044 73.5294 79.1901C73.3532 79.0757 73.2159 78.9126 73.1348 78.7216C73.0538 78.5305 73.0327 78.3202 73.0743 78.1174C73.1158 77.9145 73.2182 77.7284 73.3683 77.5828L79.5937 71.4903C80.5242 70.5308 81.0349 69.2535 81.0168 67.9308C80.9986 66.608 80.4531 65.3446 79.4966 64.4099C78.5401 63.4751 77.2483 62.9431 75.8967 62.9273C74.5451 62.9115 73.2406 63.4131 72.2615 64.3251L67.0471 69.4282C66.8467 69.6243 66.5749 69.7345 66.2915 69.7345C66.0081 69.7345 65.7363 69.6243 65.536 69.4282C65.3356 69.2321 65.223 68.9661 65.223 68.6888C65.223 68.4115 65.3356 68.1455 65.536 67.9494L70.7504 62.8463C71.4296 62.1816 72.2359 61.6543 73.1233 61.2946C74.0107 60.9349 74.9618 60.7498 75.9223 60.7498C76.8828 60.7498 77.8339 60.9349 78.7213 61.2946C79.6087 61.6543 80.415 62.1816 81.0942 62.8463C81.7734 63.511 82.3121 64.3 82.6797 65.1685C83.0473 66.0369 83.2365 66.9677 83.2365 67.9077C83.2365 68.8477 83.0473 69.7785 82.6797 70.6469C82.3121 71.5154 81.7734 72.3045 81.0942 72.9692L74.8688 79.0616C74.6706 79.254 74.403 79.3625 74.1238 79.3637Z" fill="#001C40" stroke="#001C40" stroke-width="2.31"/>
<path d="M62.1472 15.32C61.8339 15.3514 61.5211 15.257 61.2775 15.0576C61.0339 14.8583 60.8794 14.5704 60.8481 14.2572C60.8168 13.9439 60.9111 13.6311 61.1105 13.3875C61.3098 13.1439 61.5977 12.9894 61.911 12.9581L90.172 7.21846C90.4852 7.15582 90.8105 7.22017 91.0763 7.39735C91.342 7.57453 91.5266 7.85003 91.5892 8.16325C91.6518 8.47647 91.5875 8.80174 91.4103 9.06752C91.2331 9.33329 90.9576 9.51779 90.6444 9.58044L62.3952 15.32H62.1472Z" fill="#E9B83A" stroke="#E9B83A" stroke-width="2.31"/>
<path d="M84.3612 18.7211C84.1485 18.72 83.9401 18.6615 83.7579 18.5518C83.5757 18.442 83.4266 18.2851 83.3262 18.0976C83.2258 17.9101 83.1779 17.699 83.1875 17.4866C83.1972 17.2741 83.264 17.0682 83.381 16.8906L88.7663 8.70632L80.5821 3.32101C80.4522 3.23522 80.3406 3.12461 80.2537 2.99555C80.1668 2.86648 80.1062 2.72151 80.0755 2.56897C80.0447 2.41642 80.0445 2.2593 80.0747 2.10665C80.1048 1.95399 80.1649 1.80881 80.2514 1.67944C80.4245 1.42055 80.693 1.24055 80.9982 1.17862C81.3034 1.11669 81.6208 1.17784 81.8811 1.34876L91.0338 7.38361C91.1636 7.46941 91.2752 7.58002 91.3621 7.70908C91.4491 7.83814 91.5096 7.98311 91.5404 8.13566C91.5711 8.28821 91.5714 8.44532 91.5412 8.59798C91.511 8.75063 91.4509 8.89582 91.3645 9.02519L85.3296 18.1897C85.2238 18.3505 85.0802 18.483 84.9114 18.5756C84.7426 18.6682 84.5537 18.7182 84.3612 18.7211Z" fill="#E9B83A" stroke="#E9B83A" stroke-width="2.31"/>
<path d="M2.45999 27.6382C2.14677 27.6695 1.83394 27.5751 1.59031 27.3758C1.34669 27.1764 1.19222 26.8885 1.1609 26.5753C1.12958 26.2621 1.22396 25.9492 1.4233 25.7056C1.62263 25.462 1.91057 25.3075 2.22379 25.2762L30.473 19.4657C30.7862 19.4015 31.1121 19.4644 31.379 19.6404C31.6459 19.8165 31.8319 20.0914 31.8961 20.4046C31.9603 20.7178 31.8975 21.0437 31.7214 21.3106C31.5453 21.5775 31.2705 21.7635 30.9572 21.8277L2.69619 27.6145L2.45999 27.6382Z" fill="#E9B83A" stroke="#E9B83A" stroke-width="2.31"/>
<path d="M11.6243 33.6726C11.398 33.672 11.1766 33.6064 10.9865 33.4836L1.81024 27.437C1.55135 27.2638 1.37135 26.9954 1.30942 26.6901C1.24748 26.3849 1.30864 26.0676 1.47956 25.8072L7.51441 16.6309C7.60021 16.5011 7.71082 16.3895 7.83988 16.3026C7.96894 16.2156 8.11391 16.1551 8.26646 16.1243C8.41901 16.0936 8.57612 16.0933 8.72878 16.1235C8.88143 16.1537 9.02662 16.2138 9.15599 16.3002C9.28898 16.3813 9.40463 16.4879 9.49628 16.6138C9.58792 16.7397 9.65375 16.8825 9.68997 17.034C9.7262 17.1855 9.7321 17.3427 9.70734 17.4964C9.68258 17.6502 9.62765 17.7975 9.54571 17.93L4.08955 26.1142L12.2856 31.5114C12.4154 31.5972 12.527 31.7078 12.6139 31.8368C12.7009 31.9659 12.7615 32.1109 12.7922 32.2634C12.8229 32.416 12.8232 32.5731 12.793 32.7257C12.7628 32.8784 12.7028 33.0236 12.6163 33.1529C12.5068 33.3149 12.3589 33.4471 12.1858 33.5378C12.0126 33.6285 11.8197 33.6748 11.6243 33.6726Z" fill="#E9B83A" stroke="#E9B83A" stroke-width="2.31"/>
</svg>
