<svg width="90" height="72" viewBox="0 0 90 72" fill="none" xmlns="http://www.w3.org/2000/svg">
<path d="M61.875 3.375C61.875 1.50469 60.3703 0 58.5 0C56.6297 0 55.125 1.50469 55.125 3.375V14.625C55.125 16.4953 56.6297 18 58.5 18C60.3703 18 61.875 16.4953 61.875 14.625V3.375ZM39.5156 5.48438C38.1937 4.1625 36.0562 4.1625 34.7484 5.48438C33.4406 6.80625 33.4266 8.94375 34.7484 10.2516L42.6234 18.1266C43.9453 19.4484 46.0828 19.4484 47.3906 18.1266C48.6984 16.8047 48.7125 14.6672 47.3906 13.3594L39.5156 5.48438ZM82.2656 10.2656C83.5875 8.94375 83.5875 6.80625 82.2656 5.49844C80.9437 4.19062 78.8063 4.17656 77.4984 5.49844L69.6094 13.3594C68.2875 14.6813 68.2875 16.8187 69.6094 18.1266C70.9313 19.4344 73.0687 19.4484 74.3766 18.1266L82.2516 10.2516L82.2656 10.2656ZM81 27H72C68.2453 24.1734 63.5625 22.5 58.5 22.5C53.4375 22.5 48.7547 24.1734 45 27H9C4.03594 27 0 31.0359 0 36V54C0 58.9641 4.03594 63 9 63L10.3922 68.5969C10.8984 70.5938 12.6984 72 14.7656 72H16.7344C18.8016 72 20.6016 70.5938 21.0938 68.5969L22.5 63H45C48.7547 65.8266 53.4375 67.5 58.5 67.5C61.9312 67.5 65.1797 66.7266 68.0906 65.3625L68.8922 68.5969C69.3984 70.5938 71.1984 72 73.2516 72H75.2203C77.2875 72 79.0875 70.5938 79.5797 68.5969L81 63C85.9641 63 90 58.9641 90 54V36C90 31.0359 85.9641 27 81 27ZM58.5 31.5C62.0804 31.5 65.5142 32.9223 68.0459 35.4541C70.5777 37.9858 72 41.4196 72 45C72 48.5804 70.5777 52.0142 68.0459 54.5459C65.5142 57.0777 62.0804 58.5 58.5 58.5C54.9196 58.5 51.4858 57.0777 48.9541 54.5459C46.4223 52.0142 45 48.5804 45 45C45 41.4196 46.4223 37.9858 48.9541 35.4541C51.4858 32.9223 54.9196 31.5 58.5 31.5ZM9 45C9 43.8065 9.47411 42.6619 10.318 41.818C11.1619 40.9741 12.3065 40.5 13.5 40.5C14.6935 40.5 15.8381 40.9741 16.682 41.818C17.5259 42.6619 18 43.8065 18 45C18 46.1935 17.5259 47.3381 16.682 48.182C15.8381 49.0259 14.6935 49.5 13.5 49.5C12.3065 49.5 11.1619 49.0259 10.318 48.182C9.47411 47.3381 9 46.1935 9 45ZM27 40.5C28.1935 40.5 29.3381 40.9741 30.182 41.818C31.0259 42.6619 31.5 43.8065 31.5 45C31.5 46.1935 31.0259 47.3381 30.182 48.182C29.3381 49.0259 28.1935 49.5 27 49.5C25.8065 49.5 24.6619 49.0259 23.818 48.182C22.9741 47.3381 22.5 46.1935 22.5 45C22.5 43.8065 22.9741 42.6619 23.818 41.818C24.6619 40.9741 25.8065 40.5 27 40.5Z" fill="#00263A"/>
</svg>
