<svg width="128" height="100" viewBox="0 0 128 100" fill="none" xmlns="http://www.w3.org/2000/svg">
<path d="M49.5109 28.4864C50.1136 28.6981 50.5926 28.6425 50.9064 27.9315C49.6343 26.5906 49.7069 24.4828 49.2251 22.9132C49.2247 22.9105 49.2242 22.9083 49.2238 22.9056C48.6856 21.1557 47.5214 19.2899 47.5506 17.3376C49.0171 18.0575 49.8663 19.5546 50.9076 20.6831C50.9076 20.6836 50.9076 20.684 50.9076 20.6843C52.3158 22.2079 52.4843 21.9216 53.7085 24.0287C54.4957 24.6617 54.8883 25.2724 55.3897 25.7015C56.404 26.5658 57.7127 27.7899 58.7523 28.4895C60.4671 27.6504 60.1142 25.0577 60.4336 23.4712C60.4352 23.464 60.437 23.4583 60.4386 23.4511C60.6573 22.3602 60.8063 21.2256 61.0015 20.129L61.55 20.1283C61.5779 21.6101 61.5331 23.1042 61.5557 24.5862H62.1152C62.1376 23.8474 62.0674 23.0918 62.1152 22.3557C62.1156 22.3516 62.1167 22.3476 62.1172 22.3435C62.4011 18.0571 63.328 13.8494 63.2429 9.53369C64.2212 9.40394 63.7697 10.801 63.7976 11.4768C63.9309 14.7194 63.7283 17.9983 63.7976 21.2407C63.7974 21.2413 63.7969 21.2418 63.7964 21.2425C63.8046 21.6126 63.7851 21.9856 63.7964 22.3557C63.8132 22.9105 63.7684 23.4737 63.7964 24.0285L64.9174 26.259C64.9174 23.2955 64.8388 20.2982 64.9174 17.3374C64.9178 17.3358 64.9181 17.3342 64.9185 17.3324C64.9353 16.619 64.4634 14.5205 65.4734 14.5522C65.8115 17.17 66.0059 19.7046 66.0395 22.3559H66.0397L67.1547 21.7998C67.2075 22.1597 67.0954 22.5791 67.1604 22.9137C67.4853 24.59 67.5634 26.3482 68.2813 27.932C68.2811 27.932 68.2804 27.9318 68.2802 27.9315C68.2802 27.9315 68.2802 27.9315 68.2802 27.9318C69.2021 29.0777 71.9453 26.022 72.7637 25.1437C72.766 25.1415 72.7685 25.1397 72.7707 25.1374C74.8532 22.9112 76.8302 20.4788 78.9553 18.1985C79.4821 17.6331 80.0105 17.0423 80.0579 16.2266C81.4233 16.8168 79.3755 19.4911 78.9297 20.1254C78.9833 20.4795 78.85 20.9316 78.9297 21.2407C78.9623 21.3673 79.3662 21.4909 79.3302 21.9169C79.3128 22.1248 78.9526 22.235 78.9297 22.3559C78.783 23.1346 78.4375 23.6915 78.3693 24.0287H78.3682C78.0768 25.4841 77.749 26.9868 77.8133 28.4893L80.0495 26.2588C81.6746 21.1429 82.5769 15.3132 83.9697 10.0883L69.4066 25.1435C67.9915 17.0164 66.1952 8.92571 64.3487 0.885065C64.1496 0.015112 64.7186 -0.0851297 63.239 0.0486745L58.7498 25.1408L43.6263 10.0883C44.3185 12.8094 47.6505 27.8313 49.5109 28.4864Z" fill="#FDF9E1"/>
<path d="M77.2472 65.8483C77.8128 67.6905 79.2971 69.8559 79.4886 71.9795C79.4891 71.9804 79.4895 71.9813 79.49 71.9819C79.5744 72.1457 79.9412 72.3045 80.0504 72.5395C80.1778 72.8136 80.781 75.0311 80.3334 75.3248C78.4066 73.6022 76.7487 71.6425 75.0072 69.7523C75.0065 69.7519 75.006 69.7519 75.0053 69.7514C73.495 68.1122 71.9396 66.4534 70.5218 64.7331C70.3171 64.5687 70.163 64.3344 69.9615 64.1756C66.6154 63.7435 67.5654 69.4005 67.1536 71.4217L66.0439 65.2938L65.4779 73.0974C65.4582 73.4682 65.5031 73.8446 65.4779 74.2127C65.3742 75.8019 65.1528 77.656 64.9176 79.231C64.7718 80.2125 64.7466 82.6883 63.805 83.1316C63.5163 81.6316 62.9392 80.1791 62.6757 78.6735C62.2636 76.3011 62.2496 73.8279 62.1153 71.4247C61.5407 71.4889 61.2047 71.4749 60.9944 70.8671C60.672 69.9305 60.1845 64.4436 59.8735 64.1731L57.0712 64.7333C56.8777 64.9063 56.6956 65.1041 56.5109 65.2908C54.5857 67.2535 52.0749 69.512 50.3461 71.4244V71.1485C50.3236 71.0341 50.3012 70.9199 50.3461 70.8669L49.7857 70.3094C49.7071 70.4349 49.5586 70.5576 49.4325 70.6608L49.2251 70.8671C49.2502 70.8365 49.2754 70.8059 49.298 70.7752C49.2699 70.8002 49.2475 70.8225 49.2364 70.8421C49.6259 69.9026 49.7744 69.0802 50.3461 68.0791C49.4493 67.1981 50.2702 66.7771 50.3461 66.4063C50.5616 65.3942 50.3293 64.2623 51.467 63.6183C51.3884 63.0441 51.8704 61.4466 50.6347 61.9511C50.1162 62.1631 49.1019 63.4511 48.7965 64.0283L44.1869 81.4589L58.1867 66.9638L64.0799 92.0533L69.4097 67.5214L83.9672 82.0191C82.4765 76.8723 81.2967 69.0103 79.0521 64.3348C77.326 60.741 76.177 62.3469 77.2474 65.8486L77.2472 65.8483ZM48.111 74.2125C47.7442 72.7958 48.8436 71.786 49.2262 70.8669C49.1466 71.1604 49.2579 71.6254 49.2319 71.9819C49.2871 72.0504 50.2331 71.5411 50.3472 71.4244C49.9548 71.8592 49.5788 74.0291 48.111 74.2122V74.2125Z" fill="#FDF9E1"/>
<path d="M70.5221 64.7332C70.7238 64.8949 70.9901 65.0873 71.2842 65.288C71.0376 65.0983 70.7854 64.9145 70.5221 64.7332Z" fill="#FDF9E1"/>
<path d="M86.2154 50.7931C86.2154 50.7931 86.2149 50.7925 86.2145 50.792V50.7929C87.4697 51.9388 90.6418 51.0634 92.3793 50.7929C98.9084 49.7754 105.331 47.3302 111.995 46.8842C111.757 45.8498 110.602 45.7493 109.761 45.4874C103.016 43.3825 94.8002 42.6937 87.8982 40.7506C91.1012 37.8148 94.164 34.7089 97.4229 31.8344L96.8626 31.2769C94.517 32.5482 85.0233 38.9161 84.5413 41.0488C84.1881 42.6045 90.9443 43.8063 92.3791 44.1016C92.7209 44.1712 93.1608 44.032 93.5 44.1016L93.5023 44.1038C93.5023 44.1038 93.5013 44.1022 93.5011 44.1016C93.7619 44.1543 93.9838 44.4005 94.0615 44.6591C94.061 44.6591 94.0603 44.6586 94.0599 44.6586L94.0603 44.6591C95.3269 44.9855 96.7057 45.0022 97.9835 45.2166C99.2781 45.4342 102.837 45.6097 103.025 45.777C103.1 45.8439 103 46.5355 103.025 46.8867C102.661 46.9286 102.263 46.8396 101.908 46.8894C100.78 47.0529 99.5158 47.3262 98.5452 47.4471C98.1843 47.4919 97.7802 47.3931 97.4243 47.4471C95.9816 47.6665 94.5127 47.7492 92.9408 48.0046L92.9403 48.0042H92.9396C91.1685 48.2916 89.4201 48.3112 87.8958 48.5622L87.8951 48.5626C87.8951 48.5626 87.8962 48.5624 87.8969 48.5622L89.0128 49.1269L89.0151 49.6718C87.9539 49.6565 86.567 49.5157 86.2156 50.7927L86.2154 50.7931Z" fill="#FDF9E1"/>
<path d="M96.8628 31.2771C97.0167 31.1936 97.1596 31.0737 97.2998 30.9426C97.1793 31.0068 97.0337 31.1183 96.8628 31.2771Z" fill="#FDF9E1"/>
<path d="M16.7195 46.887L41.0903 51.3591C42.4438 48.5238 34.6676 47.8239 32.4119 47.4475C30.1533 47.0684 28.5001 47.0071 26.2471 46.89C25.625 46.8593 24.4227 47.2776 24.5713 46.3378C27.0848 46.3239 30.0861 44.8099 32.4119 44.6594H32.4147C32.5716 44.6371 32.7454 44.6484 32.9164 44.6624C33.0509 44.6651 33.1797 44.6736 33.306 44.6847C33.3871 44.6847 33.4629 44.6763 33.5331 44.6594L34.4634 44.1968C34.5404 44.1499 34.6033 44.1159 34.6491 44.1044L34.654 44.1019C34.9903 44.0294 35.4526 44.1828 35.775 44.1019C37.1536 43.7645 43.31 42.6717 43.6238 42.4237C43.6686 42.3902 43.6379 41.5734 43.6211 41.3139C40.0061 38.5984 36.8817 34.1346 32.9728 31.8347C32.6728 31.6563 31.8461 31.5394 31.2915 31.2772C30.5208 30.9121 28.8227 29.5625 28.4892 30.7197C32.0929 34.1797 36.4501 36.9035 39.6982 40.7512C39.0004 41.6432 20.4695 44.8998 17.5411 45.7585C16.7202 46.0009 16.5633 45.449 16.7202 46.8875L16.7195 46.887Z" fill="#FDF9E1"/>
<path d="M31.6272 29.7576C32.1821 30.2342 32.7425 30.7028 33.3085 31.1598C33.3898 30.4935 32.4932 30.1784 31.6272 29.7576Z" fill="#FDF9E1"/>
<path d="M106.952 18.4521H106.624C106.738 18.4654 106.854 18.4841 106.952 18.4521Z" fill="#FDF9E1"/>
<path d="M42.6177 64.2871C49.7436 59.4276 57.105 54.8999 64.3572 50.2354C67.8516 47.9885 71.161 45.2421 75.0056 43.5441C77.7544 40.9903 84.5219 36.6633 87.9433 34.3911C100.898 25.7927 114.685 18.3265 127.679 9.77022C126.485 8.41236 126.118 3.85693 124.901 3.09578C123.374 2.14225 122.629 3.59766 121.637 3.80399C120.9 3.95717 120.065 3.50845 119.423 3.78732C118.078 4.37548 118.451 5.58828 117.764 6.21562C113.376 10.2331 88.6493 24.7865 82.462 27.8478C81.7586 28.1962 81.2655 28.2688 80.6098 28.4888L80.0184 28.843L80.0044 28.8513C79.9315 28.9015 79.8559 28.9488 79.7746 28.9878L79.7692 28.9907L79.2842 29.2806C77.0228 29.261 74.5428 30.8167 73.2595 32.6598C73.0635 32.9357 72.898 33.22 72.7637 33.5072C71.3627 34.3659 64.6989 39.033 63.7656 38.849L9.78126 6.24626C9.29652 2.61349 8.73888 4.16351 6.46621 3.74543C5.39576 3.54742 5.01178 2.26502 3.2689 3.10141C1.76126 3.82337 1.06619 8.35672 0.707565 10.091C10.3079 16.5674 20.3818 22.3192 30.1701 28.4891C35.6455 31.9407 40.6334 35.437 45.8625 39.0835C46.8881 39.8 55.3478 43.6837 54.2663 45.206L39.2689 54.0412C37.9686 54.3478 36.8282 53.4222 35.5391 53.5756C34.2418 53.7287 32.7509 55.6331 32.14 55.6248C31.672 55.6191 29.8366 53.9939 28.4915 54.6992C27.1969 56.6675 31.2516 60.2167 31.2516 60.5512C31.2516 61.2038 23.5259 70.1921 22.8449 70.5491C21.455 71.2767 19.6784 71.3326 17.8794 72.2998C14.4355 74.151 6.03174 80.452 3.00514 83.1508C1.67138 84.3413 -0.934561 86.1035 0.343051 87.9824L8.10245 98.68C8.733 99.0535 9.38301 99.4299 10.1591 99.2294C13.3257 98.4151 28.41 76.5097 32.1144 73.0554C34.3815 71.7423 36.1411 75.0433 39.9803 72.5395C45.0241 69.2552 41.6896 65.8567 42.6172 64.2871H42.6177ZM78.8325 36.7428C78.1302 37.3193 75.0248 38.9733 73.8858 39.6412C73.7472 39.7225 73.464 39.5599 73.3254 39.6412C64.945 44.5641 56.8032 49.9496 48.6659 55.2542L47.5549 54.428C51.9789 52.6878 76.604 35.4034 78.9299 35.7379C78.9493 36.0423 79.0646 36.5522 78.8325 36.7428ZM59.3142 49.6781C58.9547 49.9036 58.5492 50.1415 58.1462 50.3755C57.5388 50.7283 56.9377 51.0723 56.512 51.3509C56.2204 51.557 55.9591 51.7282 55.7089 51.8899C55.3668 52.1211 55.0336 52.3445 54.8307 52.4662C54.1624 52.9259 53.9926 53.0994 53.1494 53.5814C53.0924 53.6204 53.0392 53.6555 52.986 53.6902C52.6638 53.936 52.5116 54.2453 51.4679 54.6967C51.4321 54.7298 51.3959 54.7577 51.3599 54.7895C50.8883 55.2326 50.4063 56.1811 49.4714 56.3469C48.8137 56.585 48.8568 56.1938 48.6657 55.8122C49.4859 55.1508 50.6232 55.0621 51.4679 54.6967C52.1263 54.1975 52.4697 54.0243 52.9257 53.7301C52.9452 53.7175 52.966 53.7035 52.986 53.6905C52.9869 53.6898 52.9878 53.6889 52.9887 53.6882C53.0373 53.6513 53.0894 53.6159 53.1492 53.5817C53.7295 53.1847 54.2171 52.8342 54.8305 52.4664C54.994 52.354 55.1563 52.2477 55.32 52.1418C55.447 52.0596 55.5765 51.9758 55.7087 51.8902C55.9064 51.7566 56.1061 51.6212 56.2865 51.5007C56.366 51.4475 56.4423 51.3969 56.5118 51.3511C57.7991 50.4418 58.083 50.3758 59.314 49.6784C59.5837 49.5092 59.907 49.2893 60.2339 49.0681C60.3935 48.9602 60.5529 48.853 60.7082 48.7501C60.6792 48.7703 60.6494 48.7913 60.6192 48.8125C60.2853 49.0497 59.8857 49.3544 59.314 49.6781H59.3142ZM64.9187 46.3323C64.0516 46.8554 63.0275 47.4645 62.1165 48.0051C62.0624 48.0416 61.9935 48.077 61.9154 48.1135C61.7359 48.2072 61.5625 48.2876 61.3992 48.3619C61.2541 48.4279 61.1158 48.4921 60.9955 48.5626C61.2493 48.4009 61.5197 48.2878 61.7452 48.1898C61.8056 48.1635 61.8629 48.1383 61.9154 48.1135C61.9824 48.0786 62.0488 48.0452 62.1165 48.0051C63.3431 47.182 63.5899 47.0421 64.9187 46.3323C64.9479 46.3168 64.9805 46.2846 65.0156 46.2413C65.3631 45.8115 65.981 44.2368 66.6 45.7748C66.0238 46.1213 65.2402 46.1386 64.9187 46.3323ZM69.4022 43.5443C69.2168 43.6592 68.9035 44.2895 68.2813 44.6596C66.9668 44.1027 68.7837 43.7905 69.3037 43.5905C69.3452 43.5745 69.3794 43.559 69.4022 43.5445C69.4242 43.5216 69.4464 43.5031 69.4683 43.4812C69.786 43.1107 70.5207 41.5431 71.0835 42.987C70.5322 43.3359 69.7228 43.3461 69.4022 43.5445V43.5443ZM81.5865 36.7088L80.0169 34.0908L80.8059 33.6227L82.3756 36.2407L81.5865 36.7088ZM91.2597 29.5989C90.9874 29.3867 92.2385 28.123 92.9406 28.4947C93.213 28.7069 91.9618 29.9706 91.2597 29.5989ZM106.952 18.4522C106.776 18.6491 106.582 18.8281 106.391 19.0097C104.832 20.4901 103.553 20.8278 101.908 21.7977C99.8901 22.9873 99.3739 23.6539 96.864 24.5858C95.8999 25.1953 94.8746 25.7423 94.0618 26.2586C93.7369 27.3837 93.1446 27.1103 92.3805 27.3738C91.3827 27.9457 90.8497 28.4256 89.5782 29.0466C89.2219 29.2207 88.7998 29.4203 88.4573 29.6041C88.2929 29.9853 88.0631 30.3403 87.8969 30.7194C88.5377 30.5808 89.7177 29.7298 90.1359 30.4378L87.3363 31.8346C87.6003 32.0973 86.8174 32.7224 86.776 32.1135C86.7629 31.9202 87.2109 31.7096 87.3363 31.8346C87.1919 31.7216 87.75 31.0543 87.8967 30.7194C87.145 30.882 86.4088 31.1201 85.6548 31.2769L83.1381 32.9546C82.498 32.1586 84.6104 31.5977 85.0945 31.2769H85.6548V30.7194C86.0105 30.511 86.4051 30.3459 86.7758 30.1619C86.8924 30.104 86.9938 29.9715 87.0921 29.8472L87.3361 29.6041C87.4837 29.5277 87.7534 29.6821 87.8965 29.6041C88.0405 29.5259 88.3124 29.6816 88.4568 29.6041V29.0466C88.6323 28.9952 88.8546 29.1029 89.0172 29.0466H89.3455C89.4256 29.0563 89.5058 29.0639 89.5775 29.0466V28.4891C90.0233 28.1388 90.6235 27.3995 90.6985 27.3738C91.1146 27.2315 91.9643 27.5171 92.3798 27.3738C92.6569 27.215 93.5498 26.5834 94.0611 26.2586C94.1007 26.1218 94.066 25.8844 94.0611 25.701C94.9035 25.0681 95.9251 24.9343 96.8633 24.5858C98.5507 23.5189 100.2 22.3233 101.907 21.2402C103.407 20.2894 104.833 19.3244 106.391 18.4522C107.77 17.6802 108.975 16.7562 110.601 16.234C110.505 17.6545 108.016 18.1033 106.951 18.4522H106.952ZM114.525 15.0978C114.171 14.83 113.923 14.6847 113.741 14.6225L113.204 14.9429C113.065 15.3215 112.939 15.8401 111.999 15.6612L113.204 14.9429C113.296 14.6912 113.395 14.5036 113.741 14.6225L114.795 13.9945L114.525 15.0978ZM125.444 8.41821C126.513 9.30731 124.609 9.61164 124.33 9.79432C121.708 11.5137 118.786 13.2658 115.919 14.5435C116.661 13.3606 125.007 8.05532 125.444 8.41821ZM11.1162 8.97303C28.2685 18.9385 44.6497 30.2215 62.1151 39.6478C61.7076 40.7709 61.5889 40.6952 60.6247 40.3026C55.3019 38.1358 48.4295 32.7753 43.2339 29.7113C41.41 28.6357 39.2001 27.7899 37.457 26.8161L36.336 25.7008C36.1947 25.6211 35.9172 25.7806 35.7757 25.7008C34.8863 24.3409 33.2322 23.648 31.8525 22.9128C31.7074 22.8355 31.4361 22.9907 31.2921 22.9128L27.2592 20.2378C26.9279 20.0085 26.594 19.7828 26.2483 19.5672C20.8559 16.203 15.347 12.9493 9.99544 9.53032C7.93242 8.2121 5.51576 6.84365 3.83084 5.07491C6.49406 5.67928 8.80862 7.63183 11.1164 8.97258L11.1162 8.97303ZM12.2317 15.1066C12.039 15.3501 10.8492 14.1572 10.5558 13.9916C7.79318 12.4335 6.33762 11.4146 3.83039 9.53077C3.50912 9.28929 2.16245 9.44742 2.14932 8.42092C3.31871 7.98391 3.46135 9.33254 3.83039 9.53077C6.16736 10.7861 8.95918 11.8978 11.1162 13.4341C11.8117 13.9294 12.4852 13.9986 12.2317 15.1066ZM15.5945 15.6644C15.5069 15.8038 14.3098 14.5216 14.2016 16.2203C11.1755 12.6551 16.6353 14.0058 15.5945 15.6644ZM43.6218 32.9499C43.5317 33.0395 43.7314 33.7135 43.5683 34.0194C43.0669 34.2068 43.0947 33.5214 43.0614 33.5074C42.5602 33.2948 41.9704 33.2684 41.3801 32.9499C40.7747 32.6228 40.124 32.4419 39.6988 31.8346C39.3282 31.6429 38.9512 31.4636 38.5779 31.2771C37.9578 30.9672 37.3263 30.7536 36.8966 30.1619C36.5257 29.9708 36.1495 29.79 35.7757 29.6043C34.9971 29.2173 34.7134 28.9204 34.0944 28.4891C33.5589 28.116 33.1448 27.4817 32.9734 27.3738L32.6096 27.1927C32.3798 27.0916 32.116 26.9823 31.8525 26.8161L31.1466 26.3478C31.3304 26.4726 31.5149 26.5971 31.6811 26.7057C31.2009 26.3975 30.6435 26.0139 30.1714 25.7008C30.0682 25.6648 29.9731 25.6272 29.8839 25.5877C29.0326 25.324 27.1317 25.0527 27.6549 24.0231C28.2581 23.7956 28.6747 24.5002 29.0505 24.5856C29.237 24.6279 29.4544 24.5324 29.6108 24.5856C26.9743 22.7371 24.3655 20.9149 21.7647 19.0095C20.2433 18.2616 20.3119 18.317 18.9625 17.3367C18.6233 17.0903 17.3 17.2529 17.2814 16.2268C18.4501 15.7889 18.5957 17.1409 18.9625 17.3367C20.3443 18.0737 20.409 18.0163 21.7647 19.0095C22.9654 19.5997 24.5387 20.1234 25.6879 20.6823C26.1034 21.6874 27.066 21.9345 27.9298 22.355C28.081 22.4287 28.3434 22.2796 28.4901 22.355L28.9706 22.833C29.0005 22.8707 29.0267 22.8999 29.0505 22.9128C29.1952 22.9907 29.4659 22.8355 29.6108 22.9128L30.7318 24.028C30.8735 24.1073 31.1511 23.9481 31.2921 24.028L31.7633 24.4968C31.797 24.5387 31.8262 24.5702 31.8525 24.5856C31.9922 24.666 32.2738 24.5045 32.4128 24.5856L33.4736 25.6409C33.4967 25.6691 33.517 25.6907 33.5336 25.7008C33.6689 25.7837 33.9601 25.617 34.0939 25.7008L34.5485 26.1531C34.5875 26.2 34.6224 26.2381 34.6543 26.2583C34.7869 26.3428 35.0835 26.1734 35.2146 26.2583L36.238 27.2765C36.2742 27.3189 36.3073 27.3547 36.3353 27.3736C36.463 27.4599 36.7687 27.2866 36.8957 27.3736L37.3299 27.8056C37.3755 27.8588 37.4169 27.9039 37.4561 27.9313C37.8991 28.2406 38.3834 28.3499 38.577 28.4888L38.8869 28.7972C38.9671 28.8889 39.0468 28.979 39.1373 29.0464C39.6997 29.4651 39.9723 29.9379 40.2583 30.1616L41.1736 30.6171C41.2631 30.6522 41.3358 30.6847 41.3792 30.7194C42.2604 31.1823 42.3847 31.356 42.8783 31.708C42.8221 31.6711 42.7653 31.6355 42.7073 31.6001L43.0605 31.8346C43.0988 31.8527 43.1341 31.8704 43.1696 31.8882C43.577 32.0471 44.4341 32.0121 44.7398 32.6735C44.7887 33.2587 43.7658 32.8053 43.6209 32.9497L43.6218 32.9499ZM45.3087 35.7379C45.1235 34.683 45.9621 33.882 46.9844 34.0708L45.3087 35.7379ZM52.0287 39.0891C52.4756 39.1245 54.0243 39.7599 54.6165 40.0706C53.2966 39.2659 50.8571 37.5132 49.7268 36.6185C49.4144 36.3709 47.7575 36.1139 48.6713 35.1809C49.1004 34.7425 57.819 41.1633 59.3097 41.3214C58.9941 42.6897 55.5326 40.6085 54.8305 40.199C54.909 40.2663 55.3299 41.0518 55.3908 41.3088C54.8015 41.7476 52.2542 40.0429 52.0287 39.0893V39.0891ZM69.3164 37.8295L123.4 4.75774L124.252 6.13768L93.6606 24.8441C93.6748 24.9365 93.6755 25.0266 93.6676 25.1149C93.606 24.9978 93.5838 24.8951 93.6606 24.8441L91.7006 26.0428L90.2199 26.9481L89.8916 27.1488L89.1016 27.632L88.4996 28L87.5143 28.6026L87.0293 28.8993L86.6209 29.1489L85.6582 29.7375L72.5305 37.765L42.24 56.2875L41.3876 54.9078L69.3164 37.8295ZM39.1383 56.3692C40.196 56.7454 42.8955 56.6121 41.653 58.0504L39.1383 56.9268L38.589 56.6479L39.1383 56.369V56.3692ZM36.8934 55.2567L33.5437 58.3209C34.9178 59.9464 37.332 60.123 36.9256 62.7664C36.5355 65.3039 34.0188 63.6996 34.7713 62.5882C34.8981 62.4008 36.3376 62.6821 35.7446 61.1396C35.3711 60.1673 32.4731 59.615 31.8629 58.3202C33.45 57.2897 34.9167 55.4231 36.893 55.2565L36.8934 55.2567ZM30.1712 71.4245C29.7474 71.9291 29.4725 72.5875 29.0503 73.0973C28.9635 73.202 28.861 73.2946 28.7589 73.3872L28.4897 73.6548C28.3219 73.8557 28.0984 74.0143 27.9293 74.2123C27.5193 74.6921 27.1174 74.9831 26.8084 75.3275C26.4932 75.6787 26.2392 76.3924 25.6874 77.0003C24.5921 78.2079 23.2968 79.2838 22.3249 80.3459C22.2454 80.4497 22.1433 80.5392 22.0414 80.6281C21.947 80.7178 21.8523 80.8077 21.7645 80.9036C21.6864 81.0057 21.5859 81.0942 21.486 81.1818C21.3905 81.2733 21.2943 81.3645 21.2041 81.4611L20.8799 81.8914C20.5075 82.3937 20.1597 82.8852 19.7044 83.4632C19.7524 83.3981 19.8004 83.3308 19.8491 83.2594L19.5231 83.6917C19.4339 83.8023 19.3243 83.8996 19.2154 83.9978L18.9625 84.2494L18.6503 84.6222C18.6743 84.5943 18.6983 84.5663 18.7227 84.5373C17.8773 85.5519 17.0183 86.595 16.1605 87.5947C15.664 88.3108 15.1899 88.8546 14.7642 89.3452C14.4679 89.7259 14.1846 90.083 13.9186 90.3828C13.8502 90.4785 13.7524 90.5628 13.6528 90.6477C13.5514 90.7427 13.4499 90.8378 13.3583 90.9403C12.687 91.8805 11.8884 93.8279 11.1164 94.8436C10.6106 95.5092 10.5685 96.217 9.43531 95.9534C9.1926 95.7645 10.3808 94.599 10.556 94.2861C10.6362 94.1433 10.4745 93.8648 10.556 93.7286C10.6618 93.552 10.8311 93.4339 10.9683 93.3184L11.1164 93.1708C11.3503 92.8577 11.4458 92.3486 11.6767 92.0556L11.3992 91.5136L10.5558 92.0556C10.0826 92.5768 9.37259 94.4064 8.31686 93.4522C9.58836 92.5004 10.1734 91.0002 11.1164 89.8253L10.556 89.2677C9.85212 90.0086 8.12849 92.6572 7.19411 92.0504C6.95774 91.8967 7.73092 91.1982 7.75379 90.9405C7.80043 90.4181 7.58444 90.4614 7.19343 90.383C7.06212 90.3567 6.69737 90.3456 6.63308 90.383C6.15287 90.663 6.11891 91.6686 5.79515 91.4958C4.9957 91.0088 4.84809 89.8253 4.3912 89.2677C3.81114 88.5593 2.53353 88.0725 2.16268 86.741C1.79884 85.4347 2.60349 86.4137 3.27026 85.9222C7.22151 83.0098 16.0615 75.4706 19.8892 73.7404C21.5184 73.004 23.0537 73.2047 24.5502 72.2442C26.3637 71.0803 29.1537 66.1178 30.7318 64.1756C31.3843 63.3728 31.7169 62.2523 32.9734 62.5082C33.0515 63.4082 31.3829 64.5342 31.2921 64.7331C31.0793 65.2012 31.4758 66.8143 30.7318 67.5212C31.0125 67.448 31.4936 67.5315 31.8527 67.5212C32.3295 67.5074 33.4163 67.2808 33.5315 67.7973C32.615 69.0647 31.104 70.3137 30.1714 71.4243L30.1712 71.4245ZM32.416 65.8455C32.5208 63.6294 33.8041 64.0695 34.655 65.843L32.416 65.8455ZM34.6561 70.8602C35.6609 68.5222 36.5482 70.9235 38.0148 70.8638C36.6251 69.369 39.026 65.4855 40.2538 66.4086C42.682 68.2341 37.7203 73.3953 34.6561 70.86V70.8602ZM38.5833 62.5028C38.8222 60.8506 38.4461 59.859 37.4572 58.6052L41.9405 59.715C43.5507 58.62 44.5645 55.6146 46.99 56.6537C46.4068 58.8921 43.5672 59.3406 41.9405 60.2725C40.7931 60.9301 39.9101 62.0942 38.5833 62.5031V62.5028Z" fill="#FDF9E1"/>
<path d="M22.3251 80.3461C22.4285 80.2107 22.5291 80.0622 22.6287 79.9045C22.5282 80.0474 22.4274 80.1933 22.3251 80.3461Z" fill="#FDF9E1"/>
<path d="M22.0416 80.6284C22.1388 80.5363 22.2357 80.4442 22.3251 80.3462L22.0403 80.6296L22.0416 80.6284Z" fill="#FDF9E1"/>
<path d="M31.8525 26.8164C31.9592 26.8831 32.0959 26.9453 32.2429 27.0106L31.8525 26.8164Z" fill="#FDF9E1"/>
<path d="M21.486 81.182C21.5816 81.0908 21.6764 80.9998 21.7645 80.9038L21.4742 81.1926C21.4783 81.1892 21.4819 81.1856 21.486 81.182Z" fill="#FDF9E1"/>
<path d="M13.6526 90.648C13.744 90.5621 13.8357 90.4763 13.9184 90.3831L13.6492 90.6509L13.6526 90.648Z" fill="#FDF9E1"/>
<path d="M14.5962 89.5402C14.651 89.4765 14.7071 89.4109 14.764 89.3456C14.869 89.2109 14.9756 89.0733 15.0841 88.9336L14.5964 89.5404L14.5962 89.5402Z" fill="#FDF9E1"/>
<path d="M29.6108 68.6364C29.8262 68.4749 30.0197 68.3028 30.1712 68.0789C30.0132 68.2325 29.6201 68.5535 29.6108 68.6364Z" fill="#FDF9E1"/>
<path d="M29.0505 71.4245C29.1882 71.2997 29.3059 71.1746 29.4234 71.0535L29.6109 70.8669C29.5024 70.8888 29.2212 71.2654 29.0505 71.4245Z" fill="#FDF9E1"/>
<path d="M30.2878 69.8116C30.2547 69.7911 30.2164 69.7711 30.1714 69.752C30.211 69.7702 30.2445 69.7889 30.2753 69.8076C30.2253 69.7923 30.1859 69.7752 30.1714 69.752V70.3095C30.1897 70.2845 30.7358 70.3728 30.722 70.0254C30.7166 69.89 30.4501 69.8587 30.2878 69.8116Z" fill="#FDF9E1"/>
<path d="M105.823 80.3322C105.78 80.2309 105.735 80.136 105.688 80.0435C105.728 80.1482 105.772 80.2457 105.823 80.3322Z" fill="#FDF9E1"/>
<path d="M127.398 85.3702C126.905 84.3024 110.437 72.2191 108.475 71.3047C106.239 70.262 105.429 71.2266 103.005 68.9377C102.26 68.2295 97.0531 60.9779 96.9494 60.4677C96.7169 59.3078 100.169 56.2551 99.0622 54.7468C98.0703 53.4031 96.1033 55.2347 95.4614 55.2541C94.4947 55.2849 93.4802 53.6538 92.0622 53.5759C90.7929 53.509 89.9942 54.4875 89.2964 54.5042C88.1474 54.5265 87.7242 53.2414 87.3348 53.0238C87.1301 52.5861 86.7883 52.0509 86.3653 51.549C85.4266 50.4448 84.073 49.5192 82.8513 50.2357C82.7138 50.1551 82.4308 50.3166 82.2909 50.2357L82.2404 50.1884L82.2321 50.1772L81.17 49.1205C79.2392 47.9719 77.0983 47.0938 75.0052 45.7749L74.9909 45.7607L74.9911 45.7612L74.4448 45.2174C74.1505 45.1311 73.6768 45.276 73.3239 45.2174C73.1978 45.3514 73.2847 46.3272 72.7522 46.5753C72.6175 47.5621 69.3783 47.2666 69.9667 48.2789C70.331 48.9063 79.0823 53.6486 80.5648 54.4627C81.4195 54.9313 82.4143 56.0632 82.7867 56.3279C82.7897 56.3308 82.7951 56.3335 82.7981 56.3362C82.8148 56.3475 82.8345 56.3585 82.8515 56.3696L82.852 56.3702L82.8524 56.3698C85.2362 57.5677 88.8418 57.6049 90.912 58.6665C94.6341 60.5751 97.2034 65.0186 99.6656 68.0795C99.7652 68.1844 99.8442 68.2797 99.9067 68.3662C101.027 69.6531 102.72 71.0099 103.589 72.5403C105.157 73.2769 106.614 72.9523 108.278 73.7299C109.279 74.1975 123.137 84.3628 123.753 85.0974C124.444 85.9207 124.84 88.1451 123.492 87.591L117.6 82.5774C117.662 82.6826 117.568 82.9338 117.6 83.1349L123.194 88.433C123 88.8761 122.274 89.0329 122.083 89.2685C122.082 89.2671 122.081 89.2656 122.08 89.2642L122.082 89.2683C121.286 88.7946 120.897 88.9227 121.193 89.4158V89.4161C121.193 89.4188 121.193 89.4217 121.196 89.4244C121.265 89.5372 121.374 89.6695 121.517 89.8204C121.518 89.8222 121.519 89.824 121.522 89.8258C121.127 90.163 120.754 90.3468 120.401 90.3833C120.401 90.3833 120.401 90.3833 120.401 90.3833C119.482 89.9071 119.148 90.1216 119.698 90.7804C119.746 90.8343 119.794 90.8872 119.841 90.9411C119.84 90.9395 119.838 90.9377 119.836 90.9361C119.837 90.9377 119.839 90.9393 119.84 90.9408C119.546 90.9575 118.986 90.7737 118.161 90.384C118.16 90.384 118.16 90.3838 118.16 90.3835L118.159 90.3831C117.174 89.8727 116.86 90.1549 117.588 90.9293C117.592 90.9334 117.595 90.937 117.599 90.9408C117.992 91.329 119.754 93.1191 119.003 93.7262C117.909 92.6467 116.785 91.6754 115.919 90.3851C115.918 90.3844 115.918 90.384 115.917 90.3833V90.3804C115.877 90.3173 115.896 90.2146 115.917 90.111V89.8256L115.916 89.8249L115.916 89.8242C115.905 89.8055 115.891 89.7889 115.88 89.7726C115.791 89.6584 115.701 89.5999 115.617 89.6026C115.528 89.6082 115.441 89.6832 115.357 89.8247L115.357 89.8251L115.357 89.8256C114.369 89.3133 114.055 89.5992 114.793 90.3797C114.794 90.3808 114.796 90.382 114.797 90.3833C115.032 90.6633 115.121 91.2073 115.358 91.4986C116.291 92.6476 117.668 93.7361 118.165 95.1176C116.493 95.2579 115.886 92.7517 115.364 92.0656C115.361 92.0622 115.359 92.0595 115.356 92.0561L115.355 92.0538C115.317 92.0266 115.286 91.9986 115.261 91.9707C115.021 91.7995 114.503 91.6085 114.209 91.2452C113.787 90.723 113.82 90.0267 113.679 89.8298L113.675 89.8256L113.382 89.5339C113.288 89.4525 113.196 89.3703 113.125 89.2782C113.122 89.2746 113.118 89.2717 113.115 89.2681C113.028 89.1928 112.941 89.1149 112.854 89.0367C112.854 89.0358 112.852 89.0345 112.851 89.0333C112.939 89.1122 113.027 89.1908 113.116 89.2681C113.058 89.1903 112.964 89.1131 112.851 89.0331H112.851L112.851 89.0327H112.85C112.439 88.7434 111.753 88.4177 111.405 87.8944C111.098 87.4331 111.009 86.847 110.923 86.5888C110.904 86.5532 110.89 86.5154 110.874 86.48C110.87 86.4753 110.866 86.4699 110.862 86.4651C110.471 86.0054 110.137 85.5371 109.845 85.1251C109.621 84.8298 109.406 84.5435 109.224 84.2912L109.192 84.2497L108.919 83.9778C108.876 83.9384 108.833 83.8985 108.791 83.8582C108.74 83.8105 108.691 83.7611 108.648 83.7086L108.632 83.6922L108.608 83.6625C107.672 82.5422 107.34 82.2517 106.399 80.9154L106.39 80.9042L106.122 80.6377C106.009 80.5433 105.897 80.4516 105.834 80.3505C105.832 80.3491 105.831 80.348 105.83 80.3464C105.829 80.3457 105.829 80.3451 105.829 80.3442C105.374 79.8425 104.747 79.3359 104.15 78.6739C104.149 78.6739 104.149 78.6736 104.148 78.6734V78.6723L104.129 77.7059C103.549 77.0396 102.966 76.3704 102.377 75.6984C98.9961 71.8327 95.4746 67.8943 91.8217 64.1789C91.8206 64.1777 91.8197 64.1766 91.8186 64.1755L91.8192 64.1748C91.8267 64.1671 91.833 64.1602 91.8401 64.1527C91.8826 64.1045 91.925 64.059 91.9671 64.016C91.9741 64.0079 91.9825 63.9993 91.9893 63.9914C91.992 63.9914 91.992 63.9885 91.992 63.9885C92.09 63.877 92.1575 63.7851 92.1994 63.7069C92.2003 63.7069 92.2001 63.7065 92.2003 63.7058C91.9884 63.7858 91.6232 63.4968 91.2591 63.0602C91.2587 63.0602 91.258 63.06 91.258 63.06C90.9535 62.9888 89.7757 62.6081 89.5778 62.5025C89.6263 62.5342 90.4733 63.7186 89.8527 63.6231C88.947 63.8885 88.789 62.7244 88.4571 62.5025C87.9624 62.172 87.2325 61.6683 86.7758 61.3874H86.7747C86.7747 61.3874 86.774 61.3863 86.7735 61.3859C84.5308 60.005 82.8307 59.065 80.611 57.4839C80.611 57.4839 80.6103 57.4839 80.6099 57.4839C80.6099 57.4839 80.6099 57.4835 80.6099 57.483C80.0275 57.0679 79.728 56.5421 79.4907 56.3691C79.4903 56.3691 79.4896 56.3689 79.4891 56.3687L79.4876 56.3678C76.9486 55.4032 76.7924 54.7006 75.0371 53.6002C75.0264 53.5935 75.0163 53.5876 75.0056 53.5806L74.059 53.0154C73.4767 52.6778 72.8763 52.3367 72.2228 51.9193L72.2034 51.9078L72.1939 51.9031C72.0232 51.8285 71.8472 51.7364 71.6797 51.647L71.5192 51.567L71.4476 51.5316C71.3012 51.4681 71.1748 51.4111 71.0885 51.353L71.0829 51.3501C71.0829 51.3501 71.0822 51.3496 71.0818 51.3496C70.1442 51.0003 69.1249 50.8599 68.2822 50.2353C68.2818 50.2353 68.2816 50.2351 68.2811 50.2351C67.9182 50.2375 67.5039 50.185 67.1609 50.2351L67.1611 50.2348C67.1606 50.2348 67.1602 50.2348 67.1597 50.2348C66.3807 50.3493 65.61 50.3101 64.9178 50.7923L85.1525 64.4341C86.0099 65.5827 83.3534 69.9349 87.9237 72.7899C91.4658 75.0062 92.4185 72.511 94.3548 72.5443C97.5156 72.6002 114.668 98.9803 117.899 99.3178C120.822 99.6246 122.92 94.0708 124.422 91.8709C125.902 89.7046 128.931 88.6758 127.398 85.3693V85.3702ZM72.7692 47.998C72.7019 46.844 74.3597 47.6452 74.8496 47.8824C78.7929 49.7917 83.766 53.5126 87.3251 56.0959L72.7692 47.998ZM94.9144 58.601C94.0937 58.1009 90.7689 56.3182 90.6956 56.0846C90.3322 54.931 91.1253 55.2428 91.8616 55.4874C93.294 55.9639 94.5108 57.2249 95.7431 58.0421C95.5728 56.7811 96.2163 56.0031 97.147 55.257L97.4296 55.5379L95.7431 58.5996C95.5728 59.6306 95.3179 58.8465 94.9147 58.6008L94.9144 58.601ZM87.34 66.4092C87.5834 66.1812 89.9822 67.4685 90.0573 67.5958C90.7309 68.7381 88.7664 70.1192 89.0179 70.3039L92.9381 69.7549C94.8071 71.5284 84.9 73.1978 87.3402 66.4094L87.34 66.4092Z" fill="#FDF9E1"/>
<path d="M113.351 89.502C113.277 89.4337 113.205 89.3641 113.138 89.2896C113.208 89.3675 113.284 89.4407 113.362 89.5128C113.358 89.509 113.354 89.5051 113.351 89.502Z" fill="#FDF9E1"/>
<path d="M89.578 62.503C89.4786 62.4498 89.0267 61.7402 88.4571 61.3877H87.8967C88.1034 61.6519 88.2794 62.398 88.4571 62.503C88.6753 62.6314 89.3804 62.3732 89.578 62.503Z" fill="#FDF9E1"/>
<path d="M110.361 85.7994L109.739 84.974C109.732 84.9675 109.728 84.9601 109.723 84.9522C109.722 84.9499 109.721 84.9486 109.719 84.9461L109.702 84.9236C109.704 84.9261 109.706 84.9283 109.708 84.931C109.752 84.9934 109.799 85.059 109.845 85.1245C110.1 85.4606 110.363 85.8046 110.603 86.1202C110.525 86.0161 110.444 85.9093 110.361 85.7994H110.361Z" fill="#FDF9E1"/>
<path d="M108.65 83.7097C108.694 83.7611 108.742 83.8102 108.791 83.8577C108.807 83.8721 108.823 83.8861 108.839 83.9003L108.65 83.7097H108.65Z" fill="#FDF9E1"/>
<path d="M110.917 86.5683C110.903 86.53 110.889 86.4991 110.875 86.4797C110.888 86.5101 110.903 86.5381 110.917 86.5683Z" fill="#FDF9E1"/>
<path d="M113.406 89.5545C113.402 89.5512 113.398 89.5475 113.394 89.5439L113.677 89.8253C113.594 89.7298 113.5 89.6422 113.406 89.5543V89.5545Z" fill="#FDF9E1"/>
<path d="M108.936 83.9932L109.194 84.2495C109.116 84.1581 109.026 84.0754 108.936 83.9932Z" fill="#FDF9E1"/>
<path d="M86.7939 60.5343C86.8407 60.4415 86.8477 60.3439 86.776 60.2725C86.7377 60.2345 86.6684 60.23 86.5924 60.2444C86.4189 60.2768 86.2063 60.4169 86.2156 60.5514C86.246 60.9952 86.6682 60.7834 86.7941 60.5343H86.7939Z" fill="#FDF9E1"/>
</svg>
