<svg width="128" height="100" viewBox="0 0 128 100" fill="none" xmlns="http://www.w3.org/2000/svg">
<path d="M63.6979 78.1699C62.9091 78.1699 62.2587 77.8492 62.2365 77.4438L62.169 76.1958C62.169 76.1868 62.1683 76.1776 62.169 76.1688L62.1902 74.9438L62.0662 73.7189C62.0637 73.6942 62.0637 73.6697 62.0662 73.6448L62.1803 72.4292L62.1089 71.2115C62.1068 71.1781 62.1089 71.1448 62.1163 71.1116L62.3643 69.8968L62.4244 68.7027L62.346 67.501L62.2916 67.2072C62.287 67.1815 62.2845 67.1559 62.2852 67.1301L62.2926 66.6936L62.27 66.5747C62.2668 66.5577 62.2647 66.5408 62.2637 66.524L62.1948 65.29C62.193 65.257 62.1955 65.224 62.2022 65.191L62.4406 64.0245L62.2425 62.8644C62.2403 62.8519 62.2386 62.8395 62.2379 62.8272L62.1481 61.5951C62.1471 61.5848 62.1467 61.5747 62.1471 61.5644L62.1563 60.347L62.0609 59.0893C62.0591 59.0676 62.0595 59.0458 62.0616 59.024L62.1835 57.75L62.2693 56.5166L62.1626 55.2745C62.1609 55.2569 62.1605 55.2394 62.1616 55.2217L62.228 53.9692L62.1644 52.7264L62.034 51.4643C62.0319 51.4453 62.0312 51.4262 62.0323 51.4073L62.0916 50.1353L62.1895 48.8687L62.1789 47.6291L62.0563 46.3741C62.0545 46.3586 62.0542 46.3431 62.0545 46.3275L62.0856 45.0554C62.0856 45.0465 62.0863 45.0377 62.0874 45.029L62.2043 43.7814L62.1612 42.5337L62.0983 41.2673C62.0973 41.2449 62.0983 41.2226 62.1008 41.2004L62.2608 39.935L62.2022 38.6807L62.0676 37.3945C62.0662 37.3815 62.0655 37.3683 62.0655 37.3551L62.0634 36.0588C62.0634 36.0366 62.0651 36.0142 62.069 35.9918L62.2901 34.7281V33.4772L62.205 32.1933C62.204 32.1782 62.204 32.163 62.205 32.1477L62.2732 30.8688L62.2252 29.6248L61.9482 28.3618C61.9387 28.3183 61.9365 28.2743 61.9418 28.2303L62.2478 25.7093L61.9507 24.4805C61.9425 24.4473 61.939 24.4141 61.9397 24.3807L61.9906 21.7887C61.9906 21.7667 61.9934 21.7445 61.9976 21.7225L62.2407 20.4584L62.2704 19.2117L62.1842 17.9568L61.939 16.6841C61.9291 16.6317 61.9298 16.5789 61.9415 16.5266L62.2202 15.2753L62.1842 12.7427L62.0779 11.5116C62.0761 11.4918 62.0757 11.4717 62.0771 11.4521L62.163 10.2246L62.1495 8.99664C62.1488 8.9537 62.1559 8.91059 62.1701 8.86837L62.559 7.68927L62.589 6.52731L62.4746 5.30582C62.4728 5.28453 62.4724 5.26324 62.4746 5.24195L62.5664 4.00098C62.5675 3.9842 62.5699 3.96724 62.5735 3.95064L62.8261 2.73131L62.9331 1.71818C62.9257 1.70068 62.9193 1.68337 62.9144 1.66533C62.7996 1.25708 63.3542 0.878597 64.1539 0.819786L64.2066 0.815998C64.6408 0.783345 65.0788 0.85316 65.4017 1.00416C65.7249 1.15515 65.8987 1.37199 65.875 1.59533L65.7447 2.8309C65.7433 2.8437 65.7412 2.85651 65.7387 2.86932L65.4875 4.08288L65.3999 5.26649L65.5136 6.47896C65.5151 6.49412 65.5154 6.50945 65.5151 6.52461L65.4829 7.76685C65.4819 7.80509 65.4755 7.84334 65.4624 7.88104L65.0756 9.05329L65.0887 10.232C65.0887 10.2423 65.0887 10.2526 65.088 10.2629L65.0032 11.4759L65.1081 12.6911C65.1092 12.7003 65.1095 12.7095 65.1095 12.7185L65.1463 15.3098C65.1463 15.3399 65.1434 15.3698 65.1371 15.3996L64.8658 16.617L65.1003 17.8341C65.1035 17.8496 65.1056 17.8653 65.1067 17.881L65.1957 19.1772C65.1964 19.1889 65.1968 19.2008 65.1964 19.2124L65.1657 20.5087C65.1657 20.5302 65.1629 20.5515 65.1586 20.5728L64.9156 21.8358L64.8665 24.3471L65.1682 25.5939C65.1791 25.639 65.1819 25.6843 65.1766 25.7296L64.8704 28.2609L65.1406 29.4924C65.1456 29.5151 65.1484 29.538 65.1494 29.5607L65.1996 30.8567C65.1996 30.8685 65.1996 30.8802 65.1996 30.8919L65.1314 32.1655L65.2159 33.4395C65.2166 33.4478 65.2166 33.4563 65.2166 33.4648V34.7615C65.2166 34.7837 65.2148 34.8059 65.2109 34.8279L64.9901 36.0912L64.9919 37.3344L65.1258 38.6122C65.1268 38.6194 65.1272 38.6268 65.1275 38.6342L65.1883 39.9323C65.1894 39.9543 65.1883 39.9764 65.1858 39.9982L65.0258 41.263L65.0873 42.5014L65.1314 43.7792C65.1314 43.7956 65.1314 43.8119 65.1297 43.8281L65.0117 45.0869L64.9816 46.3229L65.1035 47.5718C65.1046 47.583 65.1053 47.5943 65.1053 47.6057L65.1162 48.8782C65.1162 48.8892 65.1162 48.9002 65.1152 48.9113L65.0166 50.1829L64.9594 51.4145L65.0876 52.6582C65.0883 52.6647 65.089 52.6713 65.0894 52.6778L65.1547 53.95C65.1554 53.9632 65.1554 53.9764 65.1547 53.9897L65.0887 55.2357L65.1957 56.4811C65.1975 56.5007 65.1978 56.5207 65.1964 56.5404L65.1074 57.8133L64.9877 59.0644L65.082 60.3054C65.083 60.316 65.0834 60.3267 65.083 60.3373L65.0738 61.5552L65.1608 62.7534L65.3681 63.9662C65.3762 64.0139 65.3755 64.0615 65.3656 64.1088L65.1226 65.2973L65.1876 66.4563L65.2127 66.5891C65.2176 66.6154 65.2201 66.6416 65.2194 66.6679L65.212 67.1052L65.2635 67.3836C65.2664 67.3987 65.2681 67.4139 65.2692 67.429L65.3501 68.6754C65.3512 68.69 65.3512 68.7047 65.3501 68.7195L65.2876 69.9648C65.2865 69.9841 65.284 70.0037 65.2802 70.023L65.0364 71.2171L65.1064 72.4139C65.1078 72.4332 65.1074 72.4527 65.1056 72.472L64.9926 73.6794L65.1148 74.8899C65.1162 74.9049 65.1169 74.9198 65.1166 74.9348L65.0954 76.1684L65.1622 77.4031C65.1841 77.8153 64.5482 78.1588 63.7406 78.1703C63.7269 78.1703 63.7131 78.1703 63.6997 78.1703L63.6979 78.1699Z" fill="#FDF9E1"/>
<path d="M120.111 99.3301H120.104L117.586 99.3249C117.543 99.3249 117.501 99.3238 117.458 99.3216L115.054 99.2083L112.649 99.2866C112.597 99.2884 112.543 99.2884 112.491 99.2873L107.556 99.182L105.131 99.2918C105.09 99.2937 105.049 99.2947 105.007 99.2947L102.488 99.2994C102.472 99.2994 102.459 99.2994 102.444 99.2994L99.9623 99.266L97.4789 99.2944C97.4574 99.2947 97.4358 99.2947 97.4143 99.2944L92.4188 99.2338L89.9474 99.2826C89.8891 99.2835 89.8305 99.2835 89.7722 99.2807L87.3414 99.1798L84.9099 99.2278C84.8774 99.2283 84.8456 99.2287 84.8135 99.2282L82.3226 99.1935L79.8809 99.2044L77.412 99.2991C77.3519 99.3014 77.2919 99.3021 77.2318 99.3003L74.7537 99.2393L67.2646 99.259L64.7794 99.3175C64.7253 99.3187 64.6702 99.3186 64.6158 99.3166L62.1985 99.2352L59.7815 99.325C59.6942 99.3287 59.6077 99.3274 59.5208 99.3229L57.085 99.1906L52.1327 99.2132C52.1189 99.2128 52.1058 99.2132 52.0928 99.2132L49.6069 99.1905L47.156 99.2247L44.6708 99.3198C44.6241 99.3214 44.5793 99.3225 44.5302 99.3216L42.0107 99.2942C41.9948 99.2942 41.9786 99.2938 41.9623 99.2933L39.4676 99.2238L37.0612 99.1988L34.629 99.3231C34.5601 99.3267 34.4902 99.3274 34.4224 99.3263L29.4693 99.2208L27.0343 99.3137C26.9756 99.3157 26.9163 99.3164 26.8587 99.3149L24.3392 99.256L21.8534 99.1887L19.3791 99.1988L16.8773 99.2258L14.3208 99.2233L11.7833 99.2074L9.48396 99.2148L7.13337 99.2038L4.85238 99.2139L2.54593 99.2612C2.09093 99.2702 1.66808 99.1742 1.37664 99.001L0.452869 98.4505C0.221837 98.3124 0.0964396 98.1366 0.101032 97.9551L0.129644 96.7837L0.0868878 95.6124L0.00105236 94.4454C-0.0141378 94.241 0.135657 94.0424 0.415439 93.8959C0.694867 93.7494 1.06755 93.6648 1.48087 93.6706L1.75534 93.6724L3.98053 93.6642C4.05542 93.6673 4.11088 93.666 4.17553 93.67L6.36256 93.8122L8.5178 93.865L10.7352 93.8576C10.761 93.8585 10.7836 93.8576 10.8073 93.8582L13.2165 93.9108L15.6261 93.8333C15.6731 93.8317 15.7208 93.8309 15.7681 93.8322L20.6897 93.9231L23.1187 93.8733C23.1445 93.8728 23.1707 93.8728 23.1968 93.8728L25.622 93.8894L28.0488 93.799C28.1336 93.7958 28.2198 93.7965 28.3046 93.801L30.7251 93.9278L33.1616 93.9366L35.6672 93.8363C35.7079 93.8345 35.7506 93.8336 35.7909 93.834L38.3594 93.8419C38.3923 93.8419 38.4251 93.8427 38.4576 93.8439L40.9379 93.937L43.4178 93.8762C43.4496 93.8751 43.481 93.8749 43.5124 93.8753L46.0813 93.897L48.6174 93.9285L51.1178 93.8818L53.6613 93.7905C53.7284 93.7882 53.7958 93.7884 53.8622 93.7905L56.3902 93.8778L58.9185 93.8932L61.4641 93.8878C61.4867 93.8885 61.5019 93.8878 61.5206 93.8881L64.01 93.9318L66.5005 93.8363C66.5626 93.8338 66.6248 93.8333 66.6873 93.8353L69.1521 93.9017L71.6185 93.7867C71.6825 93.7837 71.7464 93.7829 71.81 93.7842L74.3248 93.8358L76.8302 93.7873C76.8916 93.7862 76.9534 93.7867 77.0142 93.7896L79.4775 93.9007L81.9415 93.8399C81.9934 93.8383 82.0446 93.8387 82.0962 93.8403L84.6022 93.9136L87.1086 93.8876C87.1348 93.8879 87.1595 93.8876 87.1846 93.8879L89.6899 93.9283L92.1959 93.867C92.2157 93.8667 92.2348 93.8663 92.2545 93.8663L94.8168 93.856L97.3729 93.8759L99.8952 93.8235C99.9277 93.823 99.9606 93.8226 99.992 93.8232L102.537 93.8569H105.081L107.633 93.8445C107.649 93.8445 107.666 93.8445 107.682 93.8445L110.214 93.876L112.747 93.8497L115.341 93.8486L117.56 93.8362L119.786 93.6936C119.834 93.6904 119.883 93.6888 119.931 93.6881L122.259 93.6581C122.294 93.6577 122.327 93.6581 122.361 93.6586L124.707 93.7126C125.039 93.7202 125.356 93.7855 125.606 93.8975L127.322 94.6675C127.679 94.8275 127.862 95.0661 127.812 95.3075L127.778 95.4699L127.579 96.5485L127.651 97.6406C127.66 97.7893 127.583 97.9361 127.428 98.0622L126.387 98.9112C126.121 99.128 125.655 99.2605 125.154 99.2614L122.668 99.267L120.182 99.3288C120.159 99.3296 120.135 99.3297 120.111 99.3297L120.111 99.3301ZM117.663 97.8311L120.078 97.8362L122.558 97.7745C122.58 97.774 122.601 97.7736 122.623 97.7736L124.336 97.7698L124.712 97.4628L124.652 96.551C124.65 96.5193 124.652 96.4873 124.658 96.4559L124.828 95.5368L124.062 95.1933L122.281 95.1524L120.078 95.1807L117.842 95.3238C117.787 95.3274 117.732 95.3292 117.676 95.3295L115.358 95.3425L112.778 95.3434L110.24 95.3699C110.218 95.3699 110.196 95.3699 110.175 95.3699L107.635 95.3384L105.095 95.3506H102.517C102.505 95.3506 102.492 95.3506 102.48 95.3506L99.9652 95.3174L97.4507 95.3696C97.4235 95.3699 97.397 95.3699 97.3687 95.3701L94.8054 95.3499L92.3068 95.3602L89.7718 95.4222C89.733 95.4231 89.6941 95.4233 89.6556 95.4226L87.1302 95.3818L84.6054 95.4078C84.5666 95.4085 84.5294 95.4078 84.492 95.4067L82.0068 95.334L79.5202 95.3954C79.4538 95.3979 79.3874 95.3966 79.321 95.3934L76.8506 95.2819L74.3803 95.3299C74.3418 95.3306 74.3033 95.3306 74.2662 95.3299L71.7902 95.279L69.3142 95.3945C69.2443 95.3979 69.1743 95.3982 69.104 95.3964L66.6276 95.3297L64.1506 95.4246C64.0973 95.4268 64.0439 95.4275 63.9906 95.4264L61.4496 95.3818L58.9089 95.3871L56.3163 95.3716C56.2891 95.3716 56.262 95.3708 56.2351 95.3699L53.7669 95.2844L51.2997 95.373C51.2835 95.3735 51.2668 95.3741 51.2506 95.3744L48.6813 95.4224C48.6517 95.4228 48.6216 95.423 48.5923 95.4224L46.0234 95.3905L43.5132 95.3694L40.9916 95.4313C40.9329 95.4332 40.8736 95.4327 40.8139 95.4302L38.2941 95.3357L35.8361 95.3281L33.3297 95.4286C33.2884 95.4304 33.2485 95.4311 33.2047 95.4309L30.6361 95.4215C30.5895 95.4215 30.5432 95.4201 30.4969 95.4177L28.1347 95.2938L25.7728 95.3817C25.7314 95.3833 25.6876 95.3831 25.6474 95.3836L23.1986 95.3669L20.7512 95.4172C20.7137 95.4179 20.6752 95.4179 20.6371 95.4172L15.7402 95.3266L13.3243 95.4044C13.2734 95.4062 13.2215 95.4062 13.1699 95.4053L10.719 95.3517L8.49766 95.3591C8.47081 95.3595 8.44468 95.3591 8.41748 95.3582L6.1651 95.3028C6.1273 95.3019 6.08879 95.3001 6.051 95.298L3.90388 95.1585L2.98151 95.1619L3.01155 95.5709L3.0557 96.7682C3.0557 96.776 3.0557 96.7837 3.0557 96.7915L3.0338 97.6928L3.13766 97.7548L4.75982 97.7215C4.77536 97.7211 4.79055 97.7209 4.80609 97.7209L7.13585 97.7108L9.48998 97.7218L11.7936 97.7144L14.3431 97.7303L16.8508 97.733L19.3378 97.7059L21.876 97.6955C21.9067 97.6955 21.9353 97.6955 21.965 97.6966L26.906 97.8212L29.3382 97.7285C29.3951 97.7265 29.4516 97.7263 29.5078 97.727L34.4418 97.8322L36.8584 97.7085C36.9171 97.7054 36.9782 97.7045 37.034 97.7049L39.5538 97.7312C39.5708 97.7312 39.5874 97.7316 39.604 97.7321L42.0987 97.8016L44.5238 97.8279L46.9733 97.7341C46.9963 97.7332 47.0196 97.7326 47.0426 97.7323L49.5617 97.6971C49.5836 97.6967 49.6051 97.6967 49.6277 97.6971L52.1263 97.7198L57.1462 97.6971C57.2048 97.6953 57.2574 97.6984 57.3129 97.7011L59.7016 97.8308L62.089 97.7422C62.1568 97.7397 62.2243 97.7397 62.2914 97.7418L64.7282 97.8237L67.1643 97.7666C67.1862 97.766 67.2073 97.7658 67.2292 97.7658L74.7738 97.746C74.8042 97.7465 74.8286 97.746 74.8554 97.7469L77.2841 97.8066L79.7117 97.7133C79.7442 97.7121 79.7763 97.7113 79.8085 97.7112L82.3251 97.7C82.3428 97.6995 82.3604 97.7 82.3777 97.7L84.8463 97.7343L87.317 97.6856C87.3764 97.6847 87.434 97.685 87.4919 97.6875L89.9227 97.7884L92.3538 97.74C92.3856 97.7395 92.4185 97.7395 92.4489 97.7397L97.4464 97.8007L99.933 97.7721C99.956 97.7716 99.9803 97.7721 100.004 97.7721L102.501 97.8057L104.935 97.8012L107.391 97.6899C107.454 97.6872 107.516 97.6866 107.578 97.6875L112.543 97.7934L114.982 97.7141C115.059 97.7115 115.134 97.7124 115.21 97.7159L117.663 97.8315L117.663 97.8311Z" fill="#FDF9E1"/>
<path d="M31.0666 95.0526C30.2626 95.0526 29.6087 94.721 29.6041 94.3099L29.5899 93.0034L29.5306 91.7101C29.5306 91.7027 29.5299 91.6953 29.5306 91.6881L29.5511 89.0779L29.5454 87.7734C29.5454 87.7633 29.5454 87.7532 29.5465 87.7431L29.6443 86.4464L29.6719 85.1699L29.5581 83.8829C29.5324 83.5908 29.8429 83.3177 30.3526 83.1844L32.6414 82.586C32.8611 82.5286 33.1059 82.4979 33.3539 82.5044L36.3418 82.5524L39.2806 82.5869L44.2276 82.5236C44.2428 82.5236 44.2576 82.5232 44.2728 82.5236L46.7609 82.5351L49.233 82.5331L51.7408 82.5483L54.1995 82.5378C54.2203 82.5384 54.2362 82.5378 54.2535 82.5378L56.7143 82.5739L59.1776 82.5647L61.6571 82.5669L64.1232 82.5263C64.1515 82.5257 64.1797 82.5256 64.2087 82.5263L66.8278 82.5615L69.3759 82.5762L71.9447 82.5008C71.9656 82.5001 71.9861 82.4998 72.0069 82.4996L74.6271 82.4795L77.2836 82.4916L79.8708 82.4723L85.1178 82.4887L87.709 82.4436L90.6329 82.4155L93.5395 82.3397C93.6183 82.3379 93.696 82.3388 93.7744 82.3433L96.6895 82.5075C97.2643 82.54 97.7476 82.7422 97.9228 83.0235L98.6314 84.1612C98.6756 84.2323 98.6985 84.3061 98.6999 84.3806L98.7226 85.6005L98.783 86.8083L98.7968 88.0429L98.772 89.2648L98.8116 90.4742C98.8116 90.4908 98.8116 90.5074 98.8098 90.5238L98.6925 91.7265L98.6886 92.9129L98.7904 94.1178C98.8257 94.5298 98.1994 94.8783 97.3925 94.896C96.5966 94.9144 95.9028 94.5942 95.8686 94.1822L95.7651 92.9607C95.764 92.9495 95.7637 92.9383 95.7637 92.9271L95.7679 91.7056C95.7679 91.6937 95.7686 91.6816 95.7697 91.6697L95.8862 90.474L95.847 89.2794C95.847 89.2725 95.847 89.2659 95.847 89.259L95.8721 88.0388L95.8587 86.8312L95.7983 85.6261L95.7771 84.5067L95.4231 83.9388L93.5706 83.8344L90.7583 83.9076C90.7428 83.908 90.7269 83.9083 90.7113 83.9085L87.786 83.9366L85.1856 83.9819C85.1641 83.9823 85.1443 83.9823 85.1221 83.9823L79.8874 83.9657L77.2913 83.985L74.6355 83.9729L72.0818 83.9926L69.4935 84.0687C69.4599 84.0698 69.4281 84.0703 69.3925 84.07L66.772 84.0546L64.1741 84.0198L61.7257 84.06C61.7094 84.0606 61.6924 84.0633 61.6762 84.0604L59.1853 84.0582L56.709 84.0676C56.6906 84.0673 56.6733 84.0676 56.6564 84.0676L54.1959 84.0315L51.7347 84.0418L49.2171 84.0267L46.7492 84.0287L44.2686 84.0173L39.3258 84.0808C39.3011 84.0808 39.2763 84.0811 39.2505 84.0808L36.262 84.0456L33.6387 84.0038L32.5223 84.2956L32.5955 85.1239C32.5969 85.1378 32.5972 85.1518 32.5969 85.1657L32.5686 86.4736C32.5686 86.4805 32.5686 86.4873 32.5676 86.494L32.4704 87.7857L32.4757 89.0779L32.4556 91.6865L32.5146 92.9823L32.529 94.3021C32.5336 94.7145 31.8826 95.0506 31.0747 95.053H31.0669L31.0666 95.0526Z" fill="#FDF9E1"/>
<path d="M87.8177 83.6659C87.7965 83.6659 87.7757 83.6659 87.7541 83.6653C86.9745 83.6482 86.3584 83.3217 86.3542 82.9232L86.3404 82.1323L86.2683 81.1458L83.0759 81.1518C83.0593 81.1523 83.0378 81.1518 83.0176 81.1513L80.3473 81.1006L74.9746 81.1105L72.2845 81.0975L69.6132 81.1354C69.5902 81.1354 69.568 81.1354 69.5457 81.1354L66.8726 81.1101L64.1998 81.1321L61.6669 81.126L59.1454 81.1038L51.6884 81.1273L49.205 81.1559C49.1912 81.1559 49.1757 81.1556 49.1644 81.1559L46.6651 81.1493C46.6502 81.1493 46.6354 81.1493 46.6206 81.1489L42.2122 81.0748L41.2496 81.1698L40.6932 82.354L40.7045 82.818C40.7148 83.2306 40.0683 83.569 39.2607 83.5742H39.2417C38.4422 83.5742 37.7897 83.2463 37.7795 82.8369L37.7657 82.2797C37.7643 82.2176 37.7777 82.1559 37.806 82.0958L38.6249 80.3533C38.7587 80.0685 39.2063 79.8498 39.7691 79.7943L41.8148 79.5922C41.9208 79.5818 42.0303 79.5774 42.1352 79.5789L46.7015 79.6554L49.1584 79.6619L51.6375 79.6334L54.1535 79.6182L59.1613 79.6097L61.6991 79.6319L64.1829 79.6381L66.8507 79.6159C66.8669 79.6159 66.8842 79.6159 66.9012 79.6159L69.5659 79.6411L72.2308 79.6032C72.2492 79.6029 72.2662 79.6027 72.2856 79.6032L74.9856 79.6164L80.3643 79.6063C80.3855 79.6059 80.4053 79.6063 80.4261 79.6068L83.0978 79.6575L87.6679 79.6469H87.6778C88.4638 79.6469 89.11 79.9644 89.1389 80.366L89.2721 82.2573L89.2774 82.7076C89.2965 82.7682 89.3011 82.831 89.2898 82.8948L89.2735 82.9859C89.205 83.372 88.5702 83.6651 87.8181 83.6651L87.8177 83.6659Z" fill="#FDF9E1"/>
<path d="M66.6525 78.8158H66.6274L64.06 78.7933L63.8106 78.8017C63.7717 78.8032 63.7325 78.8039 63.694 78.8034L58.6568 78.7756L56.1477 78.8043L53.5886 78.8073C53.5706 78.8064 53.5646 78.8073 53.5526 78.8073L51.0218 78.7783L48.5215 78.7758L45.9996 78.7803H45.9943C45.1888 78.7803 44.5346 78.4476 44.5317 78.0361C44.5286 77.6237 45.1814 77.2882 45.9889 77.2867L48.519 77.2822L51.0575 77.2849L53.5996 77.314L56.1113 77.3111L58.6131 77.2822C58.6279 77.2822 58.6434 77.2822 58.6583 77.2822L63.6735 77.3098L63.9261 77.3012C63.9667 77.2999 64.008 77.2999 64.0487 77.2995L66.6536 77.3225L69.2585 77.3024L74.5497 77.3149L77.1475 77.295L79.7977 77.2925L82.4411 77.3015C83.249 77.3042 83.8994 77.6409 83.8937 78.0533C83.8884 78.464 83.2349 78.7951 82.4316 78.7951H82.4217L79.7906 78.786L77.1719 78.7886L74.5613 78.8084L69.2765 78.796L66.6737 78.8162H66.6518L66.6525 78.8158Z" fill="#FDF9E1"/>
<path d="M47.5214 68.2031C46.7286 68.2031 46.0772 67.8795 46.0599 67.4725C46.0423 67.0601 46.6827 66.7186 47.4903 66.7096L50.1878 66.6797L52.8708 66.6362C52.8891 66.6358 52.9089 66.6356 52.9245 66.6358L55.6064 66.6429L58.2863 66.6158L63.6721 66.5326C63.6894 66.5323 63.7067 66.5326 63.725 66.5326L64.0373 66.5339L66.4582 66.5669L68.8251 66.5777C68.8417 66.5777 68.8579 66.5777 68.8745 66.5785L71.229 66.6297L73.5842 66.6183C73.6089 66.6189 73.6329 66.6183 73.6566 66.6189L76.0234 66.6676L80.7939 66.6798C81.6014 66.6825 82.2521 67.019 82.2468 67.4314C82.2419 67.8422 81.588 68.1734 80.7847 68.1734H80.7751L75.9856 68.1611C75.968 68.1611 75.95 68.1611 75.9326 68.1606L73.5754 68.112L71.218 68.1234C71.1947 68.1234 71.1679 68.1234 71.1417 68.1229L68.7742 68.0713L66.4056 68.0603L63.7296 68.0264L58.3618 68.1092L55.646 68.1368H55.6092L52.9361 68.1297L50.2655 68.1728L47.5535 68.203C47.5429 68.203 47.5316 68.203 47.521 68.203L47.5214 68.2031Z" fill="#FDF9E1"/>
<path d="M68.731 13.4791L63.8051 13.4611L63.5773 13.4737C63.5207 13.4769 63.4642 13.4786 63.407 13.478L56.2457 13.4565L51.4961 13.4721H51.4908C50.6854 13.4721 50.0312 13.1394 50.0283 12.7279C50.0255 12.3153 50.678 11.98 51.4855 11.9785L56.2454 11.963L58.6574 11.974L63.3445 11.9843L63.5727 11.9717C63.6288 11.9682 63.6871 11.9673 63.7426 11.9673L68.7331 11.9857L71.2133 11.9789L73.6974 11.9585H73.7497L76.249 11.9839C77.0566 11.9922 77.6985 12.3332 77.6826 12.7456C77.6667 13.1529 77.0149 13.4777 76.2208 13.4777H76.1911L73.7179 13.4524L71.2444 13.4726L68.7313 13.4795L68.731 13.4791Z" fill="#FDF9E1"/>
<path d="M44.1461 80.5622C44.0917 80.5622 44.0358 80.5605 43.9804 80.5575C43.1778 80.5111 42.6005 80.1415 42.691 79.7316L42.9556 78.5332C42.9686 78.4747 42.9948 78.4172 43.0343 78.362L43.8129 77.267L44.2298 76.1808L44.3905 74.9751L44.4068 73.7192C44.4068 73.6799 44.4138 73.6405 44.4265 73.6017L44.8155 72.4068L44.73 71.2028C44.7282 71.1772 44.7289 71.1517 44.7325 71.1261L44.8988 69.8521L45.1013 68.5909L45.1468 67.4025L45.1179 67.3067C45.108 67.2735 45.1023 67.2401 45.1009 67.2064L45.0539 65.9024C45.0532 65.8788 45.0546 65.8553 45.0582 65.8317L45.2475 64.5655L45.2178 63.2956C45.2171 63.261 45.221 63.2262 45.2295 63.1917L45.5499 61.9163L45.7332 60.6906L45.5718 59.439C45.5665 59.3995 45.5676 59.36 45.575 59.3205L45.8042 58.0662L45.753 56.8066C45.7516 56.7777 45.7537 56.7489 45.7594 56.72L45.9943 55.4655L45.9561 54.2047C45.9551 54.1682 45.9593 54.1318 45.9685 54.0957L46.2956 52.8279L46.4359 51.5798L46.4285 50.3008C46.4285 50.2858 46.4292 50.271 46.4309 50.2561L46.5743 48.968L46.6471 47.6787L46.6863 46.4083L46.5906 45.1258C46.5878 45.0921 46.5899 45.0583 46.5966 45.0248L46.8435 43.7288L47.0509 42.4586L47.1473 41.2147L46.9894 39.9492C46.9866 39.9252 46.9855 39.9012 46.9873 39.8774L47.07 38.5787C47.0714 38.5589 47.0742 38.5388 47.0785 38.519L47.36 37.2497L47.4625 36.0078L47.3685 34.7356C47.3664 34.7069 47.3674 34.6783 47.3717 34.6494L47.5652 33.3806L47.5698 32.109C47.5698 32.0698 47.5762 32.0309 47.5882 31.9924L47.974 30.7592L47.9718 29.5424L47.8111 28.2618C47.8037 28.2033 47.8101 28.1447 47.8295 28.0869L48.2382 26.8774L48.1128 25.6575C48.1103 25.6353 48.11 25.6129 48.1117 25.5906L48.2061 24.2919C48.2068 24.2825 48.2078 24.2731 48.2089 24.2637L48.3993 22.9668L48.571 21.6746L48.7201 20.417L48.6392 19.1497C48.6381 19.1313 48.6381 19.1131 48.6392 19.0949L48.7427 17.7962L48.8183 16.5146L48.8327 15.2227L48.8691 13.9165C48.8702 13.8777 48.8769 13.8392 48.89 13.801L49.2987 12.5802L49.2461 11.4498C49.2387 11.2853 49.3372 11.1242 49.5273 10.9913L51.0477 9.92923L52.1573 8.74977C52.164 8.74291 52.1703 8.73606 52.1774 8.72938L53.4166 7.50951C53.4265 7.49941 53.4375 7.48967 53.4485 7.47993L54.7767 6.30552L56.0043 5.10152C56.0393 5.06725 56.0795 5.03423 56.1247 5.00302L57.6219 3.96662L58.5626 2.77056C58.6068 2.71428 58.664 2.66142 58.7332 2.61217L60.3147 1.49152C60.3723 1.45057 60.4384 1.41268 60.5112 1.37859L62.9699 0.22348C63.4206 0.0115087 64.0823 -0.0344936 64.6284 0.108745L65.0025 0.206883C65.7207 0.395402 66.004 0.845683 65.6348 1.21262C65.3755 1.47023 64.8633 1.61816 64.3327 1.61816H64.3211L62.6007 2.42636L61.2103 3.41153L60.2664 4.61155C60.2201 4.67018 60.1597 4.72575 60.0859 4.77662L58.546 5.84279L57.3562 7.00962C57.3467 7.01936 57.3361 7.02874 57.3255 7.03813L55.9976 8.21236L54.7841 9.40661L53.6261 10.6377C53.5876 10.6788 53.5417 10.7179 53.4887 10.7549L52.1827 11.6676L52.2269 12.6167C52.2293 12.6648 52.2223 12.7128 52.2064 12.7603L51.7927 13.9951L51.7581 15.2372L51.7436 16.5314C51.7436 16.5375 51.7436 16.5435 51.7429 16.5498L51.6662 17.8487L51.5645 19.1279L51.6461 20.4026C51.6475 20.4259 51.6472 20.4491 51.6443 20.4722L51.4903 21.7698L51.3172 23.0729L51.1279 24.3613L51.0371 25.6124L51.1682 26.8824C51.1742 26.9382 51.1674 26.9937 51.1491 27.0487L50.7418 28.2542L50.8944 29.4704C50.8961 29.4861 50.8972 29.5018 50.8972 29.5175L50.8997 30.8175C50.8997 30.8572 50.8937 30.8967 50.8813 30.936L50.4952 32.1701L50.4906 33.4117C50.4906 33.4306 50.4892 33.4495 50.4864 33.4683L50.2952 34.7223L50.3882 35.9811C50.3899 36.001 50.3896 36.021 50.3882 36.0408L50.2808 37.339C50.279 37.3567 50.2765 37.374 50.2726 37.3915L49.9922 38.6572L49.9134 39.89L50.0716 41.1581C50.0748 41.1839 50.0755 41.2095 50.0734 41.2353L49.9724 42.5338C49.9717 42.5448 49.9702 42.5555 49.9685 42.5663L49.7565 43.863L49.517 45.119L49.6106 46.3713C49.6117 46.3848 49.612 46.3982 49.6117 46.4117L49.5714 47.7117L49.4976 49.0212C49.4969 49.0283 49.4965 49.0353 49.4958 49.0421L49.3534 50.3183L49.3609 51.5973C49.3609 51.6123 49.3602 51.6275 49.3584 51.6426L49.2122 52.9408C49.21 52.959 49.2069 52.9772 49.2023 52.9953L48.8825 54.2361L48.9203 55.4835C48.9211 55.5111 48.9189 55.5389 48.9136 55.5663L48.6791 56.819L48.7299 58.0779C48.7314 58.1062 48.7292 58.1345 48.7239 58.1629L48.4975 59.4002L48.6582 60.6454C48.6628 60.6805 48.6625 60.7161 48.6572 60.7512L48.4632 62.0491C48.4615 62.0619 48.4587 62.0747 48.4558 62.0875L48.1435 63.3303L48.1725 64.5808C48.1732 64.6026 48.1718 64.6246 48.1683 64.6465L47.9793 65.9104L48.0231 67.1282L48.0566 67.2381C48.0694 67.2805 48.075 67.3238 48.0736 67.3667L48.0245 68.6433C48.0238 68.6588 48.022 68.6743 48.0195 68.6898L47.815 69.9629L47.6553 71.1871L47.7436 72.4281C47.7472 72.4778 47.7408 72.5282 47.7246 72.5774L47.3307 73.7883L47.3148 75.008C47.3148 75.0233 47.3134 75.0386 47.3116 75.0538L47.1417 76.3291C47.1375 76.3603 47.1293 76.3913 47.1177 76.422L46.6616 77.6108C46.6471 77.6487 46.627 77.6858 46.6012 77.7221L45.8431 78.7885L45.5983 79.8988C45.5142 80.2802 44.8812 80.5622 44.1467 80.5622H44.1461Z" fill="#FDF9E1"/>
<path d="M84.3825 80.573C83.701 80.573 83.0913 80.3287 82.9504 79.9746L82.4883 78.8112L81.8475 77.6618C81.838 77.6449 81.8295 77.6279 81.8228 77.6106L81.3388 76.4313C81.3229 76.3925 81.313 76.3534 81.3095 76.3141L81.1904 75.055L80.9573 73.7984L80.7036 72.5312C80.6955 72.4903 80.6937 72.4493 80.6987 72.4082L80.852 71.1678L80.7428 69.9327L80.68 68.6607L80.4927 67.4064C80.4821 67.335 80.4917 67.2628 80.5213 67.1925L80.5316 67.1676L80.1815 66.0083C80.1653 65.9549 80.1607 65.9006 80.1674 65.8467L80.3263 64.5793L80.2292 63.3418L79.972 62.0692C79.9646 62.0321 79.9625 61.9947 79.9657 61.9574L80.0833 60.6832L80.0052 59.465L79.5863 58.2229C79.575 58.1886 79.5679 58.1538 79.5658 58.1192L79.4877 56.8194L79.4319 55.5322L79.2493 54.2532C79.244 54.2164 79.244 54.1792 79.2493 54.1424L79.4333 52.9065L79.1684 51.68C79.1602 51.6408 79.1578 51.6013 79.1613 51.5622L79.2765 50.336L78.8946 49.1192C78.8783 49.0672 78.8727 49.0145 78.878 48.9619L79.009 47.6866L78.9504 46.4303L78.7925 45.1466L78.6134 43.8551C78.6106 43.8338 78.6091 43.8125 78.6099 43.7912L78.6473 42.5233L78.4618 41.2602C78.4583 41.2382 78.4569 41.2163 78.4576 41.1943L78.4908 39.9164L78.365 38.6424C78.364 38.6323 78.3633 38.6225 78.3633 38.6124L78.3379 37.3653L77.9638 36.1251C77.9496 36.0785 77.9443 36.0314 77.9475 35.9847L78.0372 34.7127L77.9274 33.4441C77.9263 33.4337 77.926 33.4232 77.926 33.4127L77.9207 32.1404L77.7288 30.8723L77.4911 29.59C77.4854 29.5608 77.4837 29.5314 77.4847 29.5022L77.5423 28.2464L77.2957 26.9966C77.289 26.9629 77.2873 26.9293 77.289 26.8954L77.3763 25.6306L77.2124 24.3712C77.2109 24.3615 77.2102 24.3519 77.2095 24.3422L77.14 23.0427L76.9206 20.4654L76.7514 19.1778C76.7496 19.1652 76.7485 19.1522 76.7482 19.1394L76.7097 17.8721L76.4546 16.6091C76.4451 16.5604 76.4444 16.5117 76.4532 16.463L76.68 15.2229L76.4815 13.9919C76.4794 13.9798 76.4779 13.9675 76.4772 13.9552L76.396 12.7L76.1081 11.7275L74.9695 10.622C74.9589 10.6117 74.9487 10.6012 74.9391 10.5906L73.8295 9.37882L71.0685 7.07384C71.0582 7.06518 71.048 7.05652 71.0384 7.04768L69.7215 5.85054L68.4321 4.63229L67.1293 3.44435C67.1226 3.4384 67.1166 3.43244 67.1102 3.42631L66.0052 2.3504L63.816 1.46481C63.0738 1.35621 62.6199 0.968526 62.7948 0.579762C62.976 0.177648 63.7602 -0.0734699 64.548 0.0192562L64.7971 0.0484812C65.009 0.0735569 65.2072 0.122085 65.3774 0.190998L68.0643 1.27791C68.2247 1.34268 68.3565 1.42404 68.4515 1.5164L69.6915 2.72365L70.9946 3.91213L72.283 5.12947L73.5738 6.3028L76.3705 8.63773C76.3981 8.66082 76.4232 8.68482 76.4454 8.70917L77.5741 9.94185L78.8112 11.143C78.8872 11.2167 78.9384 11.2967 78.9631 11.3791L79.3008 12.5194C79.309 12.5483 79.3146 12.5771 79.3164 12.6064L79.3994 13.8869L79.6053 15.1654C79.6124 15.2088 79.6121 15.2525 79.6039 15.2962L79.3786 16.5285L79.6251 17.7507C79.6297 17.7723 79.6322 17.794 79.6326 17.8156L79.6714 19.0963L79.8399 20.3746L79.842 20.3936L80.0625 22.9879L80.1321 24.2861L80.2992 25.5689C80.3027 25.5942 80.3034 25.6194 80.3016 25.6447L80.2154 26.8967L80.461 28.1418C80.4673 28.1724 80.4691 28.2033 80.468 28.2341L80.4104 29.4923L80.6422 30.7439L80.8407 32.0527C80.8435 32.0713 80.8449 32.0899 80.8449 32.1086L80.8502 33.3934L80.9612 34.6761C80.9629 34.6959 80.9633 34.716 80.9619 34.736L80.875 35.967L81.2438 37.19C81.2544 37.225 81.26 37.2605 81.2607 37.2959L81.2869 38.5814L81.4137 39.8641C81.4151 39.8799 81.4158 39.8958 81.4155 39.9117L81.3822 41.1803L81.5681 42.4441C81.5716 42.4665 81.573 42.4891 81.5723 42.5114L81.5349 43.7811L81.7101 45.0464L81.8705 46.3504C81.8715 46.3601 81.8726 46.3697 81.8729 46.3794L81.9337 47.679C81.9347 47.698 81.9337 47.7169 81.9323 47.7358L81.8065 48.9604L82.188 50.1756C82.2039 50.2265 82.2099 50.2781 82.2046 50.3297L82.0877 51.5742L82.3548 52.8111C82.3647 52.8571 82.3661 52.9034 82.3594 52.9496L82.1735 54.1993L82.3509 55.4419C82.3527 55.4543 82.3541 55.4671 82.3544 55.4796L82.4106 56.7792L82.4851 58.0205L82.9037 59.2617C82.915 59.2956 82.9221 59.3297 82.9242 59.3638L83.0076 60.6634C83.009 60.6832 83.0087 60.7032 83.0069 60.7231L82.8917 61.9711L83.1422 63.211C83.1454 63.2265 83.1475 63.2422 83.1489 63.2577L83.251 64.5577C83.2531 64.5837 83.2524 64.6095 83.2492 64.6355L83.0952 65.8604L83.4622 67.0754C83.4894 67.1654 83.4842 67.2572 83.4464 67.3463L83.4241 67.4001L83.5979 68.5653C83.6 68.5779 83.6011 68.5907 83.6018 68.6034L83.6647 69.8795L83.7759 71.1398C83.7784 71.1667 83.778 71.1936 83.7745 71.2204L83.624 72.4396L83.8664 73.651L84.1041 74.9304C84.1066 74.9418 84.108 74.9533 84.1091 74.9648L84.2239 76.182L84.6732 77.2772L85.3154 78.4291C85.3257 78.4477 85.3349 78.4663 85.3423 78.4852L85.8157 79.6767C85.976 80.081 85.4645 80.4752 84.6732 80.5573C84.575 80.5674 84.4772 80.5723 84.3811 80.5723L84.3825 80.573Z" fill="#FDF9E1"/>
</svg>
