<svg width="461" height="193" viewBox="0 0 461 193" fill="none" xmlns="http://www.w3.org/2000/svg">
<path d="M0 0H460.46V192.5H0V0Z" fill="#6B3529"/>
<path d="M127.844 66.9109C127.828 58.1301 128.084 49.2781 127.844 40.5131C127.828 39.9906 127.86 39.4917 127.844 39.0088C127.812 38.1536 127.868 37.2906 127.844 36.4355L119.174 36.5463C119.27 53.1815 119.038 69.8246 119.174 86.4519C119.262 89.4448 118.902 94.2112 119.174 96.7528C119.19 96.8874 119.15 97.0458 119.174 97.1804C119.238 97.5446 120.126 98.5818 120.478 98.6848C120.998 98.8273 124.069 98.7402 124.813 98.6848C125.972 98.4789 126.948 98.471 127.628 97.3942C127.484 91.0283 127.732 84.6545 127.844 78.2887C127.844 78.0749 127.844 77.8611 127.844 77.6473C127.86 76.9585 127.828 76.2221 127.844 75.5016C127.852 73.4984 127.844 71.4952 127.844 69.4921C127.852 68.6528 127.844 67.766 127.844 66.9188V66.9109ZM120.686 47.5916C121.382 44.3849 126.332 45.5488 126.54 48.4467C126.548 48.5813 126.556 48.7397 126.54 48.8743C126.476 49.4048 125.037 51.0991 124.589 51.2337C124.429 51.2813 122.581 51.2813 122.421 51.2337C121.901 51.0754 120.79 49.6185 120.686 49.088C120.638 48.8347 120.63 47.837 120.686 47.5837V47.5916ZM120.47 71.2023C120.518 71.0598 122.221 69.3258 122.421 69.2704C123.989 68.8745 126.46 71.0519 126.54 72.4929C126.54 72.5641 126.54 72.6354 126.54 72.7067C126.492 73.2609 124.877 75.1374 124.373 75.2799C124.205 75.3274 122.829 75.3274 122.637 75.2799C121.909 75.0978 120.622 73.641 120.47 72.9204C120.422 72.6908 120.414 71.3765 120.47 71.2023ZM126.54 94.1558C126.492 94.2746 124.717 95.8344 124.589 95.874C123.253 96.2461 120.878 95.288 120.47 93.942C120.422 93.7758 120.422 92.4139 120.47 92.2239C120.566 91.8438 122.045 90.189 122.421 90.0782C122.589 90.0307 123.741 90.0307 123.941 90.0782C124.517 90.2049 126.38 91.7963 126.54 92.4377C126.58 92.6119 126.588 94.037 126.54 94.1558Z" fill="#FFFBE4"/>
<path d="M145.84 87.9481C146.928 87.9956 148.023 88.1065 149.095 88.1619C150.343 88.2411 151.526 88.2727 152.782 88.3757C153.59 88.439 154.366 88.5103 155.166 88.5895C155.757 88.6528 156.325 88.7399 156.901 88.8032C157.565 88.8745 158.189 88.9299 158.853 89.017C159.373 89.0883 159.86 89.1516 160.372 89.2308C160.812 89.2941 161.252 89.3812 161.676 89.4446C162.116 89.5158 162.548 89.5871 162.98 89.6583C163.348 89.7217 163.723 89.8167 164.067 89.8721C164.435 89.9355 164.803 90.0226 165.155 90.0859C165.451 90.1413 165.771 90.2522 166.019 90.2997C166.387 90.3709 166.731 90.4343 167.107 90.5135C167.403 90.5768 167.707 90.6718 167.97 90.7272C168.274 90.7906 168.562 90.8777 168.834 90.941C169.194 91.0202 169.538 91.0598 169.922 91.1548C170.282 91.2419 170.618 91.2736 171.01 91.3686C171.362 91.4557 171.698 91.4794 172.097 91.5824C172.385 91.6615 172.665 91.717 172.961 91.7961C173.257 91.8753 173.521 91.9228 173.825 92.0099C174.057 92.0733 174.281 92.1683 174.473 92.2237C174.705 92.295 174.921 92.3741 175.121 92.4375C175.345 92.5087 175.561 92.58 175.769 92.6513C176.105 92.7621 176.177 92.8571 176.201 92.865C176.424 92.9442 176.616 92.9917 176.848 93.0788C177.248 93.2134 177.696 93.4351 177.936 93.5064C178.28 93.641 178.688 93.8152 179.024 93.9339C179.248 93.9814 180.04 94.2427 180.112 93.9339C179.696 93.5776 179.936 92.7304 179.896 92.2158C179.856 91.7803 179.744 91.1706 179.68 90.7114C179.64 90.1967 179.536 89.5237 179.464 88.9933C179.392 88.5024 179.328 87.9798 179.248 87.4889C179.2 87.1643 179.088 86.7763 179.032 86.4121C178.968 86.0003 178.888 85.549 178.816 85.1215C178.76 84.7968 178.656 84.401 178.6 84.0447C178.528 83.625 178.456 83.1816 178.384 82.7541C178.328 82.4215 178.232 82.0415 178.168 81.6773C178.112 81.3447 178.016 80.9567 177.952 80.6004C177.872 80.1729 177.816 79.7295 177.736 79.3099C177.672 78.9694 177.592 78.5893 177.52 78.233C177.432 77.7976 177.392 77.3621 177.304 76.9425C177.208 76.4991 177.176 76.0715 177.088 75.6519C177.008 75.2956 176.952 74.9234 176.872 74.5751C176.792 74.2108 176.736 73.8466 176.656 73.4982C176.592 73.237 176.504 72.9202 176.44 72.6431C176.424 72.5877 176.296 72.2789 176.224 72.0018C176.137 71.6297 176.097 71.2654 176.009 70.925C175.929 70.6083 176.009 70.7191 176.009 70.7112C175.977 70.5924 176.041 70.4024 176.009 70.2836C175.977 70.1807 175.865 69.8878 175.793 69.6423C175.753 69.5156 175.649 69.2464 175.577 69.001C175.457 68.6367 175.433 68.3596 175.361 68.1458C175.289 67.9321 175.217 67.7025 175.145 67.5045C174.977 67.0453 174.689 66.499 174.497 66.0001C174.377 65.6755 174.201 65.2638 174.065 64.9233C169.178 53.4901 161.556 45.2794 149.999 40.2358C149.775 40.1487 149.591 40.03 149.567 40.022C149.375 39.9508 149.143 39.8874 148.919 39.8083C148.703 39.7212 148.511 39.6024 148.487 39.5945C148.287 39.5153 148.063 39.4678 147.839 39.3807C147.639 39.3094 147.407 39.2461 147.191 39.1669C146.992 39.0957 146.752 39.0244 146.544 38.9531C146.336 38.8819 146.096 38.8027 145.896 38.7394C145.632 38.6602 145.32 38.6048 145.032 38.5256C144.776 38.4543 144.496 38.3435 144.384 38.3118C144.112 38.2405 143.792 38.1693 143.52 38.098C143.248 38.0268 142.92 37.9476 142.657 37.8843C142.313 37.8051 141.929 37.7417 141.569 37.6705C141.225 37.5992 140.825 37.52 140.481 37.4567C140.169 37.3933 139.769 37.2667 139.617 37.2429C139.265 37.1796 138.849 37.0766 138.53 37.0291C138.05 36.9579 137.49 36.8787 137.01 36.8154C136.61 36.7599 136.058 36.6332 135.706 36.6016C135.026 36.5224 134.211 36.4353 133.539 36.3878C132.995 36.372 129.772 36.3086 129.636 36.4986V87.3701C130.731 87.4255 131.803 87.5681 132.891 87.6947C137.234 87.8214 141.545 87.7027 145.904 87.9085L145.84 87.9481ZM169.034 75.7073C170.274 75.2322 169.978 74.3692 170.338 73.5616C170.642 73.0944 171.082 72.6985 170.986 72.0572C171.514 71.986 171.458 72.6669 171.634 73.134C171.706 73.332 171.674 73.4191 171.85 73.7754C171.914 73.902 171.802 74.0129 172.065 74.4167C173.065 75.9369 173.225 75.2481 173.801 75.7073C174.473 76.2378 174.521 76.2932 174.449 77.2117C174.449 77.2433 174.297 77.6471 174.233 77.853C173.873 79.0644 173.369 78.0589 173.585 80.4263C173.601 80.9251 173.777 81.1547 173.801 81.2814C173.865 81.6852 174.009 81.891 174.017 81.9227C174.089 82.2394 174.225 82.5324 174.233 82.564C174.289 82.8808 174.457 83.3796 174.449 83.4192C174.433 83.5459 174.513 83.8309 174.337 83.8467C171.986 82.0415 171.594 82.469 169.346 84.0605C169.146 83.918 169.242 83.435 169.234 83.2054C169.218 82.469 169.498 81.5031 169.45 80.6321C169.45 80.6004 169.786 80.6163 169.666 79.9908C169.666 79.8799 169.738 80.062 169.666 79.777C169.458 78.9298 166.699 76.2061 166.851 76.024C167.635 75.834 168.218 76.0082 169.018 75.6994L169.034 75.7073ZM148.439 69.4839C148.783 69.5077 149.335 69.6502 149.743 69.6977C150.287 69.7452 150.911 69.8561 151.478 69.9115C151.686 69.9194 152.174 70.1965 152.782 70.1253C152.83 70.1253 153.27 70.5608 153.758 70.3391L156.573 65.1846C156.637 65.5013 156.773 65.628 156.901 65.826C156.933 65.8814 156.885 66.2218 157.117 66.6811C157.413 67.6154 157.701 68.0746 157.981 68.8268C158.061 69.0326 158.085 69.1989 158.197 69.4681C158.269 69.6423 158.245 69.7611 158.413 70.1094C158.469 70.2282 158.445 70.3866 158.629 70.7508C158.685 70.8695 158.565 70.9883 158.845 71.3921C158.973 71.5742 158.901 71.9226 159.389 72.2472C159.485 72.3106 159.804 72.1918 159.932 72.2472C160.284 72.4135 160.372 72.3898 160.58 72.461C160.812 72.5402 161.012 72.6035 161.228 72.6748C161.732 72.9361 161.932 72.8173 162.092 72.8886C162.42 73.0311 162.636 73.0548 162.74 73.1023C163.084 73.2607 163.532 73.807 164.043 73.7437V73.9575C162.34 75.3668 159.78 75.3906 160.14 77.8213C160.1 78.3835 160.356 78.6368 160.356 78.6764C160.404 79.104 160.54 79.3653 160.572 79.5316C160.644 79.9037 160.716 80.2442 160.788 80.6084C160.836 80.9251 160.996 81.4239 161.004 81.4635C161.044 81.8119 161.22 82.4849 161.22 82.5403C161.236 82.8095 161.3 83.4746 161.108 83.6171C159.564 82.2869 158.285 79.9512 156.229 79.3257C155.661 79.1515 155.981 79.2465 155.581 79.3257C155.214 79.4049 155.134 79.4682 154.934 79.5395C153.806 79.7216 152.798 80.1412 151.894 80.8301L151.246 80.7192C151.238 80.4658 151.262 80.2125 151.246 79.967C151.246 79.9195 151.43 79.5553 151.462 79.1119C151.534 78.7477 151.606 78.4072 151.678 78.0351C151.71 77.8609 151.838 77.5442 151.894 77.18C151.918 76.9979 152.11 76.6337 152.11 76.1032C152.126 75.8815 152.518 75.2164 152.326 74.7096C152.118 74.1554 147.119 69.8402 147.335 69.5552C147.631 69.3493 148.071 69.476 148.423 69.4444L148.439 69.4839ZM143.128 65.4063C143.496 65.4063 143.536 66.3802 143.24 66.4831C142.785 66.6415 142.657 65.4063 143.128 65.4063Z" fill="#FFFBE4"/>
<path d="M66.915 94.3852C66.915 94.0843 67.147 94.1872 67.3469 94.1714C67.3789 94.1714 67.7468 94.021 67.9948 93.9576C68.0188 93.9576 68.0188 93.8547 68.4267 93.7439C68.6426 93.6726 68.8666 93.6013 69.0745 93.5301C69.2984 93.4509 69.4904 93.3876 69.7223 93.3163C69.9303 93.2529 70.1542 93.1738 70.3702 93.1025C70.5781 93.0392 70.7941 92.96 71.018 92.8887C71.218 92.8254 71.4419 92.7383 71.6659 92.675C71.8578 92.6195 72.0818 92.5245 72.3137 92.4612C72.6256 92.3741 72.8896 92.3266 73.1775 92.2474C73.3055 92.2157 73.5454 92.1049 73.8254 92.0336C74.1213 91.9544 74.4012 91.8911 74.6891 91.8198C74.9771 91.7486 75.265 91.6773 75.5529 91.6061C75.8409 91.5348 76.1288 91.4635 76.4167 91.3923C76.6967 91.321 76.9846 91.2498 77.2805 91.1785C77.6644 91.0914 78.0004 91.0439 78.3683 90.9647C78.7442 90.8776 79.0881 90.8301 79.456 90.7509C79.7199 90.6955 80.0239 90.6005 80.3198 90.5372C80.6797 90.4659 81.0396 90.3946 81.4075 90.3234C81.7595 90.2521 82.1274 90.173 82.4953 90.1096C82.8472 90.0463 83.2071 89.9592 83.583 89.8958C84.0229 89.8167 84.4468 89.7533 84.8867 89.6821C85.3186 89.6108 85.7425 89.5316 86.1904 89.4683C86.6143 89.397 87.0462 89.3178 87.4941 89.2545C87.998 89.1832 88.5018 89.112 89.0137 89.0407C89.5096 88.9774 90.0215 88.8903 90.5333 88.8269C91.1092 88.7557 91.6771 88.6765 92.2689 88.6132C92.9168 88.5419 93.5566 88.4548 94.2205 88.3994C95.0203 88.3281 95.7961 88.241 96.6039 88.1856C97.9236 88.0827 99.1953 88.051 100.507 87.9718C102.69 87.8689 104.826 87.8214 107.009 87.758C109.161 87.663 115.063 87.9085 116.551 87.5443C116.599 87.5363 117.223 87.1325 117.415 87.1167C117.439 85.4777 117.383 83.8229 117.415 82.176C117.143 73.4111 117.319 64.7491 117.415 55.9921C117.399 50.7822 117.583 45.5248 117.415 40.3229C117.407 40.022 117.423 39.7132 117.415 39.4678C117.367 38.5414 117.447 37.5992 117.415 36.6807C117.199 36.3323 114.712 36.459 114.16 36.4669C113.576 36.4669 112.616 36.6174 111.992 36.6807C111.528 36.7282 110.96 36.8312 110.473 36.8945C110.081 36.942 109.585 37.0449 109.169 37.1083C108.849 37.1558 108.441 37.2666 108.081 37.3221C107.753 37.3775 107.345 37.4725 106.993 37.5358C106.657 37.5992 106.258 37.6784 105.906 37.7496C105.562 37.8209 105.162 37.8921 104.818 37.9634C104.554 38.0188 104.226 38.1138 103.954 38.1772C103.674 38.2405 103.362 38.3197 103.09 38.3909C102.978 38.4226 102.698 38.5335 102.442 38.6047C102.147 38.6918 101.843 38.7393 101.579 38.8185C101.387 38.8739 101.139 38.9689 100.931 39.0323C100.731 39.0956 100.491 39.1748 100.283 39.2461C100.075 39.3173 99.8351 39.3886 99.6352 39.4598C99.4192 39.539 99.1873 39.6024 98.9873 39.6736C98.6594 39.7924 98.2515 39.9666 97.8996 40.1012C85.7185 45.0973 77.7124 53.7593 72.5297 65.6438C72.3137 66.1822 72.0738 66.8235 71.8818 67.362C71.8098 67.552 71.7539 67.7658 71.6659 68.0033C71.5859 68.2012 71.5299 68.4229 71.4499 68.6446C71.3779 68.8426 71.306 69.0722 71.234 69.286C71.162 69.4918 71.09 69.7214 71.018 69.9273C70.9381 70.1648 70.9061 70.4499 70.8021 70.7824C70.7301 71.0279 70.6181 71.2971 70.5861 71.4238C70.5142 71.6771 70.4022 71.9542 70.3702 72.0651C70.2982 72.3422 70.2262 72.6431 70.1542 72.9202C70.0823 73.1973 70.0023 73.5061 69.9383 73.7753C69.8663 74.0524 69.7863 74.3612 69.7223 74.6304C69.6584 74.9155 69.5704 75.2243 69.5064 75.4855C69.4264 75.826 69.3704 76.1981 69.2905 76.5624C69.2105 76.9107 69.1465 77.2829 69.0745 77.6392C69.0025 77.9876 68.9305 78.3597 68.8586 78.716C68.7866 79.0644 68.7066 79.4444 68.6426 79.7928C68.5626 80.2124 68.5066 80.6479 68.4267 81.0834C68.3547 81.503 68.2747 81.9543 68.2107 82.374C68.1387 82.7936 68.0667 83.2449 67.9948 83.6646C67.9228 84.1555 67.8508 84.678 67.7788 85.1689C67.7148 85.5886 67.6269 86.0478 67.5629 86.4595C67.4829 87.0217 67.4189 87.6076 67.3469 88.1777C67.2909 88.6052 67.179 89.0724 67.131 89.4683C67.067 89.9592 66.963 90.5055 66.915 90.9726C66.859 91.511 66.7311 92.192 66.6991 92.6908C66.6831 93.2609 66.7071 93.8389 66.6991 94.4089H66.915V94.3852ZM109.625 54.6777C109.625 54.6777 109.441 54.6857 109.409 54.6777C109.393 54.6777 109.193 54.4798 109.193 54.464C109.233 53.1654 110.768 54.0443 109.625 54.6777ZM109.193 75.3905C109.305 75.9052 108.481 76.0715 108.329 75.7152C108.097 75.1688 109.073 74.8205 109.193 75.3905ZM102.906 66.9106C102.906 66.9106 103.298 66.8869 103.338 66.9106C104.794 67.7262 101.483 67.9479 102.906 66.9106ZM99.4352 56.1821C99.4352 56.1821 99.6352 55.9762 99.6512 55.9683C99.7151 55.9446 100.067 55.9525 100.083 55.9683C100.331 56.1504 100.331 56.6493 100.083 56.8234C99.9551 56.9105 99.5392 56.7047 99.4352 56.6097C99.4112 56.5226 99.4112 56.2534 99.4352 56.1821ZM91.3092 58.9692C91.4371 58.8979 92.3089 58.8266 92.2849 59.2938C92.2529 59.8401 90.5573 59.373 91.3092 58.9692ZM86.4303 54.0285C87.2781 53.9097 86.8622 54.749 86.6463 54.8836C86.5663 54.9311 85.9185 54.9232 85.7825 54.7727L86.6463 54.3452C86.7822 54.0443 86.4223 54.0364 86.4303 54.0206V54.0285ZM84.6947 73.997C84.8147 73.9337 85.0307 73.8228 85.1266 73.7832C85.2706 73.7199 85.4306 73.7278 85.7745 73.5695C85.9265 73.4824 86.3184 73.4903 86.8622 73.1419C86.9582 73.0865 87.2941 73.2052 87.4061 73.1419C88.1579 72.7064 87.974 72.1838 88.1659 71.8513C88.3899 71.4554 88.3179 71.3367 88.3819 71.21C88.5498 70.8616 88.5338 70.7191 88.5978 70.5686C88.7338 70.2519 88.7418 70.1173 88.8138 69.9273C88.9017 69.6977 88.9497 69.4839 89.0297 69.286C89.1177 69.0484 89.1657 68.8663 89.2457 68.6446C89.3176 68.4308 89.3896 68.2091 89.4616 68.0033C89.5416 67.7895 89.6056 67.552 89.6776 67.362C89.8375 67.0532 90.2854 66.8235 90.1094 66.2851H90.3254C91.1732 67.4095 91.925 70.9487 93.1407 71.4396C93.3167 71.9938 93.5566 71.4396 93.5726 71.4396C94.1805 71.5979 94.7483 71.2575 95.0923 71.2258C95.5481 71.1704 95.964 71.0754 96.3959 71.012C96.7558 70.9566 97.1558 70.8458 97.4837 70.7982C97.8116 70.7507 98.4434 70.9804 98.5714 70.5845H98.7874V71.012C97.8756 71.4396 94.3804 75.2559 94.2365 75.8419C94.0845 76.4674 94.4524 76.5544 94.4524 76.594C94.4524 77.0928 94.6604 77.3858 94.6684 77.4492C94.7243 77.8292 94.8283 78.1855 94.8843 78.526C94.9483 78.8981 95.0363 79.2465 95.1003 79.6028C95.1642 79.9274 95.2922 80.3074 95.3162 80.4579C95.3882 80.9013 95.5321 81.0676 95.5321 81.0992C95.5161 81.4951 95.6841 81.8197 95.1003 81.7406C94.3084 81.0121 92.8928 80.4737 91.845 80.2362C91.781 80.2124 91.757 79.9987 91.1972 80.0224C91.0532 80.0145 91.3252 79.8878 90.7653 80.0224C88.9497 80.4579 87.5021 83.3479 86.1024 84.5276C85.6225 84.4643 85.7905 82.9836 85.7745 82.5957C85.8385 82.0414 85.9185 81.4476 85.9904 80.8775C86.0144 80.6637 86.1584 80.2204 86.2064 79.8007C86.2064 79.769 86.3903 79.7215 86.4223 79.1594C86.4703 78.9377 86.5903 78.7318 86.6383 78.3043C86.8862 76.2773 84.5108 76.2536 83.1671 74.9788C83.1671 74.8917 84.4708 74.1237 84.6868 74.0128L84.6947 73.997ZM72.1218 77.4254C72.2017 77.3779 72.3697 77.5204 72.7696 77.2116C73.3535 76.7603 73.1775 77.6629 73.8574 76.1348C74.1533 75.4776 73.9613 75.1372 74.0733 74.8442C74.1693 74.5988 74.2093 74.4325 74.2892 74.2029C74.3532 74.0208 74.4492 73.6882 74.5052 73.5615C74.6412 73.2607 74.7051 72.944 74.7211 72.9202C74.7371 72.8965 75.0171 72.746 75.0491 72.4926C75.201 72.4451 75.473 72.6193 75.5929 72.7064C75.6169 72.7302 75.5369 72.9519 75.8089 73.3478C77.6404 78.2251 79.416 74.8521 80.3598 76.0319C79.7759 77.7896 77.3605 79.3811 77.3205 80.8617C77.3045 81.3922 77.5205 81.6297 77.5365 81.7168C77.6085 82.1523 77.6724 82.5719 77.7524 83.0074C77.7924 83.4191 77.9684 83.8229 77.9684 83.8625C78.0084 84.2109 78.1843 84.8839 78.1843 84.9393C78.2003 85.2244 78.1763 85.5173 78.1843 85.7944C75.449 83.625 75.0411 82.3106 72.4417 85.5807C72.2897 85.5807 72.3377 85.2877 72.3297 85.1531C72.3297 85.1056 72.5137 84.7414 72.5457 84.298C72.6176 83.9338 72.6896 83.5933 72.7616 83.2212C72.7936 83.0391 72.9216 82.762 72.9776 82.3661C73.0096 82.0731 73.2895 81.6931 73.1935 81.0755C73.2335 79.4207 72.3457 79.4761 71.242 78.1776C71.5139 78.0747 72.0018 77.4887 72.1058 77.4254H72.1218Z" fill="#FFFBE4"/>
<path d="M65.1796 99.3259C65.2276 99.3259 65.5635 99.1438 66.0434 99.1121C66.4193 99.0329 66.7552 98.9696 67.1311 98.8983C67.3791 98.8508 67.723 98.7479 67.9949 98.6846C68.0349 98.6767 68.3628 98.5341 68.6428 98.4708C68.9147 98.4074 69.2346 98.3283 69.5065 98.257C69.7945 98.1858 70.0824 98.1145 70.3703 98.0432C70.4423 98.0274 70.7382 97.9007 71.0182 97.8295C71.3061 97.7503 71.594 97.6869 71.882 97.6157C71.978 97.5919 72.2499 97.4732 72.5298 97.4019C72.8097 97.3306 73.1057 97.2594 73.3936 97.1881C73.4656 97.1723 73.7455 97.0456 74.0415 96.9743C74.3214 96.9031 74.6173 96.8239 74.9052 96.7606C75.1852 96.6972 75.4811 96.6101 75.769 96.5468C76.041 96.4834 76.3369 96.3963 76.6328 96.333C76.9048 96.2776 77.2007 96.1826 77.4966 96.1192C77.8645 96.04 78.2165 95.9767 78.5844 95.9054C78.8403 95.85 79.1522 95.7471 79.4482 95.6917C79.904 95.6046 80.3119 95.5571 80.7518 95.4779C81.1038 95.4145 81.4717 95.3274 81.8396 95.2641C82.2795 95.1849 82.6954 95.1216 83.1433 95.0503C83.5752 94.9791 83.9991 94.8999 84.447 94.8365C84.9588 94.7574 85.4547 94.694 85.9666 94.6228C86.4705 94.5515 86.9743 94.4723 87.4862 94.409C88.0621 94.3377 88.6379 94.2665 89.2218 94.1952C89.8776 94.116 90.5095 94.0448 91.1733 93.9814C91.8212 93.9102 92.469 93.831 93.1249 93.7676C93.9967 93.6885 94.8525 93.6251 95.7242 93.5539C96.668 93.4826 97.5958 93.3955 98.5396 93.3401C99.9232 93.2451 101.283 93.2055 102.659 93.1263C104.546 93.0313 106.402 92.9759 108.297 92.9125C109.537 92.8571 116.599 92.9125 116.967 92.6988C117.063 92.6433 117.335 91.4715 117.399 91.1944C117.399 90.7352 117.575 89.4842 117.071 89.2625C116.567 89.0408 107.521 89.2387 106.122 89.2625C104.218 89.2941 102.179 89.3891 100.267 89.4762C99.2034 89.5396 98.0757 89.6108 97.0119 89.69C96.0202 89.7534 94.9644 89.8167 93.9727 89.9038C93.2688 89.9671 92.509 90.0463 91.8052 90.1176C91.2533 90.1809 90.6295 90.2601 90.0696 90.3314C89.5897 90.3868 89.0459 90.4818 88.55 90.5451C88.1421 90.6006 87.6782 90.6956 87.2463 90.7589C86.8384 90.8143 86.3665 90.9093 85.9426 90.9727C85.5267 91.036 85.0628 91.1152 84.6389 91.1865C84.311 91.2419 83.9111 91.3369 83.5512 91.4002C83.2153 91.4557 82.8233 91.5507 82.4634 91.614C82.1195 91.6774 81.7276 91.7565 81.3757 91.8278C81.0238 91.8991 80.6399 91.9703 80.2879 92.0416C79.928 92.1128 79.5521 92.1841 79.2002 92.2554C78.9363 92.3108 78.6164 92.4058 78.3364 92.4691C77.9685 92.5562 77.5926 92.6037 77.2487 92.6829C76.9687 92.7463 76.6648 92.8254 76.3849 92.8967C76.105 92.968 75.793 93.0392 75.5211 93.1105C75.2332 93.1897 74.9292 93.2451 74.6573 93.3243C74.3614 93.4034 74.0654 93.4589 73.7935 93.538C73.6096 93.5935 73.3616 93.6885 73.1457 93.7518C72.8417 93.8389 72.5458 93.8864 72.2819 93.9656C72.0819 94.0289 71.842 94.1081 71.634 94.1794C71.4261 94.2506 71.1861 94.3219 70.9862 94.3932C70.7622 94.4723 70.5303 94.5357 70.3383 94.6069C70.3143 94.6149 70.1464 94.7257 69.9064 94.8207C69.6825 94.8999 69.4506 94.9632 69.2586 95.0345C68.9467 95.1533 68.4668 95.3354 68.1709 95.462C67.8029 95.6204 66.8832 95.9846 66.6512 96.1034C66.3233 96.2459 65.7315 96.4518 65.5635 96.5309C64.3078 97.3227 63.7959 99.2071 65.1316 99.318L65.1796 99.3259Z" fill="#FFFBE4"/>
<path d="M130.228 92.6671C131.491 92.9759 136.61 92.7938 138.466 92.8809C140.721 92.9521 142.929 92.9759 145.184 93.0946C146.344 93.1659 147.496 93.2292 148.655 93.3084C149.607 93.3718 150.527 93.443 151.471 93.5222C152.126 93.5776 152.79 93.6806 153.422 93.736C154.078 93.7993 154.726 93.8785 155.374 93.9498C155.957 94.0131 156.533 94.1002 157.109 94.1635C157.693 94.2348 158.261 94.3061 158.845 94.3773C159.357 94.4407 159.861 94.5198 160.364 94.5911C160.876 94.6623 161.372 94.7336 161.884 94.8049C162.396 94.884 162.884 94.9395 163.404 95.0186C163.844 95.0899 164.275 95.1612 164.707 95.2324C165.147 95.3037 165.563 95.367 166.011 95.4462C166.379 95.5095 166.739 95.5966 167.099 95.66C167.539 95.7392 167.939 95.7788 168.402 95.8738C168.77 95.945 169.114 96.0084 169.49 96.0875C169.786 96.1509 170.09 96.2459 170.354 96.3013C170.65 96.3647 170.946 96.4518 171.218 96.5151C171.514 96.5864 171.802 96.6655 172.082 96.7289C172.37 96.8001 172.633 96.9189 172.729 96.9427C173.017 97.0139 173.305 97.0773 173.593 97.1564C173.881 97.2277 174.145 97.3465 174.241 97.3702C174.529 97.4415 174.809 97.5048 175.105 97.584C175.369 97.6553 175.609 97.7582 175.753 97.7978C175.977 97.8611 176.209 97.9561 176.401 98.0116C176.681 98.0907 176.952 98.1303 177.264 98.2253C177.52 98.2966 177.792 98.4074 177.912 98.4391C178.176 98.5104 178.44 98.6212 178.56 98.6529C178.808 98.7242 179.128 98.8429 179.208 98.8667C179.488 98.9379 179.776 99.0646 179.856 99.0805C180.152 99.1517 180.4 99.2626 180.504 99.2942C180.752 99.3576 181.119 99.5001 181.151 99.508C181.503 99.5793 181.767 99.7218 181.799 99.7218C182.159 99.7455 182.183 99.6109 182.447 99.508C182.447 99.4367 182.447 99.3655 182.447 99.2942C182.447 99.2309 182.255 98.067 182.231 98.0036C181.727 96.6339 178.336 95.2641 176.808 94.5673C176.696 94.5119 176.473 94.4882 176.161 94.3536C175.873 94.2506 175.753 94.1477 175.729 94.1398C175.521 94.0685 175.281 93.9893 175.081 93.926C174.873 93.8547 174.633 93.7756 174.433 93.7122C174.217 93.6489 173.977 93.5539 173.785 93.4984C173.569 93.4351 173.321 93.3401 173.137 93.2847C172.865 93.2055 172.562 93.1501 172.274 93.0709C171.994 92.9996 171.69 92.9284 171.41 92.8571C171.066 92.77 170.706 92.7383 170.322 92.6433C169.978 92.5562 169.61 92.5166 169.234 92.4296C168.826 92.3345 168.386 92.3187 167.931 92.2158C167.643 92.1524 167.315 92.0495 167.067 92.002C166.715 91.9307 166.331 91.8515 165.979 91.7882C165.627 91.7169 165.235 91.6378 164.891 91.5744C164.563 91.5111 164.188 91.3923 164.028 91.3607C163.676 91.2973 163.276 91.2023 162.94 91.1469C162.58 91.0835 162.18 90.9806 161.852 90.9331C161.356 90.8539 160.836 90.7906 160.332 90.7193C159.909 90.656 159.429 90.561 159.029 90.5055C158.533 90.4422 157.989 90.3472 157.509 90.2918C156.877 90.2126 156.181 90.1413 155.558 90.078C154.782 89.9988 153.95 89.9355 153.174 89.8642C151.902 89.7692 150.543 89.7138 149.271 89.6504C148.207 89.5871 147.064 89.4762 146.016 89.4366C140.577 89.2545 135.091 89.5712 129.644 89.4366C129.516 89.5317 129.452 92.287 129.532 92.4454C129.548 92.4771 130.116 92.6433 130.18 92.6592L130.228 92.6671Z" fill="#FFFBE4"/>
<path d="M51.519 117.355C51.791 117.244 51.9189 117.22 52.1669 117.141C52.3748 117.078 52.6068 116.998 52.8147 116.927C53.0307 116.856 53.2386 116.785 53.4626 116.713C53.6705 116.65 53.8865 116.571 54.1104 116.5C54.4143 116.42 54.6863 116.365 54.9742 116.286C55.0942 116.254 55.3501 116.143 55.622 116.072C55.934 115.985 56.1979 115.937 56.4858 115.858C56.7898 115.779 57.0617 115.724 57.3496 115.644C57.6456 115.565 57.9335 115.502 58.2134 115.431C58.5093 115.351 58.7973 115.288 59.0772 115.217C59.3731 115.138 59.6611 115.074 59.941 115.003C60.2369 114.924 60.5249 114.861 60.8048 114.789C61.0927 114.718 61.3887 114.647 61.6686 114.576C61.9565 114.504 62.2525 114.433 62.5324 114.362C62.8203 114.29 63.1082 114.219 63.3962 114.148C63.7881 114.045 64.132 114.021 64.4839 113.934C64.7718 113.863 65.0598 113.792 65.3477 113.72C65.6356 113.649 65.9236 113.578 66.2115 113.507C66.2995 113.483 66.5794 113.364 66.8593 113.293C67.1473 113.222 67.4352 113.15 67.7231 113.079C68.0031 113.008 68.299 112.937 68.5869 112.865C68.8669 112.794 69.1628 112.723 69.4507 112.652C69.7307 112.58 70.0266 112.509 70.3145 112.438C70.3785 112.422 70.6744 112.295 70.9624 112.224C71.2423 112.161 71.5382 112.081 71.8262 112.01C72.1061 111.947 72.402 111.868 72.6899 111.796C72.9699 111.733 73.2658 111.646 73.5537 111.583C73.8337 111.519 74.1296 111.432 74.4175 111.369C74.7934 111.282 75.1454 111.234 75.5053 111.155C75.7772 111.092 76.0811 111.005 76.3691 110.941C76.641 110.878 76.9449 110.791 77.2329 110.728C77.6088 110.64 77.9607 110.593 78.3206 110.514C78.5925 110.45 78.8965 110.363 79.1844 110.3C79.4563 110.245 79.7602 110.15 80.0482 110.086C80.4161 110.007 80.776 109.952 81.1359 109.872C81.5038 109.793 81.8637 109.73 82.2237 109.659C82.5916 109.579 82.9515 109.516 83.3114 109.445C83.5753 109.389 83.8793 109.294 84.1752 109.231C84.5351 109.16 84.895 109.089 85.2629 109.017C85.6308 108.946 85.9828 108.875 86.3507 108.804C86.6066 108.748 86.9185 108.645 87.2145 108.59C87.5664 108.518 87.9343 108.447 88.3022 108.376C88.6541 108.305 89.022 108.233 89.3899 108.162C89.8378 108.075 90.2617 108.028 90.6936 107.948C91.0455 107.885 91.4135 107.798 91.7814 107.735C92.2213 107.655 92.6452 107.6 93.085 107.521C93.5249 107.442 93.9488 107.378 94.3887 107.307C94.8206 107.236 95.2525 107.165 95.6924 107.093C96.1243 107.022 96.5562 106.951 96.9961 106.88C97.332 106.824 97.7159 106.721 98.0838 106.666C98.5077 106.594 98.9476 106.515 99.3875 106.452C99.7154 106.404 100.107 106.294 100.475 106.238C100.891 106.175 101.339 106.088 101.779 106.024C102.195 105.961 102.643 105.874 103.083 105.811C103.579 105.739 104.09 105.66 104.602 105.597C105.098 105.533 105.61 105.446 106.122 105.383C106.698 105.312 107.274 105.233 107.857 105.169C108.513 105.09 109.153 105.019 109.809 104.955C110.457 104.884 111.105 104.805 111.761 104.742C112.632 104.663 113.48 104.591 114.36 104.528C115.224 104.465 116.08 104.362 116.959 104.314C118.271 104.243 119.535 104.124 120.862 104.1C122.542 104.053 123.958 104.053 125.629 104.1C126.957 104.132 128.221 104.243 129.532 104.314C130.34 104.362 131.132 104.473 131.916 104.528C132.724 104.583 133.507 104.678 134.299 104.742C134.963 104.797 135.603 104.892 136.251 104.955C136.978 105.027 137.69 105.09 138.418 105.169C139.146 105.248 139.85 105.296 140.586 105.383C141.17 105.454 141.745 105.526 142.321 105.597C142.761 105.652 143.209 105.755 143.625 105.811C144.137 105.882 144.641 105.953 145.145 106.024C145.584 106.088 146.024 106.175 146.448 106.238C146.816 106.294 147.208 106.404 147.536 106.452C147.976 106.515 148.416 106.602 148.84 106.666C149.208 106.721 149.591 106.824 149.927 106.88C150.359 106.951 150.799 107.022 151.231 107.093C151.735 107.18 152.231 107.22 152.751 107.307C153.183 107.378 153.615 107.442 154.054 107.521C154.422 107.584 154.79 107.671 155.142 107.735C155.51 107.798 155.878 107.885 156.23 107.948C156.598 108.02 156.958 108.099 157.318 108.162C157.678 108.233 158.045 108.305 158.405 108.376C158.765 108.447 159.133 108.518 159.493 108.59C159.853 108.661 160.213 108.732 160.581 108.804C160.941 108.875 161.301 108.946 161.669 109.017C162.028 109.089 162.388 109.16 162.756 109.231C163.052 109.294 163.364 109.389 163.62 109.445C163.98 109.516 164.34 109.579 164.708 109.659C165.004 109.722 165.308 109.817 165.572 109.872C165.932 109.952 166.283 110.007 166.659 110.086C166.955 110.15 167.259 110.245 167.523 110.3C167.883 110.379 168.235 110.435 168.611 110.514C168.907 110.577 169.211 110.664 169.475 110.728C169.835 110.807 170.187 110.854 170.562 110.941C170.858 111.005 171.154 111.092 171.426 111.155C171.722 111.218 172.018 111.306 172.29 111.369C172.586 111.432 172.882 111.519 173.154 111.583C173.45 111.646 173.746 111.733 174.018 111.796C174.306 111.868 174.609 111.947 174.881 112.01C175.169 112.081 175.473 112.161 175.745 112.224C176.033 112.295 176.329 112.374 176.609 112.438C176.897 112.509 177.193 112.588 177.473 112.652C177.761 112.723 178.057 112.794 178.337 112.865C178.688 112.952 179.032 112.984 179.424 113.079C179.712 113.15 180.008 113.222 180.288 113.293C180.568 113.364 180.848 113.483 180.936 113.507C181.288 113.594 181.632 113.625 182.024 113.72C182.304 113.792 182.584 113.91 182.672 113.934C182.959 114.005 183.247 114.077 183.535 114.148C183.823 114.219 184.111 114.29 184.399 114.362C184.687 114.433 184.975 114.504 185.263 114.576C185.551 114.647 185.839 114.718 186.127 114.789C186.415 114.861 186.703 114.924 186.99 115.003C187.262 115.074 187.526 115.185 187.638 115.217C187.926 115.296 188.206 115.351 188.502 115.431C188.79 115.51 189.07 115.565 189.366 115.644C189.646 115.724 189.942 115.779 190.23 115.858C190.518 115.937 190.798 115.993 191.094 116.072C191.325 116.135 191.565 116.238 191.741 116.286C192.021 116.365 192.301 116.412 192.605 116.5C192.885 116.579 193.165 116.626 193.469 116.713C193.693 116.785 193.917 116.864 194.117 116.927C194.341 116.998 194.565 117.078 194.765 117.141C195.005 117.22 195.173 117.268 195.412 117.355C195.612 117.426 195.708 117.41 196.06 117.568C196.372 117.679 196.468 117.774 196.492 117.782C196.772 117.925 196.692 117.988 196.708 117.996C196.828 118.051 197.156 117.877 197.14 118.21H197.356V117.782C196.892 117.933 196.852 117.473 196.708 117.355C192.029 114.504 185.135 107.996 182.616 103.19C182.296 102.572 182.48 102.042 182.4 101.899C182.384 101.875 182.04 101.535 181.968 101.472C181.936 101.44 181.576 101.519 181.104 101.258C180.904 101.187 180.776 101.179 180.456 101.044C180.32 100.989 180.112 100.957 179.808 100.83C179.656 100.767 179.448 100.727 179.16 100.617C178.896 100.514 178.752 100.411 178.728 100.403C178.521 100.332 178.297 100.268 178.081 100.189C177.873 100.118 177.649 100.054 177.433 99.9752C177.225 99.904 177.001 99.8327 176.785 99.7614C176.577 99.6902 176.345 99.6189 176.137 99.5477C175.929 99.4764 175.689 99.3972 175.489 99.3339C175.273 99.2626 175.041 99.1835 174.841 99.1201C174.577 99.0409 174.274 98.9934 173.978 98.9063C173.706 98.8272 173.402 98.7717 173.114 98.6926C172.842 98.6213 172.554 98.5025 172.466 98.4788C172.186 98.4075 171.874 98.3283 171.602 98.265C171.322 98.1937 171.002 98.1146 170.738 98.0512C170.45 97.9879 170.139 97.8929 169.875 97.8374C169.587 97.7741 169.267 97.6791 169.011 97.6237C168.659 97.5524 168.275 97.4811 167.923 97.4099C167.571 97.3386 167.187 97.2594 166.835 97.1961C166.483 97.1328 166.092 97.0457 165.748 96.9823C165.324 96.9031 164.876 96.8398 164.444 96.7685C164.02 96.6973 163.564 96.6181 163.14 96.5548C162.644 96.4756 162.124 96.4122 161.621 96.341C161.125 96.2697 160.589 96.1905 160.101 96.1272C159.541 96.048 158.933 95.9847 158.365 95.9134C157.798 95.8422 157.19 95.7551 156.63 95.6996C155.99 95.6284 155.31 95.5492 154.678 95.4859C153.966 95.4146 153.207 95.3275 152.511 95.2721C151.727 95.2008 150.895 95.1137 150.127 95.0583C149.056 94.9871 147.944 94.9079 146.872 94.8445C145.528 94.7654 144.097 94.6783 142.753 94.6308C139.794 94.5041 136.835 94.5437 133.867 94.417C133.227 94.4328 129.812 94.2982 129.636 94.417C129.492 94.5199 129.508 97.0853 129.308 97.8533C128.908 99.3735 128.82 99.2151 127.357 99.5714C126.605 99.7535 126.149 99.7377 125.405 99.7852C123.518 100.054 121.646 100.189 119.767 99.7852C117.951 99.3972 117.775 99.2151 117.383 97.4257C117.239 96.7606 117.183 94.5041 117.055 94.417C116.759 94.2111 110.745 94.417 109.793 94.417C107.897 94.4328 105.85 94.5595 103.938 94.6308C102.587 94.6941 101.171 94.7574 99.8194 94.8445C98.7557 94.9079 97.636 94.9791 96.5642 95.0583C95.7884 95.1217 94.9646 95.2008 94.1808 95.2721C93.405 95.3354 92.5732 95.4067 91.7974 95.4859C91.1655 95.5492 90.4857 95.6284 89.8458 95.6996C89.286 95.763 88.6781 95.8422 88.1102 95.9134C87.6304 95.9689 87.0865 96.0639 86.5906 96.1272C86.0147 96.2064 85.4149 96.2539 84.855 96.341C84.4391 96.4043 83.9832 96.4914 83.5513 96.5548C83.1274 96.626 82.6715 96.6973 82.2477 96.7685C81.9117 96.824 81.5198 96.919 81.1599 96.9823C80.728 97.0615 80.2801 97.1169 79.8562 97.1961C79.6723 97.2357 79.3124 97.3465 78.9924 97.4099C78.6405 97.4811 78.2566 97.5524 77.9047 97.6237C77.5448 97.7028 77.1689 97.7583 76.817 97.8374C76.553 97.8929 76.2411 97.9879 75.9532 98.0512C75.6892 98.1146 75.3693 98.2016 75.0894 98.265C74.8174 98.3283 74.5055 98.4075 74.2256 98.4788C74.1456 98.4946 73.8417 98.6213 73.5777 98.6926C73.2898 98.7638 72.9859 98.8351 72.7139 98.9063C72.418 98.9855 72.1221 99.0409 71.8501 99.1201C71.6742 99.1676 71.4182 99.2706 71.2023 99.3339C70.9064 99.4131 70.6104 99.4685 70.3385 99.5477C70.1546 99.6031 69.9066 99.6981 69.6907 99.7614C69.4987 99.8169 69.2508 99.9119 69.0428 99.9752C68.6989 100.086 68.419 100.11 68.179 100.189C67.9791 100.252 67.7231 100.332 67.5312 100.403C67.2273 100.49 66.9233 100.537 66.6674 100.617C66.4674 100.68 66.2195 100.759 66.0195 100.83C65.5797 101.028 65.1877 101.02 65.1558 101.044C64.22 101.773 64.7559 101.899 64.292 102.762C64.204 103.071 64.204 103.245 64.076 103.617C62.6284 107.861 53.8305 114.314 50.4153 117.355C50.4073 117.363 50.4473 117.608 50.1993 117.568V117.782C50.5033 117.758 50.7592 117.632 51.0631 117.568C51.0871 117.568 51.0391 117.466 51.495 117.355H51.519ZM177.497 108.123C177.569 108.518 177.713 108.732 177.713 108.764C177.697 109.16 177.785 109.477 177.281 109.619C177.265 109.239 176.833 109.469 176.633 109.405C175.889 109.16 174.058 107.141 173.818 106.397C173.77 106.254 173.602 105.787 173.602 105.755C173.194 101.329 176.897 106.499 177.505 108.115L177.497 108.123ZM163.404 102.327C163.428 102.374 163.556 102.778 163.62 102.968C163.668 103.103 163.828 103.578 163.836 103.609C163.876 103.807 164.06 104.631 164.052 104.686C164.044 104.829 164.084 105.019 164.052 105.114C163.868 105.644 163.284 105.874 162.748 105.755C162.3 105.66 160.101 102.841 159.933 102.319C159.901 102.208 159.717 101.503 159.717 101.464C159.413 97.7662 162.572 100.632 163.404 102.319V102.327ZM144.537 98.8905C145.161 96.6973 148.064 98.2175 148.44 99.9673C148.48 100.157 148.48 101.575 148.44 101.685C148.24 102.176 147.08 102.675 146.488 102.541C146.12 102.461 144.905 100.997 144.753 100.609C144.713 100.514 144.537 99.999 144.537 99.9673C144.505 99.7219 144.481 99.0805 144.537 98.8905ZM114.616 101.258C114.76 101.123 117.903 101.1 118.519 101.044C120.215 100.989 122.054 100.83 123.726 100.83C124.302 100.83 124.885 100.822 125.461 100.83C126.917 100.854 128.541 100.965 130.012 101.044C130.684 101.131 131.564 101.131 132.18 101.258C132.212 101.258 132.812 101.44 132.827 101.472C132.851 101.503 132.835 101.78 132.827 101.899C132.764 102.636 132.268 102.509 131.74 102.541C131.332 102.572 129.892 102.311 129.14 102.327C125.501 102.105 122.15 102.161 118.519 102.327C117.967 102.311 113.112 102.659 114.616 101.25V101.258ZM98.5717 99.7535C98.6597 99.3814 100.155 97.7028 100.523 97.6078C100.659 97.5682 101.259 97.5682 101.387 97.6078C101.555 97.6553 102.419 98.5104 102.475 98.6846C102.523 98.843 102.515 99.9831 102.475 100.189C102.387 100.593 100.907 102.453 100.523 102.548C98.6997 103.008 98.2198 101.218 98.5717 99.7614V99.7535ZM82.9595 103.831C82.9595 103.831 83.1274 103.356 83.1754 103.19C83.3594 102.604 85.1669 99.8723 85.7748 99.7535C86.3587 99.6427 87.1265 100.031 87.2944 100.609C87.3344 100.759 87.2944 101.052 87.2944 101.25C87.2944 101.305 87.1025 102.232 87.0785 102.327C86.8545 103.039 84.7431 105.684 84.0472 105.763C83.6953 105.803 83.0715 105.399 82.9595 105.122C82.9035 104.979 82.9275 104.069 82.9595 103.831ZM69.2988 108.978C69.2908 108.922 69.4827 108.028 69.5147 107.901C69.9946 106.222 74.1136 101.527 73.4178 105.755C73.2978 106.476 70.7384 109.516 70.0586 109.619L69.2988 109.191C69.2988 109.12 69.3068 109.049 69.2988 108.978Z" fill="#FFFBE4"/>
<path d="M205.25 125.296C205.25 125.296 204.866 124.71 204.818 124.655C203.354 122.707 199.459 120.522 197.228 119.5C197.044 119.421 196.86 119.31 196.796 119.287C196.66 119.231 196.436 119.192 196.148 119.073C195.82 118.938 195.388 118.764 195.06 118.645C194.86 118.574 194.628 118.511 194.412 118.431C194.204 118.36 193.973 118.289 193.765 118.218C193.557 118.146 193.317 118.067 193.117 118.004C192.901 117.933 192.677 117.853 192.469 117.79C192.221 117.711 191.949 117.687 191.605 117.576C191.341 117.497 191.069 117.465 190.741 117.363C190.469 117.275 190.189 117.244 189.878 117.149C189.606 117.062 189.318 117.03 189.014 116.935C188.742 116.856 188.454 116.808 188.15 116.721C187.878 116.642 187.582 116.594 187.286 116.507C187.006 116.428 186.718 116.373 186.422 116.294C186.142 116.214 185.854 116.159 185.559 116.08C185.279 116.001 184.983 115.945 184.695 115.866C184.431 115.795 184.151 115.684 184.047 115.652C183.759 115.581 183.471 115.518 183.183 115.438C182.895 115.367 182.607 115.296 182.319 115.225C182.039 115.153 181.743 115.082 181.456 115.011C181.168 114.94 180.872 114.868 180.592 114.797C180.304 114.726 180.008 114.655 179.728 114.583C179.44 114.512 179.144 114.441 178.864 114.37C178.576 114.298 178.28 114.227 178 114.156C177.712 114.085 177.417 114.005 177.137 113.942C176.785 113.855 176.433 113.815 176.049 113.728C175.761 113.657 175.465 113.578 175.185 113.514C174.897 113.443 174.593 113.364 174.321 113.301C174.033 113.229 173.729 113.15 173.457 113.087C173.17 113.016 172.866 112.936 172.594 112.873C172.306 112.802 172.002 112.723 171.73 112.659C171.442 112.596 171.138 112.509 170.866 112.446C170.578 112.382 170.274 112.295 170.002 112.232C169.714 112.168 169.402 112.081 169.139 112.018C168.787 111.939 168.427 111.883 168.051 111.804C167.763 111.741 167.451 111.646 167.187 111.59C166.835 111.511 166.467 111.456 166.099 111.377C165.811 111.313 165.491 111.218 165.235 111.163C164.948 111.1 164.628 111.005 164.372 110.949C164.02 110.878 163.652 110.807 163.284 110.735C162.988 110.672 162.676 110.577 162.42 110.522C162.06 110.45 161.692 110.379 161.332 110.308C160.972 110.237 160.605 110.165 160.245 110.094C159.885 110.023 159.517 109.952 159.157 109.88C158.797 109.809 158.421 109.73 158.069 109.666C157.717 109.603 157.333 109.516 156.981 109.453C156.622 109.381 156.246 109.302 155.894 109.239C155.534 109.176 155.15 109.088 154.806 109.025C154.446 108.962 154.062 108.875 153.718 108.811C153.222 108.724 152.718 108.685 152.199 108.598C151.775 108.526 151.327 108.455 150.895 108.384C150.471 108.313 150.023 108.241 149.591 108.17C149.231 108.115 148.831 108.004 148.503 107.956C148.144 107.901 147.744 107.79 147.416 107.742C147.056 107.687 146.648 107.576 146.328 107.529C145.896 107.465 145.432 107.37 145.024 107.315C144.528 107.244 144.001 107.172 143.505 107.101C142.937 107.022 142.337 106.959 141.769 106.887C141.273 106.824 140.729 106.729 140.249 106.674C139.538 106.586 138.802 106.539 138.082 106.46C137.45 106.396 136.746 106.301 136.13 106.246C135.427 106.175 134.659 106.088 133.963 106.032C133.251 105.985 132.475 105.858 131.795 105.818C130.948 105.755 130.02 105.644 129.196 105.605C125.741 105.478 121.814 105.478 118.359 105.605C117.391 105.636 116.311 105.763 115.319 105.818C114.472 105.882 113.568 105.961 112.72 106.032C112.032 106.088 111.256 106.183 110.553 106.246C109.921 106.309 109.233 106.389 108.601 106.46C107.961 106.531 107.289 106.594 106.65 106.674C106.25 106.721 105.778 106.832 105.346 106.887C104.858 106.951 104.322 107.038 103.826 107.101C103.418 107.157 102.954 107.252 102.523 107.315C102.115 107.37 101.651 107.465 101.219 107.529C100.899 107.576 100.499 107.687 100.131 107.742C99.7152 107.806 99.2593 107.893 98.8274 107.956C98.4035 108.02 97.9556 108.099 97.5237 108.17C97.0998 108.241 96.6519 108.313 96.22 108.384C95.8841 108.439 95.4922 108.534 95.1323 108.598C94.7004 108.669 94.2605 108.74 93.8286 108.811C93.3967 108.891 92.9568 108.946 92.5249 109.025C92.181 109.088 91.7971 109.176 91.4372 109.239C90.9973 109.318 90.5574 109.374 90.1335 109.453C89.7816 109.516 89.4057 109.595 89.0457 109.666C88.6938 109.738 88.3179 109.809 87.958 109.88C87.6061 109.952 87.2302 110.023 86.8703 110.094C86.5104 110.165 86.1424 110.237 85.7825 110.308C85.5266 110.363 85.2067 110.466 84.9187 110.522C84.5588 110.593 84.1909 110.664 83.831 110.735C83.4711 110.815 83.1032 110.878 82.7433 110.949C82.4793 111.005 82.1674 111.1 81.8795 111.163C81.5116 111.242 81.1516 111.298 80.7917 111.377C80.5278 111.432 80.2159 111.527 79.9279 111.59C79.56 111.67 79.2001 111.725 78.8402 111.804C78.5683 111.868 78.2643 111.955 77.9764 112.018C77.7045 112.081 77.4005 112.168 77.1126 112.232C76.8407 112.295 76.5367 112.382 76.2488 112.446C75.8809 112.533 75.521 112.58 75.1611 112.659C74.8891 112.723 74.5852 112.81 74.2973 112.873C74.0254 112.936 73.7214 113.024 73.4335 113.087C73.1616 113.15 72.8576 113.237 72.5697 113.301C72.2898 113.364 71.9938 113.443 71.7059 113.514C71.426 113.578 71.13 113.657 70.8421 113.728C70.5622 113.792 70.2583 113.871 69.9783 113.942C69.6984 114.013 69.3945 114.085 69.1145 114.156C69.0346 114.172 68.7466 114.298 68.4667 114.37C68.1788 114.441 67.8828 114.512 67.6029 114.583C67.315 114.655 67.019 114.726 66.7391 114.797C66.4512 114.868 66.1552 114.94 65.8753 115.011C65.5874 115.082 65.2915 115.153 65.0115 115.225C64.7236 115.296 64.4277 115.367 64.1477 115.438C63.8598 115.518 63.5639 115.581 63.2839 115.652C62.988 115.731 62.7001 115.795 62.4201 115.866C62.1242 115.945 61.8363 116.001 61.5563 116.08C61.2604 116.159 60.9725 116.214 60.6926 116.294C60.3006 116.397 59.9487 116.412 59.6048 116.507C59.4768 116.547 59.2129 116.65 58.957 116.721C58.5571 116.832 58.2131 116.84 57.8692 116.935C57.7333 116.975 57.4773 117.077 57.2214 117.149C56.9095 117.244 56.6295 117.283 56.3576 117.363C56.1576 117.426 55.9257 117.513 55.7098 117.576C55.4058 117.663 55.1179 117.711 54.846 117.79C54.654 117.845 54.4141 117.941 54.1981 118.004C53.8142 118.131 53.5423 118.146 53.3343 118.218C53.1184 118.289 52.8864 118.36 52.6865 118.431C52.4625 118.511 52.2306 118.574 52.0386 118.645C51.7987 118.74 51.5747 118.788 51.3908 118.859C51.1029 118.97 50.8869 119.017 50.7429 119.073C50.687 119.096 50.495 119.207 50.311 119.287C49.9911 119.421 49.4553 119.611 49.2233 119.714C47.9996 120.308 41.7051 124.211 41.8491 125.51H42.065C42.033 125.28 42.169 125.336 42.281 125.296C42.297 125.296 42.233 125.233 42.4969 125.082C45.3122 122.754 46.5679 122.351 49.8712 121.005C49.9111 120.989 50.0631 120.886 50.3031 120.791C50.623 120.656 50.7909 120.64 50.9509 120.577C51.2548 120.45 51.4308 120.427 51.5987 120.363C51.6227 120.355 51.7827 120.245 52.0306 120.15C52.2546 120.07 52.4625 120.007 52.6785 119.936C53.1024 119.785 53.3263 119.793 53.5423 119.722C53.7662 119.643 53.9742 119.579 54.1901 119.508C54.4061 119.437 54.614 119.366 54.838 119.294C55.1579 119.199 55.4218 119.16 55.7018 119.081C55.9017 119.025 56.1257 118.93 56.3496 118.867C56.6615 118.78 56.9335 118.732 57.2134 118.653C57.5173 118.566 57.7973 118.519 58.0772 118.439C58.3811 118.352 58.661 118.305 58.941 118.226C59.2449 118.138 59.5248 118.091 59.8048 118.012C60.1087 117.925 60.3886 117.877 60.6686 117.798C60.9725 117.719 61.2524 117.663 61.5324 117.584C61.8283 117.505 62.1162 117.45 62.3961 117.37C62.7881 117.267 63.132 117.252 63.4839 117.157C63.7798 117.077 64.0677 117.014 64.3477 116.943C64.4517 116.911 64.7236 116.8 64.9955 116.729C65.2915 116.65 65.5714 116.587 65.8593 116.515C66.1472 116.444 66.4352 116.373 66.7231 116.302C67.011 116.23 67.299 116.159 67.5869 116.088C67.8748 116.016 68.1628 115.945 68.4507 115.874C68.7386 115.803 69.0266 115.731 69.3145 115.66C69.5944 115.589 69.8903 115.518 70.1783 115.446C70.4582 115.375 70.7541 115.304 71.0421 115.233C71.1061 115.217 71.402 115.09 71.6899 115.019C71.9698 114.956 72.2658 114.876 72.5537 114.805C72.9296 114.718 73.2815 114.67 73.6414 114.591C73.9134 114.528 74.2173 114.441 74.5052 114.378C74.7772 114.314 75.0811 114.227 75.369 114.164C75.641 114.1 75.9449 114.013 76.2328 113.95C76.5048 113.887 76.8087 113.8 77.0966 113.736C77.3686 113.673 77.6725 113.586 77.9604 113.522C78.2323 113.467 78.5363 113.372 78.8242 113.309C79.1921 113.229 79.552 113.174 79.9119 113.095C80.2799 113.016 80.6398 112.96 80.9997 112.881C81.2636 112.826 81.5755 112.731 81.8635 112.667C82.2314 112.588 82.5913 112.525 82.9512 112.454C83.3191 112.374 83.679 112.311 84.0389 112.24C84.3029 112.184 84.6068 112.089 84.9027 112.026C85.2707 111.947 85.6226 111.883 85.9905 111.812C86.3504 111.741 86.7103 111.67 87.0782 111.598C87.4381 111.527 87.798 111.456 88.166 111.385C88.5259 111.313 88.8858 111.242 89.2537 111.171C89.6056 111.1 89.9735 111.028 90.3414 110.957C90.7813 110.878 91.2132 110.822 91.6451 110.743C91.997 110.68 92.3649 110.593 92.7329 110.53C93.1728 110.45 93.5967 110.395 94.0366 110.316C94.3805 110.252 94.7564 110.165 95.1243 110.102C95.4682 110.047 95.8441 109.952 96.212 109.888C96.6439 109.817 97.0758 109.746 97.5157 109.674C97.9476 109.603 98.3795 109.532 98.8194 109.461C99.2433 109.389 99.6832 109.318 100.123 109.247C100.451 109.191 100.835 109.088 101.211 109.033C101.627 108.97 102.075 108.883 102.515 108.819C102.93 108.756 103.37 108.661 103.818 108.605C104.322 108.534 104.826 108.455 105.338 108.392C105.834 108.328 106.338 108.241 106.857 108.178C107.433 108.107 108.009 108.027 108.593 107.964C109.241 107.893 109.889 107.814 110.545 107.75C111.352 107.671 112.12 107.6 112.928 107.537C113.872 107.457 114.792 107.378 115.743 107.323C117.351 107.236 118.895 107.141 120.51 107.109C122.766 107.054 124.757 107.046 127.013 107.109C128.412 107.149 129.748 107.244 131.132 107.323C132.083 107.386 133.003 107.457 133.947 107.537C134.683 107.592 135.395 107.687 136.114 107.75C136.77 107.814 137.418 107.893 138.066 107.964C138.73 108.035 139.354 108.099 140.018 108.178C140.529 108.241 141.041 108.328 141.537 108.392C142.049 108.455 142.553 108.534 143.057 108.605C143.569 108.677 144.073 108.748 144.576 108.819C145.016 108.883 145.456 108.97 145.88 109.033C146.32 109.096 146.76 109.183 147.184 109.247C147.536 109.302 147.928 109.445 148.048 109.461C148.487 109.532 148.919 109.603 149.351 109.674C149.719 109.738 150.095 109.833 150.439 109.888C150.807 109.952 151.183 110.047 151.527 110.102C152.031 110.189 152.518 110.221 153.046 110.316C153.478 110.395 153.902 110.45 154.35 110.53C154.718 110.593 155.086 110.68 155.438 110.743C155.798 110.807 156.174 110.894 156.526 110.957C156.957 111.036 157.381 111.084 157.829 111.171C158.189 111.242 158.557 111.313 158.917 111.385C159.277 111.456 159.637 111.527 160.005 111.598C160.301 111.654 160.613 111.765 160.868 111.812C161.228 111.883 161.588 111.955 161.956 112.026C162.252 112.089 162.564 112.184 162.82 112.24C163.116 112.303 163.428 112.398 163.684 112.454C164.044 112.533 164.404 112.588 164.772 112.667C165.131 112.746 165.491 112.802 165.859 112.881C166.155 112.944 166.459 113.039 166.723 113.095C167.083 113.174 167.435 113.229 167.811 113.309C168.107 113.372 168.411 113.459 168.675 113.522C169.035 113.602 169.386 113.657 169.762 113.736C170.058 113.8 170.362 113.887 170.626 113.95C170.922 114.013 171.218 114.1 171.49 114.164C171.786 114.227 172.082 114.314 172.354 114.378C172.65 114.441 172.946 114.528 173.218 114.591C173.513 114.663 173.809 114.742 174.081 114.805C174.369 114.876 174.673 114.956 174.945 115.019C175.233 115.09 175.529 115.169 175.809 115.233C176.097 115.304 176.393 115.383 176.673 115.446C176.961 115.518 177.257 115.589 177.536 115.66C177.824 115.731 178.12 115.803 178.4 115.874C178.752 115.961 179.096 115.993 179.488 116.088C179.776 116.159 180.064 116.23 180.352 116.302C180.64 116.373 180.928 116.444 181.216 116.515C181.504 116.587 181.791 116.65 182.079 116.729C182.367 116.8 182.655 116.864 182.943 116.943C183.231 117.014 183.519 117.077 183.807 117.157C184.079 117.228 184.343 117.339 184.455 117.37C184.743 117.45 185.023 117.505 185.319 117.584C185.607 117.663 185.886 117.719 186.182 117.798C186.47 117.877 186.75 117.933 187.046 118.012C187.326 118.091 187.614 118.138 187.91 118.226C188.19 118.305 188.47 118.352 188.774 118.439C189.054 118.519 189.334 118.566 189.638 118.653C189.918 118.732 190.197 118.78 190.501 118.867C190.789 118.946 191.053 118.986 191.365 119.081C191.589 119.152 191.813 119.231 192.013 119.294C192.269 119.374 192.525 119.397 192.877 119.508C193.101 119.579 193.309 119.651 193.525 119.722C193.749 119.793 193.957 119.865 194.173 119.936C194.388 120.007 194.596 120.07 194.82 120.15C195.036 120.229 195.236 120.276 195.468 120.363C195.676 120.443 195.86 120.482 196.116 120.577C196.348 120.672 196.492 120.767 196.548 120.791C200.099 122.208 201.691 122.652 204.57 125.296C204.65 125.367 204.722 125.454 204.786 125.51C204.802 125.526 205.042 125.478 205.002 125.724H205.218C205.202 125.589 205.25 125.391 205.218 125.296H205.25Z" fill="#FFFBE4"/>
<path d="M130.012 108.55C131.211 108.606 132.499 108.677 133.699 108.764C134.379 108.804 135.162 108.922 135.866 108.978C136.562 109.041 137.33 109.12 138.034 109.191C138.578 109.247 139.201 109.342 139.769 109.405C140.417 109.484 141.081 109.54 141.721 109.619C142.121 109.667 142.593 109.777 143.024 109.833C143.512 109.896 144.04 109.975 144.544 110.047C144.96 110.11 145.416 110.197 145.848 110.26C146.256 110.316 146.72 110.411 147.151 110.474C147.471 110.522 147.871 110.633 148.239 110.688C148.567 110.735 148.967 110.846 149.327 110.902C149.655 110.957 150.055 111.06 150.415 111.116C150.847 111.187 151.287 111.258 151.718 111.329C152.15 111.401 152.59 111.472 153.022 111.543C153.454 111.622 153.894 111.678 154.326 111.757C154.67 111.82 155.054 111.907 155.413 111.971C155.773 112.034 156.141 112.121 156.501 112.184C156.861 112.248 157.229 112.327 157.589 112.398C157.949 112.469 158.317 112.541 158.677 112.612C159.037 112.683 159.405 112.754 159.764 112.826C160.124 112.897 160.492 112.968 160.852 113.04C161.212 113.111 161.58 113.182 161.94 113.253C162.3 113.325 162.668 113.396 163.028 113.467C163.292 113.523 163.604 113.618 163.891 113.681C164.251 113.76 164.619 113.815 164.979 113.895C165.243 113.95 165.555 114.045 165.843 114.108C166.107 114.164 166.419 114.259 166.707 114.322C167.075 114.401 167.435 114.457 167.795 114.536C168.066 114.599 168.37 114.686 168.658 114.75C169.026 114.829 169.386 114.884 169.746 114.964C170.018 115.027 170.322 115.114 170.61 115.177C170.882 115.241 171.186 115.328 171.474 115.391C171.746 115.454 172.05 115.542 172.337 115.605C172.609 115.668 172.913 115.755 173.201 115.819C173.489 115.882 173.777 115.969 174.065 116.032C174.353 116.096 174.649 116.175 174.929 116.246C175.209 116.317 175.513 116.389 175.793 116.46C176.073 116.531 176.376 116.602 176.656 116.674C177.04 116.769 177.392 116.8 177.744 116.888C178.024 116.959 178.328 117.03 178.608 117.101C178.888 117.173 179.192 117.244 179.472 117.315C179.568 117.339 179.848 117.458 180.12 117.529C180.407 117.6 180.703 117.671 180.983 117.743C181.079 117.766 181.359 117.885 181.631 117.956C181.919 118.036 182.215 118.099 182.495 118.17C182.775 118.241 183.079 118.305 183.359 118.384C183.655 118.463 183.943 118.519 184.223 118.598C184.519 118.677 184.806 118.732 185.086 118.812C185.478 118.914 185.83 118.93 186.174 119.025C186.294 119.057 186.566 119.168 186.822 119.239C187.126 119.326 187.406 119.374 187.686 119.453C187.99 119.54 188.27 119.587 188.55 119.667C188.853 119.754 189.141 119.801 189.413 119.88C189.717 119.968 190.005 120.015 190.277 120.094C190.589 120.189 190.869 120.229 191.141 120.308C191.453 120.403 191.733 120.443 192.005 120.522C192.205 120.585 192.445 120.672 192.653 120.736C192.853 120.799 193.092 120.878 193.3 120.949C193.508 121.021 193.74 121.092 193.948 121.163C193.972 121.163 194.076 121.274 194.38 121.377C194.596 121.456 194.828 121.519 195.028 121.591C195.252 121.67 195.476 121.733 195.676 121.804C195.932 121.899 196.148 121.947 196.324 122.018C196.62 122.137 196.828 122.177 196.972 122.232C197.028 122.256 197.211 122.359 197.403 122.446C199.315 123.309 204.274 125.652 204.778 127.814C204.834 128.036 204.834 129.318 204.778 129.532C204.434 130.878 201.818 132.343 200.659 132.968C200.595 133.008 200.371 133.008 200.011 133.182C199.795 133.269 199.603 133.388 199.579 133.396C199.387 133.467 199.179 133.515 198.931 133.61C198.731 133.689 198.507 133.744 198.283 133.824C198.083 133.895 197.851 133.966 197.635 134.037C197.419 134.109 197.195 134.18 196.988 134.251C196.78 134.322 196.54 134.402 196.34 134.465C196.124 134.536 195.892 134.615 195.692 134.679C195.476 134.75 195.244 134.829 195.044 134.892C194.772 134.98 194.484 135.019 194.18 135.106C193.964 135.17 193.716 135.265 193.532 135.32C193.26 135.399 192.964 135.455 192.669 135.534C192.421 135.605 192.157 135.708 192.021 135.748C191.741 135.827 191.453 135.882 191.157 135.961C190.877 136.041 190.581 136.096 190.293 136.175C190.005 136.254 189.717 136.31 189.429 136.389C189.141 136.468 188.845 136.531 188.566 136.603C188.222 136.69 187.862 136.721 187.478 136.816C187.19 136.88 186.886 136.967 186.614 137.03C186.326 137.094 186.014 137.181 185.75 137.244C185.398 137.323 185.03 137.379 184.662 137.458C184.375 137.521 184.063 137.608 183.799 137.672C183.447 137.751 183.079 137.806 182.711 137.885C182.423 137.949 182.103 138.044 181.847 138.099C181.495 138.17 181.119 138.242 180.759 138.313C180.4 138.384 180.032 138.455 179.672 138.527C179.312 138.598 178.936 138.677 178.584 138.74C178.232 138.804 177.848 138.891 177.496 138.954C177.144 139.018 176.76 139.105 176.408 139.168C176.057 139.231 175.673 139.318 175.321 139.382C174.969 139.445 174.577 139.532 174.233 139.596C173.809 139.675 173.369 139.73 172.929 139.809C172.505 139.881 172.058 139.952 171.626 140.023C171.202 140.094 170.754 140.166 170.322 140.237C169.898 140.308 169.442 140.387 169.018 140.451C168.586 140.522 168.138 140.601 167.715 140.665C167.219 140.736 166.699 140.807 166.195 140.878C165.627 140.965 165.043 141.005 164.459 141.092C163.955 141.163 163.444 141.235 162.94 141.306C162.436 141.377 161.916 141.448 161.42 141.52C160.916 141.591 160.404 141.662 159.9 141.733C159.525 141.789 159.149 141.9 158.813 141.947C158.301 142.026 157.821 142.074 157.293 142.161C156.933 142.161 156.565 142.161 156.205 142.161V141.947C160.844 138.582 165.259 133.911 168.778 129.39C170.178 127.592 174.849 121.282 175.497 119.516C175.657 119.081 175.793 118.709 175.713 118.226C175.617 118.004 175.161 118.186 175.065 118.115C174.577 117.79 174.489 117.988 174.201 117.901C174.009 117.846 173.753 117.751 173.553 117.687C173.121 117.529 172.945 117.553 172.689 117.473C172.481 117.41 172.273 117.323 172.042 117.26C171.722 117.165 171.458 117.125 171.178 117.046C170.866 116.951 170.594 116.911 170.314 116.832C170.002 116.745 169.738 116.698 169.45 116.618C169.162 116.539 168.874 116.476 168.586 116.405C168.298 116.333 168.01 116.262 167.723 116.191C167.435 116.12 167.147 116.048 166.859 115.977C166.571 115.906 166.283 115.834 165.995 115.763C165.707 115.692 165.419 115.621 165.131 115.549C164.843 115.478 164.555 115.407 164.267 115.336C163.883 115.249 163.548 115.201 163.18 115.122C162.908 115.066 162.612 114.971 162.316 114.908C161.948 114.829 161.596 114.766 161.228 114.694C160.86 114.623 160.508 114.552 160.14 114.481C159.884 114.433 159.573 114.322 159.277 114.267C159.093 114.235 158.749 114.116 158.413 114.053C158.061 113.99 157.701 113.903 157.325 113.839C157.173 113.815 156.813 113.681 156.461 113.625C156.117 113.57 155.757 113.467 155.374 113.412C155.046 113.364 154.67 113.245 154.286 113.198C153.886 113.15 153.446 113.016 152.982 112.984C147.439 112.43 141.441 112.715 135.85 112.77C132.651 112.699 119.134 112.754 118.718 112.77C115.919 112.557 112.688 112.794 109.832 112.77C104.826 112.652 99.8908 112.327 94.868 112.77C94.4042 112.802 93.9643 112.945 93.5644 112.984C93.1085 113.04 92.6926 113.135 92.2607 113.198C91.8768 113.245 91.5089 113.364 91.1729 113.412C90.725 113.483 90.3171 113.546 89.8692 113.625C89.5173 113.689 89.1734 113.808 89.0055 113.839C88.6615 113.903 88.3336 114.013 88.1417 114.053C87.7817 114.124 87.4138 114.196 87.0539 114.267C86.758 114.33 86.4461 114.425 86.1901 114.481C85.8302 114.552 85.4703 114.615 85.1024 114.694C84.8065 114.758 84.5025 114.853 84.2386 114.908C83.9427 114.971 83.6467 115.059 83.3748 115.122C83.0789 115.193 82.7909 115.264 82.511 115.336C82.2311 115.407 81.9272 115.478 81.6472 115.549C81.3673 115.621 81.0714 115.692 80.7834 115.763C80.5035 115.834 80.2316 115.953 80.1356 115.977C79.7837 116.064 79.4477 116.088 79.0478 116.191C78.7599 116.27 78.48 116.325 78.1841 116.405C77.8881 116.484 77.6242 116.531 77.3203 116.618C77.0403 116.698 76.7604 116.745 76.4565 116.832C76.1925 116.903 75.9526 117.006 75.8086 117.046C75.5207 117.125 75.2568 117.165 74.9448 117.26C74.6649 117.347 74.417 117.363 74.081 117.473C73.8651 117.545 73.6491 117.616 73.4332 117.687C73.1933 117.766 73.0973 117.766 72.7854 117.901C72.6174 117.972 72.5454 117.822 72.1375 118.115C72.0015 118.162 71.2977 118.162 71.1617 118.329C75.2728 127.426 82.695 135.407 90.3491 142.05C90.3571 142.201 90.0532 142.153 89.9172 142.161C89.8133 142.161 88.5656 141.979 88.1817 141.947C87.6298 141.892 87.0139 141.797 86.4461 141.733C85.8942 141.678 85.2863 141.583 84.7105 141.52C84.1506 141.456 83.5428 141.377 82.9749 141.306C82.3271 141.227 81.6632 141.171 81.0234 141.092C80.4555 141.021 79.8557 140.957 79.2878 140.878C78.8799 140.823 78.416 140.728 77.9841 140.665C77.5682 140.601 77.1123 140.514 76.6804 140.451C76.1845 140.379 75.6567 140.316 75.1608 140.237C74.7369 140.174 74.289 140.094 73.8571 140.023C73.4332 139.952 72.9853 139.881 72.5534 139.809C72.2175 139.754 71.8336 139.659 71.4657 139.596C71.0338 139.516 70.5939 139.461 70.162 139.382C69.8181 139.318 69.4342 139.231 69.0742 139.168C68.7143 139.105 68.3464 139.026 67.9865 138.954C67.6266 138.883 67.2587 138.812 66.8988 138.74C66.5389 138.669 66.1709 138.598 65.811 138.527C65.4511 138.455 65.0832 138.384 64.7233 138.313C64.4674 138.258 64.1474 138.163 63.8595 138.099C63.4996 138.02 63.1317 137.965 62.7718 137.885C62.4118 137.806 62.0359 137.751 61.684 137.672C61.4201 137.616 61.1082 137.521 60.8202 137.458C60.5483 137.394 60.2364 137.307 59.9564 137.244C59.5805 137.157 59.2206 137.117 58.8687 137.03C58.5888 136.959 58.2848 136.888 58.0049 136.816C57.725 136.745 57.421 136.674 57.1411 136.603C56.8612 136.531 56.5572 136.46 56.2773 136.389C55.9974 136.318 55.6855 136.246 55.4135 136.175C55.1176 136.096 54.8217 136.041 54.5497 135.961C54.4138 135.922 54.1498 135.819 53.9019 135.748C53.606 135.66 53.302 135.613 53.0381 135.534C52.8461 135.478 52.5982 135.383 52.3903 135.32C52.0783 135.225 51.7984 135.193 51.5265 135.106C51.3265 135.043 51.0866 134.964 50.8786 134.892C50.6707 134.821 50.4387 134.75 50.2308 134.679C50.0228 134.607 49.7829 134.536 49.5829 134.465C49.367 134.386 49.135 134.322 48.9351 134.251C48.5992 134.132 48.1993 133.958 47.8473 133.824C45.9998 132.992 42.4326 131.543 41.9927 129.318C41.9448 129.073 41.9368 128.036 41.9927 127.814C42.4966 125.763 47.1355 123.538 48.9351 122.66C49.127 122.572 49.319 122.47 49.367 122.446C49.5189 122.382 49.7189 122.351 50.0148 122.232C50.2068 122.153 50.3987 122.034 50.4467 122.018C50.5907 121.955 50.8146 121.915 51.0946 121.804C51.2865 121.725 51.5185 121.67 51.7424 121.591C52.0223 121.488 52.1503 121.385 52.1743 121.377C52.3823 121.306 52.6062 121.234 52.8221 121.163C53.0381 121.092 53.262 121.021 53.47 120.949C53.6779 120.878 53.9179 120.799 54.1178 120.736C54.3818 120.648 54.6777 120.617 54.9816 120.522C55.2056 120.458 55.4375 120.363 55.6295 120.308C55.9014 120.229 56.1893 120.181 56.4933 120.094C56.7732 120.015 57.0611 119.968 57.3571 119.88C57.637 119.801 57.9249 119.746 58.2209 119.667C58.5008 119.587 58.7887 119.532 59.0846 119.453C59.3646 119.374 59.6525 119.318 59.9484 119.239C60.2284 119.16 60.5163 119.105 60.8122 119.025C61.0922 118.946 61.3801 118.891 61.676 118.812C61.956 118.732 62.2439 118.677 62.5398 118.598C62.8837 118.503 63.2276 118.487 63.6276 118.384C63.9075 118.313 64.2034 118.241 64.4913 118.17C64.7793 118.099 65.0672 118.028 65.3551 117.956C65.6431 117.885 65.939 117.814 66.2189 117.743C66.4989 117.671 66.8028 117.6 67.0827 117.529C67.3547 117.458 67.6346 117.339 67.7306 117.315C68.0185 117.244 68.3144 117.173 68.5944 117.101C68.8743 117.03 69.1782 116.959 69.4582 116.888C69.7381 116.816 70.042 116.745 70.3219 116.674C70.6019 116.602 70.9058 116.523 71.1857 116.46C71.4657 116.397 71.7776 116.31 72.0495 116.246C72.3455 116.175 72.6494 116.04 72.6974 116.032C72.9853 115.961 73.2892 115.882 73.5612 115.819C73.8491 115.755 74.153 115.668 74.425 115.605C74.7129 115.542 75.0248 115.454 75.2887 115.391C75.5767 115.328 75.8886 115.241 76.1525 115.177C76.4405 115.114 76.7524 115.019 77.0163 114.964C77.3043 114.9 77.6162 114.805 77.8801 114.75C78.232 114.671 78.6 114.615 78.9679 114.536C79.2558 114.473 79.5677 114.378 79.8317 114.322C80.1836 114.243 80.5515 114.188 80.9194 114.108C81.2153 114.045 81.5273 113.95 81.7832 113.895C82.1431 113.815 82.503 113.76 82.8709 113.681C83.2388 113.602 83.5908 113.538 83.9587 113.467C84.3266 113.396 84.6785 113.325 85.0464 113.253C85.4143 113.182 85.7742 113.111 86.1341 113.04C86.4941 112.968 86.862 112.897 87.2219 112.826C87.5818 112.754 87.9497 112.683 88.3096 112.612C88.7335 112.533 89.1654 112.485 89.6133 112.398C89.9732 112.327 90.3491 112.248 90.701 112.184C91.1249 112.105 91.5648 112.05 92.0047 111.971C92.3647 111.907 92.7406 111.82 93.0925 111.757C93.4444 111.694 93.8363 111.606 94.1802 111.543C94.5401 111.48 94.924 111.385 95.268 111.329C95.6919 111.258 96.1397 111.187 96.5716 111.116C96.9315 111.052 97.3235 110.957 97.6594 110.902C98.0193 110.846 98.4192 110.735 98.7471 110.688C99.179 110.617 99.6269 110.538 100.051 110.474C100.411 110.419 100.811 110.308 101.139 110.26C101.562 110.197 102.026 110.102 102.442 110.047C102.81 109.991 103.21 109.88 103.53 109.833C104.026 109.762 104.562 109.682 105.05 109.619C105.609 109.548 106.225 109.469 106.785 109.405C107.353 109.334 107.961 109.255 108.521 109.191C109.225 109.12 109.992 109.033 110.688 108.978C111.392 108.914 112.168 108.811 112.856 108.764C113.911 108.701 115.063 108.59 116.111 108.55C120.51 108.376 125.589 108.392 129.988 108.55H130.012Z" fill="#FFFBE4"/>
<path d="M81.2231 117.355C81.9029 117.576 89.1332 126.737 90.5488 128.194C97.0912 134.908 103.026 139.358 111.8 142.897C112.136 143.048 112.288 143.048 112.448 143.111C112.759 143.238 112.927 143.262 113.095 143.325C113.367 143.436 113.487 143.459 113.743 143.539C114.215 143.8 114.575 143.721 114.607 143.752C115.167 144.251 115.159 147.49 115.255 148.693C115.215 149.295 115.287 149.912 115.255 150.514C115.103 150.728 114.255 150.601 113.951 150.625C113.559 150.57 113.047 150.482 112.647 150.411C112.304 150.348 111.92 150.261 111.56 150.197C111.2 150.134 110.832 150.055 110.472 149.984C110.224 149.936 109.88 149.833 109.608 149.77C109.352 149.714 109.008 149.619 108.744 149.556C108.656 149.532 108.353 149.414 108.097 149.342C107.801 149.263 107.489 149.208 107.233 149.129C107.033 149.065 106.785 148.986 106.585 148.915C106.385 148.844 106.137 148.772 105.937 148.701C105.713 148.622 105.481 148.558 105.289 148.487C105.265 148.479 105.097 148.368 104.857 148.273C104.641 148.194 104.409 148.131 104.21 148.06C103.882 147.941 103.458 147.767 103.122 147.632C90.2929 142.003 80.4952 131.393 73.4169 119.619C73.7688 119.548 74.0488 119.207 74.2807 119.081C74.3367 119.049 74.5926 119.025 74.9286 118.867C75.0005 118.835 75.4324 118.78 75.7924 118.653C76.0003 118.582 76.2402 118.503 76.4402 118.439C76.6961 118.36 77.0081 118.313 77.304 118.226C77.5439 118.162 77.9198 118.02 77.9518 118.012C78.2078 117.956 78.7197 117.814 78.8156 117.798C79.1435 117.751 79.6394 117.592 79.6794 117.584C80.0793 117.537 80.5032 117.37 80.5432 117.37C80.7432 117.37 81.0551 117.323 81.1911 117.37L81.2231 117.355Z" fill="#FFFBE4"/>
<path d="M166.867 117.568C166.915 117.568 167.371 117.735 167.731 117.782C168.083 117.853 168.467 117.925 168.818 117.996C169.058 118.043 169.434 118.146 169.682 118.21C169.962 118.281 170.282 118.344 170.546 118.423C170.738 118.479 170.97 118.574 171.194 118.637C171.618 118.811 171.994 118.819 172.058 118.851C172.426 119.041 172.642 119.033 172.706 119.065C172.913 119.184 173.393 119.508 173.353 119.817C165.963 131.963 155.446 142.913 141.913 148.258C141.713 148.337 141.489 148.392 141.265 148.471C141.001 148.574 140.857 148.677 140.833 148.685C140.633 148.756 140.393 148.828 140.185 148.899C139.977 148.97 139.737 149.049 139.537 149.113C139.338 149.176 139.082 149.271 138.89 149.326C138.658 149.398 138.37 149.509 138.242 149.54C137.978 149.611 137.65 149.691 137.378 149.754C137.106 149.817 136.77 149.912 136.514 149.968C136.234 150.031 135.89 150.134 135.65 150.182C135.314 150.245 134.883 150.348 134.563 150.395C134.035 150.474 133.355 150.554 132.827 150.609C132.547 150.562 131.899 150.728 131.739 150.498C131.707 149.968 131.779 149.414 131.739 148.891C131.835 147.767 131.819 144.512 132.387 143.95C132.419 143.919 132.779 144.006 133.251 143.736C133.467 143.657 133.667 143.61 133.899 143.523C134.091 143.451 134.227 143.444 134.547 143.309C134.691 143.246 134.859 143.246 135.195 143.095C135.33 143.04 135.498 143.04 135.842 142.881C143.792 139.477 149.375 135.17 155.358 129.033C156.885 127.466 164.827 117.632 165.547 117.339C165.603 117.315 165.691 117.355 165.763 117.339C165.883 117.719 166.523 117.529 166.851 117.553L166.867 117.568Z" fill="#FFFBE4"/>
<path d="M119.382 143.966C119.902 146.278 118.998 150.459 119.382 152.984C118.942 153.388 117.847 153.198 117.647 152.771C117.615 152.699 117.503 151.638 117.431 151.266C117.343 150.285 117.247 144.117 117.431 143.539C117.855 142.193 119.078 142.62 119.382 143.966Z" fill="#FFFBE4"/>
<path d="M129.579 143.752C129.707 144.267 129.731 152.137 129.579 152.549C129.556 152.628 128.46 153.444 128.172 153.404C127.988 153.333 127.668 152.493 127.628 152.327C127.508 151.797 127.508 144.156 127.628 143.744C127.9 142.81 129.196 142.177 129.579 143.744V143.752Z" fill="#FFFBE4"/>
<path d="M260.993 117.995V79.187H277.126V84.731H267.091V95.5418H274.964V101.086H267.091V117.995H260.993Z" fill="#FFFBE4"/>
<path d="M297.181 118.549C291.194 118.549 287.923 115.001 287.923 108.792V88.39C287.923 82.1808 291.194 78.6326 297.181 78.6326C303.169 78.6326 306.44 82.1808 306.44 88.39V108.792C306.44 115.001 303.169 118.549 297.181 118.549ZM297.181 113.005C299.122 113.005 300.342 111.952 300.342 109.18V88.002C300.342 85.23 299.122 84.1766 297.181 84.1766C295.241 84.1766 294.021 85.23 294.021 88.002V109.18C294.021 111.952 295.241 113.005 297.181 113.005Z" fill="#FFFBE4"/>
<path d="M327.751 118.549C321.763 118.549 318.658 115.001 318.658 108.792V79.187H324.757V109.235C324.757 112.007 325.921 113.005 327.861 113.005C329.802 113.005 330.966 112.007 330.966 109.235V79.187H336.843V108.792C336.843 115.001 333.738 118.549 327.751 118.549Z" fill="#FFFBE4"/>
<path d="M358.151 118.549C352.163 118.549 349.059 115.001 349.059 108.792V88.39C349.059 82.1808 352.163 78.6326 358.151 78.6326C364.138 78.6326 367.243 82.1808 367.243 88.39V91.7164H361.477V88.002C361.477 85.23 360.257 84.1766 358.317 84.1766C356.377 84.1766 355.157 85.23 355.157 88.002V109.235C355.157 112.007 356.377 113.005 358.317 113.005C360.257 113.005 361.477 112.007 361.477 109.235V101.64H358.428V96.0962H367.243V108.792C367.243 115.001 364.138 118.549 358.151 118.549Z" fill="#FFFBE4"/>
<path d="M379.529 117.995V79.187H385.627V94.9874H392.169V79.187H398.267V117.995H392.169V100.531H385.627V117.995H379.529Z" fill="#FFFBE4"/>
<path d="M415.893 117.995V84.731H409.517V79.187H428.367V84.731H421.991V117.995H415.893Z" fill="#FFFBE4"/>
</svg>
