<svg width="466" height="151" viewBox="0 0 466 151" fill="none" xmlns="http://www.w3.org/2000/svg">
<path d="M107.366 7.85693V126.45H23.5159V7.85693H107.366ZM25.218 124.742H105.664V9.56592H25.218V124.742Z" fill="#00263A" stroke="#00263A" stroke-width="0.77"/>
<path d="M96.3662 92.3633C96.7973 92.2036 97.0495 92.2689 97.1953 92.3691C97.3556 92.4795 97.4793 92.6942 97.5244 92.9902C97.569 93.2834 97.5269 93.6075 97.4111 93.8682C97.295 94.1295 97.1257 94.2863 96.9395 94.3379L96.9385 94.3389C96.5247 94.4545 96.3089 94.3717 96.1914 94.2734C96.0569 94.1608 95.9569 93.9493 95.9287 93.6533C95.901 93.3626 95.9495 93.0431 96.0508 92.7852C96.1587 92.5103 96.2901 92.3906 96.3643 92.3633H96.3662Z" fill="#00263A" stroke="#00263A" stroke-width="0.77"/>
<path d="M33.687 92.8965C34.0113 92.747 34.2716 92.7881 34.48 92.9141C34.7049 93.0501 34.8967 93.3051 35.0063 93.6123C35.1162 93.9205 35.1259 94.2327 35.0454 94.4619C34.9723 94.6698 34.8235 94.8247 34.5405 94.875L34.5396 94.876C34.3486 94.9103 34.1663 94.8515 33.9917 94.7031C33.8115 94.5499 33.6548 94.3106 33.5552 94.0352C33.4553 93.7589 33.4247 93.4801 33.4604 93.2646C33.4868 93.1055 33.5427 93.0049 33.6128 92.9443L33.687 92.8965Z" fill="#00263A" stroke="#00263A" stroke-width="0.77"/>
<path d="M33.687 98.312C34.0195 98.1587 34.2756 98.2004 34.4731 98.3188C34.6877 98.4476 34.8713 98.6918 34.9751 98.9946C35.0789 99.2976 35.087 99.6129 35.0063 99.8521C34.9311 100.075 34.781 100.235 34.521 100.294L34.52 100.295C34.3525 100.334 34.184 100.287 34.0112 100.142C33.8325 99.9918 33.6723 99.7507 33.5679 99.4702C33.4633 99.1894 33.4281 98.905 33.4614 98.6851C33.486 98.523 33.5414 98.4218 33.6118 98.3608L33.687 98.312Z" fill="#00263A" stroke="#00263A" stroke-width="0.77"/>
<path d="M96.5818 77.2051C96.8379 77.1527 97.021 77.2226 97.1589 77.3486C97.309 77.4858 97.4248 77.7107 97.4714 77.9805C97.5706 78.5539 97.3418 79.0458 96.9333 79.167H96.9324C96.6174 79.2604 96.4316 79.1872 96.3103 79.0781C96.169 78.9509 96.0599 78.7218 96.0251 78.4277C95.9909 78.1371 96.0361 77.8329 96.1462 77.5996C96.2416 77.3976 96.37 77.2741 96.5173 77.2227L96.5818 77.2051Z" fill="#00263A" stroke="#00263A" stroke-width="0.77"/>
<path d="M96.1277 87.4717C96.4905 87.2971 96.7209 87.3509 96.8708 87.4512C97.0445 87.5675 97.1918 87.8032 97.2595 88.1172C97.3265 88.4276 97.3024 88.759 97.196 89.0137C97.0932 89.26 96.9273 89.4116 96.699 89.4551C96.4952 89.4939 96.3476 89.434 96.2234 89.3076C96.0852 89.1669 95.972 88.9353 95.9128 88.6523C95.8543 88.372 95.8572 88.0792 95.9128 87.8477C95.9714 87.6043 96.0669 87.5013 96.1277 87.4717Z" fill="#00263A" stroke="#00263A" stroke-width="0.77"/>
<path d="M96.5239 97.5347C96.9531 97.5123 97.1294 97.6572 97.2095 97.7915C97.3069 97.9554 97.3333 98.223 97.2456 98.5386C97.1594 98.8486 96.9787 99.1413 96.7573 99.3247C96.5697 99.48 96.3713 99.5458 96.1675 99.5112L96.0806 99.4907C96.0174 99.471 95.9188 99.3943 95.8394 99.1909C95.7627 98.9946 95.7287 98.7341 95.7563 98.4702C95.7841 98.2061 95.8699 97.9703 95.9995 97.8052C96.1219 97.6495 96.289 97.548 96.5249 97.5356L96.5239 97.5347Z" fill="#00263A" stroke="#00263A" stroke-width="0.77"/>
<path d="M96.3083 50.9165C96.5279 50.8726 96.706 50.9371 96.8552 51.0767C97.0146 51.2258 97.141 51.4649 97.197 51.7397C97.253 52.0144 97.2302 52.2864 97.1404 52.4907C97.0558 52.6828 96.9127 52.8195 96.6843 52.8716H96.6833C96.3587 52.9466 96.1692 52.8649 96.0476 52.7485C95.9084 52.6153 95.807 52.3849 95.7791 52.0952C95.7515 51.8087 95.8012 51.5111 95.9099 51.2847C96.0189 51.0577 96.1626 50.9456 96.3064 50.9175L96.3083 50.9165Z" fill="#00263A" stroke="#00263A" stroke-width="0.77"/>
<path d="M34.0942 70.979C34.2522 70.9684 34.3988 71.0395 34.5327 71.2241C34.6719 71.416 34.7719 71.7036 34.8022 72.02C34.8325 72.3361 34.7895 72.6382 34.688 72.856C34.5903 73.0653 34.4558 73.1701 34.2876 73.1938C34.0762 73.2226 33.9214 73.1454 33.7935 72.9761C33.653 72.7902 33.5567 72.4987 33.5356 72.1694C33.5147 71.8418 33.5718 71.5255 33.686 71.3013C33.7971 71.0834 33.9368 70.9894 34.0942 70.979Z" fill="#00263A" stroke="#00263A" stroke-width="0.77"/>
<path d="M96.3564 71.499C96.7192 71.3762 96.9453 71.4477 97.0898 71.5615C97.2519 71.6893 97.3756 71.9225 97.416 72.2178C97.4561 72.5108 97.4063 72.8168 97.2803 73.0498C97.1741 73.246 97.0194 73.3847 96.8096 73.4414L96.7158 73.4609C96.5248 73.4884 96.3856 73.4248 96.2695 73.293C96.1414 73.1471 96.042 72.9129 96.002 72.6338C95.9623 72.3566 95.9872 72.0746 96.0645 71.8574C96.1429 71.637 96.2541 71.5332 96.3555 71.499H96.3564Z" fill="#00263A" stroke="#00263A" stroke-width="0.77"/>
<path d="M96.355 82.0693C96.7944 81.9225 97.0265 82.0041 97.1499 82.1035C97.2908 82.2171 97.395 82.4375 97.4126 82.7432C97.4299 83.0438 97.3578 83.3684 97.2183 83.6191C97.0781 83.8708 96.8978 84.0045 96.7144 84.0312C96.5151 84.0602 96.3741 83.9943 96.2593 83.8643C96.1316 83.7194 96.034 83.4857 95.9956 83.2061C95.9576 82.9284 95.9842 82.6448 96.063 82.4268C96.1433 82.205 96.255 82.1022 96.354 82.0693H96.355Z" fill="#00263A" stroke="#00263A" stroke-width="0.77"/>
<path d="M96.1223 35.7139C96.4049 35.584 96.6553 35.6121 96.8674 35.7227C97.0914 35.8396 97.2861 36.0584 97.4016 36.3174C97.518 36.5785 97.5362 36.8372 97.4709 37.0273C97.4204 37.1747 97.3083 37.3169 97.0676 37.3994L96.9563 37.4316C96.684 37.4933 96.4891 37.4318 96.342 37.3203C96.1831 37.1997 96.0539 36.998 95.9778 36.751C95.9019 36.5045 95.889 36.2457 95.9319 36.042C95.9763 35.8314 96.0627 35.7431 96.1233 35.7148L96.1223 35.7139Z" fill="#00263A" stroke="#00263A" stroke-width="0.77"/>
<path d="M34.1265 82.3579C34.401 82.3171 34.5861 82.3994 34.7192 82.5337C34.8648 82.6806 34.9699 82.9148 35.0063 83.1909C35.0427 83.466 35.0056 83.7436 34.9097 83.9536C34.8154 84.1598 34.6803 84.2738 34.5229 84.3091H34.521C34.3327 84.3521 34.1602 84.2966 33.9995 84.145C33.8307 83.9857 33.6921 83.7316 33.6265 83.4468C33.5605 83.1607 33.5782 82.8889 33.6636 82.6958C33.7309 82.5438 33.8436 82.427 34.0376 82.3755L34.1265 82.3579Z" fill="#00263A" stroke="#00263A" stroke-width="0.77"/>
<path d="M33.7397 87.9883C34.0876 87.8117 34.3521 87.8349 34.5444 87.9258C34.7572 88.0263 34.9372 88.2359 35.0386 88.5049C35.1401 88.7744 35.1467 89.0613 35.063 89.2832C34.9853 89.489 34.8239 89.6608 34.521 89.7305C34.1873 89.8072 34.01 89.7312 33.9028 89.6367C33.7769 89.5255 33.6796 89.3269 33.6323 89.0576C33.5861 88.7937 33.5965 88.5074 33.6421 88.2793C33.6649 88.1653 33.6941 88.0782 33.7212 88.0215C33.7285 88.0061 33.7353 87.9956 33.7397 87.9883Z" fill="#00263A" stroke="#00263A" stroke-width="0.77"/>
<path d="M96.0713 40.8833C96.4307 40.7754 96.6763 40.8367 96.8408 40.9458C97.0156 41.0617 97.1473 41.2637 97.2061 41.5103C97.265 41.7577 97.2421 42.0154 97.1504 42.2124C97.0633 42.3996 96.9161 42.533 96.6934 42.5786H96.6924C96.2957 42.6601 95.8809 42.3615 95.7012 41.8647C95.6164 41.6303 95.6102 41.4056 95.668 41.2388C95.7137 41.1072 95.8058 40.9876 95.9873 40.9126L96.0713 40.8833Z" fill="#00263A" stroke="#00263A" stroke-width="0.77"/>
<path d="M96.085 55.7861C96.4349 55.6668 96.6277 55.7412 96.7432 55.8418C96.8817 55.9626 96.9897 56.1922 97.0195 56.4971C97.0488 56.7968 96.9953 57.1135 96.877 57.3555C96.7589 57.5969 96.6015 57.7204 96.4346 57.749L96.4336 57.75C96.2083 57.7888 96.0699 57.72 95.9658 57.6016C95.8447 57.4635 95.7531 57.2322 95.7227 56.9463C95.6927 56.6642 95.7273 56.3722 95.8105 56.1455C95.876 55.9674 95.9551 55.8683 96.0225 55.8193L96.085 55.7861Z" fill="#00263A" stroke="#00263A" stroke-width="0.77"/>
<path d="M96.3892 66.3369C96.8547 66.1295 97.0889 66.2059 97.2036 66.292C97.342 66.3961 97.4544 66.6217 97.4731 66.9541C97.4914 67.2781 97.4139 67.6309 97.2651 67.8975C97.116 68.1645 96.9291 68.294 96.7397 68.3096H96.7388C96.6736 68.315 96.5691 68.2857 96.4399 68.125C96.3125 67.9664 96.2028 67.7251 96.1431 67.4521C96.0835 67.1799 96.0811 66.9104 96.1343 66.7012C96.1871 66.4939 96.2814 66.3853 96.3882 66.3379L96.3892 66.3369Z" fill="#00263A" stroke="#00263A" stroke-width="0.77"/>
<path d="M34.0796 76.9399C34.218 76.9362 34.3713 77.0035 34.522 77.1694C34.6732 77.336 34.7956 77.5776 34.8579 77.8403C34.9205 78.1044 34.9143 78.3557 34.8481 78.5435C34.7865 78.7182 34.6755 78.8381 34.4927 78.895V78.896C34.2066 78.9852 34.013 78.915 33.8677 78.7817C33.7033 78.631 33.5758 78.3708 33.5278 78.062C33.48 77.7541 33.5196 77.4533 33.6255 77.2446C33.7231 77.0525 33.8666 76.9463 34.0796 76.9399Z" fill="#00263A" stroke="#00263A" stroke-width="0.77"/>
<path d="M96.1304 60.916C96.5144 60.7272 96.756 60.7838 96.9126 60.8906C97.0948 61.015 97.2469 61.2661 97.314 61.5947C97.3803 61.9201 97.3494 62.2595 97.2378 62.5078C97.1316 62.744 96.968 62.8758 96.7388 62.8945H96.7378C96.644 62.9025 96.5174 62.8593 96.3687 62.6953C96.2213 62.5328 96.0908 62.2892 96.0093 62.0146C95.9276 61.7397 95.904 61.467 95.939 61.2568C95.9654 61.0981 96.0178 61.0065 96.0737 60.9551L96.1304 60.916Z" fill="#00263A" stroke="#00263A" stroke-width="0.77"/>
<path d="M33.9622 45.7388C34.2089 45.6232 34.4035 45.6641 34.5725 45.7886C34.7618 45.928 34.929 46.1862 35.0198 46.4985C35.1105 46.8106 35.1084 47.121 35.0247 47.3442C34.949 47.5457 34.8096 47.6815 34.5559 47.7163H34.5549C34.4193 47.7351 34.2828 47.6873 34.1418 47.5386C33.9956 47.3843 33.8702 47.1436 33.7961 46.8657C33.7224 46.5888 33.7094 46.3092 33.7532 46.0923C33.7978 45.8715 33.8856 45.7752 33.9612 45.7397L33.9622 45.7388Z" fill="#00263A" stroke="#00263A" stroke-width="0.77"/>
<path d="M34.1301 54.9839C34.4275 54.9372 34.5818 55.0245 34.678 55.1362C34.7937 55.2707 34.8727 55.4994 34.886 55.7915C34.899 56.0784 34.8454 56.3777 34.7502 56.6079C34.6461 56.8597 34.5365 56.9311 34.5051 56.9399L34.5042 56.9409C34.3418 56.9863 34.1817 56.9426 34.0198 56.7925C33.8506 56.6356 33.7069 56.3805 33.635 56.0923C33.5628 55.8029 33.5746 55.5282 33.6575 55.3325C33.7316 55.1577 33.8679 55.0247 34.1292 54.9839H34.1301Z" fill="#00263A" stroke="#00263A" stroke-width="0.77"/>
<path d="M33.9072 65.542C34.2214 65.4485 34.4034 65.5297 34.5225 65.6494C34.6637 65.7917 34.7664 66.0444 34.7842 66.3545C34.8018 66.6616 34.7316 66.9667 34.5977 67.1816C34.4707 67.3852 34.2987 67.4961 34.0693 67.4961C33.9085 67.4961 33.7865 67.4254 33.6855 67.2803C33.5765 67.1236 33.5024 66.8873 33.4863 66.6162C33.4705 66.3473 33.5137 66.0806 33.6025 65.877C33.6927 65.6705 33.807 65.5735 33.9082 65.543L33.9072 65.542Z" fill="#00263A" stroke="#00263A" stroke-width="0.77"/>
<path d="M34.1067 35.2095C34.4064 35.1806 34.5658 35.2778 34.6633 35.4009C34.7768 35.5443 34.8466 35.7774 34.843 36.062C34.8395 36.3431 34.7643 36.6279 34.6448 36.8394C34.5216 37.0572 34.3879 37.1396 34.2903 37.1528H34.2883C34.1238 37.1758 33.9706 37.1137 33.8284 36.9526C33.6804 36.7849 33.5662 36.5288 33.5247 36.2476C33.483 35.9653 33.5211 35.7034 33.6194 35.52C33.7084 35.354 33.8537 35.2338 34.1067 35.2095Z" fill="#00263A" stroke="#00263A" stroke-width="0.77"/>
<path d="M33.71 60.3628C34.1299 60.1339 34.3903 60.1714 34.54 60.2505C34.7055 60.3381 34.8462 60.5343 34.9082 60.8169C34.9697 61.0969 34.9394 61.4067 34.8242 61.6489C34.7272 61.8527 34.5763 62.001 34.3643 62.0649L34.2705 62.0864C34.071 62.1203 33.9391 62.0626 33.834 61.9575C33.7143 61.8378 33.6154 61.6386 33.5635 61.3882C33.5123 61.1411 33.5142 60.8816 33.5596 60.6753C33.6092 60.4501 33.6892 60.375 33.71 60.3638V60.3628Z" fill="#00263A" stroke="#00263A" stroke-width="0.77"/>
<path d="M33.9648 50.3472C34.3147 50.1792 34.5423 50.2235 34.6895 50.312C34.8555 50.4119 34.9968 50.6154 35.0645 50.8882C35.1316 51.1592 35.1124 51.4479 35.0166 51.6685C34.9372 51.8513 34.8095 51.9825 34.6221 52.0415L34.5381 52.063C34.3297 52.1008 34.181 52.0425 34.0625 51.9341C33.9318 51.8143 33.8236 51.6169 33.7656 51.3735C33.708 51.1316 33.7086 50.8791 33.7588 50.6792C33.7977 50.5244 33.8568 50.4329 33.9121 50.3833L33.9648 50.3472Z" fill="#00263A" stroke="#00263A" stroke-width="0.77"/>
<path d="M33.7781 40.5361C34.2054 40.2381 34.4649 40.2649 34.6042 40.3311C34.7708 40.4102 34.9274 40.6181 34.9988 40.9395C35.0688 41.2545 35.0369 41.6028 34.9109 41.8652C34.7915 42.1136 34.5974 42.2755 34.3044 42.2998H34.3035C34.2065 42.3078 34.1172 42.2721 34.0183 42.1436C33.9112 42.0043 33.8225 41.7851 33.7683 41.5234C33.715 41.266 33.7022 41.0007 33.7224 40.793C33.7325 40.689 33.7496 40.6115 33.7673 40.5615C33.7712 40.5505 33.7754 40.5421 33.7781 40.5361Z" fill="#00263A" stroke="#00263A" stroke-width="0.77"/>
<path d="M95.8784 46.2729C96.2667 46.0663 96.4981 46.1127 96.6304 46.1899C96.784 46.2798 96.9187 46.4787 96.979 46.7661C97.0385 47.0495 97.011 47.3586 96.9067 47.5962C96.8182 47.7977 96.6871 47.9279 96.5171 47.98L96.4429 47.9966C96.2388 48.03 96.1051 47.9709 96.0005 47.8657C95.8813 47.7458 95.7845 47.5467 95.7339 47.2964C95.6839 47.0491 95.687 46.7889 95.7329 46.5825C95.7832 46.3566 95.8621 46.2833 95.8794 46.2739L95.8784 46.2729Z" fill="#00263A" stroke="#00263A" stroke-width="0.77"/>
<path d="M97.1267 101.886C97.2512 101.895 97.3589 101.921 97.4304 101.949C97.6041 102.062 97.6566 102.176 97.6677 102.29C97.6818 102.436 97.634 102.646 97.4841 102.928C97.2831 103.306 96.9439 103.733 96.531 104.182V103.978L95.8396 104.893L90.5125 111.938H90.5115C90.3939 112.094 90.2225 112.187 90.0398 112.208L89.9607 112.212C89.9423 112.211 89.9252 112.211 89.9167 112.211C89.8872 112.211 89.8466 112.21 89.7966 112.21C89.6959 112.209 89.5517 112.209 89.3679 112.209C88.9997 112.209 88.4689 112.21 87.7996 112.213C86.4605 112.218 84.5646 112.227 82.2976 112.238C77.763 112.261 71.7425 112.295 65.7244 112.327C59.706 112.359 53.689 112.388 49.1609 112.405C46.8968 112.414 45.0051 112.419 43.6716 112.419C43.0049 112.419 42.4785 112.418 42.115 112.416C41.9333 112.415 41.7936 112.413 41.698 112.411C41.6533 112.41 41.6199 112.409 41.5974 112.408C40.8211 112.188 40.2155 111.659 39.6775 110.979C39.2566 110.448 38.9151 109.88 38.5593 109.319L38.1951 108.763C37.7926 108.142 37.3729 107.534 36.9138 107.028C36.4702 106.54 35.9621 106.153 35.4255 105.977C34.8669 105.58 34.3469 105.207 33.9578 104.886C33.7581 104.721 33.6036 104.579 33.4998 104.462C33.3894 104.337 33.3806 104.289 33.3826 104.305C33.3553 104.07 33.3905 103.914 33.4412 103.815C33.4907 103.719 33.5681 103.65 33.6736 103.604C33.8951 103.51 34.2555 103.522 34.6355 103.705C34.7296 103.766 34.8902 103.898 35.0789 104.064C35.2776 104.24 35.4485 104.398 35.6003 104.533L35.6619 104.588L35.74 104.612C37.4386 105.148 38.3967 106.559 39.3669 108.015V108.016C39.5257 108.254 39.6767 108.493 39.8289 108.735C39.98 108.976 40.1326 109.219 40.2917 109.455C40.6102 109.928 40.9635 110.388 41.4089 110.784L41.4343 110.807L41.4617 110.824C41.5514 110.88 41.6315 110.928 41.7273 110.975L41.7244 111.034L41.9656 111.06L41.9705 111.036L88.948 110.823L89.2664 111.207L90.1257 110.779L90.0095 110.29L94.7175 104.064C95.4477 103.312 96.1444 102.482 96.8601 101.896C96.9309 101.885 97.0235 101.878 97.1267 101.886ZM41.5847 112.408C41.5829 112.408 41.5813 112.408 41.5798 112.408C41.5771 112.408 41.5754 112.407 41.575 112.407H41.5769C41.5779 112.407 41.5825 112.408 41.5847 112.408Z" fill="#00263A" stroke="#00263A" stroke-width="0.77"/>
<path d="M47.627 22.0952C59.9339 21.5507 72.2257 21.785 84.5371 22.2866C86.1929 22.3866 87.8627 22.4164 89.4561 22.689V22.6899C90.3635 22.8618 90.9428 23.1321 91.3545 23.5337C91.7693 23.9383 92.0565 24.5169 92.2959 25.3931L92.2979 25.4009C92.7456 26.9094 93.6391 27.9923 94.666 28.9312C95.1772 29.3985 95.7278 29.8358 96.2734 30.27C96.8189 30.7042 97.3607 31.1369 97.8779 31.6079H97.8789C98.079 31.8036 98.0526 32.0418 97.8936 32.2144C97.8135 32.3013 97.7127 32.3509 97.6182 32.3599C97.5325 32.3679 97.4208 32.3455 97.2949 32.231C96.79 31.7541 96.2278 31.3129 95.6641 30.8706C95.0937 30.4231 94.5183 29.9719 93.9658 29.4634L93.9619 29.4595C92.8553 28.4686 91.9551 27.107 91.501 25.6997L91.4951 25.6841L91.3594 25.2778C91.3154 25.139 91.2683 24.9897 91.2119 24.8462C91.1 24.5614 90.9374 24.2571 90.6406 24.0337H90.6416C90.4364 23.8741 90.182 23.772 89.9561 23.7007C89.7276 23.6286 89.4899 23.5762 89.3125 23.5347L89.3047 23.5337L89.2979 23.5317L88.9863 23.478C88.2366 23.3619 87.3436 23.3081 86.6533 23.2651H86.6514C80.1658 22.8867 73.6635 22.7565 67.167 22.6821H67.165C59.9565 22.6388 52.7295 22.583 45.5312 23.0923L45.5225 23.0933C44.3287 23.2032 43.0759 23.2796 41.8701 23.5532L41.8613 23.5552L41.8535 23.5571C40.5236 23.9235 39.6106 24.8602 38.8516 26.0132L38.5352 26.519C37.8074 27.733 37.1614 29.0223 36.1816 30.188C35.5128 30.6475 34.7684 31.0571 34.0127 31.3696C34.4375 30.7723 34.9422 30.2262 35.4834 29.6919L35.4951 29.6812L35.5059 29.6685C36.3934 28.6314 37.0583 27.3278 37.8057 26.0708L37.8086 26.0669C38.6178 24.6655 39.7915 23.3421 41.3008 22.8257L41.6074 22.7339C43.5658 22.2993 45.5837 22.2248 47.626 22.0942L47.627 22.0952Z" fill="#00263A" stroke="#00263A" stroke-width="0.77"/>
<path d="M93.6614 18.4087C93.7497 18.4087 93.8514 18.4273 93.9241 18.4585L93.9299 18.4604C95.1203 18.9498 95.4614 19.9544 95.7668 20.9106L95.7678 20.9126C95.9616 21.5077 96.1662 22.1566 96.635 22.7183V22.7192C97.3053 23.5246 98.0511 24.0394 98.8518 24.5015L99.6702 24.9546C100.171 25.2273 100.679 25.506 101.198 25.8384C101.37 25.949 101.485 26.1312 101.514 26.3403L101.521 26.4321L101.811 108.466C101.81 108.65 101.74 108.826 101.612 108.958C100.877 109.712 100.089 110.109 99.3547 110.474L99.3538 110.475C98.6252 110.84 97.8759 111.213 97.1506 111.987L97.1497 111.988C96.7535 112.413 96.4065 113.075 96.1204 113.722C95.9751 114.051 95.8407 114.388 95.72 114.705L95.4006 115.571C95.2377 116.023 95.1271 116.33 95.0208 116.56C94.9178 116.782 94.8306 116.906 94.7297 116.999L94.7268 117C94.6047 117.115 94.4351 117.181 94.2551 117.181H93.8704V117.185L37.6692 116.779H37.6663C37.4757 116.779 37.2932 116.697 37.1594 116.55C36.3513 115.661 35.74 114.783 35.1409 113.91L35.1399 113.909L34.6545 113.213C33.5281 111.629 32.3871 110.317 29.9875 109.625H29.9885C29.7256 109.548 29.5362 109.33 29.4905 109.069L29.4797 108.956L29.0842 27.3491C29.0842 27.1424 29.1735 26.9467 29.3254 26.8179L29.3284 26.8149C30.0518 26.1872 30.7634 25.6578 31.4592 25.1284C33.5848 23.5239 35.361 22.1913 36.1897 19.1421C36.2747 18.8339 36.5465 18.6256 36.8567 18.6255H36.8586L93.6614 18.4087ZM37.6467 20.0181L37.3733 20.019L37.2844 20.2769C36.2573 23.2353 34.3698 24.6676 32.2805 26.2417C31.7367 26.6506 31.1744 27.0766 30.6047 27.5474L30.4641 27.6636L30.4651 27.8462L30.8547 108.169L30.8557 108.435L31.1047 108.528C33.7751 109.523 35.0143 111.3 36.2678 113.114L36.2688 113.115C36.7483 113.805 37.2536 114.54 37.8616 115.251L37.8713 115.262L37.8821 115.273L37.8879 115.28L38.0002 115.391L38.1584 115.392L93.5667 115.789L93.842 115.791L93.9329 115.53C93.9566 115.461 93.9827 115.391 94.009 115.318C94.0347 115.247 94.0609 115.173 94.0862 115.1C94.3091 114.476 94.5833 113.71 94.925 112.968C95.2685 112.222 95.669 111.527 96.1311 111.033V111.032C97.0127 110.083 97.8963 109.645 98.7278 109.231L98.7288 109.23C99.2665 108.96 99.789 108.7 100.274 108.295L100.412 108.179V107.999L100.128 27.0435L100.127 26.8228L99.9368 26.7124L99.4661 26.4448C99.309 26.3574 99.1513 26.2713 98.9934 26.189C97.8645 25.5737 96.7586 24.9679 95.7581 23.8511L95.5588 23.6206C94.9317 22.866 94.665 22.0524 94.4358 21.3442C94.317 20.9777 94.216 20.6792 94.1028 20.4487C93.9845 20.208 93.8393 20.0115 93.6165 19.8687L93.5208 19.8071H93.4075L37.6467 20.0181Z" fill="#00263A" stroke="#00263A" stroke-width="0.77"/>
<path d="M65.3208 57.7129C65.5346 58.0811 65.788 58.598 66.0532 59.1445C66.315 59.6839 66.5872 60.2509 66.8276 60.6973C66.9477 60.9201 67.065 61.1233 67.1743 61.2822C67.2289 61.3616 67.2869 61.4369 67.3462 61.501C67.4005 61.5596 67.4795 61.6344 67.5815 61.6816L67.5825 61.6826C67.695 61.7342 67.8576 61.7705 68.0122 61.7998C68.1802 61.8317 68.3863 61.863 68.6128 61.8936C69.066 61.9547 69.6213 62.0155 70.1587 62.0742C70.6995 62.1333 71.2217 62.1907 71.6177 62.2441C71.6675 62.2509 71.7146 62.2591 71.7593 62.2656C71.6747 62.37 71.5763 62.487 71.4634 62.6113C71.1525 62.9534 70.7622 63.3437 70.3706 63.7324C69.9827 64.1175 69.5914 64.5034 69.2915 64.8232C69.1417 64.983 69.0076 65.1336 68.9058 65.2646C68.855 65.33 68.8074 65.3959 68.769 65.46C68.7339 65.5186 68.6917 65.5998 68.6714 65.6914C68.6399 65.8336 68.6487 66.0247 68.6636 66.1963C68.6799 66.385 68.7103 66.6137 68.7476 66.8623C68.8219 67.3575 68.93 67.9679 69.0249 68.5459C69.1212 69.1323 69.2043 69.6882 69.2358 70.1035C69.2417 70.1803 69.2437 70.25 69.2456 70.3115C69.1109 70.2467 68.954 70.1674 68.7798 70.0742C68.4053 69.8739 67.9778 69.6312 67.5483 69.3896C67.1222 69.1499 66.6934 68.9113 66.3286 68.7285C66.1464 68.6372 65.9744 68.5567 65.8228 68.4961C65.6789 68.4386 65.5237 68.3864 65.3853 68.3721H65.3843C65.214 68.3549 65.0296 68.3955 64.8687 68.4443C64.698 68.4961 64.5076 68.5719 64.3101 68.6602C63.9149 68.8367 63.4544 69.0793 63.0005 69.3213C62.5412 69.5662 62.0877 69.8117 61.689 70.0068C61.5166 70.0912 61.3625 70.1595 61.23 70.2148C61.2357 70.1597 61.2424 70.0995 61.2505 70.0352C61.3012 69.6308 61.3905 69.0982 61.4858 68.541C61.5804 67.9886 61.6802 67.4132 61.7485 66.9365C61.7827 66.6982 61.8102 66.4783 61.8247 66.2949C61.8381 66.1247 61.8444 65.9435 61.8179 65.8066V65.8047L61.7974 65.7314C61.7725 65.6612 61.7361 65.6022 61.7114 65.5635C61.6716 65.5012 61.622 65.4344 61.5679 65.3672C61.459 65.2322 61.3137 65.0709 61.1489 64.8965C60.8183 64.5467 60.3881 64.1218 59.9653 63.708C59.5396 63.2913 59.1214 62.8859 58.8071 62.5684C58.7016 62.4617 58.6124 62.3652 58.5376 62.2852V62.2627C59.0303 62.167 59.7415 62.1148 60.4927 62.0547C60.9324 62.0195 61.3773 61.9816 61.7681 61.9277C62.1499 61.8751 62.518 61.8028 62.7866 61.6855L62.7856 61.6846C62.8796 61.6439 62.9546 61.5816 63.0073 61.5303C63.0643 61.4748 63.1195 61.4097 63.1714 61.3418C63.2754 61.2056 63.3872 61.0322 63.5005 60.8408C63.7278 60.4568 63.984 59.9644 64.2349 59.4688C64.4891 58.9665 64.7347 58.4669 64.9526 58.043C65.052 57.8498 65.1401 57.6822 65.2163 57.5449C65.2479 57.5948 65.2842 57.6499 65.3208 57.7129Z" fill="#00263A" stroke="#00263A" stroke-width="0.77"/>
<path d="M68.9084 56.2261C68.9436 56.2961 69.0055 56.3863 69.1155 56.4468L69.1174 56.4478C69.1781 56.4807 69.2412 56.4945 69.2903 56.5024C69.2646 56.5615 69.2467 56.6266 69.2415 56.6978C69.2373 56.7544 69.2417 56.8091 69.2512 56.8608C69.1803 56.8622 69.1029 56.8778 69.0237 56.9175L69.0159 56.9214L69.009 56.9253C68.9259 56.9716 68.8779 57.0355 68.8547 57.0708C68.8293 57.1096 68.8122 57.1484 68.801 57.1763L68.8 57.1772C68.676 57.0856 68.5385 57.0436 68.4094 57.0317C68.4863 56.8758 68.5429 56.6713 68.4729 56.439C68.5127 56.4321 68.5528 56.4247 68.592 56.4126C68.7133 56.3751 68.8187 56.3126 68.9084 56.2261Z" fill="#00263A" stroke="#00263A" stroke-width="0.77"/>
<path d="M54.9736 62.1919C55.0343 62.2541 55.1092 62.3192 55.1973 62.3774C55.1522 62.4641 55.1208 62.5611 55.1143 62.6704C55.1118 62.7126 55.1127 62.7537 55.1172 62.7935L54.9277 62.8433C54.7733 62.8838 54.6696 62.9816 54.5996 63.0728C54.5289 62.9817 54.4393 62.919 54.3379 62.8853C54.331 62.8829 54.3233 62.8824 54.3164 62.8804C54.3257 62.8715 54.3367 62.8643 54.3457 62.855C54.4126 62.7854 54.4789 62.691 54.5117 62.5669C54.5367 62.4724 54.5361 62.3797 54.5215 62.2925C54.6541 62.2623 54.7677 62.2106 54.8613 62.147C54.8767 62.1365 54.8901 62.1236 54.9043 62.1128C54.9266 62.1386 54.9486 62.1662 54.9736 62.1919Z" fill="#00263A" stroke="#00263A" stroke-width="0.77"/>
<path d="M69.0317 72.3877C69.1414 72.4877 69.2654 72.5476 69.4019 72.585C69.3476 72.6819 69.3091 72.787 69.2915 72.9014C69.2708 73.0361 69.2835 73.1665 69.3179 73.2939C69.3131 73.2927 69.3081 73.2913 69.3032 73.29C69.1536 73.2522 68.9885 73.2388 68.7983 73.2803C68.7867 73.1521 68.751 73.0291 68.6753 72.9102C68.6311 72.8407 68.5765 72.7787 68.521 72.7227C68.6611 72.6539 68.781 72.5547 68.8745 72.4121C68.9001 72.3731 68.9214 72.3322 68.9409 72.291C68.9685 72.3247 68.9986 72.3575 69.0317 72.3877Z" fill="#00263A" stroke="#00263A" stroke-width="0.77"/>
<path d="M65.4109 73.5181C65.4962 73.6265 65.5998 73.7207 65.7361 73.7847C65.7181 73.8059 65.6857 73.8483 65.6638 73.9087L65.6628 73.9126C65.6045 74.0794 65.6204 74.2375 65.6511 74.3618C65.4234 74.3275 65.2165 74.3717 65.0476 74.437C65.0477 74.4286 65.0496 74.4201 65.0496 74.4116C65.0491 74.229 65.0182 74.0078 64.9001 73.8003C64.9181 73.7967 64.9367 73.7941 64.9548 73.7896C65.1154 73.7497 65.2763 73.6715 65.4109 73.5181Z" fill="#00263A" stroke="#00263A" stroke-width="0.77"/>
<path d="M76.2874 62.1494C76.3217 62.2122 76.3689 62.2833 76.4387 62.3467L76.4377 62.3486C76.4463 62.3572 76.4563 62.3637 76.4651 62.3711C76.4679 62.3734 76.47 62.3766 76.4729 62.3789V62.3779C76.4775 62.3816 76.481 62.3863 76.4856 62.3896C76.4829 62.4032 76.479 62.4167 76.4768 62.4307C76.4494 62.6079 76.4738 62.801 76.5784 62.9873C76.5565 62.9923 76.5342 62.9962 76.5129 63.0029C76.3718 63.0473 76.2593 63.124 76.1633 63.2266C76.0985 63.1381 76.0125 63.0578 75.8909 63.0078C75.8396 62.9867 75.7878 62.9734 75.7366 62.9658C75.7512 62.9394 75.7661 62.9132 75.7776 62.8857C75.8163 62.793 75.8403 62.6853 75.8293 62.5654C75.8256 62.525 75.8162 62.4866 75.8059 62.4492C75.9523 62.3988 76.0758 62.3257 76.176 62.2471C76.2165 62.2153 76.2532 62.182 76.2874 62.1494Z" fill="#00263A" stroke="#00263A" stroke-width="0.77"/>
<path d="M56.3423 67.8735C56.3795 67.9541 56.438 68.0373 56.5288 68.1021C56.4696 68.2461 56.4477 68.419 56.5073 68.605C56.4862 68.605 56.4646 68.6035 56.4429 68.605C56.2892 68.6156 56.1492 68.6654 56.0239 68.7612C55.9661 68.6745 55.8827 68.5942 55.7563 68.5522C55.739 68.5465 55.7213 68.5432 55.7046 68.5396C55.7054 68.5387 55.7067 68.5384 55.7075 68.5376C55.7361 68.5099 55.772 68.4709 55.8032 68.4224C55.8328 68.3764 55.8761 68.2935 55.8794 68.1841H55.8804V68.1724C55.8804 68.1497 55.8765 68.1283 55.8735 68.1079C55.8908 68.1074 55.9086 68.1095 55.9263 68.1079C55.9716 68.1039 56.0423 68.093 56.1157 68.061L56.1167 68.062C56.1197 68.0607 56.1226 68.0594 56.1255 68.0581L56.1245 68.0571C56.2111 68.0178 56.2709 67.959 56.3003 67.9272C56.3159 67.9104 56.3284 67.891 56.3423 67.8735Z" fill="#00263A" stroke="#00263A" stroke-width="0.77"/>
<path d="M58.9966 66.4663C59.0515 66.578 59.1352 66.6905 59.2651 66.7739C59.2466 66.8108 59.2309 66.85 59.2183 66.8911C59.1729 67.0385 59.1822 67.18 59.2271 67.313C59.1676 67.3202 59.1037 67.3344 59.0396 67.3638V67.3628C58.9809 67.3891 58.9335 67.4252 58.8921 67.4624C58.8037 67.3808 58.7045 67.3397 58.6147 67.3208C58.5988 67.3175 58.5826 67.3162 58.5669 67.314C58.6365 67.2212 58.6968 67.1101 58.7114 66.9731C58.7245 66.8497 58.6994 66.7385 58.6577 66.6411C58.6989 66.6322 58.7405 66.6207 58.7817 66.604C58.866 66.5698 58.9357 66.5213 58.9966 66.4663Z" fill="#00263A" stroke="#00263A" stroke-width="0.77"/>
<path d="M61.3005 72.8677L61.2976 72.8481C61.2873 72.7497 61.2437 72.678 61.2283 72.6538C61.2068 72.62 61.1827 72.5905 61.1638 72.5688C61.1304 72.5305 61.0906 72.4913 61.0515 72.4546C61.1271 72.4358 61.2027 72.4128 61.2751 72.3745C61.3963 72.3105 61.4915 72.2222 61.573 72.1216C61.689 72.2492 61.8201 72.3339 61.95 72.3892L61.9519 72.3901C61.9215 72.4367 61.8907 72.4861 61.8621 72.5376C61.7723 72.6991 61.6848 72.9065 61.6658 73.1382C61.6482 73.1299 61.6314 73.1194 61.613 73.1118C61.5117 73.0696 61.3968 73.0392 61.2693 73.0376C61.271 73.0331 61.2744 73.0288 61.2761 73.0239C61.2801 73.0128 61.3005 72.9587 61.3005 72.8882V72.8677Z" fill="#00263A" stroke="#00263A" stroke-width="0.77"/>
<path d="M71.3728 66.5249C71.4148 66.5634 71.4608 66.6005 71.5144 66.6294C71.594 66.6722 71.6748 66.6934 71.7537 66.7026C71.7371 66.8883 71.7744 67.0577 71.8289 67.1978C71.8447 67.2386 71.863 67.2778 71.8816 67.3149C71.7585 67.3698 71.6429 67.4555 71.5496 67.5845C71.4686 67.5308 71.3782 67.4923 71.2732 67.478C71.2402 67.4736 71.2083 67.4725 71.1785 67.4722C71.2156 67.3892 71.2431 67.2865 71.2332 67.1675C71.222 67.0346 71.1684 66.9186 71.0964 66.8208C71.1822 66.7669 71.259 66.6985 71.323 66.6089C71.3422 66.582 71.3573 66.553 71.3728 66.5249Z" fill="#00263A" stroke="#00263A" stroke-width="0.77"/>
<path d="M65.1104 52.0879C65.1759 52.18 65.2545 52.2793 65.3594 52.3555C65.4097 52.392 65.463 52.4184 65.5166 52.4414C65.4697 52.5193 65.4351 52.6098 65.4297 52.7158C65.4244 52.8191 65.4483 52.9059 65.4668 52.9619C65.4793 52.9998 65.502 53.0569 65.5146 53.0898C65.3449 53.034 65.0991 52.9628 64.832 52.9727C64.8293 52.833 64.8008 52.6983 64.7334 52.5684C64.6939 52.4922 64.6435 52.4262 64.5898 52.3662C64.6052 52.3631 64.6212 52.3621 64.6367 52.3584C64.7928 52.3212 64.9648 52.2481 65.1104 52.0879Z" fill="#00263A" stroke="#00263A" stroke-width="0.77"/>
<path d="M61.1951 56.6196L61.1804 56.5679C61.1687 56.5267 61.1513 56.4934 61.1355 56.4683C61.1935 56.4532 61.2541 56.4331 61.3123 56.3999C61.4126 56.3425 61.4853 56.2638 61.5437 56.1792C61.5637 56.2061 61.5851 56.2324 61.6091 56.2563C61.6733 56.3202 61.7447 56.3611 61.8171 56.3911C61.7926 56.4639 61.78 56.5425 61.781 56.6265C61.7819 56.7018 61.797 56.7724 61.8171 56.8394C61.7383 56.854 61.6566 56.8856 61.5769 56.9419L61.573 56.9438C61.5091 56.9901 61.4681 57.0479 61.4412 57.0962C61.3839 57.0555 61.3266 57.0201 61.2683 56.9937C61.2128 56.9684 61.157 56.9497 61.1042 56.9341C61.1061 56.9317 61.1082 56.9304 61.1091 56.9292V56.9272L61.1101 56.9282L61.1951 56.8218V56.6196Z" fill="#00263A" stroke="#00263A" stroke-width="0.77"/>
<path d="M55.7063 57.7227C55.7982 57.8307 55.9097 57.9023 56.0432 57.9473C55.995 58.1258 55.9974 58.3024 56.012 58.4453C56.0137 58.4627 56.0176 58.4798 56.0198 58.4971C55.9874 58.4888 55.955 58.478 55.9211 58.4707C55.7789 58.44 55.6036 58.4168 55.4192 58.4277C55.4184 58.3 55.3958 58.1747 55.3342 58.0527C55.3116 58.0079 55.2846 57.9665 55.2561 57.9277C55.2783 57.9204 55.3016 57.9152 55.3235 57.9062C55.4531 57.853 55.566 57.7713 55.6594 57.6592C55.6739 57.6798 55.6886 57.7018 55.7063 57.7227Z" fill="#00263A" stroke="#00263A" stroke-width="0.77"/>
<path d="M74.7188 57.7539C74.7565 57.8059 74.799 57.8576 74.8506 57.9014C74.9121 57.9536 74.9784 57.9888 75.0459 58.0156C75.0391 58.0341 75.0327 58.0529 75.0273 58.0723C74.9962 58.1852 74.9979 58.2887 75.0098 58.375C75.0175 58.4309 75.03 58.4783 75.04 58.5215C74.9235 58.4894 74.8029 58.4775 74.6748 58.4912C74.6104 58.4981 74.5481 58.5117 74.4883 58.5283C74.4862 58.4029 74.4614 58.2833 74.3994 58.167C74.3792 58.129 74.355 58.0934 74.3301 58.0596C74.4212 58.0227 74.5073 57.9721 74.5859 57.9033C74.6372 57.8585 74.6795 57.8072 74.7188 57.7539Z" fill="#00263A" stroke="#00263A" stroke-width="0.77"/>
<path d="M58.1453 54.1074C58.1692 54.1435 58.1958 54.1795 58.2273 54.2119C58.3008 54.2876 58.384 54.3364 58.4695 54.3701C58.4526 54.4008 58.4365 54.4326 58.4236 54.4668C58.3713 54.6051 58.3668 54.7427 58.3914 54.875C58.3891 54.8743 58.3868 54.8737 58.3845 54.873C58.2439 54.8308 58.0603 54.7941 57.8533 54.8369C57.8428 54.6911 57.8131 54.5297 57.7439 54.3711C57.8095 54.3505 57.8754 54.3251 57.9382 54.2871C58.021 54.237 58.0882 54.1753 58.1453 54.1074Z" fill="#00263A" stroke="#00263A" stroke-width="0.77"/>
<path d="M74.1992 69.6226C74.2638 69.6951 74.3378 69.7472 74.418 69.7856C74.3843 69.8705 74.3675 69.9573 74.3633 70.0464C74.3608 70.1005 74.3647 70.1521 74.3682 70.1968C74.3631 70.196 74.3577 70.1945 74.3525 70.1938C74.1676 70.1686 73.9954 70.2002 73.8506 70.2495C73.8555 70.1151 73.8465 69.9623 73.7969 69.8101C73.8744 69.7786 73.95 69.7385 74.0205 69.6831C74.0688 69.6451 74.1102 69.6009 74.1484 69.5552C74.1646 69.578 74.1806 69.6016 74.1992 69.6226Z" fill="#00263A" stroke="#00263A" stroke-width="0.77"/>
<path d="M71.6477 59.8428C71.7324 59.8932 71.8191 59.9308 71.9036 59.959C71.8907 59.9856 71.8796 60.0137 71.8704 60.043C71.8358 60.152 71.8373 60.2526 71.8499 60.3359C71.8514 60.3461 71.8538 60.3563 71.8557 60.3662C71.788 60.3552 71.7187 60.3504 71.6477 60.3545C71.5867 60.358 71.5284 60.3683 71.4719 60.3828C71.4666 60.3489 71.4611 60.3144 71.4514 60.2803C71.4273 60.1957 71.3897 60.1217 71.344 60.0547C71.3668 60.0457 71.3899 60.0379 71.4114 60.0273C71.5028 59.9824 71.5811 59.9204 71.6477 59.8428Z" fill="#00263A" stroke="#00263A" stroke-width="0.77"/>
<path d="M58.8948 59.751C58.9429 59.8302 59.0061 59.9152 59.0881 59.9922C59.0296 60.1117 59.0152 60.2304 59.0188 60.3389C58.9142 60.2942 58.7922 60.2613 58.6545 60.2578C58.6517 60.1973 58.6444 60.1357 58.6252 60.0732C58.6167 60.0453 58.6052 60.019 58.594 59.9932C58.7214 59.9284 58.8194 59.8379 58.8948 59.751Z" fill="#00263A" stroke="#00263A" stroke-width="0.77"/>
<path d="M71.7683 54.3159C71.8164 54.3553 71.8733 54.3972 71.9363 54.438C71.9083 54.5338 71.9047 54.6245 71.9119 54.7046C71.8343 54.6993 71.7611 54.7055 71.6941 54.7163C71.6732 54.7197 71.6522 54.7253 71.6306 54.73C71.6208 54.6461 71.5958 54.5637 71.5496 54.4819C71.6256 54.4189 71.6862 54.3503 71.7322 54.2837C71.7447 54.2944 71.7562 54.306 71.7683 54.3159Z" fill="#00263A" stroke="#00263A" stroke-width="0.77"/>
<path d="M58.5547 70.5527C58.5661 70.6217 58.574 70.6878 58.5791 70.748C58.5296 70.7406 58.4898 70.7333 58.458 70.7256C58.4803 70.6818 58.5115 70.6258 58.5547 70.5527Z" fill="#00263A" stroke="#00263A" stroke-width="0.77"/>
<path d="M75.1553 66.127C75.1891 66.2087 75.2127 66.2778 75.2236 66.332C75.1717 66.3458 75.132 66.3542 75.1016 66.3584C75.1092 66.2952 75.1281 66.2177 75.1553 66.127Z" fill="#00263A" stroke="#00263A" stroke-width="0.77"/>
<path d="M65.2651 55.2891L65.2192 55.2871L65.2417 55.2285C65.2501 55.2491 65.2577 55.2694 65.2651 55.2891Z" fill="#00263A" stroke="#00263A" stroke-width="0.77"/>
<path d="M65.2339 71.7021C65.247 71.7489 65.2582 71.7946 65.2632 71.8369C65.265 71.8523 65.2637 71.866 65.2642 71.8779C65.2603 71.8772 65.2557 71.8778 65.2515 71.877C65.2278 71.8721 65.2016 71.8615 65.1704 71.8516L65.2339 71.7021Z" fill="#00263A" stroke="#00263A" stroke-width="0.77"/>
<path d="M76.3574 48.4512C76.8418 48.439 77.4184 48.4497 77.9824 48.4932C78.549 48.5368 79.0889 48.6123 79.5068 48.7236C79.7163 48.7794 79.8824 48.841 80.001 48.9043C80.1254 48.9708 80.1607 49.0194 80.166 49.0293V49.0303C80.1672 49.033 80.1762 49.0521 80.1885 49.0967C80.2013 49.1435 80.2148 49.2057 80.2285 49.2832C80.2559 49.4382 80.2801 49.6385 80.3008 49.8721C80.342 50.3386 80.366 50.9172 80.3672 51.4893C80.3683 52.0624 80.3467 52.6191 80.3008 53.0439C80.2777 53.2578 80.2494 53.4266 80.2188 53.543C80.2106 53.5738 80.2007 53.5972 80.1943 53.6152C80.1746 53.5688 80.1537 53.506 80.1338 53.4238C80.087 53.2308 80.0602 53.025 80.0146 52.7783C79.9755 52.5665 79.9176 52.2942 79.793 52.0947C79.5618 51.723 79.2139 51.5174 78.9463 51.3936C78.8128 51.3318 78.6832 51.2836 78.6006 51.251C78.5629 51.2361 78.5373 51.225 78.5195 51.2168C78.1796 50.8711 77.9625 50.5367 77.624 50.126C77.2922 49.7234 76.8923 49.3212 76.2637 48.9805L76.1777 48.9336H76.1562C75.8697 48.8164 75.5678 48.8364 75.4365 48.832C75.3418 48.8289 75.2951 48.82 75.2666 48.8086C75.2584 48.8053 75.249 48.8009 75.2383 48.792L75.2002 48.7461C75.1584 48.678 75.1447 48.6349 75.1406 48.6143C75.1449 48.6111 75.1517 48.608 75.1592 48.6035C75.1917 48.5841 75.2465 48.5611 75.3301 48.541L75.332 48.54C75.4945 48.4999 75.8616 48.4636 76.3574 48.4512ZM79.5479 49.1758C79.3755 49.0455 79.1498 48.9908 78.9102 49.0508H78.9072C78.6679 49.1125 78.5102 49.2809 78.4248 49.4561C78.3414 49.6271 78.3158 49.8226 78.3428 50.002C78.3696 50.1802 78.455 50.3814 78.6357 50.5195C78.8287 50.667 79.0719 50.6977 79.3145 50.6318C79.5525 50.567 79.7237 50.4104 79.8125 50.2129C79.8963 50.026 79.8991 49.822 79.8545 49.6484C79.8099 49.4752 79.7104 49.2986 79.5479 49.1758Z" fill="#00263A" stroke="#00263A" stroke-width="0.77"/>
<path d="M54.5752 48.5142C54.776 48.5181 54.9447 48.5228 55.0684 48.5288C55.1114 48.5309 55.1477 48.5326 55.1768 48.5347C55.2038 48.5615 55.2355 48.596 55.2637 48.6333C55.2655 48.6358 55.2668 48.6387 55.2686 48.6411C55.1417 48.7608 55.0138 48.8062 54.8418 48.8472C54.6028 48.904 54.2191 48.9557 53.7891 49.1929H53.7871C53.196 49.5225 52.8388 49.9409 52.5488 50.3325C52.2736 50.7043 52.086 51.0018 51.8174 51.2573C51.7739 51.2623 51.7232 51.2689 51.6621 51.2759C51.59 51.2841 51.507 51.2945 51.4346 51.3071C51.3986 51.3134 51.3581 51.3218 51.3193 51.3325C51.2921 51.3401 51.2204 51.3601 51.1533 51.4067L51.1484 51.4106C50.8609 51.6176 50.7076 51.9285 50.6123 52.2095C50.5172 52.4897 50.46 52.8041 50.4092 53.0493C50.3528 53.3215 50.3053 53.4977 50.2451 53.6001C50.2386 53.6112 50.2304 53.618 50.2256 53.6245C50.1985 53.6058 50.177 53.591 50.1602 53.5767C50.1478 53.5661 50.1388 53.5588 50.1338 53.5532C50.1335 53.55 50.1331 53.5465 50.1328 53.5425C50.13 53.5086 50.1278 53.4598 50.125 53.397C50.1194 53.272 50.1142 53.1016 50.1104 52.8989C50.1027 52.4939 50.0986 51.9686 50.0986 51.4399C50.0986 50.9114 50.1027 50.3814 50.1104 49.9663C50.1142 49.7584 50.1194 49.5808 50.125 49.4478C50.1312 49.3007 50.137 49.2435 50.1367 49.2437L50.1377 49.2417C50.2041 48.9217 50.5459 48.6227 50.9248 48.5513L50.9902 48.5386C51.03 48.5358 51.0806 48.5334 51.1416 48.5308C51.2767 48.525 51.4552 48.5202 51.6631 48.5161C52.0784 48.5079 52.6055 48.5028 53.1299 48.5024C53.6543 48.5021 54.1742 48.5062 54.5752 48.5142ZM51.9834 49.3374C51.8041 49.1587 51.5572 49.111 51.3135 49.1489C51.0699 49.1864 50.8951 49.3345 50.7949 49.5093C50.6993 49.6762 50.6691 49.8683 50.6855 50.0405C50.7019 50.2115 50.7682 50.4027 50.9131 50.5493C51.0706 50.7086 51.2937 50.786 51.5391 50.7466L51.541 50.7456C51.7774 50.7066 51.9403 50.5491 52.0342 50.4038C52.1298 50.2556 52.1852 50.0755 52.1904 49.8989C52.1955 49.7251 52.1512 49.505 51.9834 49.3374Z" fill="#00263A" stroke="#00263A" stroke-width="0.77"/>
<path d="M80.7097 46.8472C81.1738 46.8616 81.5251 47.0619 81.8162 47.5278L81.8171 47.5298C81.8655 47.6063 81.9196 47.757 81.9597 48.021C81.9988 48.2781 82.0201 48.609 82.0261 49.0181C82.0382 49.8366 81.9896 50.9227 81.9246 52.2798C81.8845 53.0839 81.8439 53.9092 81.8298 54.6177C81.816 55.3134 81.8263 55.9378 81.9001 56.3188C81.9894 56.7861 82.2185 57.3294 82.4275 57.8442V57.8452C82.6309 58.352 82.8329 58.8343 82.95 59.3022V59.3159L82.9607 59.3608C83.5333 61.6933 83.5841 64.5558 83.0925 67.2095C83.091 67.2174 83.0868 67.224 83.0808 67.229C83.0754 67.2334 83.0701 67.2344 83.0652 67.2349C83.0623 67.2345 83.059 67.2343 83.0554 67.2339C83.0472 67.2312 83.0413 67.2282 83.0378 67.2231C83.0337 67.217 83.0317 67.2085 83.0339 67.1968V67.1958C83.4941 64.7234 83.4806 62.064 83.0017 59.8188L82.8992 59.3755C82.7799 58.8905 82.5641 58.3613 82.3689 57.8843V57.8833L82.197 57.4624C82.0343 57.0537 81.9014 56.6816 81.8337 56.3384V56.3374C81.7655 55.9953 81.746 55.4292 81.7576 54.7036C81.7633 54.3454 81.7765 53.9569 81.7937 53.5493L81.8533 52.2808C81.8934 51.4643 81.9435 50.4309 81.9529 49.5532C81.9575 49.1153 81.9521 48.7082 81.9294 48.3823C81.9181 48.2199 81.9019 48.0699 81.8787 47.9429C81.8577 47.8288 81.8231 47.6858 81.7517 47.5718V47.5708C81.6304 47.3777 81.4914 47.2116 81.3123 47.0942C81.1267 46.9727 80.9268 46.9229 80.7175 46.9146L80.7087 46.9136H80.7L71.4441 46.981C71.4294 46.9804 71.4158 46.9688 71.4158 46.9517C71.4158 46.9422 71.4198 46.9323 71.4275 46.9243C71.4349 46.9167 71.4413 46.9155 71.4451 46.9155H71.448L80.7097 46.8472Z" fill="#00263A" stroke="#00263A" stroke-width="0.77"/>
<path d="M64.6655 50.1313C68.7038 49.9454 71.9167 51.3008 74.2192 53.4839C74.0249 53.3073 73.8263 53.1372 73.6226 52.9751C71.2035 51.0508 68.1703 50.1598 65.2544 50.1714L64.6733 50.186C59.7888 50.4137 55.9262 52.6766 53.7837 56.5933L53.5815 56.9771C51.4446 61.2188 51.6804 66.6593 54.1499 70.6782L54.396 71.063C56.9746 74.9439 61.2711 76.8427 66.437 76.4624L66.5806 76.4526L66.5884 76.4438C70.8398 76.0921 73.8725 74.2218 75.7954 71.6587C77.7332 69.0757 78.5271 65.8144 78.3433 62.7534C78.2697 61.5378 78.0794 60.415 77.7905 59.3833C78.0622 60.2833 78.2504 61.2092 78.3462 62.144L78.397 62.7622C78.5808 65.8629 77.7709 69.1462 75.8325 71.729C73.9613 74.2222 71.0219 76.0846 66.8442 76.4956L66.438 76.5308C66.0001 76.5612 65.5642 76.5796 65.1362 76.5796C60.4931 76.5796 56.7009 74.6569 54.3384 71.1069H54.3394C51.6358 67.041 51.3036 61.3467 53.522 56.9526L53.521 56.9517C55.5656 52.9047 59.3541 50.4916 64.2622 50.1489V50.1499L64.6655 50.1313Z" fill="#00263A" stroke="#00263A" stroke-width="0.77"/>
<path d="M64.1975 47.0444C70.3737 46.6316 75.4947 49.0667 78.6692 53.8735C82.037 58.9838 82.4771 66.0367 79.7659 71.4067C77.2278 76.4358 72.4176 79.3868 66.1672 79.6968C65.7942 79.7152 65.4304 79.727 65.0745 79.7271C59.8148 79.7271 55.8945 77.7681 53.2317 74.8882C50.5624 72.0011 49.1391 68.1686 48.9211 64.4077C48.4625 56.4192 53.3956 48.0196 63.7024 47.0835L64.1975 47.0444ZM77.3167 54.769C74.4707 50.4604 69.839 48.3073 64.3079 48.6685H64.3069C59.3153 49.0009 55.7626 51.1405 53.5149 54.0991C51.2742 57.0486 50.3478 60.7875 50.55 64.3042C50.8376 69.2572 52.9494 72.7966 55.8928 75.0464C58.8267 77.2889 62.5629 78.2325 66.0881 78.0552C71.681 77.7767 76.0435 75.1656 78.3147 70.6626C80.782 65.7844 80.3754 59.4053 77.3167 54.77V54.769Z" fill="#00263A" stroke="#00263A" stroke-width="0.77"/>
<path d="M59.0339 46.8848H59.0369C59.0407 46.8848 59.0464 46.8864 59.0535 46.8936C59.0612 46.9015 59.0651 46.9114 59.0652 46.9209C59.0652 46.9268 59.0632 46.9355 59.0554 46.9434C59.0478 46.9509 59.0419 46.9512 59.0408 46.9512H59.032L49.8611 46.9014H49.8533C49.62 46.9051 49.397 46.9476 49.1941 47.0645C48.9903 47.1819 48.8418 47.3547 48.7234 47.5576L48.7224 47.5586C48.658 47.67 48.6239 47.8062 48.6013 47.9248C48.577 48.0526 48.5591 48.202 48.5466 48.3633C48.5217 48.6865 48.514 49.0871 48.5164 49.5195C48.521 50.3856 48.5663 51.4135 48.6033 52.2725L48.6189 52.6406H48.6257C48.6593 53.3742 48.6892 54.0752 48.697 54.6885C48.7063 55.4111 48.6852 55.9777 48.6169 56.3242C48.5202 56.8034 48.3123 57.3282 48.0935 57.8672V57.8682C47.906 58.3352 47.6885 58.8602 47.5691 59.3584C47.0471 61.517 46.9441 63.9029 47.2703 66.2881L47.3416 66.7656C47.3432 66.7759 47.3404 66.7828 47.3367 66.7881C47.3338 66.792 47.3286 66.7942 47.322 66.7969H47.3074L47.2839 66.7881C47.2773 66.7824 47.275 66.7759 47.2742 66.7705L47.2732 66.7676C46.8665 64.2054 46.9466 61.6369 47.5017 59.3369C47.6238 58.8416 47.8231 58.3472 48.0291 57.834C48.235 57.3238 48.4487 56.7967 48.5437 56.3066L48.5447 56.3057C48.6181 55.9203 48.6296 55.2959 48.6189 54.6006C48.608 53.8934 48.5727 53.0709 48.5388 52.2705V52.2695L48.4685 50.4492C48.453 49.9091 48.4465 49.4351 48.4548 49.0273C48.4632 48.6202 48.4867 48.2896 48.5261 48.0303C48.5666 47.7643 48.6201 47.6049 48.6707 47.5195L48.6716 47.5176C48.813 47.2753 48.9784 47.1112 49.1638 47.0049C49.3494 46.8986 49.5768 46.8377 49.8621 46.835L59.0339 46.8848Z" fill="#00263A" stroke="#00263A" stroke-width="0.77"/>
<mask id="path-60-inside-1_2002_1409" fill="white">
<path d="M23.0267 10.4028V124.419C22.9155 124.443 22.8104 124.468 22.7116 124.487C21.6672 124.71 21.1048 124.834 20.6969 124.989C19.9368 125.274 19.1829 125.67 18.4537 126.147L18.3857 16.5367C18.534 14.3557 20.629 11.4933 23.0205 10.409M24.9919 7.47217C24.8189 7.47217 24.652 7.48456 24.5717 7.48456C20.2582 7.73239 16.13 12.5032 15.9199 16.4561L15.9941 132.43C17.0694 130.348 19.2632 128.167 21.5683 127.3C22.1925 127.064 25.3998 126.525 25.4987 126.29V7.55271C25.4492 7.48456 25.2206 7.47217 24.9919 7.47217Z"/>
</mask>
<path d="M23.0267 10.4028V124.419C22.9155 124.443 22.8104 124.468 22.7116 124.487C21.6672 124.71 21.1048 124.834 20.6969 124.989C19.9368 125.274 19.1829 125.67 18.4537 126.147L18.3857 16.5367C18.534 14.3557 20.629 11.4933 23.0205 10.409M24.9919 7.47217C24.8189 7.47217 24.652 7.48456 24.5717 7.48456C20.2582 7.73239 16.13 12.5032 15.9199 16.4561L15.9941 132.43C17.0694 130.348 19.2632 128.167 21.5683 127.3C22.1925 127.064 25.3998 126.525 25.4987 126.29V7.55271C25.4492 7.48456 25.2206 7.47217 24.9919 7.47217Z" fill="#00263A"/>
<path d="M23.0267 124.419L23.1942 125.17L23.7967 125.036V124.419H23.0267ZM22.7116 124.487L22.5693 123.73L22.56 123.732L22.5507 123.734L22.7116 124.487ZM20.6969 124.989L20.9673 125.71L20.9703 125.709L20.6969 124.989ZM18.4537 126.147L17.6837 126.148L17.6845 127.571L18.8752 126.792L18.4537 126.147ZM18.3857 16.5367L17.6174 16.4844L17.6157 16.5108L17.6157 16.5372L18.3857 16.5367ZM24.5717 7.48456V6.71456H24.5496L24.5275 6.71583L24.5717 7.48456ZM15.9199 16.4561L15.151 16.4153L15.1499 16.4359L15.1499 16.4566L15.9199 16.4561ZM15.9941 132.43L15.2241 132.43L16.6782 132.783L15.9941 132.43ZM21.5683 127.3L21.8395 128.02L21.8401 128.02L21.5683 127.3ZM25.4987 126.29L26.2086 126.588L26.2687 126.445V126.29H25.4987ZM25.4987 7.55271H26.2687V7.30285L26.1219 7.10059L25.4987 7.55271ZM23.0267 10.4028H22.2567V124.419H23.0267H23.7967V10.4028H23.0267ZM23.0267 124.419L22.8593 123.667C22.7344 123.695 22.6514 123.715 22.5693 123.73L22.7116 124.487L22.8538 125.244C22.9695 125.222 23.0966 125.192 23.1942 125.17L23.0267 124.419ZM22.7116 124.487L22.5507 123.734C21.5323 123.951 20.8999 124.088 20.4236 124.269L20.6969 124.989L20.9703 125.709C21.3097 125.58 21.8021 125.468 22.8724 125.24L22.7116 124.487ZM20.6969 124.989L20.4266 124.268C19.6045 124.576 18.8001 125.001 18.0321 125.503L18.4537 126.147L18.8752 126.792C19.5656 126.34 20.2691 125.971 20.9673 125.71L20.6969 124.989ZM18.4537 126.147L19.2237 126.147L19.1557 16.5362L18.3857 16.5367L17.6157 16.5372L17.6837 126.148L18.4537 126.147ZM18.3857 16.5367L19.1539 16.5889C19.2146 15.6964 19.6906 14.5753 20.4783 13.523C21.2604 12.4783 22.2861 11.5874 23.3385 11.1103L23.0205 10.409L22.7026 9.7077C21.3634 10.3149 20.1459 11.3973 19.2455 12.6002C18.3507 13.7954 17.7051 15.1961 17.6174 16.4844L18.3857 16.5367ZM24.9919 7.47217V6.70217C24.8885 6.70217 24.7903 6.70585 24.7146 6.70905C24.6255 6.71281 24.5904 6.71456 24.5717 6.71456V7.48456V8.25456C24.6333 8.25456 24.7218 8.25012 24.7795 8.24768C24.8506 8.24468 24.9223 8.24217 24.9919 8.24217V7.47217ZM24.5717 7.48456L24.5275 6.71583C22.1113 6.85465 19.8274 8.24547 18.1432 10.0566C16.4599 11.8666 15.2682 14.2108 15.151 16.4153L15.9199 16.4561L16.6888 16.497C16.7818 14.7486 17.7592 12.7308 19.2709 11.1053C20.7816 9.48079 22.7186 8.3623 24.6159 8.25329L24.5717 7.48456ZM15.9199 16.4561L15.1499 16.4566L15.2241 132.43L15.9941 132.43L16.7641 132.429L16.6899 16.4556L15.9199 16.4561ZM15.9941 132.43L16.6782 132.783C17.6808 130.842 19.7407 128.81 21.8395 128.02L21.5683 127.3L21.2971 126.579C18.7858 127.524 16.458 129.854 15.31 132.077L15.9941 132.43ZM21.5683 127.3L21.8401 128.02C21.9347 127.984 22.1933 127.918 22.6001 127.827C22.9877 127.74 23.4386 127.646 23.8938 127.547C24.3393 127.451 24.786 127.35 25.1308 127.257C25.3005 127.212 25.4668 127.162 25.6027 127.11C25.6685 127.085 25.752 127.05 25.8327 127.003C25.8732 126.979 25.9307 126.942 25.99 126.89C26.043 126.843 26.1427 126.745 26.2086 126.588L25.4987 126.29L24.7887 125.992C24.8484 125.85 24.9359 125.766 24.9709 125.735C25.0122 125.699 25.046 125.679 25.0575 125.672C25.08 125.659 25.0838 125.66 25.0513 125.672C24.9904 125.696 24.885 125.729 24.7304 125.77C24.4265 125.852 24.0138 125.945 23.5672 126.042C23.1301 126.137 22.656 126.236 22.2636 126.324C21.8904 126.408 21.514 126.497 21.2965 126.579L21.5683 127.3ZM25.4987 126.29H26.2687V7.55271H25.4987H24.7287V126.29H25.4987ZM25.4987 7.55271L26.1219 7.10059C25.9653 6.8846 25.751 6.80669 25.6762 6.78152C25.5757 6.74773 25.4789 6.73179 25.409 6.72296C25.2666 6.70496 25.112 6.70217 24.9919 6.70217V7.47217V8.24217C25.1004 8.24217 25.1745 8.24557 25.216 8.25081C25.238 8.2536 25.222 8.25353 25.1854 8.24123C25.1659 8.23467 25.1254 8.21964 25.0758 8.18987C25.0275 8.1609 24.9473 8.10401 24.8754 8.00484L25.4987 7.55271Z" fill="#00263A" mask="url(#path-60-inside-1_2002_1409)"/>
<path d="M107.396 125.014L107.585 140.23L106.552 141.29H23.8179C18.8219 140.454 16.322 136.771 16.3022 133.123C16.2825 129.471 18.7458 125.805 23.8403 125.016L23.853 125.014H107.396Z" fill="#00263A" stroke="#00263A" stroke-width="0.77"/>
<path d="M99.0567 114.796C101.708 113.52 103.84 117.919 100.849 119.072C98.105 120.131 96.455 116.042 99.0567 114.796Z" stroke="#00263A" stroke-width="2.1714" stroke-linecap="round" stroke-linejoin="round"/>
<path d="M98.8777 15.9544C101.381 14.5169 103.896 18.5009 101.183 20.0622C98.4698 21.6236 96.2451 17.4662 98.8777 15.9544Z" stroke="#00263A" stroke-width="2.1714" stroke-linecap="round" stroke-linejoin="round"/>
<path d="M30.1516 15.4276C32.8645 14.5788 34.4651 18.9469 31.5111 19.8886C28.5572 20.8304 27.3027 16.3198 30.1516 15.4276Z" stroke="#00263A" stroke-width="2.1714" stroke-linecap="round" stroke-linejoin="round"/>
<path d="M29.435 114.865C31.8946 113.316 35.2997 118.533 31.1778 119.195C28.4339 119.635 27.6738 115.974 29.435 114.865Z" stroke="#00263A" stroke-width="2.6026" stroke-linecap="round" stroke-linejoin="round"/>
<path d="M163.973 96.8198V58.0118H173.01C179.33 58.0118 182.046 60.9501 182.046 66.9377V69.3216C182.046 73.3133 180.771 75.8635 178.055 76.9723V77.0832C181.104 78.0257 182.102 80.9085 182.102 85.2883V92.1074C182.102 93.9924 182.157 95.3784 182.767 96.8198H176.558C176.225 95.8219 176.003 95.2121 176.003 92.052V84.9557C176.003 81.3521 174.95 80.1878 172.178 80.1878H170.071V96.8198H163.973ZM170.071 74.6438H172.289C174.562 74.6438 175.948 73.6459 175.948 70.5413V67.5475C175.948 64.7755 175.006 63.5558 172.843 63.5558H170.071V74.6438ZM194.649 96.8198V58.0118H211.281V63.5558H200.747V73.8122H209.119V79.3562H200.747V91.2758H211.281V96.8198H194.649ZM222.889 96.8198V58.0118H231.482L235.529 86.1753L239.576 58.0118H248.169V96.8198H242.404V67.4366L237.858 96.8198H232.757L228.211 67.4366V96.8198H222.889ZM261.036 96.8198V58.0118H277.668V63.5558H267.135V73.8122H275.506V79.3562H267.135V91.2758H277.668V96.8198H261.036ZM289.276 96.8198V58.0118H297.869L301.916 86.1753L305.964 58.0118H314.557V96.8198H308.791V67.4366L304.245 96.8198H299.144L294.598 67.4366V96.8198H289.276ZM327.424 96.8198V58.0118H336.627C342.947 58.0118 345.663 60.9501 345.663 66.9377V68.49C345.663 72.4817 344.444 74.9765 341.727 76.0853V76.1961C344.998 77.3049 346.273 80.1878 346.273 84.2904V87.6168C346.273 93.6043 343.113 96.8198 337.015 96.8198H327.424ZM333.522 73.8122H335.906C338.179 73.8122 339.565 72.8143 339.565 69.7097V67.5475C339.565 64.7755 338.622 63.5558 336.46 63.5558H333.522V73.8122ZM333.522 91.2758H337.015C339.066 91.2758 340.175 90.3333 340.175 87.4505V84.0686C340.175 80.465 339.011 79.3562 336.239 79.3562H333.522V91.2758ZM358.154 96.8198V58.0118H374.786V63.5558H364.252V73.8122H372.624V79.3562H364.252V91.2758H374.786V96.8198H358.154ZM386.394 96.8198V58.0118H395.43C401.75 58.0118 404.467 60.9501 404.467 66.9377V69.3216C404.467 73.3133 403.192 75.8635 400.475 76.9723V77.0832C403.524 78.0257 404.522 80.9085 404.522 85.2883V92.1074C404.522 93.9924 404.578 95.3784 405.188 96.8198H398.978C398.646 95.8219 398.424 95.2121 398.424 92.052V84.9557C398.424 81.3521 397.371 80.1878 394.599 80.1878H392.492V96.8198H386.394ZM392.492 74.6438H394.71C396.983 74.6438 398.369 73.6459 398.369 70.5413V67.5475C398.369 64.7755 397.426 63.5558 395.264 63.5558H392.492V74.6438ZM417.07 96.8198V58.0118H433.702V63.5558H423.168V73.8122H431.539V79.3562H423.168V91.2758H433.702V96.8198H417.07ZM445.309 96.8198V58.0118H454.623C460.722 58.0118 463.715 61.3937 463.715 67.6029V87.2287C463.715 93.438 460.722 96.8198 454.623 96.8198H445.309ZM451.408 91.2758H454.512C456.453 91.2758 457.617 90.2779 457.617 87.5059V67.3257C457.617 64.5537 456.453 63.5558 454.512 63.5558H451.408V91.2758Z" fill="#00263A"/>
</svg>
