<svg width="93" height="110" viewBox="0 0 93 110" fill="none" xmlns="http://www.w3.org/2000/svg">
<path d="M52.9622 108.185C49.6565 108.191 46.3822 107.545 43.3273 106.285C40.2724 105.024 37.4972 103.174 35.1609 100.841L27.5136 93.2115C24.3494 90.0682 22.5523 85.8086 22.511 81.3538L21.9906 39.3591C22.0476 37.5246 22.7844 35.7764 24.0584 34.4523C25.3324 33.1283 27.0531 32.3225 28.888 32.1907C30.7229 32.0589 32.5416 32.6105 33.9925 33.7388C35.4435 34.8671 36.4236 36.492 36.7435 38.2994L39.4413 58.6663L70.6678 27.512C71.3428 26.8236 72.1481 26.2756 73.0369 25.8998C73.9257 25.524 74.8804 25.3279 75.8457 25.3229C76.811 25.3178 77.7677 25.5039 78.6604 25.8703C79.5531 26.2368 80.364 26.7763 81.0463 27.4576C81.7285 28.139 82.2684 28.9486 82.6348 29.8396C83.0012 30.7307 83.1867 31.6853 83.1806 32.6484C83.1746 33.6115 82.9771 34.5637 82.5995 35.4501C82.2219 36.3365 81.6718 37.1393 80.9811 37.812L58.2091 60.5631C58.0091 60.7626 57.7378 60.8747 57.455 60.8747C57.1721 60.8747 56.9009 60.7626 56.7009 60.5631C56.5009 60.3636 56.3885 60.0929 56.3885 59.8107C56.3885 59.5285 56.5009 59.2579 56.7009 59.0584L79.5047 36.3073C80.0047 35.8324 80.4044 35.2625 80.6802 34.6312C80.956 33.9998 81.1024 33.3197 81.1106 32.6311C81.1189 31.9424 80.9889 31.259 80.7283 30.6213C80.4677 29.9835 80.0818 29.4042 79.5933 28.9176C79.1049 28.431 78.5237 28.0468 77.8841 27.7877C77.2444 27.5287 76.5593 27.4 75.8691 27.4092C75.1788 27.4184 74.4974 27.5654 73.865 27.8415C73.2325 28.1176 72.6619 28.5172 72.1867 29.0167L39.4095 61.6758C39.2721 61.8101 39.1007 61.9048 38.9137 61.9496C38.7266 61.9944 38.5309 61.9876 38.3473 61.9301C38.1605 61.867 37.995 61.7533 37.8693 61.6017C37.7437 61.4501 37.6628 61.2666 37.6357 61.0717L34.6617 38.575C34.4215 37.2961 33.7181 36.1502 32.6855 35.3555C31.6528 34.5609 30.3632 34.1731 29.0625 34.2661C27.7617 34.359 26.5407 34.9263 25.6321 35.8597C24.7236 36.7931 24.1911 38.0274 24.1361 39.3273L24.6565 81.322C24.6927 85.2245 26.2687 88.9556 29.0431 91.7068L36.6798 99.3364C41.0005 103.636 46.8541 106.051 52.9569 106.051C59.0596 106.051 64.9133 103.636 69.234 99.3364L84.3693 84.2467C85.3397 83.2785 85.8849 81.9654 85.8849 80.5961C85.8849 79.2269 85.3397 77.9138 84.3693 76.9456C83.3988 75.9774 82.0826 75.4335 80.7102 75.4335C79.3378 75.4335 78.0216 75.9774 77.0512 76.9456L74.8314 79.1603C74.6324 79.3577 74.3632 79.4684 74.0826 79.4684C73.802 79.4684 73.5328 79.3577 73.3338 79.1603C73.2342 79.0618 73.1552 78.9446 73.1013 78.8155C73.0474 78.6863 73.0196 78.5478 73.0196 78.4079C73.0196 78.268 73.0474 78.1295 73.1013 78.0004C73.1552 77.8713 73.2342 77.7541 73.3338 77.6556L75.5217 75.4515C76.1961 74.7623 77.0007 74.2135 77.8891 73.8368C78.7775 73.4601 79.732 73.263 80.6973 73.257C81.6626 73.2509 82.6195 73.436 83.5126 73.8016C84.4057 74.1671 85.2172 74.7058 85.9001 75.3864C86.583 76.0671 87.1238 76.8762 87.4911 77.7668C87.8584 78.6574 88.0449 79.6119 88.0399 80.575C88.0348 81.5381 87.8382 82.4905 87.4616 83.3773C87.0849 84.264 86.5357 85.0674 85.8456 85.7408L70.7422 100.841C68.4085 103.172 65.6367 105.02 62.5856 106.281C59.5346 107.541 56.2643 108.188 52.9622 108.185Z" fill="#00263A" stroke="#00263A" stroke-width="2.31"/>
<path d="M66.2271 69.756C66.0855 69.7568 65.9451 69.7297 65.8141 69.6761C65.683 69.6226 65.5637 69.5437 65.4632 69.4439C65.3624 69.3439 65.2823 69.2249 65.2277 69.0937C65.1731 68.9626 65.145 68.8219 65.145 68.6799C65.145 68.5378 65.1731 68.3972 65.2277 68.266C65.2823 68.1349 65.3624 68.0159 65.4632 67.9158L75.3401 58.0371C76.2823 57.047 76.8005 55.7279 76.7842 54.3611C76.7678 52.9943 76.2182 51.688 75.2526 50.7208C74.2869 49.7535 72.9816 49.2019 71.6151 49.1836C70.2486 49.1652 68.929 49.6816 67.9378 50.6226L58.0609 60.5121C57.8583 60.7148 57.5835 60.8286 57.297 60.8286C57.0105 60.8286 56.7357 60.7148 56.5331 60.5121C56.3305 60.3095 56.2167 60.0347 56.2167 59.7481C56.2167 59.4615 56.3305 59.1867 56.5331 58.984L66.41 49.1053C67.7968 47.7182 69.6777 46.939 71.6389 46.939C73.6002 46.939 75.4811 47.7182 76.8679 49.1053C78.2547 50.4923 79.0338 52.3736 79.0338 54.3352C79.0338 56.2968 78.2547 58.1781 76.8679 59.5652L66.991 69.4439C66.8905 69.5437 66.7712 69.6226 66.6402 69.6761C66.5091 69.7297 66.3687 69.7568 66.2271 69.756Z" fill="#00263A" stroke="#00263A" stroke-width="2.31"/>
<path d="M74.1244 79.3629C73.9131 79.3641 73.7061 79.3037 73.53 79.1893C73.3538 79.075 73.2165 78.9119 73.1354 78.7208C73.0544 78.5298 73.0333 78.3195 73.0749 78.1166C73.1164 77.9138 73.2188 77.7277 73.3689 77.582L79.5943 71.4896C80.5248 70.5301 81.0355 69.2528 81.0174 67.93C80.9992 66.6073 80.4537 65.3438 79.4972 64.4091C78.5407 63.4744 77.2489 62.9424 75.8973 62.9266C74.5457 62.9107 73.2412 63.4123 72.2621 64.3244L67.0477 69.4275C66.8473 69.6236 66.5755 69.7338 66.2921 69.7338C66.0087 69.7338 65.7369 69.6236 65.5366 69.4275C65.3362 69.2314 65.2236 68.9654 65.2236 68.6881C65.2236 68.4107 65.3362 68.1447 65.5366 67.9486L70.751 62.8455C71.4302 62.1809 72.2365 61.6536 73.1239 61.2939C74.0113 60.9342 74.9624 60.749 75.9229 60.749C76.8834 60.749 77.8345 60.9342 78.7219 61.2939C79.6093 61.6536 80.4156 62.1809 81.0948 62.8455C81.774 63.5102 82.3127 64.2993 82.6803 65.1678C83.0479 66.0362 83.2371 66.967 83.2371 67.907C83.2371 68.847 83.0479 69.7778 82.6803 70.6462C82.3127 71.5147 81.774 72.3037 81.0948 72.9684L74.8694 79.0609C74.6712 79.2533 74.4036 79.3618 74.1244 79.3629Z" fill="#00263A" stroke="#00263A" stroke-width="2.31"/>
<path d="M62.147 15.3198C61.8338 15.3511 61.521 15.2567 61.2773 15.0574C61.0337 14.8581 60.8792 14.5701 60.8479 14.2569C60.8166 13.9437 60.911 13.6309 61.1103 13.3872C61.3097 13.1436 61.5976 12.9891 61.9108 12.9578L90.1719 7.21822C90.4851 7.15557 90.8104 7.21992 91.0761 7.3971C91.3419 7.57429 91.5264 7.84979 91.5891 8.16301C91.6517 8.47623 91.5873 8.8015 91.4102 9.06727C91.233 9.33305 90.9575 9.51755 90.6443 9.58019L62.395 15.3198H62.147Z" fill="#6B3529" stroke="#6B3529" stroke-width="2.31"/>
<path d="M84.3612 18.7209C84.1485 18.7198 83.9401 18.6613 83.7579 18.5515C83.5757 18.4418 83.4265 18.2849 83.3262 18.0974C83.2258 17.9099 83.1778 17.6988 83.1875 17.4863C83.1971 17.2739 83.264 17.0679 83.381 16.8903L88.7663 8.70608L80.582 3.32077C80.4522 3.23497 80.3406 3.12436 80.2537 2.9953C80.1667 2.86624 80.1062 2.72127 80.0754 2.56872C80.0447 2.41618 80.0444 2.25906 80.0746 2.1064C80.1048 1.95375 80.1649 1.80857 80.2513 1.6792C80.4245 1.42031 80.6929 1.24031 80.9982 1.17837C81.3034 1.11644 81.6207 1.17759 81.8811 1.34852L91.0338 7.38337C91.1636 7.46917 91.2752 7.57978 91.3621 7.70884C91.449 7.8379 91.5096 7.98287 91.5403 8.13542C91.5711 8.28796 91.5713 8.44508 91.5412 8.59774C91.511 8.75039 91.4509 8.89557 91.3644 9.02494L85.3296 18.1894C85.2237 18.3502 85.0801 18.4827 84.9113 18.5753C84.7426 18.668 84.5537 18.7179 84.3612 18.7209Z" fill="#6B3529" stroke="#6B3529" stroke-width="2.31"/>
<path d="M2.45999 27.6374C2.14677 27.6688 1.83394 27.5744 1.59031 27.375C1.34669 27.1757 1.19222 26.8878 1.1609 26.5745C1.12958 26.2613 1.22396 25.9485 1.4233 25.7049C1.62263 25.4612 1.91057 25.3068 2.22379 25.2755L30.473 19.465C30.7862 19.4008 31.1121 19.4636 31.379 19.6397C31.6459 19.8158 31.8319 20.0907 31.8961 20.4039C31.9603 20.7171 31.8975 21.043 31.7214 21.3099C31.5453 21.5768 31.2705 21.7628 30.9572 21.827L2.69619 27.6138L2.45999 27.6374Z" fill="#6B3529" stroke="#6B3529" stroke-width="2.31"/>
<path d="M11.6243 33.6721C11.398 33.6715 11.1766 33.6059 10.9865 33.4831L1.81026 27.4365C1.55137 27.2633 1.37137 26.9949 1.30944 26.6897C1.24751 26.3844 1.30866 26.0671 1.47958 25.8067L7.51444 16.6304C7.60023 16.5006 7.71084 16.389 7.8399 16.3021C7.96897 16.2151 8.11394 16.1546 8.26648 16.1238C8.41903 16.0931 8.57615 16.0928 8.7288 16.123C8.88146 16.1532 9.02664 16.2133 9.15601 16.2997C9.28901 16.3808 9.40465 16.4874 9.4963 16.6133C9.58794 16.7392 9.65377 16.8821 9.69 17.0335C9.72622 17.185 9.73212 17.3422 9.70736 17.4959C9.6826 17.6497 9.62767 17.7971 9.54574 17.9295L4.08957 26.1138L12.2856 31.5109C12.4154 31.5967 12.527 31.7073 12.614 31.8363C12.7009 31.9654 12.7615 32.1104 12.7922 32.2629C12.8229 32.4155 12.8232 32.5726 12.793 32.7252C12.7628 32.8779 12.7028 33.0231 12.6163 33.1525C12.5069 33.3144 12.3589 33.4466 12.1858 33.5373C12.0127 33.628 11.8197 33.6743 11.6243 33.6721Z" fill="#6B3529" stroke="#6B3529" stroke-width="2.31"/>
</svg>
